<?xml version="1.0" encoding="UTF-8"?><svg id="dynamite" xmlns="http://www.w3.org/2000/svg" viewBox="0 0 693.39 404.16"><defs><style>.cls-1{fill:#f5a9ab;opacity:.43;}.cls-2{stroke:#c1272d;stroke-miterlimit:10;stroke-width:2.97px;}.cls-2,.cls-3{fill:#ed1c24;}.cls-4{fill:#1a1a1a;}</style></defs><path class="cls-3" d="M460.71,355.04H153.67v49.13h307.04c4.24,0,7.68-11,7.68-24.56s-3.44-24.56-7.68-24.56Z"/><ellipse class="cls-2" cx="152.13" cy="379.6" rx="10.75" ry="23.03"/><polygon class="cls-1" points="396.23 374.99 325.61 373.46 184.37 376.53 184.37 373.46 186.91 367.32 270.34 367.32 396.23 365.78 396.23 370.39 396.23 374.99"/><polygon class="cls-1" points="454.57 374.99 440.24 373.46 411.58 376.53 411.58 373.46 412.1 367.32 429.03 367.32 454.57 365.78 454.57 370.39 454.57 374.99"/><path class="cls-4" d="M199.72,355.04c12.28,24.56,0,49.13,0,49.13h9.21c12.28-18.42,2.31-49.13,2.31-49.13h-11.52Z"/><path class="cls-4" d="M417.72,355.04c12.28,24.56,0,49.13,0,49.13h9.21c12.28-18.42,2.31-49.13,2.31-49.13h-11.52Z"/><ellipse class="cls-4" cx="152.13" cy="379.6" rx="4.61" ry="12.28"/></svg>