<?xml version="1.0" encoding="UTF-8"?><svg id="Layer_1" xmlns="http://www.w3.org/2000/svg" xmlns:xlink="http://www.w3.org/1999/xlink" viewBox="0 0 1920 1080"><defs><style>.cls-1{fill:#155d23;}.cls-2{fill:#afb74c;}.cls-3{fill:#f1dbb5;}.cls-4{fill:#be951d;}.cls-5{fill:#8e5f53;}.cls-6{fill:#f0d5a5;}.cls-7{fill:#b29968;}.cls-8{fill:#3e753c;}.cls-9{fill:#1a6a38;}.cls-10{fill:#dda77a;}.cls-11{fill:#033d2c;}.cls-12{fill:#4f816d;}.cls-13{fill:#072820;}.cls-14{fill:#b17a65;}.cls-15{fill:#053628;}.cls-16{fill:#503940;}.cls-17{fill:#f8dba8;}.cls-18{fill:#8bac90;}.cls-19{fill:#fae4a7;}.cls-20{fill:#624448;}.cls-21{fill:#eae3af;}.cls-22{fill:#2e7b53;}.cls-23{fill:#33651d;}.cls-24{fill:#0b4f2e;}.cls-25{fill:#f9eedc;}.cls-26{fill:#8b5a51;}.cls-27{fill:#568f60;}.cls-28{fill:#e8b58d;}.cls-29{fill:#d19a1c;}.cls-30{fill:#e3b385;}.cls-31{fill:none;}.cls-32{fill:#f7d9b5;}.cls-33{fill:#0a4b31;}.cls-34{fill:#256726;}.cls-35{fill:#e7f0eb;}.cls-36{fill:#5f7a38;}.cls-37{fill:#edc090;}.cls-38{fill:#0d4c31;}.cls-39{clip-path:url(#clippath-1);}.cls-40{fill:#54945b;}.cls-41{fill:#c5c893;}.cls-42{fill:#9c6758;}.cls-43{fill:#c8bc39;}.cls-44{fill:#3b8236;}.cls-45{fill:#fadeaf;}.cls-46{fill:#9fc19b;}.cls-47{fill:#408030;}.cls-48{fill:#a2b041;}.cls-49{fill:#569e3c;}.cls-50{fill:#d59d6c;}.cls-51{fill:#0c4932;}.cls-52{fill:#07442e;}.cls-53{fill:#1d6a37;}.cls-54{fill:#0f5630;}.cls-55{fill:#f6eca6;}.cls-56{fill:#6e8e24;}.cls-57{fill:#ebba89;}.cls-58{fill:#063d29;}.cls-59{fill:#114e2f;}.cls-60{fill:#043a2b;}.cls-61{fill:#efc494;}.cls-62{fill:#868311;}.cls-63{fill:#0d441d;}.cls-64{fill:#e5b485;}.cls-65{fill:#9dc6a8;}.cls-66{fill:#0d5424;}.cls-67{fill:#1b6731;}.cls-68{fill:#c09d2f;}.cls-69{fill:#fcddb2;}.cls-70{fill:#0a481b;}.cls-71{fill:#a8af6c;}.cls-72{fill:#715046;}.cls-73{fill:#fbddb1;}.cls-74{fill:#e0b27d;}.cls-75{fill:#e1c48c;}.cls-76{fill:#d4dac6;}.cls-77{fill:#90bd3d;}.cls-78{fill:#f1e4a5;}.cls-79{fill:#644c4c;}.cls-80{fill:#0f4c2c;}.cls-81{fill:#e5d892;}.cls-82{fill:#215543;}.cls-83{fill:#79504b;}.cls-84{fill:#1e6922;}.cls-85{fill:#f7ebb1;}.cls-86{fill:#c18b27;}.cls-87{fill:#327c2c;}.cls-88{fill:#509b2f;}.cls-89{fill:#e7b47e;}.cls-90{fill:#517d32;}.cls-91{fill:#f6e0bb;}.cls-92{fill:#0e522e;}.cls-93{fill:#bfbe7b;}.cls-94{fill:#e9b989;}.cls-95{fill:#593d45;}.cls-96{fill:#f6dea7;}.cls-97{fill:#0b4932;}.cls-98{fill:#246f3c;}.cls-99{fill:#295936;}.cls-100{fill:#c58d27;}.cls-101{fill:url(#linear-gradient);}.cls-102{fill:#9eb439;}.cls-103{fill:#084e28;}.cls-104{clip-path:url(#clippath);}.cls-105{fill:#7b5855;}.cls-106{fill:#175e26;}.cls-107{fill:#46893d;}.cls-108{fill:#277c39;}.cls-109{fill:#bcc08c;}.cls-110{fill:#053d2c;}.cls-111{fill:#4a3b43;}.cls-112{fill:#07462d;}.cls-113{fill:#e6ecb8;}.cls-114{fill:#77a96a;}</style><clipPath id="clippath"><rect class="cls-31" x="959.79" y="366.69" width="960" height="712.72"/></clipPath><linearGradient id="linear-gradient" x1="1173" y1="881.48" x2="1203.75" y2="930.37" gradientUnits="userSpaceOnUse"><stop offset="0" stop-color="#227537"/><stop offset="1" stop-color="#053a29"/></linearGradient><clipPath id="clippath-1"><rect class="cls-31" y="276.18" width="960" height="928.48"/></clipPath></defs><g class="cls-104"><g id="Generative_Object"><g id="Background"><path class="cls-69" d="M1005.72,859.5l21.97,43.03c-14.13-10.16-32.92-22.27-56.4-25.26,20.32,11.36,36.58,30.45,54.25,43.42-5.41-2.03-19.73-6.61-24.68-1.78-5.92,5.78,14.01,13.52,16.11,14.04-5.09,2.23-50.96.81-52.76,5.84-2,5.59,40.87,5.76,48.68,5.81,71.71.46,142.54-1.5,213.59-5.6,3.78-.22,7.77-.98,9.1-2.95-5.03-2.07-10.67-.55-14.33-2.5,15.84-7.33,21.16-23.76,6.92-29.1-5.99-2.25-11.56-1.13-18.85-.27,3.56-4.32,14.27-16.64,5.43-18.84-2.7-.67-5.74-.19-7.94.67-.81-.89.22-1.56,1.99-1.56,1-2.32,4.11-3.15,8.22-3.16l68.51-.22c19.84-.06,38.72.73,58.65-.04,2.01-.08,1.84-2.25,1.65-2.89l6.67-.13c.98-.02,2.08.11,3.04,0,4.93-.58,9.88.16,16.58-.24,6.27-7.72,11.16-15.69,17.84-22.9,1.1.46,1.03-.89,2.05-.9l47.16-.33c1.34,0,4.43-1.06,4.53-1.86s-1.91-2.42-2.82-3.79c1.58-1.05,2.87.34,3.24.93.48.76-1.47,2.95,1.62,3.5,1.74-3-2.38-4.79-1.13-7.93l6.54,10.69c2.96-.06,5.71-.2,8.08-.58,1.25,5.98,3.92,12.57,3.17,19.45l-9.75-13.02,7.97,20.7c1.12-.19-16.06-22.62-17.16-18,3.53,3.09,6.43,5.44,6.9,8.27-2.36-.43-2.41-2.35-5.26-2.12,5.64,4.97,8.83,10.4,11.57,16.73l31.17,1.55c2.75-3.29,6.3-5.65,6.83-9.28.57-3.93,6.26-6.13,6.36-10.38-5.84,3.97-7.09,8.99-11.36,14.3-3.01-8.14,1.13-18.63,4.95-25.04l82.35,6.33,11.43,21.4-13.31-10.82c-2.63-.03,13.39,13.33,13.35,16.21-13.88.95-27.77-1.29-42.74,1.12,16.56,1.91,32.05.78,46.98.06,17.07-.82,35.24,2.31,52.37-.84,8.1-2.54,14.76-8.68,23.91-10.67-5.17-2.1-10.58,4.54-17.64,4.95-.35-1.48,1.97-1.71,1.32-2.68,2.02.43,5.01-.98,4.09-3.03-1.78.95-3.85,1.69-4.09,3.03-3.18.3-4.91,2.55-9.23,2.17,10.52-9.13,13.03-10.73,21.98-17.23,11.68,1.49,23.81,1.43,35.74,1.85,1.2-.11,2.46,1.86,2.98.07l1.66.02c1.6.8,3.77,1.19,5.48.36-.17.74,1.37.83,1.43-.02,1.92,1.2,4.89.07,6.97.61,2.43.62,5.05-.25,7.23-.04,6.52.62,13.53,1.24,20.09.35.38.7,1.69,1.45,2.86,1.5.97.04,2.25.21,2.99-.28.61-.41.63-.38,1.2-.02,8.03,1.35,16.6-.09,24.57.15l183.98,5.47c40.94,1.22,79.33-.15,120.26-1.81l223.78-9.06c3.02,3.89,7.96,7.58,10.31,12.15.26.5-2.43,1.47-1.31,2.17-.31-.2,10.44,9.64,9.16,10.21-6.53-3.11-12.31-6.28-20.48-6.83,5.94,4.59,13.34,7.06,18.3,11.31-4.8,1.84-39.53.4-45.81,5.6,12.18,2.57,23.32,3.14,36.03,3.48,62.21,1.69,123.4.43,185.37-2.66,11.69-.58,22.2-.55,33.42-3.84-7.23-2.71-13.98-2.45-20.31-2.82,7.55-10.47,14.8-21.07,23.97-30.72,14.18,1.42,28.89,1.66,43.19.91,2.05-.12,2.54,1.66,4.27,1.96.19,1.82,2.09,3.34,3.22,5.71,10.09.96,20.07,1.24,29.34.4l3.88-7.21c10.88-1.9,37.93.22,48.52-1.46.14,4.91,10.29,7.03,12.69,10.9,9.81,15.84,12.7,32.28,18.88,47.93-1.64.12-3.38.42-5.03.25.58-1.04-1.4-.84-3.38-.89-.47-3.67-5.81-5.28-8.15-7.42-10.82-9.86-40.96-16.7-55.11-6.68-5.48,3.88-6.19,8.64-6.15,13.38-15.34,1.43-31.03,6.44-40.53,13.81-4.05,3.14-8.98,6.33-8.4,11.02-17.75-.56-36.09-.12-55.12,3.05,19.52,2.92,38.44,3.33,58.19,3.41l52.81.21,74.07-.93c1.92.71.98,2.45,2.81,2.65,6.62,17.22,13.92,34.51,17.3,53.07-4.48-4.16-3.89-9.26-6.81-14.12-5.97-9.92-9.82-19.41-13.03-30.08-2.74,3.72,2.33,6.8.71,11.09l-10.95-11.56c-2.16-2.28-3.67-5.18-8.38-6.55,8.92,9.49,16.39,19.12,20.41,30.32,3.37,9.38,7.33,18.4,9.55,28.2l-12.58-18.84c-4.18-6.27-7.51-12.41-14.56-17.59,7.17,11.29,13.26,21.99,17.12,34.43-10.07-6.89-16.14-14.96-28.6-20.9l21.09,27.37c-6.17-4.92-12.69-8.82-20.86-10.54-3.88-.82-8.16.19-11.52-1.45,3.62-4.01,7.38-8.09,11.38-11.8-9.88,4.49-14.84,11.03-22.7,15.51-1.24.28-2.22-.85-1.78-1.8l6.94-14.94c.81-1.74,4.12-3.45,2.46-5.78-2.46.12-12.98,22.66-13.36,18.31,3.57-6.24,5.03-11.92,6.64-18.39l-16.01,27.36c-1.26-12.95,2.04-20.25,3.57-33.47.75-6.45,1.7-12.37,4.7-18.56-3.5-2.35-9.05,19.23-10.93,20.59l-1.84-5.86c-.69,3.36-.73,6.59-2.84,10.37l-2.41-34.52c-1.98,4.21-.79,8.43-1.5,12.88l-5.96,37.5c-3.64-12.85-6.58-24.42-11.74-37.3l1.79,15.9-9.25-22.56c2.75,15.79,6.61,30.62,6.7,46.75-7.14-16.73-16.94-36.2-28.84-51.75,4.8,13.06,13.68,24.74,15.94,39.87.88,4.02-9.39-13.88-10.61-14.44-1.45,4.14,3.7,6.37,5.11,9.41,3.65,7.86,6.46,15.47,8.3,24.71-7.05-5.25-17.26-16.92-29.37-22.8,6.24,5.98,14.18,10.81,17.09,17.77-.12,1.25-2.44.88-4.46.94l-114.44,3.85c-128.52,4.32-255.85,9.99-383.99,19.32l-213,15.51c-139.9,10.19-278.7,19.75-418.42,26.51-2.96.14-6.4.27-7.22,1.45h-484.29v-233.83l32.79-1.62c.95-.05,1.71-.51,1.42-.9,5.49,4.73,8.76,10.74,11.69,16.48Z"/><path class="cls-64" d="M2879.82,1005.13v74.23h-1435.71c.82-1.18,4.26-1.3,7.22-1.45,139.72-6.76,278.51-16.32,418.42-26.51l213-15.51c128.14-9.33,255.47-15,383.99-19.32l114.44-3.85c2.02-.07,4.34.31,4.46-.94,1.65,3.93,8.05,7.11,8.89,12.35-6.07-3.1-10.52-7.16-18.1-9.53,5.49,4.75,12.84,7.49,16.01,12.61-5.63.95-54.8,1.96-54.84,6.21-.04,3.64,34.09,4.89,40.98,5.12,67.3,2.24,194.78,2.6,259.48-3.18,3.96-.35,8.02-1.02,10.62-3.06-6.13-3.57-45.4-4.93-53.24-4.98-.94,0-.97,1.78-1.97,1.92-.5.07-1.37-.31-.6-.85,10.13-8.1,21.96-15.2,33.75-22.27l53.23-1Z"/><path class="cls-91" d="M1029.82,843.56c8.84,20.44,15.35,41.12,20.05,63.28-4.49-4.39-8.7-8.61-12.43-13.37l-23.05-29.39-14.71-19.4c4.12-1.85,24.01-1.09,30.14-1.12Z"/><path class="cls-109" d="M1108.43,783.63c.27,3.06-2.4,4.34-4.14,5.01-2.74,1.05-6.22.72-7.95-.67-2.14-1.72-3.5-3.63-1.24-6.1,1.58-1.73,2.8-5.67,7.61-4.71,3.33.66,5.51,4.07,5.72,6.48Z"/><path class="cls-13" d="M999.68,844.68l14.71,19.4c-1.3,1.51-5.32-5.3-5.41-5.75-.33-1.72-2.74-.18-2.13.55.28.33-1.01.26-1.12.62-2.93-5.75-6.21-11.75-11.69-16.48l-2.18-6.1,7.83,7.77Z"/><path class="cls-27" d="M1704.1,869.66c-.52,1.79-1.78-.18-2.98-.07.91-2.45-2.37-4.14-4.06-6.31l-3.55-4.58c-.31-.4-1.72-.3-2.37-.53-1.33-.45,2.13-6.94,12.96,11.49Z"/><path class="cls-41" d="M1478.41,856.69c-1.02-.21-1.36,1.08-2.34.32-.5-3.76.96-6.61,1.56-9.72,1.75,3.52.25,6.45.78,9.4Z"/><path class="cls-61" d="M1022.56,934.33c1.16.29,4.17.79,5.48.79l93.39.32c1.23,0,2.71-.41,3.88-.07s2.2-.01,3.3-.01l83.97.03c4.3,0,5.93-.57,8.67-1.84,3.67,1.95,9.31.43,14.33,2.5-1.34,1.97-5.32,2.73-9.1,2.95-71.05,4.1-141.89,6.06-213.59,5.6-7.81-.05-50.69-.22-48.68-5.81,1.8-5.03,47.66-3.6,52.76-5.84l5.59,1.38Z"/><path class="cls-57" d="M1446.4,1035.36c5.94.35,11.6.44,17.65.45l69.78.12c-.16,1.21-1.27,2.54-4.09,2.61l-106.97,2.49c-21.34.5-41.34.07-62.32-2.17,12.5-2.87,76.92-4.03,85.95-3.51Z"/><path class="cls-105" d="M1255.79,989.84c-.78,2.92-44.85.95-50.33,1.16,8.79-1.55,10.54-13.87,29.37-13.46,10.88.23,22.44,6.78,20.96,12.3Z"/><path class="cls-28" d="M1282.67,1047.67c-16.16-.54-22-1.64-40.69-.86-1.02-3.89,2.97-5.85,4.85-8.45,12.38-3.28,32.41.33,35.84,9.31Z"/><path class="cls-42" d="M1246.83,1038.36c-1.88,2.6-5.87,4.56-4.85,8.45,18.69-.78,24.53.32,40.69.86.63,1.65-.31,2.44-2.54,2.54-18.15.8-36.1.71-54.98-.23.1-6.42,16.2-11.51,21.68-11.62Z"/><path class="cls-89" d="M1588.44,890.88c1.38.04,2.47,1.65,4.24,1.18-14.93.72-30.42,1.85-46.98-.06,14.96-2.4,28.86-.16,42.74-1.12Z"/><path class="cls-95" d="M1682.86,910.46c-4.97,1.79-10.6,1.17-15.89.61-.18-2.68,3.13-4.65,6.45-5.01,3.71-.4,7.4.47,9.45,4.4Z"/><path class="cls-16" d="M1853.3,969.05c-5.05,1.42-10.19.81-15.96.47.32-2.64,3.66-4.16,6.16-4.42,4.06-.42,7.43.17,9.8,3.95Z"/><path class="cls-5" d="M1117.48,1046c-3.37,1.29-6.83,1.06-10.45.44-.9-1.76,1.57-3.06,3.55-3.5,2.65-.59,5.28.08,6.9,3.06Z"/><path class="cls-36" d="M1451.25,883.58c-3.03-1.19-5.5-2.49-7.38-5.36,3.47.88,7.15,3,7.38,5.36Z"/><path class="cls-23" d="M1451.25,883.58c2.2.47,3.03,1.62,4.47,2.5-2.26.85-2.77-.05-3.77-.61-.82-.47-.87-1.07-.7-1.88Z"/></g><path class="cls-2" d="M1383.89,819.55c.83-.12,1.79.05,1.65.72-3.47,10.38-12.86,25.29-12.22,37.44,7.98-8.63,10.75-19.08,19.16-25.36-5.78,10.79-13.92,20.93-16.96,33.81l10.9-14.37c1.33-1.75,1.56-4.42,4.87-5.12-.92,2.71-3.36,4.02-2.44,6.37,1.24-1.97,13.51-10.91,8.26-4.71-2.87,2.24-5.27,4.49-7.17,6.54-6.67,7.21-11.57,15.18-17.84,22.9-6.7.4-11.64-.34-16.58.24-.97,0-6.05-18.45-10.02-15.32,2.37-.61,3.22-1.75,4.54-3.46,3.07,1.28,1.84,3.2,3.53,4.87-.24-3.1,1.56-5.82-.96-8.27-.92-.89-3,.4-3.79.93-1.04.7,1.2,2.24-1.49,3.02-.42-3.84-2.99-6.14-4.28-8.78-1.39-2.84-3.3-5.7-3.1-9.33,5.16,3.64,2.51,8.91,9.11,13.64,4.19-4.19-5.48-12.67-.99-13.66l8.21,19.14c3.96-.87,1.23-2.42,1.11-3.63l-1.2-11.89c-.82-8.15.03-11.29-2.28-17.37,1.02.16,1.98-.58,2.96-.13-.52.91,3.28,28.58,5.09,31.79l9.69-47.58c3.11-.8-1.4,16.72-1.2,16.38.6-1.01-4.98,24.83-2.13,26.65l13.15-29.98c.83-1.9,3.69-3.6,2.41-5.48Z"/><path class="cls-86" d="M1356.88,827.77c-.98-.45-1.94.29-2.96.13-4.48-4.2-4.74-10.59-.84-16,6.07,4.72,6.76,10.71,3.8,15.87Z"/><path class="cls-29" d="M1385.53,820.27c.15-.67-.82-.84-1.65-.72-1.5-1.4-5.28-3.88-2.76-5.55,1.04-.69,4.05-2.4,5.84-2.59,5-.51,6.33,2.8,5.54,5.67-.55,1.99-3.92,2.58-6.97,3.19Z"/><path class="cls-100" d="M1379.4,801.77c.91,2.82-1.67,7.5-6.32,6.92s-3.8-5.54-2.13-7.53c1.29-1.54,2.61-1.95,3.69-2.04,2.56-.2,4.02.38,4.75,2.65Z"/><path class="cls-90" d="M1494.61,857.77c-3.82,6.41-7.96,16.9-4.95,25.04,4.27-5.31,5.52-10.32,11.36-14.3-.1,4.25-5.79,6.44-6.36,10.38-.53,3.63-4.07,5.99-6.83,9.28l-31.17-1.55c-2.74-6.33-5.94-11.76-11.57-16.73,2.85-.23,2.9,1.68,5.26,2.12-.47-2.83-3.37-5.18-6.9-8.27,1.11-4.62,18.28,17.81,17.16,18l-7.97-20.7,9.75,13.02c.75-6.88-1.92-13.48-3.17-19.45-.87-.52-.77-.76,0-.82.62-.36,1.08-.97,2.03-.83l6.5,22.33c2.03-4.77-1.62-9.29-.25-13.92,1.62-5.47.61-10.08-.53-14.91h2.86c.13,4.27-.31,7.97,1.25,12.14,1.9,5.06-.7,10.22,2.65,14.93,1.16-5.92,3.05-11.26,2.35-16.52.98.76,1.32-.54,2.34-.32.11.59-.02.88-.04,1.02-.35,3.92-2.76,7.35.46,11.42-.73,2.45,3.92,1.7,1.19-.47,1.9-2.98,2.62-5.89,3.35-9.28l1.22,15.15c1.62-3.15,3.28-6.02,4.04-9.15-2.2-.59-1.99-1.56.44-1.06,2.08-1.6.85-4.29,1.95-5.92,3.02-4.47,6.97-17.19,12.33-23.18,2.44,2.05-.98,3.39-1.65,5.01-2.52,6.01-6.18,11.64-7.09,17.54Z"/><path class="cls-21" d="M1491.02,858.39c-1.1,1.63.13,4.32-1.95,5.92-2.43-.49-2.63.47-.44,1.06-.76,3.13-2.42,6-4.04,9.15l-1.22-15.15c-.73,3.39-1.46,6.3-3.35,9.28,2.74,2.18-1.91,2.92-1.19.47-3.22-4.07-.8-7.5-.46-11.42,1.1.21,2.51.33,3.53-.16s.05-1.59,1.68-3.27c2.01,2.18,5.08,2.8,7.44,4.12Z"/><path class="cls-43" d="M1469.82,846.46h-2.86c-1.09-4.62-.05-9.51-2.19-13.78-.73-1.46-5.22-3.39-4.52-4.95s.05-4.59,3.98-4.97c4.3-.42,5.43,3.15,6.28,4.86.95,1.91-3.91,3.85-3.62,5.63.61,3.75,2.8,9.38,2.92,13.22Z"/><path class="cls-93" d="M1461.25,852.96c-.95-.14-1.41.47-2.03.83-1.23-6.27-6.12-12.02-5.8-18.75,3.85,6.21,6.14,12.15,7.82,17.92Z"/><path class="cls-32" d="M1343.06,851.02c1.29,2.64,3.85,4.94,4.28,8.78,2.69-.79.45-2.32,1.49-3.02.79-.53,2.87-1.83,3.79-.93,2.52,2.45.73,5.17.96,8.27-1.69-1.68-.46-3.59-3.53-4.87-1.33,1.72-2.17,2.85-4.54,3.46,3.97-3.13,9.05,15.32,10.02,15.32-.97.11-2.06-.02-3.04,0-.51-.2.49-.91-.42-1.89-12.6,1.71-4.02-6.35-14.64-10.98,1.55,4.59-5.92,11.64-2.77,12.5,3.75,1.02,7.77.57,11.16.5.19.64.37,2.81-1.65,2.89-19.93.77-38.81-.03-58.65.04l-68.51.22c-4.11.01-7.22.84-8.22,3.16-1.77,0-2.8.67-1.99,1.56-2.18.85-3.68,2.16-6.67,2.83,6.69-17.27,17.52-32.6,32.79-48.04-19.12,8.09-29.69,20.21-42.54,31.78l18.16-37.65c12.96-3.94,21.2-22.92,24.64-30.97,1.15.56,2.15.05,3.45-.41,18.44-6.61,48.22-9.04,60.58,6.59l14.59,18.47c3.56,4.5,22.84,25.39,31.25,22.4Z"/><path class="cls-10" d="M1352.49,878.01l-6.67.13c-3.39.07-7.41.52-11.16-.5-3.15-.86,4.32-7.9,2.77-12.5,10.62,4.63,2.04,12.7,14.64,10.98.91.97-.1,1.69.42,1.89Z"/><path class="cls-73" d="M960,801.82l-.18,43.78,225.67,58.58s123.58-123.57-5.37-94.95c-128.96,28.62-220.12-7.41-220.12-7.41Z"/><path class="cls-58" d="M1075.53,786.95c-2.66-2.39-4.88,6.89-4.69,8.87l2.84,29.35,2.17,63.96c.51,15.18.18,29.47,2.29,44.74l41.34-.29c.83,0,.02-1.88.31-2.19.44-.47,1.52-.98,2.65-.62-.22,1.63-2.09,2.94-1,4.69l-93.39-.32c-1.31,0-4.33-.51-5.48-.79-1.67-2.27,19.95,2.03,18.01-2.6-4.3-3.98-8.88-8.72-15.04-11.04-17.67-12.98-33.93-32.06-54.25-43.42,23.48,2.99,42.27,15.1,56.4,25.26l-21.97-43.03c.11-.36,1.4-.29,1.12-.62-.61-.73,1.81-2.27,2.13-.55.09.45,4.11,7.26,5.41,5.75l23.05,29.39c3.73,4.75,7.95,8.98,12.43,13.37-4.7-22.16-11.21-42.84-20.05-63.28-4.9-11.34-10.24-22.59-16.89-34.22-2.19-3.82-7.28-13.22-2.25-14.97,15.27-5.31,42.73,58.46,46.14,65.95,1.22,2.69,2.01,4.62,1.72,7.65,3.12-1.4.52-3.32.47-4.83-.59-22.19.46-43.67,2.8-65.82-21.01-6.21-36.9-64.81-17.64-68.79,5.48-1.13,10.58,2.65,12.98,5.77,10.98,14.27,20.02,37.43,18.38,52.63Z"/><path class="cls-101" d="M1203.98,833.38c.43-1.01,2.47-1.68,4.47-3.62-.14,1.56.6,3.66.11,5.19l-18.16,37.65c12.84-11.57,23.41-23.69,42.54-31.78-15.27,15.45-26.09,30.78-32.79,48.04,2.99-.68,4.49-1.99,6.67-2.83,2.21-.86,5.25-1.34,7.94-.67,8.84,2.19-1.88,14.52-5.43,18.84,7.29-.86,12.86-1.98,18.85.27,14.24,5.35,8.92,21.77-6.92,29.1-2.74,1.27-4.37,1.84-8.67,1.84l-83.97-.03c-1.99-3.09,9.39-13.68,8.34-16.52,2.39-.05,11.1-15.01,11.41-17.76-3.01,1.73-11.91,16.4-11.41,17.76-1.5.03-11.64,14.97-11.65,16.53-1.18-.34-2.65.07-3.88.07-1.09-1.75.79-3.06,1-4.69,3.07-23.04,13.56-44.68,23.87-66.66,4.73-2.99,7.26-7.33,13.14-9.58,3.02.4,6.19.79,9.39.71l24.15-28.87c.59,4.32-4.78,6.87-6.72,10.58-12,22.88-19.68,38.88-21.67,63.53,1.85-4.03,4.5-7.86,5.93-12.36,2.05-6.43,1.88-24.03,13.59-19.47,6.77-11.89,14.83-23.39,19.87-35.25Z"/><path class="cls-15" d="M1075.53,786.95c-.17,1.57-.9,3.39-3.21,5.59,13.83,26.98,21.39,58.35,23.82,86.51l2.57-19.65c2.35-18,4.24-35.36,4.16-52.9,4.12,6.21,5.39,44.11,4.07,47.39-1.43,3.54-.8,7.25-1.28,10.98l-.94,7.37c-.29,2.27-2.19,4.69-2.09,11.82,0,.47,2.36,1.8,2.72.75,3.65-10.53,7.82-20.07,13.37-29.93.85-1.51.85-2.67,1.1-3.77.45-1.9,1.92-3.77,2.94-5.57,6.93-12.21,17.54-23.37,27.09-35.06l15.98-19.56c3.21-7.73-11.13,45.84-7.53,35.13-4.2,12.5-6.27,25.83-11.99,38.04-10.31,21.98-20.8,43.62-23.87,66.66-1.12-.36-2.21.15-2.65.62-.29.31.52,2.18-.31,2.19l-41.34.29c-2.11-15.27-1.78-29.56-2.29-44.74l-2.17-63.96-2.84-29.35c-.19-1.98,2.03-11.25,4.69-8.87Z"/><path class="cls-38" d="M1120.2,844.61c-.65,2.44-3.85,6.67-.38,6.5-.26,1.1-.25,2.26-1.1,3.77-5.55,9.86-9.72,19.41-13.37,29.93-.36,1.05-2.72-.28-2.72-.75-.1-7.13,1.8-9.55,2.09-11.82l.94-7.37c.48-3.73-.15-7.43,1.28-10.98,2.66-1.33,1.59-4.28,2.11-6.55,7.08-30.58,13.16-61.37,11.75-92.26-.18-3.85-2.52-7.59-.25-11.72,5.42,25.69,6.55,51.81,2.91,78.22-1.09,7.92-1.28,15.53-3.26,23.02Z"/><path class="cls-108" d="M1233.19,803.97c-3.44,8.04-11.68,27.03-24.64,30.97.49-1.52-.25-3.63-.11-5.19-2,1.94-4.04,2.61-4.47,3.62-2.35-.84-3.44-3.26-3-5.58,2.26-11.83,9.88-23.27,21.77-32.01,1.81-1.33,5.24-2.05,7.18-1.64,5.22,1.12,3.36,9.58,3.25,9.82Z"/><path class="cls-80" d="M1158.3,826.05c-3.59,10.71,10.74-42.86,7.53-35.13,4.03-4.94,8.9-10.88,9.65-17.18.48-4.03-7.03-8.67-3.32-13.36.56-.71,2.66-.4,3.06.26.21.34,1.06,1.6,1.85,1.49,5.01-1.16-2.45-6.79-.54-8.52,1.12-1.01,3.18,2.31,3.85,1.15,2.87-5.05,2.6-11.14,10.85-14.22,2.28,7.19.16,15.44-8.64,19.84-3.74,1.87-2.85,8.14-5.11,13.56,5.5-2.78,8.68-6.76,15.8-8.42-.99,3.16-11.2,12.56-16.32,14.21-11.48,14.74-12.89,31.87-18.67,46.34Z"/><path class="cls-46" d="M1122.76,845.54c-1.02,1.8-2.49,3.66-2.94,5.57-3.47.18-.27-4.05.38-6.5,1.16-.02,1.25,1.17,2.56.93Z"/><path class="cls-24" d="M1025.53,920.69c6.15,2.31,10.74,7.06,15.04,11.04,1.94,4.63-19.68.33-18.01,2.6l-5.59-1.38c-2.09-.52-22.02-8.26-16.11-14.04,4.95-4.83,19.26-.25,24.68,1.78Z"/><path class="cls-92" d="M1136.96,918.84c-.5-1.36,8.4-16.04,11.41-17.76-.31,2.75-9.02,17.71-11.41,17.76Z"/><path class="cls-92" d="M1128.62,935.36c-1.1,0-2.14.35-3.3.01,0-1.56,10.15-16.5,11.65-16.53,1.05,2.84-10.33,13.43-8.34,16.52Z"/><path class="cls-53" d="M1720.25,868.58c-.25.68-1.45,1.35-.61,2.06-2.08-.54-5.05.59-6.97-.61.89-2.78-2.09-6,.13-8.44,10.11-11.08-4.94-15.42,4.56-27.64,6.33,6.48-.1,17.43,2.84,26.55l3.5-5.76c.57,5.28-1.85,9.5-3.46,13.84Z"/><path class="cls-1" d="M1711.25,870.04c-1.71.83-3.88.44-5.48-.36.33-7.6-2.01-14.94-7.64-22.42,7.19,1,13.73,19.64,13.12,22.78Z"/><path class="cls-49" d="M1751.71,859.65c.51,1.98,3.21,12.34,2.3,12.5-.57-.36-.59-.39-1.2.02.39-.67-1.78-.76-1.96-1.59-1.07-7.7-4.9-14.33-8.26-22.13,5.47,2.88,8.09,7.16,9.13,11.21Z"/><path class="cls-40" d="M1734.1,857.6c-2.93,4.14-6.2,8.43-7.23,13-2.18-.21-4.8.66-7.23.04-.84-.7.35-1.38.61-2.06,7.42-.66,10.52-16.18,19.84-17.23-2.41,2.93-4.55,4.22-5.99,6.26Z"/><path class="cls-107" d="M1749.82,872.44c-1.17-.05-2.48-.8-2.86-1.5-2.64-4.83-8.01-8.75-11.43-13.35,3.34-.58,4.17,1.77,5.68,3.73,3.01,3.89,7.49,7.15,8.6,11.12Z"/><path class="cls-18" d="M1779.77,864.22c.03-.59.62-3.25,2.4-2.54,2.07.83-1.67,2.24-2.4,2.54Z"/><path class="cls-48" d="M1647.16,865.95c-2.24,6.1-8.02,11.27-8.99,17.48,2.61-1.59,3.53-2.25,3.51-.03,6.11-5.37,13.72-9.69,19.27-15.28,1.9-1.92,6.33-3.13,8.87-4.72-1.96,1.75-3.26,3.5-4.43,4.35-8.94,6.5-11.45,8.1-21.98,17.23,4.32.38,6.05-1.87,9.23-2.17.65.98-1.67,1.21-1.32,2.68,7.07-.41,12.47-7.05,17.64-4.95-9.14,1.99-15.81,8.13-23.91,10.67-17.13,3.16-35.3.02-52.37.84-1.77.47-2.86-1.14-4.24-1.18.04-2.88-15.98-16.24-13.35-16.21l13.31,10.82-11.43-21.4c-2.42-4.53-9.05-7.89-11.39-13.13,6.75,3.67,9.43,8.96,14.44,13.07,3.64,3,5.5,12.74,8.24,12.21,3.45,1.4-7.51-14.75-7.21-12.17-.44-.7-.04-1.79.78-2.71,3.91.93,2.52,5.83,6.99,5.51,1.74-.12,1.31,1.62,2.03,1.47.77-.16,3.62-.65,3.15-1.02-.66-.51-2.23-1.56-1.49-2.31,7.08-1.29-7.78-31.76-6.34-34.63l16.13,36.62c1.19-6.88,1.18-13.43-.39-19.83-.61-2.51-1.52-4.96.11-7.28,4.35,6.89-.27,9.72,6,17.74,1.97,2.52-2.38,5.75,2.71,8.04l.69-19.3c5.13-.32.62,11.65,3.39,14.09l1.25-11.59c1.76-16.36-9.54-6.94.28-31.34,1.1-2.72-.47-4.99,2.52-7.9,2.14,5.13,7.44,19.88,3.9,25.55l-4.07,6.53-.45,21.61c-.04,1.9,2.47,2.18,3.51.34,5.68-10.1,5.02-20.9,12.31-30.38-3.97,13.66-7.46,26.46-6.05,39.29.79-4.73,3.88-12.36,7.01-16.97.26,4.09-2.78,7.34-1.89,11.71-.64,2.33.23.66,2.81-.39,4.24-4.78,7.26-10.06,10.61-15.18,1.83-2.81,1.45-6.4,6.19-8.19l-11.3,20.76c.88.81,2.6.27,3.84.64,1.47-3.09,3.29-5.67,7.58-7.46-1.59,3.52-4.61,5.54-5.68,8.45Z"/><path class="cls-81" d="M1660.94,868.12c-5.54,5.59-13.16,9.91-19.27,15.28.02-2.22-.9-1.56-3.51.03.97-6.2,6.75-11.38,8.99-17.48.42,1.31,12.81,2.38,13.79,2.17Z"/><path class="cls-56" d="M1592.49,865.02c-.74.76.83,1.8,1.49,2.31.47.37-2.38.86-3.15,1.02-.72.15-.29-1.6-2.03-1.47-2.77-9.39-7.74-18.11-15.37-26.69,5.08-1.99,18.08,22.47,19.06,24.83Z"/><path class="cls-85" d="M1580.01,864.04c.35-.06.69-.04,1.03.04-.3-2.58,10.66,13.57,7.21,12.17-2.74.53-4.6-9.21-8.24-12.21Z"/><path class="cls-48" d="M1652.63,882.81c.24-1.34,2.31-2.08,4.09-3.03.92,2.05-2.07,3.46-4.09,3.03Z"/><path class="cls-114" d="M1779.77,864.22c-.28,1.96-3.31,3.86-2.39,6.44,2.59-2.22,4.98-4.29,8.5-6.68,1.67-.48,1.44.06,1.14,1.24-3.2,2.15-7.47,4.22-8.45,7.08-7.97-.24-16.54,1.19-24.57-.15.91-.16-1.79-10.52-2.3-12.5,2.95.65,5.53.63,5.92,3.61,3.73-5.11-.21-14.19,4.48-11.19,1.51.96-.91,7.92,3.84,9.38.15-5.42-1.57-10.26.31-15.08,1.86,4.63-.59,9.37,3.09,13.16,1.69.86,3.02-.03,3.26-.41.38-.61.41-1.07-1.21-1.94,3.61,1.94,2.32-7.47,5.7-5.81l-4.66,19.4,7.32-6.55Z"/><path class="cls-35" d="M1772.44,861.65c-.98.82-1.25,2.6-1.64,4.4-1.01-.9-1.82-1.92-2.33-2.81-.93-1.64.77-2.59,3.97-1.59Z"/><path class="cls-87" d="M1552.67,940.09c.89.18,1.56.49,2.86.98-12.64,19.45-19.81,40.56-26.18,62.74-.61,2.14-2.24,3.71-.17,5.08l3.25-10.34c3.91-12.42,12.04-23.87,19.71-35.51.74,5.97-4,10.52-5.83,16.11l-14.93,45.58c10.46-13.17,22.33-25.59,38.82-36.14.82-.53,1.17.86,1.13,1.24-.06.67-2.08.2-2.44.52-12.15,10.85-22.15,22.53-30.41,35.05,13.74-11.32,30.77-20.33,49.47-28.14.85,2.29-2.76,2.42-4.62,3.1-16.94,8.7-31.09,19.2-42.45,31,6.06-2.89,33.69-14,39.62-12.99-12.45,4.42-23.78,8.42-34.89,14.48-3.62,1.97-7.96,3.09-11.81,3.09l-69.78-.12c-.41-.76.93-1.19,1.3-1.8-.05.44.78,1.04.92.76.24-.48,3.47-.96,3.47-1.44l.12-9.43c.21-16.67-13.11-33.41-30.07-46.76,7.61,12.56,15.26,24,19.82,35.83,4.79,2.26-1.81,7.83.56,17.41.03,2.09-3.47,2.47-3.13.17-1.3-11.71-4.73-8.93-5.77-10.55.18-3.97-3.23-7.63-3.78-12.11-1.61-13.01-5.94-25.5-15.5-36.91-3.03-3.62-9.7-4.65-11.89-8.96,34.68,18.71,55.28,39.51,63.72,68.64,2.31-22.86-.77-39.55-12.87-60.92,7.4,6.73,10.66,14.95,14.52,23.21-2.43,2.36,3.9,2.34.38.18,1.98-5.74-1.02-10.56-1.23-15.94l8.64,22.51c2.85-4.07.56-8.67,3-13.03,1.82-3.24-.5-5.74.59-9,3.68,4.61.37,8.84,1.92,13.65,2.39-.8-.16-2.6,1.81-3.99l4.2,20.46c3.05-27.95,5.05-54.73,5.06-82.5,0-1.25-4.54-3.26,1.18-4.06.16,5.23.23,9.93.82,15.03,3.07,26.85,3.94,53.7,1.62,80.51-.16,1.9-2.02,3.74-.2,6.09,1.73-1.22,1.03-3.17,1.89-4.99l31.96-67.29c1.76-3.7,5.4-6.84,5.55-10.48Z"/><path class="cls-103" d="M1451.27,1020c1.04,1.63,4.48-1.16,5.77,10.55-.33,2.29,3.17,1.92,3.13-.17-2.38-9.58,4.23-15.15-.56-17.41-.52-.84.96-1.5,2.19-1.41,2.7.2-1.36.5,2.52,2.69-1.24,2.73,1.41,4.64,2.1,6.72,1.51,4.51-1.46,8.92-1.07,13.04-.37.61-1.71,1.04-1.3,1.8-6.05-.01-11.72-.11-17.65-.45-6.88-9.92-18.8-17.98-30.52-25.37,13.75,3.46,22.08,10.4,30.83,17.17-.07-3.59-18.51-20.84-12.82-23.03,10.22,3.57,13.7,10.13,17.37,15.86Z"/><path class="cls-62" d="M1555.54,941.08c-1.3-.49-1.97-.8-2.86-.98-3.23-.67-3.77-2.37-3.65-4.05.23-3.4,12.35-10.71,15.87-9.85,7.94,1.96.87,10.42-2.22,13.02-1.9,1.59-4.53,2.04-7.13,1.87Z"/><path class="cls-78" d="M1465.35,1034.02c-.39-4.12,2.58-8.53,1.07-13.04-.7-2.08-3.34-3.99-2.1-6.72-3.88-2.19.19-2.49-2.52-2.69-1.23-.09-2.72.56-2.19,1.41-4.56-11.83-12.21-23.27-19.82-35.83,16.96,13.35,30.28,30.09,30.07,46.76l-.12,9.43c0,.48-3.23.96-3.47,1.44-.14.28-.96-.33-.92-.76Z"/></g></g><g class="cls-39"><g id="Generative_Object-2"><g id="Background-2"><path class="cls-69" d="M-914.1,859.38l21.97,43.03c-14.13-10.16-32.92-22.27-56.4-25.26,20.32,11.36,36.58,30.45,54.25,43.42-5.41-2.03-19.73-6.61-24.68-1.78-5.92,5.78,14.01,13.52,16.11,14.04-5.09,2.23-50.96.81-52.76,5.84-2,5.59,40.87,5.76,48.68,5.81,71.71.46,142.54-1.5,213.59-5.6,3.78-.22,7.77-.98,9.1-2.95-5.03-2.07-10.67-.55-14.33-2.5,15.84-7.33,21.16-23.76,6.92-29.1-5.99-2.25-11.56-1.13-18.85-.27,3.56-4.32,14.27-16.64,5.43-18.84-2.7-.67-5.74-.19-7.94.67-.81-.89.22-1.56,1.99-1.56,1-2.32,4.11-3.15,8.22-3.16l68.51-.22c19.84-.06,38.72.73,58.65-.04,2.01-.08,1.84-2.25,1.65-2.89l6.67-.13c.98-.02,2.08.11,3.04,0,4.93-.58,9.88.16,16.58-.24,6.27-7.72,11.16-15.69,17.84-22.9,1.1.46,1.03-.89,2.05-.9l47.16-.33c1.34,0,4.43-1.06,4.53-1.86s-1.91-2.42-2.82-3.79c1.58-1.05,2.87.34,3.24.93.48.76-1.47,2.95,1.62,3.5,1.74-3-2.38-4.79-1.13-7.93l6.54,10.69c2.96-.06,5.71-.2,8.08-.58,1.25,5.98,3.92,12.57,3.17,19.45l-9.75-13.02,7.97,20.7c1.12-.19-16.06-22.62-17.16-18,3.53,3.09,6.43,5.44,6.9,8.27-2.36-.43-2.41-2.35-5.26-2.12,5.64,4.97,8.83,10.4,11.57,16.73l31.17,1.55c2.75-3.29,6.3-5.65,6.83-9.28.57-3.93,6.26-6.13,6.36-10.38-5.84,3.97-7.09,8.99-11.36,14.3-3.01-8.14,1.13-18.63,4.95-25.04l82.35,6.33,11.43,21.4-13.31-10.82c-2.63-.03,13.39,13.33,13.35,16.21-13.88.95-27.77-1.29-42.74,1.12,16.56,1.91,32.05.78,46.98.06,17.07-.82,35.24,2.31,52.37-.84,8.1-2.54,14.76-8.68,23.91-10.67-5.17-2.1-10.58,4.54-17.64,4.95-.35-1.48,1.97-1.71,1.32-2.68,2.02.43,5.01-.98,4.09-3.03-1.78.95-3.85,1.69-4.09,3.03-3.18.3-4.91,2.55-9.23,2.17,10.52-9.13,13.03-10.73,21.98-17.23,11.68,1.49,23.81,1.43,35.74,1.85,1.2-.11,2.46,1.86,2.98.07l1.66.02c1.6.8,3.77,1.19,5.48.36-.17.74,1.37.83,1.43-.02,1.92,1.2,4.89.07,6.97.61,2.43.62,5.05-.25,7.23-.04,6.52.62,13.53,1.24,20.09.35.38.7,1.69,1.45,2.86,1.5.97.04,2.25.21,2.99-.28.61-.41.63-.38,1.2-.02,8.03,1.35,16.6-.09,24.57.15l183.98,5.47c40.94,1.22,79.33-.15,120.26-1.81l223.78-9.06c3.02,3.89,7.96,7.58,10.31,12.15.26.5-2.43,1.47-1.31,2.17-.31-.2,10.44,9.64,9.16,10.21-6.53-3.11-12.31-6.28-20.48-6.83,5.94,4.59,13.34,7.06,18.3,11.31-4.8,1.84-39.53.4-45.81,5.6,12.18,2.57,23.32,3.14,36.03,3.48,62.21,1.69,123.4.43,185.37-2.66,11.69-.58,22.2-.55,33.42-3.84-7.23-2.71-13.98-2.45-20.31-2.82,7.55-10.47,14.8-21.07,23.97-30.72,14.18,1.42,28.89,1.66,43.19.91,2.05-.12,2.54,1.66,4.27,1.96.19,1.82,2.09,3.34,3.22,5.71,10.09.96,20.07,1.24,29.34.4l3.88-7.21c10.88-1.9,37.93.22,48.52-1.46.14,4.91,10.29,7.03,12.69,10.9,9.81,15.84,12.7,32.28,18.88,47.93-1.64.12-3.38.42-5.03.25.58-1.04-1.4-.84-3.38-.89-.47-3.67-5.81-5.28-8.15-7.42-10.82-9.86-40.96-16.7-55.11-6.68-5.48,3.88-6.19,8.64-6.15,13.38-15.34,1.43-31.03,6.44-40.53,13.81-4.05,3.14-8.98,6.33-8.4,11.02-17.75-.56-36.09-.12-55.12,3.05,19.52,2.92,38.44,3.33,58.19,3.41l52.81.21,74.07-.93c1.92.71.98,2.45,2.81,2.65,6.62,17.22,13.92,34.51,17.3,53.07-4.48-4.16-3.89-9.26-6.81-14.12-5.97-9.92-9.82-19.41-13.03-30.08-2.74,3.72,2.33,6.8.71,11.09l-10.95-11.56c-2.16-2.28-3.67-5.18-8.38-6.55,8.92,9.49,16.39,19.12,20.41,30.32,3.37,9.38,7.33,18.4,9.55,28.2l-12.58-18.84c-4.18-6.27-7.51-12.41-14.56-17.59,7.17,11.29,13.26,21.99,17.12,34.43-10.07-6.89-16.14-14.96-28.6-20.9l21.09,27.37c-6.17-4.92-12.69-8.82-20.86-10.54-3.88-.82-8.16.19-11.52-1.45,3.62-4.01,7.38-8.09,11.38-11.8-9.88,4.49-14.84,11.03-22.7,15.51-1.24.28-2.22-.85-1.78-1.8l6.94-14.94c.81-1.74,4.12-3.45,2.46-5.78-2.46.12-12.98,22.66-13.36,18.31,3.57-6.24,5.03-11.92,6.64-18.39l-16.01,27.36c-1.26-12.95,2.04-20.25,3.57-33.47.75-6.45,1.7-12.37,4.7-18.56-3.5-2.35-9.05,19.23-10.93,20.59l-1.84-5.86c-.69,3.36-.73,6.59-2.84,10.37l-2.41-34.52c-1.98,4.21-.79,8.43-1.5,12.88l-5.96,37.5c-3.64-12.85-6.58-24.42-11.74-37.3l1.79,15.9-9.25-22.56c2.75,15.79,6.61,30.62,6.7,46.75-7.14-16.73-16.94-36.2-28.84-51.75,4.8,13.06,13.68,24.74,15.94,39.87.88,4.02-9.39-13.88-10.61-14.44-1.45,4.14,3.7,6.37,5.11,9.41,3.65,7.86,6.46,15.47,8.3,24.71-7.05-5.25-17.26-16.92-29.37-22.8,6.24,5.98,14.18,10.81,17.09,17.77-.12,1.25-2.44.88-4.46.94l-114.44,3.85c-128.52,4.32-255.85,9.99-383.99,19.32l-213,15.51c-139.9,10.19-278.7,19.75-418.42,26.51-2.96.14-6.4.27-7.22,1.45h-484.29v-233.83l32.79-1.62c.95-.05,1.71-.51,1.42-.9,5.49,4.73,8.76,10.74,11.69,16.48Z"/><path class="cls-64" d="M960,1005.01v74.23H-475.71c.82-1.18,4.26-1.3,7.22-1.45,139.72-6.76,278.51-16.32,418.42-26.51l213-15.51c128.14-9.33,255.47-15,383.99-19.32l114.44-3.85c2.02-.07,4.34.31,4.46-.94,1.65,3.93,8.05,7.11,8.89,12.35-6.07-3.1-10.52-7.16-18.1-9.53,5.49,4.75,12.84,7.49,16.01,12.61-5.63.95-54.8,1.96-54.84,6.21-.04,3.64,34.09,4.89,40.98,5.12,67.3,2.24,194.78,2.6,259.48-3.18,3.96-.35,8.02-1.02,10.62-3.06-6.13-3.57-45.4-4.93-53.24-4.98-.94,0-.97,1.78-1.97,1.92-.5.07-1.37-.31-.6-.85,10.13-8.1,21.96-15.2,33.75-22.27l53.23-1Z"/><path class="cls-73" d="M960,801.76v203.26l-53.23,1c-15.04,2.05-27.1,10.87-37.83,17.47-1.75-1.94,2.85-2.58,3.75-3.6,5.93-6.69,13.58-12.26,18.65-19.34-8.74,5.78-16.48,11.75-24.04,18.41l11.86-16.65c3.36-4.72,7.17-8.86,7.77-13.91-10.04,8.16-17.21,17.08-25.11,27,1.65-7.07,7.29-13.32,10.97-20.62,8.16-16.17,18.89-30.51,33.21-44.64-16.34,10.73-24.94,24.47-35.89,37.57,2.49-12.36,11.24-22.46,16.76-34.02-14.94,14.9-21.9,38.68-35.28,56.21,2.63-12.82,9.4-23.79,14.88-37.65l-13.55,15.58c1.68-11.13,5.52-22.19,10.74-33.08,4.71-9.82,12.38-18.29,19.19-27.59-8.61,5.57-13.87,12.53-20.15,18.89,2.99,1.6,1.65,2.92-1.41,1.39l-6.35,7.57c-.6-1.75,1.07-4.21,2.57-5.72l3.99-3.99c-1.6,1.6,18.62-40.8,23.13-47.04,6.87-9.5,12.87-18.78,18.12-28.59-9.5-2.26-24.18,20.04-26.79,25l-13.15,24.98c-2.18,4.13-4.96,9.17-8.82,12.1,4.83-17.08,13.72-32.92,18.79-49.42-4.21,4.5-5.6,9.41-7.76,14.45l-14.58,33.98c-1.47,3.42-2.82,6.54-2.66,9.55,1.14.66.03.88-1.56,1.65l-3.23-5.68c2.51-12.93,8.72-25.78,14.35-38.85,2.18-5.06,10.46-22.82,1.87-25.69-12.43-4.16-16.68,23.96-16.34,22.87-3.54-1.92-.63-5.65-.43-8.33l3.24-42.73c12.15-6.58,30.16-24.47,40-34.37,18.13-18.24,49.18-16.8,74.33-7.41Z"/><path class="cls-3" d="M837.11,836.09l-4.3,32.55-7.12,41.73c-.84,4.89-3.27,9.5-4.06,15.07-3.81-1.07-.77-2.97-.68-4.25.45-5.91.76-11.97.05-17.87.37,3.12-1.57-5.9-1.71-5.94-.94-.28-1.53.07-2.19.45-1.24.72,1.12,1.08,1.13,1.66l.57,34.08c-3.67-5.13-2.96-9.62-3.05-15.77.65-1.04-.88-2.07-.96-3.16l-1.2-16.84c-.38-5.31.54-9.73.51-15.46-2.43,2.83-3.2,5.9-4.22,8.75-.92.51-1.93.77-4.13.74l-5.67,10.12c-.51.91-1.41,1.31-2.43,1.13,1.45-7.69-3.07-16.12-.15-24.28,2.15-6.02,6.73-11.22,7.71-17.38,1.85-11.59,2.4-23.04.6-34.45,12.21-1.09,22.1,4.25,31.29,9.13Z"/><path class="cls-25" d="M745.08,858.42c.43,2.26,2.7,4.37,2.77,6.71-10.58,1.68-37.64-.44-48.52,1.46.65-1.21.25-2.47-.73-3.54,1.95-1.07,4.2-3.56,4.73-5.23.81.52,2.42.07,3.25,1.23l38.5-.63Z"/><path class="cls-76" d="M757.48,811.09c-1.02.66-2.17,1.35-3.47,1.77-2.93-3.48-8.85-7.15-7.28-12.39,4.97,3.64,9.28,6.97,10.75,10.62Z"/><path class="cls-82" d="M703.33,857.82c-.53,1.67-2.78,4.16-4.73,5.23-1.21-1.32,4.51-8.53,6.75-10.38,1.23,2.74-1.46,3.39-2.02,5.15Z"/><path class="cls-97" d="M648.69,845.42c-.45.59-1.39.38-2.21.04-.46-.19-.74-.56-.77-.97-.16-.58.33-.89.9-.96.91-.11,1.77.21,2.01.52.31.39.75,1.06.06,1.38Z"/><path class="cls-22" d="M692.97,851.62c.22,2.4-1.51,2.68-1.74.51.16-1.08.94-1.5,1.74-.51Z"/><path class="cls-94" d="M591.47,895.54c6.33.37,13.08.12,20.31,2.82-11.22,3.29-21.73,3.26-33.42,3.84-61.97,3.09-123.16,4.35-185.37,2.66-12.71-.34-23.85-.91-36.03-3.48,6.27-5.2,41-3.76,45.81-5.6,2.18,1.87,7.91,2.33,11.45,2.3l60.18-.49,85.95-.88c3.13-1.07,4.32-4.94,5.21-6.75l2.61-.81c1.17-.36,1.78,5.33,4.53,6.36,5.98,2.25,12.9-.31,18.79.03Z"/><path class="cls-37" d="M652.68,947.45c.82.09,1.45,1.26,3.09,1.24l78.47-.59c2.24-.02,3.14-.93,4.38-1.43,21.93,2.25,44.6.11,66.91.93.1,1.46,2.38,2.48,1.72,4.83-10.35,1.64-22.21-1.95-20.11,3.4h-1.69c-1.82-.2-.89-1.94-2.81-2.65l-74.07.93-52.81-.21c-19.75-.08-38.67-.49-58.19-3.41,19.03-3.17,37.37-3.61,55.12-3.05Z"/><path class="cls-30" d="M755.85,1010.16c7.47,6.41,17.16,11.83,22.88,18.9-2.19.97-2.93-2.83-4.4-2.84-15.68-.13-30.75.24-45.52.76,3.39-6.61,10.17-12.33,15.52-18.27,3.36,1.64,7.65.63,11.52,1.45Z"/><path class="cls-106" d="M453.01,991.09c-2.05,2.08-2.91,5.24-3.14,7.46l-9.62.04c1.63-6.16-2.89-15.27-1.1-18.65,2.7,3.03.19,6.1,3.5,8.72,4.65-13.76,3.01-24.61,7-37.53l-.53,40.92,8.95-13.18c3,.87-7.22,10.78-5.05,12.22Z"/><path class="cls-66" d="M421.31,997.87c-7.28,4.09-7.76-9.92-8.28-13.28-.95-6.11-5.67-11.41-8.54-17.84,9,7.24,10.77,16.51,13.34,25.32l1.31-6.64c2.11.84-.41,2.6,1.74,3.88,4.19-8.66.86-17.57,2.73-27.36,4.42,1.98,4.23,38.78-2.3,35.91Z"/><path class="cls-74" d="M421.31,997.87c1.62,1.72,4.32.17,5.92-.18,3.13-.68,9.24.91,13.02.9.27,1.17-1.3,1.03-3.1,1.1-22.89.92-45.14,1-67.45-.68,14.89-1.96,29.11-2.09,42.95-1.41,1.33,1.83,4.06-.46,1.14-1.37-1.81-3.14-1.7-6.31-3.78-8.85l3.03-2.79c.52,3.35,1.01,17.36,8.28,13.28Z"/><path class="cls-14" d="M144.79,942.79c-8.28,1.47-16.07,1.38-24.89.67,1.34-3.24,6.98-4.87,10.92-5.26,5.23-.52,10.57.17,13.97,4.59Z"/><path class="cls-63" d="M449.87,998.55c.23-2.22,1.09-5.38,3.14-7.46,6.46-6.53,8.54-14.48,16.74-21.46l-16.44,27.34c-.56.93-2.44,1.58-3.45,1.58Z"/><path class="cls-83" d="M217.16,1017.06c-3.51,1.97-10.25,1.03-15.11.52.17-2.69,3.7-3.99,6.07-4.48,3.77-.79,9.66,1.5,9.03,3.96Z"/><path class="cls-26" d="M574.42,976.27c-1.8,1.8-10.95,1.24-13.55.21-1.92-2.27,3.59-3.62,5.83-4.16,2.69-.65,10.14,1.53,7.72,3.95Z"/><path class="cls-70" d="M410,987.38c2.08,2.54,1.98,5.71,3.78,8.85,2.92.91.19,3.2-1.14,1.37-3.26-6-5.79-12.23-10.4-18.32-1.05-1.38-4.33-2.59-1.23-4.14,4.43,4.25,5.87,8.43,8.99,12.24Z"/><path class="cls-7" d="M640.39,981.48c-3.7,1.28-6.94,1.3-8.62.5-2.25-1.07-6.06-3.24-3.8-4.82,1.55,1.65,4.14,4.53,6.8,2.87,1.3-.82-2.38-3.88,2.01-3.94l.67,4.93c3.39-.58,2.92-2.83,4.79-4.74.78.95.17,4.51-1.85,5.21Z"/><path class="cls-75" d="M765.53,991.56c-3.44.18-5.6-2.73-7.93-4.83-3.86-.79.58-2.28.97-.26,1.17,2.39,5.87,1.56,6.96,5.09Z"/><path class="cls-99" d="M662.9,867.69c-1.74-.3-2.23-2.08-4.27-1.96-.64-2.1-3.7-3.08-4.71-5.05,3.99,2.17,8.67,4.04,8.99,7.01Z"/><path class="cls-72" d="M666.47,912.43c-2.57.03-4.2-.42-3.95-1.21.28-.87,3.63-2.54,6.32-1.56.53.19,1.26.48,1.4,1.15.19.88-1.14,1.59-3.77,1.62Z"/><path class="cls-75" d="M754.37,984.2c-3.79-.57-5.96-3-8.8-5.2,3.66.74,6.99,1.44,8.8,5.2Z"/><path class="cls-8" d="M427.22,997.69l.48-9.48c2.83,3.59-.74,6.4-.48,9.48Z"/><path class="cls-50" d="M778.73,1029.06c1.59-.71,2.41,2.07,4.18,2.08l82.8.13c3.37,0,4.99-2.43,7.31-2.99-.77.54.1.92.6.85,1-.13,1.02-1.92,1.97-1.92,7.85.05,47.11,1.41,53.24,4.98-2.6,2.05-6.66,2.71-10.62,3.06-64.69,5.78-192.18,5.42-259.48,3.18-6.89-.23-41.01-1.48-40.98-5.12.04-4.25,49.21-5.26,54.84-6.21,2.58,4.18,21.35,2.77,25.84,2.43-.61.68.31.52.87.54,1.06.05,2.62.16,2.22-.54,6.75,1.14,14.18.57,21.13.2,2.91-.15,3.81-1.89,6.12-2.76,14.76-.52,29.84-.89,45.52-.76,1.48.01,2.22,3.81,4.4,2.84Z"/><path class="cls-20" d="M359.96,1044.08c-5.57,1.5-12.03,1.3-18.25.47,1.25-3,5.13-4.08,7.8-4.38,4.62-.53,8.79.1,10.45,3.91Z"/></g><path class="cls-110" d="M478.66,858.13c-4.69,3.35-6.14,17.71-6.66,23.64-.44,5-5.08,9.29-5.01,14.81l53.78-.39c7.11-.05,7.13-8.58,34.12-15.7,1.46-.38,2.22-.85,3.23-.98,6.34-.85,7.89,9.46,7.42,10.44-.89,1.82-2.08,5.68-5.21,6.75l-85.95.88-60.18.49c-3.54.03-9.26-.43-11.45-2.3-4.96-4.25-12.36-6.72-18.3-11.31,8.17.55,13.95,3.73,20.48,6.83,1.29-.56-9.47-10.4-9.16-10.21-1.12-.7,1.57-1.67,1.31-2.17-2.36-4.57-7.29-8.26-10.31-12.15-2.46-3.16-6.4-5.54-8.11-9.56,12.73,8.68,21.84,18.49,32.55,28.1l-8.57-16.43c1.79-.72,1.58,1.04,2.83.75-1.11.86-.57.76.05,1.22.59.43,1.66.95,1.67-.83,0-.57.04-1.37-1.29-1.42-2.59-11.54-10.88-21.84-18.69-32.73,14.08,11.78,20.16,26.16,29.49,40.24-.08-6.27-10.24-19.19-12.7-26.87.31-2.42,5.11,5.55,4.21,1.78l-5.43-22.53c4.34,2.85,3.13,6.75,4.35,10.5,4.53,13.96,6.97,18.72,15.49,32.56-2.7-19.07-10.81-37.49-17.83-56.02,14.45,12.74,19.69,27.17,25.46,42.2,3.08-1.94.21-4.36-.1-6.74l-4.8-37.13c-.59-4.52-3.38-8.48-1.86-13.19,6.58,14.25,13.7,29.33,15.54,44.82,2.6-2.59.28-5.52.15-8.33-.71-14.93-3.59-29.41-6.06-44.91,9.31,19.57,13.63,39.94,17.29,60.56.53,2.99-3.16,6.5,2.06,9.05l3.23-36.85c.55-6.32-1.27-12.33.96-18.66.92,10.88.79,21.76-.15,33.21-.17,2.03-2.37,4.09.28,5.89.53-4.31,1.24-8.41,2.37-12.87l4.32-16.97c2.2,2.41.32,5.26-.03,7.92-1.25,9.57-.86,19.22-.88,29.48,0,2.21-2.87,4.49-.21,6.48,2.92-3.91,1.79-7.43,3.96-11.39,2.2.9-1.21,2.28,1.62,3.88,3.73-8.8,2.68-13.56,8.57-21.18-2.89,13.07-6.56,24.52-7.35,37.05,6-22.32,16.55-43.48,31.75-64.19,2.48,2.22-1.17,4.1-2.52,6.39-9.27,15.64-15.49,31.8-19.71,48.05Z"/><path class="cls-54" d="M548.63,863.89l-.65,7.04c2.57-.88,4.68-1.31,7.02-.94,2,.32,2.22,1.88,2.15,3.27,1.03,2.56-1.52,4.76-2.25,7.24-26.99,7.12-27,15.65-34.12,15.7l-53.78.39c-.07-5.52,4.58-9.81,5.01-14.81.52-5.93,1.97-20.29,6.66-23.64l13.1-9.38c.51,1.78,3.97,1.65,6.33,2.55,6.8,2.59,7.57,7.74,8.97,13.13,9.03-6.75,19.16-13.06,32.59-8.44,3.71,1.28,7.16,4.52,8.98,7.9Z"/><path class="cls-65" d="M405.48,869.64l.44-1.02c1.33.05,1.29.85,1.29,1.42-.01,1.77-1.08,1.26-1.67.83-.62-.46-1.16-.36-.05-1.22Z"/><path class="cls-68" d="M594.54,838.92c-.59.02-1.19,0-1.78-.05-7.81-.81-1.49-26.77,5.46-28.24,3.57,9.9,2.86,20.22-3.68,28.29Z"/><path class="cls-55" d="M558.65,864.13c1.85,1.46,3.8,3.66,2.96,6.79.02,2.09-1.62,1.18-2.32-.53-1.54,1.38-.53,1.9-.7,2.36-.11.32-.71.62-1.45.49.08-1.38-.15-2.95-2.15-3.27-2.34-.37-4.45.07-7.02.94l.65-7.04c6.96-2.59,8.77,2.5,10.02.24Z"/><path class="cls-4" d="M560.15,823.09c-.54.11-1.06.05-1.58-.04-3.67-.66-5.64-2.14-5.74-4.2s.17-5.09,4.2-5.29c4.57-.23,5.45,2.48,6.47,4.72.79,1.75-.69,3.5-3.34,4.81Z"/><path class="cls-102" d="M629.72,851.21c-6.27,3.88-9.9,8.98-14.28,13.6-9.16,9.65-16.42,20.25-23.97,30.72-5.89-.34-12.81,2.22-18.79-.03-2.75-1.03-3.36-6.73-4.53-6.36l-2.61.81c.48-.98-1.08-11.29-7.42-10.44-1.02.14-1.78.6-3.23.98.73-2.48,3.29-4.68,2.25-7.24.74.12,1.34-.17,1.45-.49.16-.47-.84-.99.7-2.36.7,1.71,2.34,2.62,2.32.53.84-3.13-1.11-5.33-2.96-6.79-1.21-8.18-7.52-16.05-11.52-24.44,2.99-1.36,14.53,21.44,14.53,21.43,1.09,3.6,2.34,5.91,5.21,8.45,2.3,2.04.9,5.19,2.19,7.11.67.99,3.29-.14,2.54-1.17-.28-.38-.98-.97-1.13-1.64l-11.89-50.84c.52.09,1.05.16,1.58.04,2.99,7.3,4.2,14.87,6.31,22.68,1.51,5.58,1.18,11.18,4.9,17,2.89-5.98-1.87-15.14,1.04-18.62,1.66-1.98-1.08-4.36,1.42-6.26,2.41,6.06-3.44,22.01,3.68,25.3l1.75-26.22,3.23,22.98c3.11-5.6.72-10.51,2.41-16.02,5,1.53,1.19,4.42,1.19,5.97v19.8c4.7-8.03,5.87-22.55,6.68-30.84.59.06,1.18.08,1.78.05l-.66,11.11c-.39,6.66-2.43,12.81-2.46,19.66l3.25-4.63c1.19,2.57-.54,4.68.08,7.36,3.51-2.49,1.8-5.8,3.81-8.43,12.03-15.75,17.94-32.89,35.09-46.91-8.38,11.38-17.4,22.12-23.16,34.66l-14.62,31.84c7.47-5.01,6.74-12.04,12.35-16.56l16.85-13.56c1.28-1.03,2.94-1.92,4.64-2.24Z"/><path class="cls-113" d="M578.83,864.35l-2.36,11.79c-1.79-4.59-.17-8.57-.84-13.02,1.68-.71,3.54-.45,3.2,1.24Z"/><path class="cls-51" d="M698.6,863.05c.98,1.07,1.38,2.33.73,3.54l-3.88,7.21c-9.27.84-19.25.56-29.34-.4-1.13-2.37-3.02-3.9-3.22-5.71,3.04.53,3.84,2.37,5.21,4.61-1.88-10.13-10.39-18.67-19.42-26.88,9.15,4.63,13.92,12.26,20.6,19.54,1.98-1.19-.95-2.96,1.37-4.81,2.05,2.82,1.54,5.67,2.96,8.56,1.57-3.13-.42-5.71.41-8.38,6.42,1.95-.93-10.71,2.37-12.28,1.94,4.54,1.9,9.01,2.01,14.27.02.98-3.5,2.85.07,3.67l4.18-15.91c-1.04-.93-1.51-1.3-1.07-1.55.62-.36,1.71-.52,2.15-.29.58.3.33,1.15,1.23,2.6,1.89-4.19.64-8.23.45-12.61-1.04-.71-1.01-1.3,1.23-2.07l1.06,9.98c1.12,10.58,1.87,6.43,4.15,15.15,1.48-.51.76-2.42,2.48-1.96,2.06,2.42-.03,4.5.53,6.57,1.37-1.78,2.63-2.24,3.72-2.84Z"/><path class="cls-12" d="M672.18,859.32c-1.32-1.52-3.22-3.44-1.77-4.44,2.89.3,3.29,3.09,1.77,4.44Z"/><path class="cls-79" d="M734.81,934.65c1.8,2.33-.39,4.28-3.28,6.45-9.16,6.87-26.4-3.51-30.38-3.98-7.29-.86-11.88,4.07-17.32,6.01-7.22,2.57-24.62-2.19-22.75-6.69,9.5-7.37,25.19-12.38,40.53-13.81,13.48-1.25,28.23,5.01,33.2,12.03Z"/><path class="cls-111" d="M738.62,946.68c-1.24.5-2.14,1.41-4.38,1.43l-78.47.59c-1.63.01-2.27-1.15-3.09-1.24-.59-4.68,4.34-7.87,8.4-11.02-1.87,4.5,15.53,9.27,22.75,6.69,5.43-1.94,10.02-6.87,17.32-6.01,3.98.47,21.22,10.85,30.38,3.98,2.89-2.17,5.08-4.11,3.28-6.45,2.65,3.74,6.37,7.43,3.81,12.02Z"/><path class="cls-77" d="M815.76,917.79c.09,6.15-.62,10.64,3.05,15.77,3,4.19-1.12,9.49,1.06,13.78l-6.33-.02c-.95-4.93-3.08-9.82-5.18-15.4-1.16,5.29-1.76,11.09-1.28,15.47-.51.02-1.04.23-1.54.21-22.31-.82-44.98,1.32-66.91-.93,2.56-4.59-1.16-8.28-3.81-12.02-4.97-7.02-19.72-13.28-33.2-12.03-.04-4.74.67-9.5,6.15-13.38,14.15-10.02,44.29-3.19,55.11,6.68-.23-.12-.8-.04-1.3.23,2.28,3.62,3.95,7.02,8.16,10.35,1.71-1.71,2.47-2.49,4.67-2.27,1.65.16,3.39-.13,5.03-.25.28.45.46,1.16,1.81,1.28.39-1.58.26-2.93.27-3.87,1.91-1.15.94-3.25,3.28-4.25l5,11.79c1.97,4.66,2.99,9.25,7.33,13.2l-.61-26.17c-.11-4.7.38-8.76,1.16-12.88,1.01.18,1.92-.22,2.43-1.13l5.67-10.12c2.2.03,3.21-.23,4.13-.74,3.01,3.92,3.16,14.82,3.04,20.97-4.52.36-2.34,1,.37,1.62-.77,1.69-.43,2.39-.42,3.61,0,.61,1.65.6,2.88.51Z"/><path class="cls-88" d="M774.4,924.22c-2.2-.22-2.96.56-4.67,2.27-4.21-3.33-5.88-6.73-8.16-10.35.5-.27,1.08-.34,1.3-.23,2.35,2.14,7.69,3.74,8.15,7.42,1.98.05,3.96-.16,3.38.89Z"/><path class="cls-52" d="M805.83,826.96c1.8,11.41,1.25,22.86-.6,34.45-.98,6.16-5.56,11.37-7.71,17.38-2.92,8.17,1.6,16.6.15,24.28-.78,4.12-1.27,8.18-1.16,12.88l.61,26.17c-4.34-3.96-5.35-8.55-7.33-13.2l-5-11.79-1.67-19.02c-.71-8.04-7.27-29.27-8.04-34.16l-4.64-29.54c.83.15,1.6-.17,2.43-.14l4.27,27.86c-1.35-8.83,8.35,31.82,6.5,25.63.95,3.18,0,6.36,1.37,9.64,2.73,6.58,1.07,12.97,4.64,19.56.36-12.64,2.8-25.47.5-38.16-11.16-5.87-9.34-14.81-10.14-16.66-1.65-3.8-1.3-7.61-2.06-11.81-1.49-8.12.14-16.48,1.68-24.38.31-1.6,6.01-12.36,14.68-11.6,7.66.67,11.1,9.94,11.53,12.63Z"/><path class="cls-67" d="M845.67,843.53l-3.24,42.73c-.2,2.67-3.11,6.41.43,8.33-4.84,15.33-4.28,31.18-4.88,47.01-.89,2.53-3.99,5.12-6.12,6.87-.3-.57-.94-1.16-1.97-1.04-3.33-7.27-.5-21.2-1.94-31.8-.25-1.83.53-4.66-2.26-5.28l7.12-41.73,4.3-32.55,13.1-58.55c3.11,2.6.36,5.52.07,8.4l-4.12,39.94-.49,17.65Z"/><path class="cls-11" d="M767.23,864.58c1.27,3.01-2.71,6.73-1.94,9.5,4.42,15.72,12.8,32.11,16.22,47.29-.01.94.12,2.3-.27,3.87-1.35-.12-1.52-.83-1.81-1.28-6.19-15.65-9.07-32.1-18.88-47.93-2.4-3.88-12.55-6-12.69-10.9-.07-2.34-2.34-4.45-2.77-6.71-.59-3.07-3.19-15.5,5.72-14.92,9.77.63,14.9,17.48,16.42,21.09Z"/><path class="cls-96" d="M775.09,863.94c.77,4.89,7.33,26.12,8.04,34.16l1.67,19.02c-2.34.99-1.38,3.09-3.28,4.25-3.42-15.19-11.8-31.57-16.22-47.29-.78-2.77,3.21-6.49,1.94-9.5,2.24-1.1,5.23-.28,7.86-.64Z"/><path class="cls-33" d="M777.16,812.31c-1.94.04-2.63.4-3.36.63-.42.14-.73.07-.88-.05-11.49-12.89.53-26.4,5.62-21.12,6.01,6.23,7.06,15.93-1.38,20.54Z"/><path class="cls-98" d="M772.92,812.9c.16.12.46.18.88.05-4.15,3.8-1.63,16.75-.93,21.32-.82-.03-1.6.29-2.43.14l-1.03-5.36c-11.85-1.66-16.61-9.13-15.41-16.18,1.3-.42,2.45-1.11,3.47-1.77,3.43,1.17,7.71,2.68,10.89,5.42,3.73-.86,1.86-3.27,4.56-3.61Z"/><path class="cls-60" d="M906.77,1006.01c-11.79,7.06-23.61,14.17-33.75,22.27-2.33.56-3.94,2.99-7.31,2.99l-82.8-.13c-1.77,0-2.59-2.78-4.18-2.08-5.72-7.08-15.41-12.49-22.88-18.9,8.17,1.72,14.69,5.62,20.86,10.54l-21.09-27.37c12.46,5.93,18.53,14,28.6,20.9-3.86-12.45-9.95-23.14-17.12-34.43,7.04,5.17,10.37,11.32,14.56,17.59l12.58,18.84c-2.22-9.8-6.18-18.82-9.55-28.2-4.02-11.19-11.5-20.83-20.41-30.32,4.7,1.37,6.22,4.27,8.38,6.55l10.95,11.56c1.63-4.29-3.44-7.37-.71-11.09,3.22,10.67,7.07,20.16,13.03,30.08,2.92,4.86,2.33,9.96,6.81,14.12-3.38-18.56-10.68-35.85-17.3-53.07h1.69c5.2,13.23,20.67,33.71,24.97,50.52,4.02-.8,1.63-2.5,1.58-3.56-.9-18.62-1.02-37.36-6.62-55.39-.48-4.38.11-10.18,1.28-15.47,2.11,5.58,4.23,10.47,5.18,15.4,1.65,8.6,4.52,17.33,5.11,26.16.23,3.39.32,6.23,1.28,9.25,1.81,5.7,1.89,11.41,2.4,17.46l2.29,27c.09,1.03,1.88,1.85,2.7,1.5.6-.25,1.57-.38,1.71-1.51l3.44-28.74c1.53-.44,3.15-.81,3.25-1.8.97-9.73,4.74-19.81,10.62-29.56,4.17-6.92,4.58-13.51,7.9-19.71l17.97-33.55c1.56-2.9,4.55-5.51,3.02-9.06-4.45,2.6-9.51,18.97-12.42,14.87l13.15-24.98c2.61-4.96,17.29-27.26,26.79-25-5.25,9.81-11.25,19.09-18.12,28.59-4.51,6.24-24.73,48.64-23.13,47.04l-3.99,3.99c-1.5,1.5-3.17,3.97-2.57,5.72l6.35-7.57c3.06,1.53,4.4.21,1.41-1.39,6.28-6.36,11.54-13.32,20.15-18.89-6.81,9.3-14.48,17.77-19.19,27.59-5.23,10.89-9.07,21.95-10.74,33.08l13.55-15.58c-5.48,13.86-12.25,24.83-14.88,37.65,13.37-17.53,20.33-41.31,35.28-56.21-5.53,11.55-14.28,21.65-16.76,34.02,10.95-13.1,19.54-26.83,35.89-37.57-14.32,14.13-25.05,28.47-33.21,44.64-3.69,7.3-9.32,13.55-10.97,20.62,7.9-9.92,15.07-18.84,25.11-27-.6,5.05-4.41,9.19-7.77,13.91l-11.86,16.65c7.57-6.65,15.31-12.63,24.04-18.41-5.07,7.08-12.72,12.65-18.65,19.34-.9,1.02-5.51,1.66-3.75,3.6,10.73-6.6,22.79-15.42,37.83-17.47Z"/><path class="cls-112" d="M842.98,936.27c.22-5.92-6.32,14.68-5.5,11.01-3.47,15.45-1.04,31.34-3.34,47.51-.15,1.04.11,2.01,1.58,1.87-.1.99-1.72,1.35-3.25,1.8l-3.44,28.74c-.13,1.12-1.11,1.26-1.71,1.51-.82.34-2.62-.47-2.7-1.5l-2.29-27c-.51-6.06-.58-11.76-2.4-17.46.2.08,1.19.08,1.31-.18.23-3.04.55-5.95-.18-9.05-2.1-8.89,2.97-18-1.19-26.17-2.18-4.29,1.93-9.59-1.06-13.78l-.57-34.08c0-.58-2.37-.94-1.13-1.66.66-.38,1.25-.73,2.19-.45.13.04,2.08,9.06,1.71,5.94.71,5.9.4,11.96-.05,17.87-.1,1.28-3.14,3.18.68,4.25.79-5.57,3.22-10.18,4.06-15.07,2.79.62,2.01,3.45,2.26,5.28,1.44,10.59-1.38,24.52,1.94,31.8,1.36,2.98-1.45,6.38.91,9.4l1.06-8.36c2.13-1.75,5.24-4.34,6.12-6.87.6-15.84.04-31.68,4.88-47.01-.34,1.09,3.9-27.02,16.34-22.87,8.6,2.87.31,20.63-1.87,25.69-5.63,13.07-11.83,25.92-14.35,38.85Z"/><path class="cls-44" d="M854.24,947.39l-16.76-.11c-.82,3.67,5.72-16.93,5.5-11.01l3.23,5.68c1.59-.77,2.69-.99,1.56-1.65,5.37,2.44,1.77-10.04,6.22-8.56,3.86-2.94,6.64-7.97,8.82-12.1,2.91,4.11,7.97-12.27,12.42-14.87,1.53,3.56-1.46,6.16-3.02,9.06l-17.97,33.55Z"/><path class="cls-59" d="M853.99,931.74c-4.44-1.48-.85,11-6.22,8.56-.16-3.02,1.2-6.13,2.66-9.55l14.58-33.98c2.16-5.04,3.55-9.95,7.76-14.45-5.07,16.5-13.96,32.34-18.79,49.42Z"/><path class="cls-9" d="M815.76,917.79c-1.23.09-2.87.1-2.88-.51-.01-1.21-.35-1.92.42-3.61-2.71-.62-4.89-1.25-.37-1.62.12-6.15-.03-17.05-3.04-20.97,1.02-2.85,1.79-5.92,4.22-8.75.03,5.73-.89,10.15-.51,15.46l1.2,16.84c.08,1.09,1.6,2.12.96,3.16Z"/><path class="cls-19" d="M780,862.12c.8,1.85-1.02,10.8,10.14,16.66,2.31,12.7-.14,25.52-.5,38.16-3.57-6.59-1.9-12.98-4.64-19.56-1.36-3.28-.42-6.46-1.37-9.64,1.85,6.19-7.85-34.46-6.5-25.63h2.86Z"/><path class="cls-71" d="M831.86,948.48l-1.06,8.36c-2.36-3.02.45-6.42-.91-9.4,1.03-.12,1.67.47,1.97,1.04Z"/><path class="cls-45" d="M787.14,955.84c-2.1-5.34,9.76-1.76,20.11-3.4.66-2.35-1.62-3.37-1.72-4.83.51.02,1.03-.19,1.54-.21,5.6,18.04,5.71,36.77,6.62,55.39.05,1.06,2.44,2.77-1.58,3.56-4.3-16.81-19.77-37.29-24.97-50.52Z"/><path class="cls-17" d="M854.24,947.39c-3.32,6.2-3.73,12.8-7.9,19.71-5.88,9.75-9.65,19.83-10.62,29.56-1.46.14-1.72-.83-1.58-1.87,2.31-16.18-.13-32.06,3.34-47.51l16.76.11Z"/><path class="cls-6" d="M819.87,947.35c4.16,8.17-.91,17.27,1.19,26.17.73,3.1.42,6.02.18,9.05-.12.26-1.11.25-1.31.18-.96-3.02-1.05-5.87-1.28-9.25-.59-8.83-3.46-17.56-5.11-26.16l6.33.02Z"/><path class="cls-47" d="M733.01,1012.41c.25.86-.84,1.84-1.42,2.44-.95.99-3.25.71-3.68.72-.59,3.79-.2,8.18-3.55,10.87-.53-1.41.72-2.91-.62-4.81.47-2.17-4.57,10.31.62,4.81-1.08.87-1.69,2.27-1.69,3.29-6.95.37-14.38.94-21.13-.2-.96-6.7,1.32-13.23-1.14-20.66-3.34,3.75-3.19,7.42-2.86,11.02l.9,9.65c-4.48.34-23.25,1.75-25.84-2.43-3.17-5.13-10.52-7.87-16.01-12.61,7.58,2.37,12.03,6.43,18.1,9.53-.84-5.24-7.24-8.43-8.89-12.35-2.92-6.96-10.85-11.78-17.09-17.77,12.11,5.88,22.32,17.54,29.37,22.8-1.83-9.24-4.65-16.85-8.3-24.71-1.41-3.05-6.56-5.27-5.11-9.41,1.22.57,11.5,18.46,10.61,14.44-2.26-15.14-11.14-26.81-15.94-39.87,11.9,15.55,21.71,35.02,28.84,51.75-.09-16.12-3.95-30.96-6.7-46.75l9.25,22.56-1.79-15.9c5.16,12.88,8.1,24.45,11.74,37.3l5.96-37.5c.71-4.46-.48-8.67,1.5-12.88l2.41,34.52c2.11-3.78,2.15-7.02,2.84-10.37l1.84,5.86c1.88-1.36,7.43-22.94,10.93-20.59-3,6.19-3.95,12.11-4.7,18.56-1.53,13.22-4.83,20.52-3.57,33.47l16.01-27.36c-1.61,6.47-3.07,12.15-6.64,18.39.39,4.35,10.9-18.19,13.36-18.31,1.66,2.33-1.65,4.04-2.46,5.78l-6.94,14.94c-.44.95.53,2.09,1.78,1.8Z"/><path class="cls-34" d="M744.33,1008.71c-5.35,5.94-12.14,11.66-15.52,18.27-2.31.87-3.22,2.61-6.12,2.76,0-1.01.61-2.41,1.69-3.29,3.34-2.68,2.96-7.08,3.55-10.87.43,0,2.73.27,3.68-.72.57-.6,1.66-1.59,1.42-2.44,7.86-4.47,12.82-11.01,22.7-15.51-4,3.72-7.77,7.79-11.38,11.8Z"/><path class="cls-84" d="M701.55,1029.53c.4.71-1.17.59-2.22.54-.57-.03-1.49.14-.87-.54l-.9-9.65c-.34-3.6-.48-7.27,2.86-11.02,2.46,7.43.18,13.96,1.14,20.66Z"/><path class="cls-34" d="M724.38,1026.45c-5.19,5.5-.15-6.98-.62-4.81,1.34,1.9.09,3.4.62,4.81Z"/></g></g><path class="cls-64" d="M960,1005.49s113.37,8.61,173.55,73.93l-173.73.57.18-74.51Z"/></svg>