<?xml version="1.0" encoding="UTF-8"?><svg id="Layer_1" xmlns="http://www.w3.org/2000/svg" viewBox="0 0 1920 1080"><defs><style>.cls-1{fill:#256726;}.cls-2{fill:#ae8256;}.cls-3{fill:#408030;}.cls-4{fill:#1e6922;}.cls-5{fill:#d5ae81;}</style></defs><rect class="cls-2" y="1015.11" width="1920" height="64.89"/><path class="cls-5" d="M1920,1054.99s-160.9,0-232.7-7.44c-70.5-7.3-291.42,8.4-478.41,8.4s-309.49-41.44-533.01-26.4-441.19,16.12-505.67,25.43-170.21,0-170.21,0v-121.37s28.6,13.21,135.76-5.37c60.18-16.54,386.51-40.48,588.54-40.48s212.04,26.21,445.42,42.41c21.71,1.51,130.39,1.67,152.09.16,229.12-15.88,338.85-16.78,375.38-14.63,78.01,4.59,222.81,17.91,222.81,17.91v121.37Z"/><path class="cls-2" d="M1920,967.23s-125.88-26.52-302.33-25.01c-142.79,6.16-341.73,44.06-579.47,10.72-147.75-19.64-105.79-30.06-315.34-31.13s-462.2,8.23-556.66,37.43c-69.19,21.39-166.21,8-166.21,8v-22.57s70.78,20.2,159.46-5.97c59.86-17.67,365.37-38.04,567.4-38.04s396.06,65.65,642.93,40.35,390.24-17,423.82-12.1c44.42,6.49,126.39,15.76,126.39,15.76v22.57Z"/><ellipse class="cls-2" cx="752.58" cy="938.09" rx="11.14" ry="6.46"/><ellipse class="cls-2" cx="1485.43" cy="980.62" rx="23.64" ry="10.13"/><ellipse class="cls-2" cx="1757.31" cy="1002.93" rx="31.16" ry="12.18"/><ellipse class="cls-2" cx="1008.66" cy="980.62" rx="20.42" ry="8.78"/><ellipse class="cls-2" cx="670.87" cy="999.35" rx="19.34" ry="8.6"/><ellipse class="cls-2" cx="1845.49" cy="981.08" rx="9.67" ry="3.4"/><ellipse class="cls-2" cx="1447.64" cy="1011.71" rx="12" ry="3.4"/><ellipse class="cls-2" cx="1732.42" cy="1031.86" rx="18.27" ry="6.09"/><ellipse class="cls-2" cx="1087.1" cy="989.4" rx="12.36" ry="3.12"/><ellipse class="cls-2" cx="784.78" cy="956.1" rx="6" ry="3.13"/><ellipse class="cls-2" cx="751.1" cy="941.32" rx="9.67" ry="3.23"/><ellipse class="cls-2" cx="670.51" cy="993.84" rx="11.28" ry="4.44"/><ellipse class="cls-2" cx="624.12" cy="1015.86" rx="11.28" ry="3.24"/><ellipse class="cls-2" cx="550.78" cy="979.11" rx="8.15" ry="4.84"/><ellipse class="cls-2" cx="580.96" cy="981.98" rx="7.52" ry="4.3"/><ellipse class="cls-2" cx="368.54" cy="999.89" rx="5.01" ry="1.61"/><ellipse class="cls-2" cx="392.72" cy="977.68" rx="7.7" ry="3.4"/><ellipse class="cls-2" cx="401.13" cy="995.05" rx="8.42" ry="4.3"/><ellipse class="cls-2" cx="227.94" cy="977.68" rx="14.87" ry="4.39"/><ellipse class="cls-2" cx="311.76" cy="1020.25" rx="12.36" ry="4.39"/><ellipse class="cls-2" cx="280.87" cy="1032.49" rx="7.79" ry="2.96"/><ellipse class="cls-2" cx="70.78" cy="1045.13" rx="8.87" ry="2.43"/><ellipse class="cls-2" cx="78.43" cy="1006.07" rx="7.66" ry="2.24"/><ellipse class="cls-2" cx="64.06" cy="1010.46" rx="4.3" ry="2.15"/><path class="cls-3" d="M594.25,1062.46c.11.33-.36.71-.61.94-.41.38-1.4.27-1.59.28-.25,1.45-.09,3.13-1.53,4.16-.23-.54.31-1.11-.27-1.84.2-.83-1.97,3.95.27,1.84-.47.33-.73.87-.73,1.26-3,.14-6.21.36-9.12-.08-.41-2.56.57-5.07-.49-7.91-1.44,1.44-1.38,2.84-1.23,4.22l.39,3.69c-1.94.13-10.04.67-11.16-.93-1.37-1.96-4.54-3.01-6.91-4.83,3.27.91,5.19,2.46,7.81,3.65-.36-2.01-3.13-3.23-3.84-4.73-1.26-2.66-4.69-4.51-7.38-6.8,5.23,2.25,9.64,6.71,12.68,8.73-.79-3.54-2.01-6.45-3.58-9.46-.61-1.17-2.83-2.02-2.21-3.6.53.22,4.96,7.07,4.58,5.53-.97-5.79-4.81-10.26-6.88-15.26,5.14,5.95,9.37,13.4,12.45,19.81-.04-6.17-1.71-11.85-2.89-17.89l4,8.64-.77-6.08c2.23,4.93,3.5,9.36,5.07,14.28l2.57-14.36c.31-1.71-.21-3.32.65-4.93l1.04,13.21c.91-1.45.93-2.69,1.23-3.97l.79,2.24c.81-.52,3.21-8.78,4.72-7.88-1.3,2.37-1.71,4.63-2.03,7.1-.66,5.06-2.08,7.85-1.54,12.81l6.91-10.47c-.7,2.48-1.33,4.65-2.87,7.04.17,1.66,4.71-6.96,5.77-7.01.72.89-.71,1.55-1.06,2.21l-3,5.72c-.19.36.23.8.77.69Z"/><path class="cls-1" d="M599.14,1061.05c-2.31,2.27-5.24,4.46-6.7,6.99-1,.33-1.39,1-2.64,1.06,0-.39.26-.92.73-1.26,1.44-1.03,1.28-2.71,1.53-4.16.18,0,1.18.1,1.59-.28.25-.23.72-.61.61-.94,3.39-1.71,5.53-4.21,9.8-5.93-1.73,1.42-3.35,2.98-4.91,4.52Z"/><path class="cls-4" d="M580.67,1069.01c.17.27-.5.23-.96.21-.24,0-.64.05-.38-.21l-.39-3.69c-.15-1.38-.21-2.78,1.23-4.22,1.06,2.84.08,5.34.49,7.91Z"/><path class="cls-1" d="M590.52,1067.84c-2.24,2.11-.06-2.67-.27-1.84.58.73.04,1.3.27,1.84Z"/><path class="cls-3" d="M996.39,1073.34c.11.33-.36.71-.61.94-.41.38-1.4.27-1.59.28-.25,1.45-.09,3.13-1.53,4.16-.23-.54.31-1.11-.27-1.84.2-.83-1.97,3.95.27,1.84-.47.33-.73.87-.73,1.26-3,.14-6.21.36-9.12-.08-.41-2.56.57-5.07-.49-7.91-1.44,1.44-1.38,2.84-1.23,4.22l.39,3.69c-1.94.13-10.04.67-11.16-.93-1.37-1.96-4.54-3.01-6.91-4.83,3.27.91,5.19,2.46,7.81,3.65-.36-2.01-3.13-3.23-3.84-4.73-1.26-2.66-4.69-4.51-7.38-6.8,5.23,2.25,9.64,6.71,12.68,8.73-.79-3.54-2.01-6.45-3.58-9.46-.61-1.17-2.83-2.02-2.21-3.6.53.22,4.96,7.07,4.58,5.53-.97-5.79-4.81-10.26-6.88-15.26,5.14,5.95,9.37,13.4,12.45,19.81-.04-6.17-1.71-11.85-2.89-17.89l4,8.64-.77-6.08c2.23,4.93,3.5,9.36,5.07,14.28l2.57-14.36c.31-1.71-.21-3.32.65-4.93l1.04,13.21c.91-1.45.93-2.69,1.23-3.97l.79,2.24c.81-.52,3.21-8.78,4.72-7.88-1.3,2.37-1.71,4.63-2.03,7.1-.66,5.06-2.08,7.85-1.54,12.81l6.91-10.47c-.7,2.48-1.33,4.65-2.87,7.04.17,1.66,4.71-6.96,5.77-7.01.72.89-.71,1.55-1.06,2.21l-3,5.72c-.19.36.23.8.77.69Z"/><path class="cls-1" d="M1001.28,1071.92c-2.31,2.27-5.24,4.46-6.7,6.99-1,.33-1.39,1-2.64,1.06,0-.39.26-.92.73-1.26,1.44-1.03,1.28-2.71,1.53-4.16.18,0,1.18.1,1.59-.28.25-.23.72-.61.61-.94,3.39-1.71,5.53-4.21,9.8-5.93-1.73,1.42-3.35,2.98-4.91,4.52Z"/><path class="cls-4" d="M982.81,1079.89c.17.27-.5.23-.96.21-.24,0-.64.05-.38-.21l-.39-3.69c-.15-1.38-.21-2.78,1.23-4.22,1.06,2.84.08,5.34.49,7.91Z"/><path class="cls-1" d="M992.66,1078.71c-2.24,2.11-.06-2.67-.27-1.84.58.73.04,1.3.27,1.84Z"/><path class="cls-3" d="M1599.6,1061.34c.12.41-.42.87-.7,1.16-.47.47-1.61.34-1.82.34-.29,1.79-.1,3.88-1.76,5.15-.26-.67.36-1.38-.31-2.28.23-1.03-2.26,4.88.31,2.28-.54.41-.84,1.08-.84,1.56-3.44.17-7.12.44-10.46-.1-.48-3.17.65-6.27-.57-9.78-1.65,1.78-1.58,3.51-1.41,5.22l.45,4.57c-2.22.16-11.51.83-12.79-1.15-1.57-2.43-5.21-3.72-7.93-5.97,3.75,1.12,5.96,3.04,8.96,4.51-.41-2.48-3.59-3.99-4.4-5.85-1.44-3.29-5.37-5.58-8.46-8.41,6,2.78,11.05,8.31,14.54,10.79-.91-4.38-2.3-7.98-4.11-11.7-.7-1.44-3.25-2.5-2.53-4.46.61.27,5.69,8.74,5.26,6.84-1.12-7.17-5.52-12.69-7.89-18.88,5.89,7.36,10.75,16.58,14.28,24.5-.04-7.63-1.96-14.66-3.32-22.14l4.58,10.68-.89-7.53c2.55,6.1,4.01,11.58,5.81,17.66l2.95-17.76c.35-2.11-.24-4.11.74-6.1l1.2,16.35c1.05-1.79,1.07-3.32,1.41-4.91l.91,2.77c.93-.64,3.68-10.86,5.41-9.75-1.49,2.93-1.96,5.73-2.33,8.79-.76,6.26-2.39,9.72-1.77,15.85l7.93-12.95c-.8,3.06-1.52,5.75-3.29,8.71.19,2.06,5.4-8.61,6.62-8.67.82,1.1-.82,1.91-1.22,2.74l-3.44,7.08c-.22.45.26.99.88.85Z"/><path class="cls-1" d="M1605.2,1059.59c-2.65,2.81-6.01,5.52-7.69,8.65-1.14.41-1.59,1.23-3.03,1.31,0-.48.3-1.14.84-1.56,1.65-1.27,1.46-3.35,1.76-5.15.21,0,1.35.13,1.82-.34.28-.28.82-.75.7-1.16,3.89-2.12,6.35-5.21,11.24-7.34-1.98,1.76-3.85,3.69-5.64,5.59Z"/><path class="cls-4" d="M1584.02,1069.45c.2.33-.58.28-1.1.26-.28-.01-.74.07-.43-.26l-.45-4.57c-.17-1.7-.24-3.44,1.41-5.22,1.22,3.52.09,6.61.57,9.78Z"/><path class="cls-1" d="M1595.33,1067.99c-2.57,2.61-.07-3.3-.31-2.28.66.9.04,1.61.31,2.28Z"/><path class="cls-3" d="M232.18,1065.01c.06.17-.19.37-.32.49-.21.2-.74.14-.83.14-.13.76-.05,1.64-.8,2.18-.12-.28.16-.58-.14-.97.11-.44-1.04,2.07.14.97-.25.18-.38.46-.38.66-1.58.07-3.26.19-4.79-.04-.22-1.35.3-2.66-.26-4.15-.76.75-.72,1.49-.65,2.21l.2,1.94c-1.02.07-5.27.35-5.86-.49-.72-1.03-2.38-1.58-3.63-2.53,1.72.48,2.73,1.29,4.1,1.91-.19-1.05-1.64-1.69-2.02-2.48-.66-1.4-2.46-2.37-3.87-3.57,2.75,1.18,5.06,3.53,6.66,4.58-.42-1.86-1.05-3.39-1.88-4.97-.32-.61-1.49-1.06-1.16-1.89.28.11,2.61,3.71,2.41,2.9-.51-3.04-2.53-5.39-3.61-8.01,2.7,3.13,4.92,7.04,6.54,10.4-.02-3.24-.9-6.22-1.52-9.39l2.1,4.53-.41-3.19c1.17,2.59,1.84,4.91,2.66,7.5l1.35-7.54c.16-.9-.11-1.74.34-2.59l.55,6.94c.48-.76.49-1.41.64-2.08l.42,1.18c.43-.27,1.68-4.61,2.48-4.14-.68,1.24-.9,2.43-1.07,3.73-.35,2.66-1.09,4.12-.81,6.73l3.63-5.5c-.37,1.3-.7,2.44-1.51,3.7.09.87,2.47-3.66,3.03-3.68.38.47-.37.81-.56,1.16l-1.57,3c-.1.19.12.42.4.36Z"/><path class="cls-1" d="M234.75,1064.27c-1.21,1.19-2.75,2.34-3.52,3.67-.52.18-.73.52-1.39.55,0-.2.14-.49.38-.66.76-.54.67-1.42.8-2.18.1,0,.62.05.83-.14.13-.12.38-.32.32-.49,1.78-.9,2.91-2.21,5.14-3.12-.91.75-1.76,1.57-2.58,2.37Z"/><path class="cls-4" d="M225.05,1068.45c.09.14-.26.12-.5.11-.13,0-.34.03-.2-.11l-.2-1.94c-.08-.72-.11-1.46.65-2.21.56,1.49.04,2.81.26,4.15Z"/><path class="cls-1" d="M230.23,1067.84c-1.18,1.11-.03-1.4-.14-.97.3.38.02.68.14.97Z"/></svg>