<?xml version="1.0" encoding="UTF-8"?><svg id="Layer_1" xmlns="http://www.w3.org/2000/svg" viewBox="0 0 892.39 921"><defs><style>.cls-1{fill:#fff;}.cls-1,.cls-2,.cls-3{stroke-width:0px;}.cls-2{fill:#93278f;}.cls-3{fill:#4d4d4d;}</style></defs><polygon class="cls-2" points="1.39 435 892.39 482 892.39 0 1.39 69 1.39 435"/><polygon class="cls-1" points="46.39 406.02 844.97 446 844.97 36 46.39 94.69 46.39 406.02"/><rect class="cls-2" x="434.97" y="39.99" width="21" height="891" transform="translate(-61.52 906.32) rotate(-87.16)"/><rect class="cls-3" x="803.96" y="462" width="13" height="46" transform="translate(285.82 1270.37) rotate(-87.15)"/><path class="cls-3" d="M789.71,479.46l41.95,2.08-.45,8.99-41.95-2.08.45-8.99M785.91,475.27l-.84,16.98,49.94,2.48.84-16.98-49.94-2.48h0Z"/><rect class="cls-3" x="55.88" y="424.83" width="13" height="46" transform="translate(-388 487.89) rotate(-87.15)"/><path class="cls-3" d="M41.63,442.29l41.95,2.08-.45,8.99-41.95-2.08.45-8.99M37.83,438.1l-.84,16.98,49.94,2.48.84-16.98-49.94-2.48h0Z"/><rect class="cls-3" x="429.92" y="443.41" width="13" height="46" transform="translate(-51.09 879.13) rotate(-87.15)"/><path class="cls-3" d="M415.67,460.88l41.95,2.08-.45,8.99-41.95-2.08.45-8.99M411.87,456.68l-.84,16.98,49.94,2.48.84-16.98-49.94-2.48h0Z"/><rect class="cls-3" x="242.9" y="434.12" width="13" height="46" transform="translate(-219.53 683.53) rotate(-87.16)"/><path class="cls-3" d="M228.65,451.59l41.95,2.08-.45,8.99-41.95-2.08.45-8.99M224.85,447.39l-.84,16.98,49.94,2.48.84-16.98-49.94-2.48h0Z"/><rect class="cls-3" x="616.94" y="452.71" width="13" height="46" transform="translate(117.36 1074.75) rotate(-87.15)"/><path class="cls-3" d="M602.69,470.17l41.95,2.08-.45,8.99-41.95-2.08.45-8.99M598.89,465.98l-.84,16.98,49.94,2.48.84-16.98-49.94-2.48h0Z"/><polygon class="cls-2" points="394.39 908 476.39 921 476.39 497 394.39 493 394.39 908"/></svg>