<?xml version="1.0" encoding="UTF-8"?><svg id="Layer_1" xmlns="http://www.w3.org/2000/svg" viewBox="0 0 168 168"><defs><style>.cls-1,.cls-2{opacity:.3;}.cls-3{fill:#934d2b;}.cls-4,.cls-2{fill:none;stroke:#fff;stroke-miterlimit:10;stroke-width:3px;}.cls-5{fill:#333;}</style></defs><rect class="cls-3" x=".5" y=".5" width="83" height="55"/><path class="cls-5" d="M83,1v54H1V1h82M84,0H0v56h84V0h0Z"/><rect class="cls-3" x=".5" y="112.5" width="83" height="55"/><path class="cls-5" d="M83,113v54H1v-54h82M84,112H0v56h84v-56h0Z"/><rect class="cls-3" x="84.5" y=".5" width="83" height="55"/><path class="cls-5" d="M167,1v54h-82V1h82M168,0h-84v56h84V0h0Z"/><rect class="cls-3" x="84.5" y="112.5" width="83" height="55"/><path d="M167,113v54h-82v-54h82M168,112h-84v56h84v-56h0Z"/><path class="cls-5" d="M167,113v54h-82v-54h82M168,112h-84v56h84v-56h0Z"/><rect class="cls-3" x="126.5" y="56.5" width="41" height="55"/><path class="cls-5" d="M167,57v54h-40v-54h40M168,56h-42v56h42v-56h0Z"/><rect class="cls-3" x=".5" y="56.5" width="41" height="55"/><path class="cls-5" d="M41,57v54H1v-54h40M42,56H0v56h42v-56h0Z"/><rect class="cls-3" x="42.5" y="56.5" width="83" height="55"/><path class="cls-5" d="M125,57v54H43v-54h82M126,56H42v56h84v-56h0Z"/><g class="cls-1"><line class="cls-4" x1="1" y1="114.5" x2="83" y2="114.5"/></g><line class="cls-2" x1="81.5" y1="167" x2="81.5" y2="116"/><g class="cls-1"><line class="cls-4" x1="43" y1="58.5" x2="125" y2="58.5"/></g><line class="cls-2" x1="123.5" y1="111" x2="123.5" y2="60"/><g class="cls-1"><line class="cls-4" x1="85" y1="2.5" x2="167" y2="2.5"/></g><line class="cls-2" x1="165.5" y1="55" x2="165.5" y2="4"/><g class="cls-1"><line class="cls-4" x1="1" y1="2.5" x2="83" y2="2.5"/></g><line class="cls-2" x1="81.5" y1="55" x2="81.5" y2="4"/><g class="cls-1"><line class="cls-4" x1="126.5" y1="58.5" x2="167" y2="58.5"/></g><line class="cls-2" x1="165.5" y1="111" x2="165.5" y2="60"/><g class="cls-1"><line class="cls-4" x1="1.5" y1="58.5" x2="41" y2="58.5"/></g><line class="cls-2" x1="39.5" y1="111" x2="39.5" y2="60"/><g class="cls-1"><line class="cls-4" x1="85" y1="114.5" x2="167" y2="114.5"/></g><line class="cls-2" x1="165.5" y1="167" x2="165.5" y2="116"/></svg>