<?xml version="1.0" encoding="UTF-8"?><svg xmlns="http://www.w3.org/2000/svg" viewBox="0 0 804 1052.38"><defs><style>.cls-1{fill:#95cfd7;}.cls-2,.cls-3{fill:#0e3e5b;}.cls-4{fill:none;stroke-width:52px;}.cls-4,.cls-3{stroke:#0e3e5b;stroke-miterlimit:10;}.cls-5{fill:#fefefe;}.cls-3{stroke-width:35.88px;}</style></defs><g id="base-logo"><path class="cls-2" d="M769.5,402c0,202.87-164.74,367.5-367.5,367.5S34.5,604.87,34.5,402,199.24,34.5,402,34.5s367.5,164.63,367.5,367.5"/><path class="cls-5" d="M557.24,115.22l-173.19,191.18,179.53,220.92h144.68s25.34-50.98,26.4-108.34c2.11-67.98-13.73-113.65-13.73-113.65l-163.69-190.12Z"/><path class="cls-2" d="M545.62,554.95l-215.43-265.53,29.57-24.43,215.43,265.53-29.57,24.43Z"/><path class="cls-2" d="M545.62,515.65h189.22v38.24h-189.22v-38.24Z"/><path class="cls-1" d="M340.75,304.28l203.81,249.6h151.01s-86.59,182.69-291.47,182.69-299.91-179.5-299.91-179.5l25.34-26.55v-172.07h126.72v33.99l84.48-88.16Z"/></g><g id="teeth"><g id="_Radial_Repeat_"><polygon class="cls-2" points="740.39 184.57 703.16 190.77 719.28 215.85 740.39 184.57"/></g><g id="_Radial_Repeat_-2"><polygon class="cls-2" points="764.14 226.96 726.44 228.63 739.41 255.47 764.14 226.96"/></g><g id="_Radial_Repeat_-3"><polygon class="cls-2" points="782.6 271.91 744.98 269.01 754.62 297.22 782.6 271.91"/></g><g id="_Radial_Repeat_-4"><polygon class="cls-2" points="795.51 318.75 758.51 311.34 764.68 340.51 795.51 318.75"/></g><g id="_Radial_Repeat_-5"><polygon class="cls-2" points="802.68 366.81 766.84 354.99 769.45 384.69 802.68 366.81"/></g><g id="_Radial_Repeat_-6"><polygon class="cls-2" points="804 415.38 769.85 399.33 768.85 429.12 804 415.38"/></g><g id="_Radial_Repeat_-7"><polygon class="cls-2" points="799.45 463.75 767.48 443.7 762.91 473.16 799.45 463.75"/></g><g id="_Radial_Repeat_-8"><polygon class="cls-2" points="789.11 511.23 759.79 487.47 751.69 516.16 789.11 511.23"/></g><g id="_Radial_Repeat_-9"><polygon class="cls-2" points="773.11 557.11 746.87 529.99 735.38 557.49 773.11 557.11"/></g><g id="_Radial_Repeat_-10"><polygon class="cls-2" points="751.7 600.73 728.92 570.64 714.19 596.56 751.7 600.73"/></g><g id="_Radial_Repeat_-11"><polygon class="cls-2" points="725.19 641.44 706.2 608.83 688.45 632.78 725.19 641.44"/></g><g id="_Radial_Repeat_-12"><polygon class="cls-2" points="693.96 678.67 679.04 644 658.54 665.64 693.96 678.67"/></g><g id="_Radial_Repeat_-13"><polygon class="cls-2" points="658.47 711.85 647.84 675.64 624.88 694.65 658.47 711.85"/></g><g id="_Radial_Repeat_-14"><polygon class="cls-2" points="619.23 740.52 613.05 703.29 587.96 719.39 619.23 740.52"/></g><g id="_Radial_Repeat_-15"><polygon class="cls-2" points="576.83 764.24 575.18 726.54 548.33 739.5 576.83 764.24"/></g><g id="_Radial_Repeat_-16"><polygon class="cls-2" points="531.87 782.68 534.79 745.05 506.57 754.68 531.87 782.68"/></g><g id="_Radial_Repeat_-17"><polygon class="cls-2" points="485.02 795.56 492.45 758.56 463.28 764.71 485.02 795.56"/></g><g id="_Radial_Repeat_-18"><polygon class="cls-2" points="436.96 802.7 448.8 766.87 419.1 769.46 436.96 802.7"/></g><g id="_Radial_Repeat_-19"><polygon class="cls-2" points="388.39 803.99 404.46 769.85 374.66 768.84 388.39 803.99"/></g><g id="_Radial_Repeat_-20"><polygon class="cls-2" points="340.02 799.42 360.09 767.46 330.63 762.86 340.02 799.42"/></g><g id="_Radial_Repeat_-21"><polygon class="cls-2" points="292.55 789.04 316.32 759.74 287.64 751.63 292.55 789.04"/></g><g id="_Radial_Repeat_-22"><polygon class="cls-2" points="246.68 773.02 273.81 746.8 246.31 735.29 246.68 773.02"/></g><g id="_Radial_Repeat_-23"><polygon class="cls-2" points="203.07 751.58 233.17 728.82 207.26 714.08 203.07 751.58"/></g><g id="_Radial_Repeat_-24"><polygon class="cls-2" points="162.37 725.05 195 706.08 171.05 688.32 162.37 725.05"/></g><g id="_Radial_Repeat_-25"><polygon class="cls-2" points="125.16 693.8 159.84 678.9 138.21 658.38 125.16 693.8"/></g><g id="_Radial_Repeat_-26"><polygon class="cls-2" points="92 658.29 128.22 647.68 109.22 624.71 92 658.29"/></g><g id="_Radial_Repeat_-27"><polygon class="cls-2" points="63.36 619.04 100.59 612.88 84.5 587.78 63.36 619.04"/></g><g id="_Radial_Repeat_-28"><polygon class="cls-2" points="39.66 576.62 77.36 574.99 64.42 548.14 39.66 576.62"/></g><g id="_Radial_Repeat_-29"><polygon class="cls-2" points="21.25 531.65 58.87 534.59 49.26 506.37 21.25 531.65"/></g><g id="_Radial_Repeat_-30"><polygon class="cls-2" points="8.39 484.79 45.39 492.24 39.25 463.07 8.39 484.79"/></g><g id="_Radial_Repeat_-31"><polygon class="cls-2" points="1.28 436.73 37.11 448.58 34.53 418.88 1.28 436.73"/></g><g id="_Radial_Repeat_-32"><polygon class="cls-2" points=".02 388.15 34.15 404.25 35.18 374.45 .02 388.15"/></g><g id="_Radial_Repeat_-33"><polygon class="cls-2" points="4.62 339.78 36.57 359.87 41.18 330.42 4.62 339.78"/></g><g id="_Radial_Repeat_-34"><polygon class="cls-2" points="15.02 292.32 44.31 316.12 52.44 287.43 15.02 292.32"/></g><g id="_Radial_Repeat_-35"><polygon class="cls-2" points="31.07 246.46 57.28 273.61 68.81 246.12 31.07 246.46"/></g><g id="_Radial_Repeat_-36"><polygon class="cls-2" points="52.53 202.87 75.27 232.98 90.03 207.08 52.53 202.87"/></g><g id="_Radial_Repeat_-37"><polygon class="cls-2" points="79.09 162.18 98.04 194.82 115.81 170.89 79.09 162.18"/></g><g id="_Radial_Repeat_-38"><polygon class="cls-2" points="110.37 124.99 125.24 159.68 145.77 138.06 110.37 124.99"/></g><g id="_Radial_Repeat_-39"><polygon class="cls-2" points="145.9 91.85 156.48 128.08 179.46 109.09 145.9 91.85"/></g><g id="_Radial_Repeat_-40"><polygon class="cls-2" points="185.16 63.23 191.3 100.47 216.41 84.4 185.16 63.23"/></g><g id="_Radial_Repeat_-41"><polygon class="cls-2" points="227.59 39.56 229.19 77.26 256.06 64.33 227.59 39.56"/></g><g id="_Radial_Repeat_-42"><polygon class="cls-2" points="272.57 21.17 269.61 58.79 297.84 49.2 272.57 21.17"/></g><g id="_Radial_Repeat_-43"><polygon class="cls-2" points="319.43 8.34 311.96 45.33 341.14 39.21 319.43 8.34"/></g><g id="_Radial_Repeat_-44"><polygon class="cls-2" points="367.5 1.26 355.63 37.08 385.33 34.52 367.5 1.26"/></g><g id="_Radial_Repeat_-45"><polygon class="cls-2" points="416.08 .02 399.97 34.15 429.76 35.19 416.08 .02"/></g><g id="_Radial_Repeat_-46"><polygon class="cls-2" points="464.45 4.65 444.34 36.59 473.79 41.22 464.45 4.65"/></g><g id="_Radial_Repeat_-47"><polygon class="cls-2" points="511.9 15.08 488.09 44.36 516.77 52.51 511.9 15.08"/></g><g id="_Radial_Repeat_-48"><polygon class="cls-2" points="557.76 31.16 530.59 57.35 558.07 68.9 557.76 31.16"/></g><g id="_Radial_Repeat_-49"><polygon class="cls-2" points="601.34 52.65 571.21 75.37 597.1 90.15 601.34 52.65"/></g><g id="_Radial_Repeat_-50"><polygon class="cls-2" points="642.01 79.23 609.36 98.16 633.28 115.95 642.01 79.23"/></g><g id="_Radial_Repeat_-51"><polygon class="cls-2" points="679.18 110.53 644.48 125.38 666.09 145.92 679.18 110.53"/></g><g id="_Radial_Repeat_-52"><polygon class="cls-2" points="712.3 146.08 676.07 156.64 695.04 179.63 712.3 146.08"/></g><g id="_Radial_Repeat_-53"><polygon class="cls-2" points="722.52 173.48 686.21 181.4 703.29 205.27 722.52 173.48"/></g><g id="_Radial_Repeat_-54"><polygon class="cls-2" points="747.82 213.8 710.82 217.28 724.89 243.04 747.82 213.8"/></g><g id="_Radial_Repeat_-55"><polygon class="cls-2" points="768.07 256.88 730.93 255.87 741.79 283.14 768.07 256.88"/></g><g id="_Radial_Repeat_-56"><polygon class="cls-2" points="782.98 302.08 746.23 296.61 753.72 324.99 782.98 302.08"/></g><g id="_Radial_Repeat_-57"><polygon class="cls-2" points="792.34 348.76 756.51 338.89 760.53 367.97 792.34 348.76"/></g><g id="_Radial_Repeat_-58"><polygon class="cls-2" points="795.99 396.22 761.61 382.1 762.1 411.45 795.99 396.22"/></g><g id="_Radial_Repeat_-59"><polygon class="cls-2" points="793.89 443.77 761.47 425.61 758.41 454.81 793.89 443.77"/></g><g id="_Radial_Repeat_-60"><polygon class="cls-2" points="786.08 490.73 756.08 468.79 749.53 497.4 786.08 490.73"/></g><g id="_Radial_Repeat_-61"><polygon class="cls-2" points="772.66 536.4 745.53 511 735.57 538.62 772.66 536.4"/></g><g id="_Radial_Repeat_-62"><polygon class="cls-2" points="753.83 580.12 729.96 551.64 716.74 577.85 753.83 580.12"/></g><g id="_Radial_Repeat_-63"><polygon class="cls-2" points="729.87 621.24 709.61 590.1 693.32 614.52 729.87 621.24"/></g><g id="_Radial_Repeat_-64"><polygon class="cls-2" points="701.13 659.19 684.76 625.82 665.66 648.1 701.13 659.19"/></g><g id="_Radial_Repeat_-65"><polygon class="cls-2" points="668.01 693.38 655.79 658.29 634.14 678.11 668.01 693.38"/></g><g id="_Radial_Repeat_-66"><polygon class="cls-2" points="631.02 723.34 623.12 687.03 599.23 704.09 631.02 723.34"/></g><g id="_Radial_Repeat_-67"><polygon class="cls-2" points="590.68 748.61 587.22 711.61 561.45 725.67 590.68 748.61"/></g><g id="_Radial_Repeat_-68"><polygon class="cls-2" points="547.59 768.84 548.62 731.69 521.34 742.54 547.59 768.84"/></g><g id="_Radial_Repeat_-69"><polygon class="cls-2" points="502.38 783.73 507.88 746.97 479.49 754.45 502.38 783.73"/></g><g id="_Radial_Repeat_-70"><polygon class="cls-2" points="455.7 793.05 465.59 757.23 436.51 761.23 455.7 793.05"/></g><g id="_Radial_Repeat_-71"><polygon class="cls-2" points="408.24 796.68 422.37 762.31 393.02 762.77 408.24 796.68"/></g><g id="_Radial_Repeat_-72"><polygon class="cls-2" points="360.68 794.55 378.86 762.14 349.67 759.06 360.68 794.55"/></g><g id="_Radial_Repeat_-73"><polygon class="cls-2" points="313.73 786.71 335.69 756.73 307.08 750.15 313.73 786.71"/></g><g id="_Radial_Repeat_-74"><polygon class="cls-2" points="268.07 773.27 293.48 746.15 265.87 736.17 268.07 773.27"/></g><g id="_Radial_Repeat_-75"><polygon class="cls-2" points="224.36 754.41 252.86 730.56 226.65 717.32 224.36 754.41"/></g><g id="_Radial_Repeat_-76"><polygon class="cls-2" points="183.25 730.43 214.41 710.18 189.99 693.89 183.25 730.43"/></g><g id="_Radial_Repeat_-77"><polygon class="cls-2" points="145.32 701.66 178.7 685.32 156.42 666.2 145.32 701.66"/></g><g id="_Radial_Repeat_-78"><polygon class="cls-2" points="111.15 668.53 146.25 656.33 126.44 634.66 111.15 668.53"/></g><g id="_Radial_Repeat_-79"><polygon class="cls-2" points="81.21 631.52 117.53 623.64 100.48 599.74 81.21 631.52"/></g><g id="_Radial_Repeat_-80"><polygon class="cls-2" points="55.96 591.16 92.96 587.72 78.92 561.95 55.96 591.16"/></g><g id="_Radial_Repeat_-81"><polygon class="cls-2" points="35.76 548.06 72.9 549.11 62.07 521.83 35.76 548.06"/></g><g id="_Radial_Repeat_-82"><polygon class="cls-2" points="20.9 502.84 57.65 508.36 50.19 479.97 20.9 502.84"/></g><g id="_Radial_Repeat_-83"><polygon class="cls-2" points="11.6 456.16 47.42 466.07 43.43 436.98 11.6 456.16"/></g><g id="_Radial_Repeat_-84"><polygon class="cls-2" points="8 408.69 42.36 422.85 41.91 393.5 8 408.69"/></g><g id="_Radial_Repeat_-85"><polygon class="cls-2" points="10.15 361.14 42.56 379.34 45.65 350.14 10.15 361.14"/></g><g id="_Radial_Repeat_-86"><polygon class="cls-2" points="18.02 314.2 47.99 336.16 54.59 307.56 18.02 314.2"/></g><g id="_Radial_Repeat_-87"><polygon class="cls-2" points="31.49 268.54 58.6 293.96 68.59 266.36 31.49 268.54"/></g><g id="_Radial_Repeat_-88"><polygon class="cls-2" points="50.37 224.84 74.21 253.35 87.46 227.15 50.37 224.84"/></g><g id="_Radial_Repeat_-89"><polygon class="cls-2" points="74.38 183.74 94.61 214.91 110.92 190.51 74.38 183.74"/></g><g id="_Radial_Repeat_-90"><polygon class="cls-2" points="103.17 145.83 119.5 179.22 138.63 156.96 103.17 145.83"/></g><g id="_Radial_Repeat_-91"><polygon class="cls-2" points="136.32 111.67 148.5 146.78 170.18 126.99 136.32 111.67"/></g><g id="_Radial_Repeat_-92"><polygon class="cls-2" points="173.35 81.76 181.21 118.08 205.12 101.05 173.35 81.76"/></g><g id="_Radial_Repeat_-93"><polygon class="cls-2" points="213.72 56.53 217.14 93.54 242.92 79.51 213.72 56.53"/></g><g id="_Radial_Repeat_-94"><polygon class="cls-2" points="256.83 36.36 255.76 73.5 283.05 62.69 256.83 36.36"/></g><g id="_Radial_Repeat_-95"><polygon class="cls-2" points="302.06 21.52 296.52 58.27 324.92 50.82 302.06 21.52"/></g><g id="_Radial_Repeat_-96"><polygon class="cls-2" points="348.75 12.26 338.82 48.06 367.91 44.1 348.75 12.26"/></g><g id="_Radial_Repeat_-97"><polygon class="cls-2" points="396.22 8.68 382.04 43.03 411.4 42.6 396.22 8.68"/></g><g id="_Radial_Repeat_-98"><polygon class="cls-2" points="443.77 10.86 425.56 43.25 454.75 46.36 443.77 10.86"/></g><g id="_Radial_Repeat_-99"><polygon class="cls-2" points="490.71 18.76 468.72 48.71 497.33 55.32 490.71 18.76"/></g><g id="_Radial_Repeat_-100"><polygon class="cls-2" points="536.36 32.26 510.92 59.34 538.52 69.35 536.36 32.26"/></g><g id="_Radial_Repeat_-101"><polygon class="cls-2" points="580.05 51.16 551.53 74.98 577.71 88.25 580.05 51.16"/></g><g id="_Radial_Repeat_-102"><polygon class="cls-2" points="621.13 75.19 589.95 95.4 614.35 111.73 621.13 75.19"/></g><g id="_Radial_Repeat_-103"><polygon class="cls-2" points="659.02 104.01 625.63 120.31 647.88 139.46 659.02 104.01"/></g><g id="_Radial_Repeat_-104"><polygon class="cls-2" points="693.16 137.18 658.05 149.33 677.83 171.03 693.16 137.18"/></g></g><g id="Layer_4"><path class="cls-4" d="M330.48,335.21L62.54,799.3c-23.81,41.24,5.95,92.78,53.57,92.78h535.89c47.62,0,77.38-51.55,53.57-92.78l-267.94-464.09c-23.81-41.24-83.33-41.24-107.14,0Z"/><polygon class="cls-3" points="390.38 402 362.03 416.91 360.76 448.92 387.85 466.03 416.21 451.12 417.48 419.1 390.38 402"/></g></svg>