<?xml version="1.0" encoding="UTF-8"?><svg id="Layer_1" xmlns="http://www.w3.org/2000/svg" xmlns:xlink="http://www.w3.org/1999/xlink" viewBox="0 0 328.2 180.27"><defs><style>.cls-1{fill:url(#linear-gradient-2);stroke-width:.88px;}.cls-1,.cls-2,.cls-3,.cls-4,.cls-5,.cls-6{stroke-miterlimit:10;}.cls-1,.cls-2,.cls-3,.cls-4,.cls-6{stroke:#534741;}.cls-2{stroke-width:.61px;}.cls-2,.cls-3{fill:#1a1a1a;}.cls-3,.cls-6{stroke-width:.4px;}.cls-7{fill:#666;}.cls-4{fill:#8c6239;stroke-width:3px;}.cls-5{fill:none;stroke:#333;stroke-width:12.4px;}.cls-8{fill:#a67c52;}.cls-9{fill:url(#linear-gradient);}</style><linearGradient id="linear-gradient" x1="175.2" y1="111.05" x2="175.2" y2="16.05" gradientUnits="userSpaceOnUse"><stop offset="0" stop-color="#333"/><stop offset=".57" stop-color="#192a49"/><stop offset=".87" stop-color="#ccc"/><stop offset="1" stop-color="#999"/></linearGradient><linearGradient id="linear-gradient-2" x1="368.86" y1="-118.47" x2="368.86" y2="-143.77" gradientTransform="translate(-111.34 -92.06) rotate(45)" gradientUnits="userSpaceOnUse"><stop offset="0" stop-color="#000"/><stop offset=".45" stop-color="#999"/><stop offset=".99" stop-color="#666"/></linearGradient></defs><circle class="cls-6" cx="183.47" cy="123.32" r="21.77"/><circle class="cls-3" cx="187.43" cy="125.3" r="21.77"/><circle class="cls-8" cx="187.7" cy="125.55" r="3.5"/><path class="cls-4" d="M202.8,24.89l-58.59,90.05c-4.65,7.15.48,16.6,9.01,16.6h117.18c8.53,0,13.66-9.46,9.01-16.6l-58.59-90.05c-4.24-6.51-13.77-6.51-18.01,0Z"/><rect class="cls-7" x="242.2" y="2.05" width="10" height="16" transform="translate(-.19 12.65) rotate(-2.93)"/><path class="cls-9" d="M286.7,16.05c-2,0-9.47.02-9.71.04L22.2,24.05v76l254.26,10.93c.41.05,1.74.05,1.74.05.89-.04,6.5.03,8.5.03,22.92,0,41.5-21.27,41.5-47.5s-18.58-47.5-41.5-47.5Z"/><ellipse cx="22.2" cy="62.05" rx="10" ry="38"/><rect class="cls-7" x="246.2" y=".05" width="2" height="4" transform="translate(.22 12.64) rotate(-2.93)"/><ellipse class="cls-5" cx="18.2" cy="62.05" rx="12" ry="39"/><path class="cls-4" d="M232.8,50.39l-58.59,90.05c-4.65,7.15.48,16.6,9.01,16.6h117.18c8.53,0,13.66-9.46,9.01-16.6l-58.59-90.05c-4.24-6.51-13.77-6.51-18.01,0Z"/><circle class="cls-6" cx="209.47" cy="153.32" r="21.77"/><circle class="cls-3" cx="213.43" cy="155.3" r="21.77"/><circle class="cls-8" cx="213.7" cy="155.55" r="3.5"/><circle class="cls-6" cx="279.47" cy="156.32" r="21.77"/><circle class="cls-3" cx="283.43" cy="158.3" r="21.77"/><circle class="cls-8" cx="283.7" cy="158.55" r="3.5"/><polygon class="cls-1" points="256.31 72.27 245.98 61.94 231.87 65.72 228.09 79.83 238.42 90.16 252.53 86.38 256.31 72.27"/><circle class="cls-2" cx="242.2" cy="76.05" r="4.5"/></svg>