<?xml version="1.0" encoding="UTF-8"?><svg id="Layer_1" xmlns="http://www.w3.org/2000/svg" xmlns:xlink="http://www.w3.org/1999/xlink" viewBox="0 0 75 73.5"><defs><style>.cls-1{fill:url(#linear-gradient-2);}.cls-2,.cls-3,.cls-4{fill:#4d4d4d;}.cls-3{stroke-width:3px;}.cls-3,.cls-4{stroke:#000;stroke-miterlimit:10;}.cls-5{fill:url(#linear-gradient-4);}.cls-6{fill:url(#linear-gradient-3);}.cls-7{fill:url(#linear-gradient-5);}.cls-4{stroke-width:2px;}.cls-8{fill:url(#linear-gradient);}</style><linearGradient id="linear-gradient" x1="21.5" y1="31.92" x2="44.5" y2="31.92" gradientTransform="translate(75 75) rotate(-180)" gradientUnits="userSpaceOnUse"><stop offset="0" stop-color="#998675"/><stop offset=".6" stop-color="#000"/><stop offset="1" stop-color="#998675"/></linearGradient><linearGradient id="linear-gradient-2" x1="51.19" y1="33.95" x2="65.39" y2="33.95" xlink:href="#linear-gradient"/><linearGradient id="linear-gradient-3" x1="60.5" y1="25.33" x2="73.5" y2="25.33" xlink:href="#linear-gradient"/><linearGradient id="linear-gradient-4" x1="40.04" y1="37.5" x2="55.5" y2="37.5" xlink:href="#linear-gradient"/><linearGradient id="linear-gradient-5" x1="2.51" y1="27.36" x2="28.5" y2="27.36" xlink:href="#linear-gradient"/></defs><rect class="cls-2" x="16.71" y="9.61" width="46.65" height="8.11" transform="translate(80.07 27.34) rotate(180)"/><polygon class="cls-8" points="42 60.32 53.5 25.84 30.5 25.84 42 60.32"/><polygon class="cls-1" points="16.71 56.26 23.81 25.84 9.61 25.84 16.71 56.26"/><polygon class="cls-6" points="8 73.5 14.5 25.84 1.5 25.84 8 73.5"/><polygon class="cls-5" points="27.23 49.16 34.96 25.84 19.5 25.84 27.23 49.16"/><polygon class="cls-7" points="59.49 69.44 72.49 25.84 46.5 25.84 59.49 69.44"/><rect class="cls-3" x="1.5" y="1.5" width="72" height="8.11" transform="translate(75 11.11) rotate(180)"/><rect class="cls-4" x="1.5" y="17.73" width="72" height="8.11" transform="translate(75 43.56) rotate(180)"/></svg>