<?xml version="1.0" encoding="UTF-8"?><svg xmlns="http://www.w3.org/2000/svg" xmlns:xlink="http://www.w3.org/1999/xlink" viewBox="0 0 457.65 554.06"><defs><style>.cls-1{stroke-width:3px;}.cls-1,.cls-2{fill:#fff;}.cls-1,.cls-3{stroke:#000;stroke-miterlimit:10;}.cls-4{fill:#f5852b;}.cls-5{fill:#ff7bac;}.cls-6{fill:#48aa42;}.cls-3{fill:url(#radial-gradient);stroke-width:2px;}.cls-7{fill:#ed1c24;}.cls-8{fill:#56a1d4;}</style><radialGradient id="radial-gradient" cx="228.83" cy="277.03" fx="228.83" fy="277.03" r="251.3" gradientUnits="userSpaceOnUse"><stop offset="0" stop-color="#fff"/><stop offset="1" stop-color="#666"/></radialGradient></defs><g id="body"><path class="cls-3" d="M423.68,402.57v-18.21l31.38-3.64-31.38-23.74v-34.59l22.1-1.69-22.1-18.13v-36.19l22.1-1.69-22.1-18.13v-25.57l26.95-16.37-26.95-5.96v-31.92l26.53-19.14-27.23-3.79c-3.35-32.06-18.59-60.59-41.24-81.08l23.46-29.23-45.26,10.03,6.79-36.17-32.8,28.14c-10.56-3.26-21.71-5.17-33.25-5.55V4.06l-20.73,25.82h-29.16l-16.07-26.93-3.75,26.93h-46.91l-2.76-23.78-14.94,23.78h-3.38c-11.79,0-23.2,1.61-34.04,4.61l-25.43-25.1,3.86,33.24c-8.04,3.91-15.61,8.64-22.6,14.09l-31.27-11.44,15.63,25.87c-17.25,18.8-28.91,42.8-32.39,69.38l-29.32,4.08,28.23,20.37v30.32l-28.65,6.33,28.65,17.4v23.14l-23.8,19.53,23.8,1.82v34.66l-23.8,19.53,23.8,1.82v33.17l-33.09,25.03,33.09,3.84v21.01c0,2.74.1,5.46.27,8.16l-28.86,5.07,32.42,17.81c3.36,13.4,8.84,25.95,16.07,37.28l-15.04,24.89,26.42-9.67c6.36,7.3,13.52,13.87,21.37,19.57l-2.79,23.99,15.87-15.66c15.12,8.38,32.13,13.76,50.23,15.36l11.68,18.6,2.1-18.09h48.37l2.96,21.23,12.67-21.23h37.13l16.15,20.13v-20.13h13.69c9.95,0,19.63-1.14,28.92-3.3l23.44,20.11-4.87-25.97c4.83-1.94,9.51-4.17,14.03-6.67l29.32,6.5-13.51-16.84c21.85-16.73,38.12-40.38,45.54-67.69l31.35-17.22-27.41-4.82c.33-3.76.52-7.57.52-11.41Z"/></g><g id="logo"><path class="cls-4" d="M377.19,218.68v119.56c-46.4,34.93-90.55,72.97-137.07,107.72-1.42,1.06-3.02,2.78-4.78,2.92v-124.42c42.98-31.96,84.84-65.69,128.14-97.2,2.79-2.03,8.24-6.4,10.85-7.79.98-.52,1.53-1.1,2.86-.79ZM363.42,249.48c-1.59-.11-2.71,1.29-3.95,2.13-8.42,5.7-16.17,12.59-24.42,18.54v27.15l12.11-7.75,16.26-12.92v-27.15ZM330.99,272.99c-1.22-.27-1.77.45-2.68.97-8.62,4.87-17.55,13.88-26.08,19.31-.85,9.14.09,18.34-.41,27.54,1.37.27,2.14-.69,3.15-1.3,8.82-5.35,17.54-14.07,26.03-20.18v-26.34ZM363.42,284.34l-11.27,6.96c-5.57,4.26-11.05,9.08-17.1,12.49v28.37l13.15-8.95,15.22-12.53v-26.34ZM330.99,307.03c-1.48-.2-2.35,1.04-3.48,1.79-8.7,5.74-16.87,13.19-25.7,18.88v27.15l3.22-.42,25.96-20.25v-27.15Z"/><path class="cls-5" d="M218.33,445.64l-30.73-23.17-49.12-39.24-.53-90.25-38.48-26.36-3.53-.93v83.49l-14.59-10.94v-119.56l15.32,10.22c40.29,31.39,81.59,61.5,121.67,93.13v123.61Z"/><polygon class="cls-8" points="219.14 90.61 219.14 211.79 166.02 255.13 161.98 257.6 82.95 196.4 219.14 90.61"/><path class="cls-6" d="M235.35,90.61l136.16,106.59-79.85,60.37c-18.85-14.68-36.78-30.97-56.31-44.57v-122.39Z"/></g><g id="mouth"><path d="M285.11,359.01l-59.94-6-59.94,6c-3.63,0-6.56-2.94-6.56-6.56v.44c0-3.63,2.94-7,6.56-7l59.94-6,59.94,6c3.63,0,6.56,2.94,6.56,6.56v.44c0,3.63-2.94,6.13-6.56,6.13Z"/><rect class="cls-2" x="171.82" y="346.84" width="7" height="10.03" transform="translate(-33.2 18.6) rotate(-5.55)"/><rect class="cls-2" x="190.81" y="343.85" width="7" height="11.03" transform="translate(-46.33 30.14) rotate(-7.93)"/><rect class="cls-2" x="222.68" y="341.88" width="7" height="10"/><rect class="cls-2" x="258.9" y="345.89" width="7" height="9.04" transform="translate(42.17 -27.93) rotate(6.62)"/><rect class="cls-2" x="242.5" y="343.84" width="7" height="10.03" transform="translate(41.88 -26.05) rotate(6.62)"/><rect class="cls-2" x="277.85" y="346.89" width="7" height="10.03" transform="translate(42.47 -30.1) rotate(6.62)"/><rect class="cls-2" x="207.95" y="342.82" width="7" height="9.05" transform="translate(-45.88 32.48) rotate(-7.93)"/></g><g id="left-eye"><path class="cls-1" d="M202.5,204.32c-2.5,9.33-19.45,12.9-37.86,7.96-18.4-4.94-31.29-16.51-28.79-25.84s14.42-21.5,32.82-16.56c18.4,4.94,36.33,25.1,33.82,34.44Z"/></g><g id="left-eye-pupil"><circle class="cls-7" cx="182.68" cy="202.88" r="5"/></g><g id="right-eye"><path class="cls-1" d="M257.85,204.32c2.5,9.33,19.45,12.9,37.86,7.96,18.4-4.94,31.29-16.51,28.79-25.84s-14.42-21.5-32.82-16.56-36.33,25.1-33.82,34.44Z"/></g><g id="right-eye-pupil"><circle class="cls-7" cx="277.68" cy="202.88" r="5"/></g><g id="left-eye-brow"><path d="M210.38,160.85l-4.37,19.85s-62.11-52.3-100.01-65.92l104.39,46.07Z"/></g><g id="right-eye-brow"><path d="M235,160.85l4.37,19.85s62.11-52.3,100.01-65.92l-104.39,46.07Z"/></g></svg>