<?xml version="1.0" encoding="UTF-8"?><svg id="Layer_1" xmlns="http://www.w3.org/2000/svg" viewBox="0 0 894.22 386.35"><defs><style>.cls-1{fill:#fff;}.cls-2{fill:#001e49;}</style></defs><path class="cls-2" d="M408.22,330.99c16-61-121.04-44.11-112.63-48.86,10.36-5.85,69.78-40.14,72.52-43.35,4.55-5.35-.59-10.72-4.9-15.69-10.03-11.55-31.29-42.23-41.24-47.15-9.76-4.82-60.68-21.28-70.31-22.01-51.34-3.85-145.42,40.8-205.07,29.68-2.73-.51-7.09-24.89-44.82-8.46-14.55-13.08,65.4-59.77,74.27-65.05,38.74-23.04,105.21-59.33,145.59-77.46C237.59,25.47,296.16,1.27,309.34.24c67.82-5.28,104.73,76.12,130.64,127.16,27.12-15.43,33.05-47.58,56.34-67,5.45-4.54,74.16-47.5,78.59-48.83,74.49-22.31,242.34,73.62,298.9,123.98,9.77,8.7,22.67,16.35,20.06,31.64-62.5-18.5-31.5,7.22-39.82,16-7.53,7.95-29.74-14.35-35.99-16.01-4.61-1.23-3.17,12.47-5.43,13.8-21.2,12.51-42.47-22.54-58.14-21.97-4.93.18-3.33,13.05-5.24,14.44-11.3,8.26-21.69-12.1-33.2-16.36-13.89-5.14-39.26-15.14-50.52-18.64-11.09-3.45-99.83-18.83-104.81-16.99-3.66,1.35-43.41,48.76-33.2,61.67,5.11,5.79,153.03-45.78,135.19,11.8-2.45,7.89-123.55,75.79-137.9,91.11-4.68,5-14.11,36.94-14.62,38.95-1,4-3.47,8.13-9,14-2.16,2.29-11.36-9.41-13-12-2.74-4.31-26-29-55-11"/><ellipse class="cls-1" cx="612.22" cy="195.99" rx="13" ry="5" transform="translate(-30.27 175.09) rotate(-15.89)"/></svg>