<?xml version="1.0" encoding="UTF-8"?><svg id="Layer_1" xmlns="http://www.w3.org/2000/svg" viewBox="0 0 508.81 368.53"><defs><style>.cls-1{stroke-width:3.77px;}.cls-1,.cls-2{fill:#c8b39a;}.cls-1,.cls-2,.cls-3,.cls-4,.cls-5,.cls-6,.cls-7,.cls-8,.cls-9{stroke-miterlimit:10;}.cls-1,.cls-2,.cls-3,.cls-4,.cls-5,.cls-6,.cls-8,.cls-9{stroke:#774e27;}.cls-2,.cls-5{stroke-width:3px;}.cls-3{fill:#9a8777;stroke-width:3.5px;}.cls-10{fill:#fff;}.cls-4{fill:none;}.cls-4,.cls-6{stroke-width:3.46px;}.cls-5,.cls-6,.cls-8{fill:#d0e6ff;}.cls-7{fill:#3caddd;stroke:#3caddd;stroke-width:2px;}.cls-11{fill:#f7931e;}.cls-8{stroke-width:3.29px;}.cls-12{fill:#c4d5ff;}.cls-9{fill:#c69c6d;stroke-width:2.52px;}</style></defs><polygon class="cls-2" points="48.4 107.77 466.4 107.77 475.4 53.77 2.4 1.77 48.4 107.77"/><rect class="cls-2" x="42.9" y="136.27" width="418" height="209"/><rect class="cls-9" x="284.9" y="205.77" width="27.5" height="161.5"/><rect class="cls-9" x="76.9" y="201.77" width="27.5" height="161.5"/><polygon class="cls-2" points="460.4 136.77 42.4 136.77 33.4 82.77 506.4 30.77 460.4 136.77"/><polygon class="cls-1" points="195.54 150.27 70.9 188.52 70.9 188.52 70.9 206.27 319.9 206.27 319.9 188.52 319.9 188.52 195.54 150.27"/><polygon class="cls-3" points="194.72 159.27 84.51 192.27 84.4 198.77 309.4 197.77 309.4 193.77 194.72 159.27"/><rect class="cls-6" x="144.4" y="223.77" width="47" height="116"/><rect class="cls-6" x="196.4" y="223.77" width="47" height="116"/><line class="cls-4" x1="182.4" y1="267.77" x2="182.4" y2="295.77"/><line class="cls-4" x1="204.4" y1="268.27" x2="204.4" y2="296.27"/><line class="cls-7" x1="179.9" y1="237.27" x2="154.4" y2="264.77"/><line class="cls-7" x1="236.9" y1="305.27" x2="211.4" y2="332.77"/><line class="cls-7" x1="170.9" y1="236.27" x2="152.4" y2="255.77"/><line class="cls-7" x1="238.9" y1="314.27" x2="220.4" y2="333.77"/><line class="cls-7" x1="162.9" y1="235.27" x2="150.4" y2="248.77"/><rect class="cls-5" x="332.9" y="185.77" width="47.83" height="116"/><polyline class="cls-12" points="378.9 204.27 378.9 252.27 378.9 299.77 334.9 299.77 334.9 287.27 361.9 263.27"/><rect class="cls-2" x="332.9" y="310.77" width="47.83" height="23"/><rect class="cls-2" x="399.9" y="310.77" width="47.83" height="23"/><rect class="cls-8" x="399.57" y="185.77" width="47.83" height="116"/><polyline class="cls-12" points="445.7 204.27 445.7 252.52 445.7 300.27 400.9 300.27 400.9 287.27 428.4 263.58"/><rect class="cls-11" x="67.9" y="35.77" width="107.41" height="107.41"/><path class="cls-10" d="M78.74,79.54l2.71-2.66,1.07,1.09c-.29,1.66.66,3.16,1.47,4.32.35.47.74,1.05.21,1.57-.56.55-1.08.14-1.16.06l-4.3-4.38ZM82.3,76.04l4.61-4.53,11.75,11.96c.68.7.77.83,1.64.39.32-.17.65-.16.91.1.54.54-.05,1.19-.12,1.27l-5.32,5.23c-.08.07-.73.65-1.27.1-.26-.26-.25-.6-.08-.91.46-.85.33-.95-.36-1.64l-11.75-11.96ZM94.77,72.41c.07.08.48.6-.09,1.16-.53.52-1.1.12-1.56-.24-1.15-.83-2.63-1.81-4.29-1.55l-1.07-1.09,2.71-2.66,4.3,4.38Z"/><path class="cls-10" d="M109.32,73.01c.68.7.78.83,1.64.39.32-.17.65-.16.91.1.54.55-.05,1.19-.12,1.27l-5.32,5.23c-.08.07-.73.65-1.27.1-.26-.26-.26-.6-.09-.91.46-.85.33-.95-.36-1.64l-9.68-9.86c-.68-.7-.78-.83-1.64-.39-.32.17-.65.16-.91-.1-.54-.55.05-1.19.12-1.27l5.32-5.23c.08-.07.73-.65,1.27-.1.26.26.26.6.08.91-.46.85-.33.95.36,1.64l9.68,9.86ZM107.41,66.05l-1.66,1.63-1.07-1.09,1.66-1.63-4.19-4.27c-.68-.7-.78-.83-1.64-.39-.32.17-.65.16-.91-.1-.54-.55.05-1.19.12-1.27l5.32-5.23c.08-.07.73-.65,1.27-.1.26.26.26.6.08.91-.46.85-.33.95.36,1.64l9.68,9.86c.68.7.78.83,1.64.39.32-.17.65-.16.91.1.54.55-.05,1.19-.12,1.27l-5.32,5.23c-.08.07-.73.65-1.27.1-.26-.26-.26-.6-.09-.91.46-.85.33-.95-.36-1.64l-4.42-4.5Z"/><path class="cls-10" d="M108.19,50.62l4.97-4.88,13.82,14.07-4.97,4.88c-.08.07-.73.65-1.27.1-.26-.26-.26-.6-.09-.91.46-.85.33-.95-.36-1.64l-9.68-9.86c-.68-.7-.78-.83-1.64-.39-.32.17-.65.16-.91-.1-.54-.55.05-1.19.12-1.27ZM114,44.91l4.2-4.12,3.75,3.82c.09.09.42.47-.14,1.03-.32.31-.6.22-.97.03-1.99-1.04-3.85-1.02-5.76.34l-1.07-1.09ZM120.17,51.2c.59-.98.22-2.07-.31-2.95-.22-.41-.4-.83,0-1.21.58-.57,1.15.2,1.3.35l3.99,4.06c.15.15.91.74.32,1.31-.4.39-.8.2-1.21-.03-.87-.55-1.95-.93-2.94-.36l-1.14-1.17ZM126.75,57.89c1.34-1.68,1.49-3.86.52-5.87-.15-.41-.33-.82.01-1.16.6-.59,1.1.03,1.17.1l3.7,3.76-4.33,4.25-1.07-1.09Z"/><path class="cls-10" d="M127.51,131.88l-3.58,3.52c-.31.3-.69.62-1.09.21-.19-.2-.19-.45-.06-.69.34-.64.24-.71-.27-1.23l-7.26-7.39c-.21-.21-.55-.62-.9-.44-.38.18-.69.4-1.04.05-.36-.37-.05-.76.23-1.03l3.61-3.55,10.36,10.55ZM117.78,120.7c2.37-2.38,6.01-2.69,9.75.79,3.41,3.16,2.95,7.46.61,9.77l-.8-.82c.75-.96,0-1.8-.52-2.34l-5.9-6.01c-.53-.54-1.36-1.3-2.33-.57l-.8-.82Z"/><path class="cls-10" d="M123.84,114.76l3.73-3.66,10.36,10.55-3.73,3.66c-.06.05-.55.48-.95.08-.19-.2-.19-.45-.06-.69.34-.64.25-.71-.27-1.23l-7.26-7.39c-.51-.52-.58-.62-1.23-.29-.24.12-.49.12-.68-.07-.4-.41.04-.9.09-.95ZM128.2,110.48l3.15-3.09,2.81,2.86c.07.07.32.35-.11.77-.24.24-.45.16-.73.02-1.49-.78-2.89-.77-4.32.25l-.8-.82ZM132.83,115.19c.44-.74.17-1.55-.23-2.21-.17-.31-.3-.62,0-.91.44-.43.87.15.98.26l2.99,3.05c.11.11.68.55.24.98-.3.29-.6.15-.91-.02-.65-.41-1.46-.7-2.21-.27l-.86-.87ZM137.76,120.21c1-1.26,1.12-2.9.39-4.4-.11-.31-.25-.62,0-.87.45-.44.83.02.88.08l2.77,2.82-3.25,3.19-.8-.82Z"/><path class="cls-10" d="M134.87,107.03c-.51-.52-.58-.62-1.23-.29-.24.12-.49.12-.68-.08-.4-.41.04-.89.09-.95l3.72-3.66,8.81,8.97c.51.52.58.62,1.23.29.24-.12.49-.12.68.08.4.41-.04.89-.09.95l-3.99,3.92c-.06.06-.55.48-.95.08-.19-.2-.19-.45-.06-.69.34-.64.25-.71-.27-1.23l-7.26-7.39ZM137.41,101.43c1.34-1.32,2.27-1.95,3.31-2.22,1.65-.4,2.98.13,4.14,1.31,1.16,1.19,1.67,2.52,1.23,4.16-.29,1.03-.94,1.95-2.28,3.27l-.8-.82c.68-.97.15-1.59-.52-2.28l-2.09-2.13c-.62-.63-1.32-1.09-2.18-.47l-.8-.82Z"/><path class="cls-10" d="M147.45,92.76c-.43.89-.07,1.37.28,1.72l7.18,7.31c.35.35.82.72,1.72.31l.8.82c-3.25,2.67-7.02,1.63-9.78-1.18-2.76-2.81-3.73-6.59-1-9.8l.8.82ZM157.26,101.48c.43-.89.07-1.37-.28-1.72l-7.18-7.31c-.35-.35-.82-.72-1.72-.31l-.8-.82c3.25-2.67,7.02-1.63,9.78,1.18,2.76,2.81,3.73,6.59,1,9.8l-.8-.82Z"/><path class="cls-10" d="M152.5,86.61l2.03-2,.8.82c-.22,1.24.5,2.37,1.1,3.24.26.35.55.79.16,1.18-.42.42-.81.1-.87.05l-3.23-3.29ZM155.16,84l3.46-3.4,8.81,8.97c.51.52.58.62,1.23.29.24-.12.49-.12.68.08.4.41-.04.89-.09.95l-3.99,3.92c-.06.06-.55.48-.95.08-.19-.2-.19-.45-.06-.69.34-.64.24-.71-.27-1.23l-8.81-8.97ZM164.52,81.27c.06.06.36.45-.06.87-.39.39-.83.09-1.17-.18-.86-.62-1.97-1.36-3.22-1.16l-.8-.82,2.03-2,3.23,3.29Z"/><path class="cls-10" d="M73.66,123.23l4.97-4.88,13.82,14.07-4.97,4.88c-.08.07-.73.65-1.27.1-.26-.26-.25-.6-.08-.91.46-.85.33-.95-.36-1.64l-9.68-9.86c-.68-.7-.77-.83-1.64-.39-.32.17-.65.16-.91-.1-.54-.55.05-1.19.12-1.27ZM79.47,117.52l4.2-4.12,3.75,3.82c.09.09.43.47-.14,1.02-.32.31-.6.22-.97.03-1.99-1.04-3.85-1.02-5.77.34l-1.07-1.09ZM85.64,123.8c.59-.98.22-2.07-.31-2.95-.22-.41-.4-.82,0-1.21.58-.57,1.15.2,1.3.35l3.99,4.06c.15.15.91.74.32,1.31-.4.39-.8.2-1.21-.03-.87-.55-1.95-.93-2.94-.36l-1.15-1.17ZM92.22,130.5c1.34-1.68,1.49-3.86.52-5.87-.14-.41-.33-.82.01-1.16.6-.59,1.1.03,1.17.1l3.7,3.76-4.33,4.25-1.07-1.09Z"/><path class="cls-10" d="M104.88,120.21l-4.97,4.88c-.08.07-.73.65-1.27.1-.26-.26-.26-.6-.08-.92.46-.85.33-.95-.36-1.64l-9.68-9.86c-.68-.7-.78-.83-1.64-.39-.32.17-.65.16-.91-.1-.54-.55.05-1.19.12-1.27l5.32-5.23c.08-.07.73-.65,1.27-.1.26.26.26.6.08.91-.45.85-.33.95.36,1.64l11.75,11.97ZM104.66,118.29c1.32-1.7.89-3.87-.43-6.01-.31-.51-.2-.84.2-1.23.43-.42.82-.1,1.17.25l4.1,4.18-3.97,3.9-1.07-1.09Z"/><path class="cls-10" d="M97.27,100.04l4.97-4.88,13.82,14.07-4.97,4.88c-.08.07-.73.65-1.27.1-.26-.26-.25-.6-.08-.91.46-.85.33-.95-.36-1.64l-9.68-9.86c-.68-.7-.78-.83-1.64-.39-.32.17-.65.16-.91-.1-.54-.55.05-1.19.12-1.27ZM103.09,94.33l4.2-4.12,3.75,3.82c.09.09.42.47-.14,1.02-.32.31-.6.22-.97.03-1.99-1.04-3.85-1.02-5.76.34l-1.07-1.09ZM109.26,100.61c.59-.98.22-2.07-.31-2.95-.22-.41-.4-.82,0-1.21.58-.57,1.15.2,1.3.35l3.99,4.06c.15.15.91.74.32,1.31-.4.39-.8.2-1.21-.03-.87-.55-1.95-.93-2.94-.36l-1.15-1.17ZM115.83,107.31c1.34-1.68,1.49-3.87.52-5.87-.15-.41-.33-.82.01-1.16.6-.59,1.1.03,1.17.1l3.7,3.76-4.33,4.25-1.07-1.09Z"/><path class="cls-10" d="M129.7,95.84l-2.71,2.66-15.49-8.55c-.69-.4-.69-.51-1.42-.24-.34.11-.65.09-.91-.18-.61-.62.2-1.38.63-1.8l4.12-4.05c.43-.42,1.22-1.42,1.89-.75.72.73-.42,1.23.34,2,.22.23.35.28.63.45l10.35,5.87,2.57,4.57ZM123.67,88.05l-2.97-5.25c-.2-.39-.27-.54-.59-.86-.52-.53-1.06-.62-1.71-.31-.43.2-.8.35-1.17-.03-.57-.58.1-1.25.5-1.64l2.07-2.03c.41-.41,1.04-1.17,1.63-.56.41.41.2.73.03,1.19-.27.71-.34.97-.2,1.71.14.63.42,1.21.73,1.76l4.17,7.4-.04.04-2.43-1.42Z"/><path class="cls-10" d="M136.39,82.1l-2.75,2.7-.81-1.35,2.29-2.25-10.06-6.45-.75-1.26,4.16-4.08,14.5,9.12c.63.42,1,.75,1.75.46.37-.15.71-.22,1.04.12.5.51-.2,1.15-.55,1.5l-4.68,4.6c-.38.37-.96.87-1.44.38-.3-.3-.28-.51-.16-.88.21-.76.16-.97-.73-1.54l-1.8-1.08ZM128.81,78.41l4.55,8.17c.83,1.44,1.4,1.5,2.32,1.16.43-.16.8-.31,1.17.07.52.53-.1,1.1-.48,1.47l-2.16,2.12c-.38.37-1.07,1.01-1.61.47-.44-.45-.1-.75.11-1.36.19-.6.27-1.53-.68-3.21l-5.85-10.48.06-.06,2.58,1.65Z"/><path class="cls-10" d="M132.64,65.3l2.71-2.66,1.07,1.09c-.29,1.66.66,3.16,1.47,4.32.35.47.74,1.05.21,1.57-.56.55-1.08.14-1.16.06l-4.3-4.38ZM136.2,61.81l4.61-4.53,11.75,11.96c.68.7.78.83,1.64.39.32-.17.65-.16.91.1.54.55-.05,1.19-.12,1.27l-5.32,5.23c-.08.07-.73.65-1.27.1-.26-.26-.25-.6-.08-.92.46-.85.33-.95-.36-1.64l-11.75-11.96ZM148.67,58.17c.07.08.48.6-.08,1.16-.53.52-1.1.12-1.56-.24-1.15-.83-2.63-1.81-4.29-1.55l-1.07-1.09,2.71-2.66,4.3,4.38Z"/><path class="cls-10" d="M145.82,52.37l4.97-4.88,13.82,14.07-4.97,4.88c-.08.07-.73.65-1.27.1-.26-.26-.26-.6-.08-.92.46-.85.33-.95-.36-1.64l-9.68-9.86c-.68-.7-.78-.83-1.64-.39-.32.17-.65.16-.91-.1-.54-.55.05-1.19.12-1.27ZM151.63,46.66l4.2-4.12,3.75,3.82c.09.09.42.47-.14,1.02-.32.31-.6.22-.97.03-1.99-1.04-3.85-1.02-5.76.34l-1.07-1.09ZM157.8,52.94c.59-.98.22-2.07-.31-2.95-.22-.41-.4-.82,0-1.21.58-.57,1.15.2,1.3.35l3.99,4.06c.15.15.91.74.33,1.31-.4.39-.8.2-1.21-.03-.87-.55-1.95-.93-2.94-.36l-1.15-1.17ZM164.38,59.64c1.34-1.68,1.49-3.86.52-5.87-.15-.41-.33-.82.01-1.16.6-.59,1.1.03,1.17.1l3.7,3.76-4.33,4.25-1.07-1.09Z"/></svg>