<?xml version="1.0" encoding="UTF-8"?><svg id="Layer_1" xmlns="http://www.w3.org/2000/svg" viewBox="0 0 526.67 133.7"><defs><style>.cls-1{fill:#4e575d;}.cls-2{fill:#dd8138;}</style></defs><path class="cls-1" d="M141.15.66v133.03h58.36l.06-25.46h-30.09v-29.56h29.09v-23.66h-28.86v-28.89h29.74V.6l-58.3.06Z"/><path class="cls-1" d="M468.24.66v133.03h58.36l.06-25.46h-30.15v-29.56h29.09v-23.66h-28.8v-28.89h29.73V.6l-58.3.06Z"/><path class="cls-1" d="M0,.66v133.03h58.36l.06-25.46h-30.15v-29.56h29.09v-23.66h-28.8v-28.89h29.74V.6L0,.66Z"/><path class="cls-1" d="M69.58.42h28.04v107.33h31.14v25.94h-59.53L69.58.42Z"/><path class="cls-1" d="M208.21.24h29.85l15.01,100.34L268.21.3h29.85l-26.64,133.39-36.69-.06L208.21.24Z"/><path class="cls-1" d="M378.51,0h76.07l2.04,25.76h-24.77v107.93h-28.45V25.82h-26.82l1.93-25.82Z"/><path class="cls-2" d="M337.44,1.06l14.96,35.51-14.9,36.18-14.84-35.88,14.78-35.82Z"/><path class="cls-2" d="M354.44,38.29l-14.72,36,24.36,59.23h30.09l-39.73-95.23Z"/><path class="cls-2" d="M320.44,38.35l14.84,35.76-24.54,59.59h-30.09l39.78-95.35Z"/></svg>