<?xml version="1.0" encoding="UTF-8"?><svg id="Layer_1" xmlns="http://www.w3.org/2000/svg" viewBox="0 0 477.15 339.53"><defs><style>.cls-1{stroke-width:1.69px;}.cls-1,.cls-2,.cls-3{fill:#c8b39a;}.cls-1,.cls-2,.cls-3,.cls-4,.cls-5,.cls-6,.cls-7,.cls-8,.cls-9,.cls-10,.cls-11,.cls-12{stroke-miterlimit:10;}.cls-1,.cls-2,.cls-3,.cls-4,.cls-5,.cls-6,.cls-8,.cls-9,.cls-11,.cls-12{stroke:#774e27;}.cls-2{stroke-width:3.77px;}.cls-3,.cls-6{stroke-width:3px;}.cls-4{fill:#9a8777;stroke-width:3.5px;}.cls-13{fill:#fff;}.cls-5,.cls-7{fill:none;}.cls-5,.cls-9{stroke-width:3.46px;}.cls-6,.cls-8,.cls-9,.cls-11{fill:#d0e6ff;}.cls-7{stroke-linecap:round;stroke-width:3.07px;}.cls-7,.cls-10{stroke:#3caddd;}.cls-8{stroke-width:.63px;}.cls-10{fill:#3caddd;stroke-width:2px;}.cls-14{fill:#ed1c24;}.cls-11{stroke-width:3.29px;}.cls-15{fill:#c4d5ff;}.cls-12{fill:#c69c6d;stroke-width:2.52px;}</style></defs><rect class="cls-3" x="11.24" y="107.27" width="418" height="209"/><rect class="cls-12" x="253.24" y="176.77" width="27.5" height="161.5"/><rect class="cls-12" x="45.24" y="172.77" width="27.5" height="161.5"/><polygon class="cls-3" points="428.74 107.77 10.74 107.77 1.74 53.77 474.74 1.77 428.74 107.77"/><polygon class="cls-2" points="163.88 121.27 39.24 159.52 39.24 159.52 39.24 177.27 288.24 177.27 288.24 159.52 288.24 159.52 163.88 121.27"/><polygon class="cls-4" points="163.06 130.27 52.85 163.27 52.74 169.77 277.74 168.77 277.74 164.77 163.06 130.27"/><rect class="cls-9" x="112.74" y="194.77" width="47" height="116"/><rect class="cls-9" x="164.74" y="194.77" width="47" height="116"/><line class="cls-5" x1="150.74" y1="238.77" x2="150.74" y2="266.77"/><line class="cls-5" x1="172.74" y1="239.27" x2="172.74" y2="267.27"/><line class="cls-10" x1="148.24" y1="208.27" x2="122.74" y2="235.77"/><line class="cls-10" x1="205.24" y1="276.27" x2="179.74" y2="303.77"/><line class="cls-10" x1="139.24" y1="207.27" x2="120.74" y2="226.77"/><line class="cls-10" x1="207.24" y1="285.27" x2="188.74" y2="304.77"/><line class="cls-10" x1="131.24" y1="206.27" x2="118.74" y2="219.77"/><rect class="cls-6" x="301.24" y="156.77" width="47.83" height="116"/><polyline class="cls-15" points="347.24 175.27 347.24 223.27 347.24 270.77 303.24 270.77 303.24 258.27 330.24 234.27"/><rect class="cls-3" x="301.24" y="281.77" width="47.83" height="23"/><rect class="cls-1" x="308.24" y="288.27" width="33.28" height="10.5"/><rect class="cls-3" x="368.24" y="281.77" width="47.83" height="23"/><rect class="cls-11" x="367.91" y="156.77" width="47.83" height="116"/><polyline class="cls-15" points="414.04 175.27 414.04 223.52 414.04 271.27 369.24 271.27 369.24 258.27 396.73 234.58"/><rect class="cls-1" x="375.24" y="288.27" width="33.28" height="10.5"/><path class="cls-8" d="M85.85,88.63v-28.33c0-2.77-2.25-5.02-5.02-5.02h0c-2.95,0-5.34,2.39-5.34,5.34v28.02c-1.8,1.6-2.86,4.01-2.59,6.66.38,3.75,3.49,6.73,7.26,6.97,4.54.29,8.32-3.31,8.32-7.79,0-2.32-1.02-4.41-2.63-5.84Z"/><path class="cls-14" d="M84.92,69.81v20.11c1.34,1.19,2.19,2.92,2.19,4.86,0,3.73-3.14,6.72-6.92,6.48-3.13-.2-5.72-2.68-6.03-5.8-.22-2.2.66-4.21,2.15-5.54v-19.85"/><polygon class="cls-13" points="83.03 62.18 84.28 63.43 83.65 87.29 83.03 62.18"/><path class="cls-7" d="M91.93,69.6s12.12-8.09,19.39,0c0,0,11.31,8.09,17.78,0"/><path class="cls-7" d="M91.93,78.8s12.12-8.09,19.39,0c0,0,11.31,8.09,17.78,0"/><path class="cls-7" d="M94.23,87.99s12.12-8.09,19.39,0c0,0,11.31,8.09,17.78,0"/><path d="M147.22,64.37h14.4v4.8h-9.12v8.88h7.25v4.8h-7.25v10.32h9.12v4.8h-14.4v-33.6Z"/><path d="M164.46,64.37h5.28v28.8h8.69v4.8h-13.97v-33.6Z"/><path d="M180.97,64.37h14.4v4.8h-9.12v8.88h7.25v4.8h-7.25v10.32h9.12v4.8h-14.4v-33.6Z"/><path d="M197,64.37h5.33l3.5,26.4,3.5-26.4h4.85l-5.09,33.6h-7.01l-5.09-33.6Z"/><path d="M225.85,91.39h-6.1l-.91,6.58h-4.9l5.47-33.6h7.15l5.47,33.6h-5.28l-.91-6.58ZM225.18,86.83l-2.4-16.95-2.35,16.95h4.75Z"/><path d="M236.5,69.17h-5.52v-4.8h16.32v4.8h-5.52v28.8h-5.28v-28.8Z"/><path d="M249.85,64.37h14.4v4.8h-9.12v8.88h7.25v4.8h-7.25v10.32h9.12v4.8h-14.4v-33.6Z"/><path d="M285.22,91.39h-6.1l-.91,6.58h-4.9l5.47-33.6h7.15l5.47,33.6h-5.28l-.91-6.58ZM284.55,86.83l-2.4-16.95-2.35,16.95h4.75Z"/><path d="M293.91,64.37h5.28v33.6h-5.28v-33.6Z"/><path d="M303.12,64.37h7.82c5.47,0,7.82,2.54,7.82,7.73v2.06c0,3.46-1.1,5.66-3.46,6.62v.1c2.64.82,3.5,3.31,3.5,7.1v5.9c0,1.63.05,2.83.58,4.08h-5.38c-.29-.86-.48-1.39-.48-4.13v-6.14c0-3.12-.91-4.13-3.31-4.13h-1.82v14.4h-5.28v-33.6ZM310.33,78.77c1.97,0,3.17-.86,3.17-3.55v-2.59c0-2.4-.82-3.46-2.69-3.46h-2.4v9.6h1.92Z"/></svg>