<?xml version="1.0" encoding="UTF-8"?><svg id="Layer_1" xmlns="http://www.w3.org/2000/svg" xmlns:xlink="http://www.w3.org/1999/xlink" viewBox="0 0 500 125"><defs><style>.cls-1{fill:#262626;}.cls-2{fill:none;}.cls-3{fill:#f86832;}.cls-4{clip-path:url(#clippath);}</style><clipPath id="clippath"><rect class="cls-2" x="-273" y="-28" width="772.97" height="236.71"/></clipPath></defs><g class="cls-4"><path class="cls-1" d="M6.16,118.27V6.99c0-1.24,1-2.25,2.25-2.25h59.74c1.25,0,2.25,1.01,2.25,2.25v14.06c0,1.24-1,2.25-2.25,2.25H27.89c-1.24,0-2.25,1.01-2.25,2.25v25.13c0,1.24,1.01,2.25,2.25,2.25h36.85c1.24,0,2.25,1,2.25,2.25v14.06c0,1.24-1.01,2.25-2.25,2.25H27.89c-1.24,0-2.25,1-2.25,2.25v25.97c0,1.25,1.01,2.25,2.25,2.25h40.26c1.25,0,2.25,1.01,2.25,2.25v14.06c0,1.24-1,2.25-2.25,2.25H8.41c-1.25,0-2.25-1.01-2.25-2.25h0Z"/><path class="cls-1" d="M146.27,84.93c-1.49,0-2.57,1.42-2.18,2.84,2.92,10.53,12.45,17.59,25.01,17.59,9.52,0,18.91-3,26.02-7.07,1.5-.86,3.36.22,3.36,1.95v13.15c0,.84-.47,1.6-1.21,2-7.17,3.8-17.59,6.99-29.54,6.99-24.77,0-43.22-18.04-43.22-43.75s17.94-43.58,42.2-43.58,39.98,18.22,39.98,40.35c0,2.5-.31,5.42-.76,7.71-.21,1.06-1.13,1.82-2.21,1.82h-57.45ZM145.99,70.47h40.13c1.37,0,2.43-1.21,2.24-2.57-1.54-10.33-10.43-17.18-21.82-17.18s-20.4,7.39-22.75,16.99c-.35,1.41.75,2.76,2.2,2.76Z"/><path class="cls-1" d="M229.62,38.22l19.91,49.77c.73,1.95,3.48,1.96,4.21,0l20.23-49.79c.33-.88,1.17-1.46,2.11-1.46h14.97c1.58,0,2.67,1.59,2.1,3.07l-30.88,79.27c-.34.86-1.17,1.43-2.1,1.43h-16.74c-.93,0-1.76-.57-2.1-1.43l-30.88-79.27c-.58-1.48.51-3.07,2.1-3.07h14.96c.94,0,1.78.58,2.11,1.46h0Z"/><path class="cls-3" d="M347.42,119.05l-19.91-49.77c-.73-1.95-3.48-1.96-4.22,0l-20.23,49.79c-.33.88-1.17,1.46-2.11,1.46h-14.97c-1.58,0-2.67-1.59-2.1-3.07l30.88-79.27c.34-.86,1.17-1.43,2.1-1.43h16.74c.93,0,1.76.57,2.1,1.43l30.88,79.27c.58,1.48-.51,3.07-2.1,3.07h-14.96c-.94,0-1.78-.59-2.11-1.46h0Z"/><path class="cls-1" d="M439.54,84.93c-1.49,0-2.57,1.42-2.18,2.84,2.92,10.53,12.45,17.59,25.01,17.59,9.52,0,18.91-3,26.03-7.07,1.5-.86,3.36.22,3.36,1.95v13.15c0,.84-.47,1.6-1.22,2-7.16,3.8-17.59,6.99-29.53,6.99-24.77,0-43.22-18.04-43.22-43.75s17.94-43.58,42.2-43.58,39.98,18.22,39.98,40.35c0,2.5-.31,5.42-.77,7.71-.21,1.06-1.13,1.82-2.21,1.82h-57.45ZM439.27,70.47h40.13c1.36,0,2.43-1.21,2.23-2.57-1.54-10.33-10.43-17.18-21.82-17.18s-20.4,7.39-22.75,16.99c-.35,1.41.75,2.76,2.2,2.76Z"/><path class="cls-1" d="M116.01,101.97h-6.86c-1.24,0-2.13-.88-2.13-2.13V7.21c0-1.25-1.01-2.25-2.25-2.25h-15.38c-.95,0-1.73,1.72-1.73,1.72l.07,112.32c0,1.24,1,2.24,2.24,2.25l26.67.12c.95,0,1.73-.77,1.73-1.72l-.12-15.43c0-1.24-1.01-2.25-2.25-2.25Z"/><path class="cls-1" d="M410.91,36.93h-10.53c-1.24,0-2.25-1-2.25-2.25V7.01c0-1.24-1.01-2.25-2.25-2.25h-13.93c-1.24,0-2.25,1.01-2.25,2.25v27.68c0,1.24-1.01,2.25-2.25,2.25h-10.53c-1.24,0-2.25,1.01-2.25,2.25v12.11c0,1.25,1.01,2.25,2.25,2.25h9.47c1.24,0,2.25,1,2.25,2.25v48.38s-.02.08-.02.13v14.23c0,.47.14.91.39,1.27.4.61,1.09,1.01,1.88,1.01h15c.07,0,.13-.01.2-.02h11.47c1.24,0,2.25-1,2.25-2.25v-14.23c0-1.25-1.01-2.25-2.25-2.25h-7.17c-1.24,0-2.25-1.01-2.25-2.25v-44.01c0-1.25,1.01-2.25,2.25-2.25h10.53c1.25,0,2.25-1,2.25-2.25v-12.11c0-1.24-1-2.25-2.25-2.25Z"/></g></svg>