<?xml version="1.0" encoding="UTF-8"?>
<svg xmlns="http://www.w3.org/2000/svg" xmlns:xlink="http://www.w3.org/1999/xlink" viewBox="0 0 613.77 536.09">
  <defs>
    <style>
      .cls-1, .cls-2, .cls-3, .cls-4, .cls-5, .cls-6, .cls-7, .cls-8, .cls-9 {
        stroke-miterlimit: 10;
      }

      .cls-1, .cls-3 {
        fill: #fff;
      }

      .cls-1, .cls-3, .cls-9 {
        stroke: #754c24;
      }

      .cls-2 {
        stroke-width: 8.66px;
      }

      .cls-2, .cls-4, .cls-6, .cls-7, .cls-8 {
        stroke: #5f000a;
      }

      .cls-2, .cls-5, .cls-8 {
        fill: none;
      }

      .cls-3 {
        stroke-width: 3.89px;
      }

      .cls-10 {
        fill: #ec7c23;
      }

      .cls-4 {
        fill: url(#linear-gradient);
      }

      .cls-4, .cls-6, .cls-7 {
        stroke-width: 3px;
      }

      .cls-5 {
        stroke: #ec7c23;
        stroke-linecap: round;
      }

      .cls-5, .cls-8 {
        stroke-width: 17px;
      }

      .cls-11 {
        fill: #1a1a1a;
      }

      .cls-6 {
        fill: url(#linear-gradient-3);
      }

      .cls-7 {
        fill: url(#linear-gradient-2);
      }

      .cls-9 {
        fill: #ed1c24;
      }

      .cls-12 {
        fill: #e6e6e6;
      }

      .cls-13 {
        fill: #754c24;
      }
    </style>
    <linearGradient id="linear-gradient" x1="203.15" y1="380.7" x2="271.15" y2="380.7" gradientUnits="userSpaceOnUse">
      <stop offset="0" stop-color="#c69c6d"/>
      <stop offset="1" stop-color="#754c24"/>
    </linearGradient>
    <linearGradient id="linear-gradient-2" x1="342.33" y1="384.77" x2="413.83" y2="384.77" xlink:href="#linear-gradient"/>
    <linearGradient id="linear-gradient-3" x1="166.45" y1="320.7" x2="437.61" y2="320.7" gradientUnits="userSpaceOnUse">
      <stop offset="0" stop-color="#c69c6d"/>
      <stop offset="1" stop-color="#8c6239"/>
    </linearGradient>
  </defs>
  <g id="a-center">
    <path class="cls-10" d="M346.24,86.82c-7.84,15.13-15.67,30.25-23.51,45.38-6.09,14.1-12.17,28.2-18.26,42.3-1.69,3.92-7.21,4.01-9.03.15l-41.43-87.83c6.58-13.87,13.15-27.75,19.73-41.62,6.7-13.8,13.39-27.6,20.09-41.39,2.5-5.16,9.88-5.05,12.24.17l22.67,50.22,17.51,32.62Z"/>
  </g>
  <g id="a-right">
    <path class="cls-10" d="M430.73,294.2c-17.19-32.54-7.81-25.46-25-58-20.81-44.68-27.62-87.37-48.43-132.05-1.74-3.73-7.04-3.74-8.79-.01l-36.86,78.64c-3.06,6.53-2.97,14.11.25,20.57,9.28,18.62,18.56,37.24,27.84,55.86,11.04,25.16,8.96,16.84,20,42,5.63,12.84,78.81,7.79,71-7Z"/>
  </g>
  <g id="a-left">
    <path class="cls-10" d="M172.73,289.2l25.73-57.57,40.34-125.71c1.77-3.98,7.4-4.04,9.25-.09l39.62,84.52c1.12,2.39,1.12,5.16,0,7.55l-49.94,107.3-65-16Z"/>
  </g>
  <g id="shadow">
    <path class="cls-12" d="M546.82,491.09c-15.5-16-.62-22.35-101.5-38-35.02-5.43-72.54-11.5-118-11.5-75.69,0-124.83,18.62-166,24.5-28,4-54,10-49,26,6,19.21,40,44,120,44,27.55,0,52.01-1,84-1,44.5,0,81.05-8.99,116-10,69-2,126.54-21.57,114.5-34Z"/>
  </g>
  <g id="left-leg">
    <path class="cls-10" d="M222.98,478.06s16,.82,17,4.41c.66,2.36,10.14-28.05,10.2-77.19.03-25.64-2.51-56.37-10.2-90.22-.96-4.21-20,7.17-20,11,0,5.69,11.03,39.75,13.39,78.85,1.46,24.29-.42,50.54-10.39,73.15Z"/>
  </g>
  <g id="right-leg">
    <path class="cls-10" d="M364.21,470.14s16,.82,17,4.41c.62,2.21,8.98-23.6,10.08-66.82.68-26.95-1.46-60.67-10.08-98.59-.96-4.21-16,1.17-16,5,0,6.58,10.18,43.99,8.39,92.86-.72,19.62-3.37,41.08-9.39,63.14Z"/>
  </g>
  <g id="left-pant-leg">
    <polygon class="cls-4" points="269.65 403.2 220.48 405.7 203.65 404.2 205.65 379.2 203.15 355.7 271.15 355.7 269.65 403.2"/>
  </g>
  <g id="right-pant-leg">
    <polygon class="cls-7" points="413.83 409.77 398.33 408.27 371.33 408.27 346.33 407.27 342.33 386.27 343.83 359.77 413.83 359.77 413.33 381.27 413.83 409.77"/>
  </g>
  <g id="pants-top">
    <path class="cls-6" d="M430.73,360.2l-152-3s-108.36-1.69-109-7l-3-55c-1.52-5.25,3.54-11.82,9-12l48-2,146,9,64,4c.97.06,3.47.71,3.61,1.67,1.47,10.29-3.24,64.39-6.61,64.33Z"/>
  </g>
  <g id="left-arm">
    <path class="cls-5" d="M188.75,258.97s-58.81-22.25-79.81-47.25-16.61-34-52.31-39"/>
  </g>
  <g id="right-arm">
    <path class="cls-5" d="M397.96,245.41s68.75,19.29,99,7c32-13,54-25,51-77"/>
  </g>
  <g id="mouth">
    <path class="cls-13" d="M195.26,232.82c-1.81-6.72,7.98-13.56,12.52-12.44,53.18,13.07,122.18,10.07,189.18-3.93,29.76-6.22-29,59-92,59-59.18,0-102-14-109.7-42.63Z"/>
  </g>
  <g id="teeth">
    <path class="cls-1" d="M217.72,241.34c33,11,79,15,125,11,12.84-1.12,8.92-13,7.67-21.27-.39-2.57-3.07-2.76-5.67-2.73-60,9-83,4-105,1-12.29-1.68-20.27-5.99-24-2-2.17,2.32-3.09,7.39-1,11,.88,1.51,2.1,2.45,3,3Z"/>
  </g>
  <g id="toung">
    <path class="cls-9" d="M235.12,265.75c-2.05-.7,1-9,8.64-12.2,6.61-2.77,22.23-4.61,33.78,5.28s27.81-1.1,40.58,15.92c3,4-45,4-83-9Z"/>
  </g>
  <g id="left-eye">
    <ellipse class="cls-1" cx="254.09" cy="177.84" rx="29" ry="25"/>
  </g>
  <g id="left-belt">
    <polyline class="cls-8" points="165.54 321.36 227.92 318.61 284.04 325.16"/>
  </g>
  <g id="belt-buckle">
    <polygon class="cls-2" points="329.07 344.36 309.98 342.41 285.57 342.41 287.67 324.64 287.67 306.86 305.7 306.86 329.07 308.25 328.77 329.05 329.07 344.36"/>
  </g>
  <g id="right-belt">
    <polyline class="cls-8" points="436.03 329.18 391.99 326.7 329.73 326.87"/>
  </g>
  <g id="left-eye-pupil">
    <circle cx="254.09" cy="177.84" r="6"/>
  </g>
  <g id="right-eye">
    <ellipse class="cls-1" cx="352.09" cy="171.84" rx="29" ry="25"/>
  </g>
  <g id="left-eye-brow">
    <polygon class="cls-11" points="217.74 119.34 290.45 126.46 281.89 132.34 217.74 119.34"/>
  </g>
  <g id="right-eye-brow">
    <polygon class="cls-11" points="388.45 119.34 315.74 126.46 324.29 132.34 388.45 119.34"/>
  </g>
  <g id="left-foot">
    <path class="cls-11" d="M216.09,463.34s32-9,44,3,6,18.42,0,22.71-46.78,1.71-54.39,0,1.39-28.71,10.39-25.71Z"/>
  </g>
  <g id="right-foot">
    <path class="cls-11" d="M359.59,462.34s32-9,44,3,6,18.42,0,22.71-28.39,4-36,2.29-17-31-8-28Z"/>
  </g>
  <g id="right-eye-pupil">
    <circle cx="352.09" cy="171.84" r="6"/>
  </g>
  <g id="left-hand">
    <path class="cls-3" d="M33.1,196.68s-28.94-4.23-25.92-15.53c2.82-10.55,52.01,9.09,27.88,1.49-17.83-5.62-35.41-9.01-32.88-18.03,3.58-12.76,54.14,2.44,48.21-.15-5.36-2.34-40.07-2.1-38.21-14.51,3.18-21.13,47.06,2.6,43.15.17-.34-.21-25.07-12.04-19.53-23.3,7.96-16.2,58.72,19.63,48.91,51.46-7.63,24.77-43.05,22.18-51.62,18.4Z"/>
  </g>
  <g id="right-hand">
    <path class="cls-3" d="M591.97,173.33s25.53-14.26,18.68-23.75c-6.39-8.85-45.36,27.02-25.53,11.32,14.66-11.6,29.88-21.03,24.3-28.56-7.89-10.64-49.72,21.57-45.1,17.03,4.18-4.1,36.7-16.24,30.53-27.16-10.5-18.61-43.04,19.19-40.26,15.54.24-.32,19.13-20.18,9.95-28.73-13.21-12.3-47.87,39.26-27.37,65.5,15.95,20.42,48.13,5.39,54.79-1.2Z"/>
  </g>
</svg>