<?xml version="1.0" encoding="UTF-8"?><svg id="gun" xmlns="http://www.w3.org/2000/svg" viewBox="0 0 368 221"><defs><style>.cls-1,.cls-2,.cls-3,.cls-4,.cls-5,.cls-6,.cls-7,.cls-8,.cls-9,.cls-10,.cls-11,.cls-12,.cls-13,.cls-14,.cls-15{stroke:#000;stroke-miterlimit:10;}.cls-1,.cls-5,.cls-6{fill:none;}.cls-2{stroke-width:1.71px;}.cls-2,.cls-8,.cls-15{fill:#98999d;}.cls-16{fill:#3f4140;}.cls-17{fill:#fff;opacity:.5;}.cls-3{stroke-width:2.01px;}.cls-3,.cls-7,.cls-9,.cls-10,.cls-12,.cls-13,.cls-14{fill:#ed1a28;}.cls-18{opacity:.31;}.cls-4{fill:#7f151f;stroke-width:.75px;}.cls-5,.cls-8,.cls-11{stroke-width:2px;}.cls-6{stroke-linecap:round;stroke-width:2.87px;}.cls-19{fill:#fef100;}.cls-7{stroke-width:.82px;}.cls-9{stroke-width:1.09px;}.cls-11{fill:#919596;}.cls-12{stroke-width:2.65px;}.cls-13{stroke-width:2.29px;}.cls-20{fill:#1e1c1d;}.cls-21{fill:#d0d4d7;}.cls-14{stroke-width:1.95px;}.cls-15{stroke-width:1.25px;}.cls-22{fill:#272324;}</style></defs><path class="cls-14" d="M130.34,70.89l-25.44-12.08s-14.14,49.31-12.26,58.64c1.87,9.32,4.19-45.79,37.7-46.56Z"/><rect class="cls-2" x="199.97" y="80.64" width="11" height="17" transform="translate(348.21 -83.45) rotate(106.14)"/><rect class="cls-15" x="199.19" y="92.04" width="8.05" height="12.44" transform="translate(354.09 -69.64) rotate(106.14)"/><rect class="cls-8" x="286.89" y="25" width="66" height="39" transform="translate(639.77 89) rotate(-180)"/><rect class="cls-21" x="287.89" y="35" width="64" height="9" transform="translate(639.77 79) rotate(-180)"/><line class="cls-5" x1="298.89" y1="25" x2="298.89" y2="64"/><line class="cls-5" x1="305.89" y1="25" x2="305.89" y2="64"/><line class="cls-1" x1="313.89" y1="25" x2="313.89" y2="64"/><polygon class="cls-8" points="353.89 26 353.89 63 362.89 57 362.89 31.95 353.89 26"/><polygon class="cls-8" points="285.89 26 285.89 63 270.89 52 270.89 35 285.89 26"/><rect class="cls-11" x="132.89" y="43" width="77" height="11" transform="translate(342.77 97) rotate(-180)"/><path class="cls-13" d="M254.89,33h-46.29s-.71,7.87-5.71,21h52s0-21,0-21Z"/><path class="cls-3" d="M254.89,54H55.5s-4.08,7.87-25.62,21h225s0-21,0-21Z"/><path class="cls-12" d="M69.27,33h61.96s.96,7.87,7.65,21H55.89s13.39-21,13.39-21Z"/><rect class="cls-8" x="254.89" y="35" width="15" height="17" transform="translate(524.77 87) rotate(-180)"/><rect class="cls-21" x="255.89" y="38.53" width="12.87" height="4.47" transform="translate(524.65 81.53) rotate(-180)"/><rect class="cls-2" x="42.89" y="43" width="11" height="17" transform="translate(52 122.07) rotate(-139.72)"/><rect class="cls-21" x="45.4" y="47.15" width="9.44" height="4.47" transform="translate(56.42 119.46) rotate(-139.72)"/><rect class="cls-15" x="36.96" y="39.5" width="8.05" height="12.44" transform="translate(42.7 107.09) rotate(-139.72)"/><rect class="cls-21" x="38.8" y="42.53" width="6.91" height="3.27" transform="translate(45.93 105.18) rotate(-139.72)"/><polygon class="cls-3" points="155.89 90 239.89 90 252.89 75 153.89 75 155.89 90"/><rect class="cls-22" x="82.89" y="63" width="79" height="5" transform="translate(244.77 131) rotate(-180)"/><path class="cls-12" d="M153.89,76s-28.15,22.95-33,39c-6.5,21.5-2.4,40.48-6.5,43.5-19,14-63,9-63,9l2-11s36,4,55-3c3.87-1.43-1.93-28.37,4-42,10-23,22-25,22-28s-16.39-7.5-20-8,39,0,39,0l.5.5Z"/><path class="cls-20" d="M96.89,74s-28.5,41.5-30.5,46.5-16,51-16,52-48-6-45-26c0,0,8-4,32-45,0,0-7-8,2-16,0,0-7-8-7-10s64.5-1.5,64.5-1.5Z"/><path class="cls-16" d="M61.89,96c-.05,32.18-21.55,53.74-37.79,70.37-10.61-4.18-20.09-10.64-18.71-19.87,0,0,8-4,32-45,0,0-7-8,2-16,0,0-12.5-7.5-12.5-9.5,0-.89,18.32-1.29,32.57-.91.99,5.79,2.44,12.51,2.43,20.91Z"/><line class="cls-1" x1="39.89" y1="85" x2="88.89" y2="85"/><line class="cls-1" x1="37.39" y1="101.5" x2="75.89" y2="101.5"/><path class="cls-10" d="M52.61,18.58s-12.41,33.69-39.47,40.29c0,0-13.71.75-10.7-6.92S36.16,10.12,43.15,9.79c8.62-.4,9.71,6.8,9.46,8.78Z"/><path class="cls-4" d="M27.09,31.75c7.99-7.99,16.36-14.25,23.79-18.19.7,1.63.82,3.23.72,4.01,0,0-12.41,33.69-39.47,40.29,0,0-2,.11-4.31-.18,3.81-7.94,10.5-17.16,19.27-25.93Z"/><path class="cls-9" d="M176.23,109c2.68-8.56,14.67-12.42,26.78-8.62,12.11,3.79,19.75,13.8,17.08,22.36-.02.06-.05.13-.07.19h0s-27.93,90.55-27.93,90.55l-9.74-.47-12.51-2.63-12.94-5.34-9.2-6.32,28.46-89.52h0c.02-.06.03-.13.05-.19Z"/><path class="cls-9" d="M146.06,201.21c-.95,3.04,7.83,8.9,20.48,12.86s24.38,4.52,25.33,1.48l1.5-3.4-.29-1.81c-.95,3.04-11.59,2.42-24.24-1.55-12.65-3.96-21.35-9.39-20.4-12.43l-1.4,1.71-.98,3.13Z"/><polygon class="cls-19" points="212.4 145.88 198.66 189.08 155.34 176.38 170.3 128.61 189.8 137.73 203.61 141.39 211.56 142.39 212.4 145.88"/><path class="cls-20" d="M214.9,140.64s-21.02,2.05-44.26-14.06l-1.77,5.67s20.14,12.46,43.93,13.75l2.11-5.36Z"/><path class="cls-20" d="M200.68,185.63s-21.02,2.05-44.26-14.06l-1.77,5.67s20.14,12.46,43.93,13.75l2.11-5.36Z"/><path class="cls-18" d="M220.42,121.35s-5.03,3.32-16.12.28l-26.9,88.64s13.01,3.75,15.67.07,27.34-88.98,27.34-88.98Z"/><path class="cls-17" d="M218.16,119.95l-6.26-1.96c1.3-6.9-7.16-15.57-7.16-15.57,0,0,9.69,5.05,13.43,17.53Z"/><path class="cls-7" d="M190.43,153.82l3.94,17.6c.85,3.79-2.73,7.09-6.44,5.92l-17.21-5.39c-3.71-1.16-4.77-5.91-1.91-8.54l13.27-12.21c2.86-2.63,7.5-1.18,8.35,2.61Z"/><line class="cls-6" x1="186.32" y1="152.98" x2="182.15" y2="166.29"/><line class="cls-6" x1="180.8" y1="170.59" x2="180.31" y2="172.16"/></svg>