<?xml version="1.0" encoding="UTF-8"?><svg id="Layer_1" xmlns="http://www.w3.org/2000/svg" viewBox="0 0 201.33 229.19"><defs><style>.cls-1{fill:#ed1c24;}</style></defs><path class="cls-1" d="M132.42,62.56c4.83-1.01,8.54-1.87,12.29-2.53,2.85-.5,3.87-1.8,3.33-4.81-1.89-10.58-5.87-19.98-13.56-27.81-8.94-9.11-19.59-12.13-31.9-10.16-27.46,4.4-44.21,28.48-38.89,55.88.44,2.26.87,4.53,1.45,7.51-8.46-16.78-9.85-42.96,12.97-62.7-10.17,1.25-23.84,14.69-28.03,25.59-4.03,10.48-4.36,18.19-.71,39.26-9.87-19.32-9.29-46.63,9.98-64.47C79.99-.83,103.98-4.43,129.84,5.02c9.4,3.44,18.71,8.21,26.69,14.19,12.83,9.61,18.8,23.76,21.52,39.39.41,2.34,1.8,4.96,3.55,6.55,10.7,9.71,16.74,21.82,19.27,35.85.32,1.75.04,3.61.04,5.72-1.71.33-3.29.63-6.03,1.15,2.5,1.28,4.11,2.1,6.45,3.3-1.71,4.48-3.31,8.97-5.13,13.36-1.89,4.54-4.6,7.95-10.13,5.61-1.8,2.91-3.42,5.53-5.03,8.14-.47-.06-.93-.12-1.4-.18-1.12-6.63-2.24-13.27-3.5-20.69-2.54-1.01-4.36-.28-4.44,4.14-.21,12.68-2.78,24.8-9.46,35.79-1.1,1.8-2.43,3.47-3.84,5.46-2.73-1.71-5.1-3.2-8.1-5.08-14.11,22.39-19.82,45.3-6.93,71.09-6.3,0-11.89.12-17.46-.11-.98-.04-2.15-1.41-2.81-2.43-13.96-22.09-35.07-28.35-59.55-26.58-17.01,1.23-32.08,7.2-43.73,20.26-.66.75-1.31,1.51-1.92,2.31-5.66,7.4-7.39,8.01-17.91,5.84,2.82-8.17,5.57-16.27,8.47-24.32.25-.69,1.46-1.21,2.33-1.47,11.84-3.6,17.18-12.67,19.33-23.88.89-4.62.75-9.65-.02-14.31-1.07-6.45-6.5-10.97-12.32-10.05-6.47,1.02-9.71-2.47-12.3-7.11-1.64-2.94-2.42-6.37-3.92-10.5,7.82,2.04,14.36,4.56,21.1,5.38,33.81,4.09,65.92.61,92.95-22.95,12.68-11.05,21.95-24.51,27.9-40.25,1.51-3.99,1.99-9.13,9.49-6.32-.23-.62-.46-1.24-.69-1.87-6.29-2.49-12.58-4.97-19.9-7.87ZM169.59,77.07c3.21.33,5.7.59,8.2.85-.53-1.69-.54-4.15-1.69-4.93-2.83-1.93-4.8-.24-6.51,4.09Z"/></svg>