<?xml version="1.0" encoding="UTF-8"?><svg id="Layer_1" xmlns="http://www.w3.org/2000/svg" viewBox="0 0 1137.34 800.52"><defs><style>.cls-1{fill:#c8b39a;}.cls-2{fill:#8cc63f;}.cls-3{fill:#7ac943;}.cls-4{stroke:#ccc;}.cls-4,.cls-5,.cls-6,.cls-7,.cls-8,.cls-9,.cls-10,.cls-11,.cls-12,.cls-13{stroke-miterlimit:10;}.cls-4,.cls-6,.cls-7,.cls-9,.cls-10,.cls-12{fill:none;}.cls-4,.cls-9{stroke-width:3.76px;}.cls-5{stroke-width:2.96px;}.cls-5,.cls-6,.cls-7,.cls-8,.cls-9,.cls-10,.cls-11,.cls-12,.cls-13{stroke:#774e27;}.cls-5,.cls-11,.cls-13{fill:#d0e6ff;}.cls-6{stroke-width:4.48px;}.cls-7{stroke-width:6.04px;}.cls-8{fill:#f0f;stroke-width:5.21px;}.cls-14{fill:#774e27;}.cls-15{fill-rule:evenodd;}.cls-15,.cls-16{fill:#c4d5ff;}.cls-10{stroke-width:5.61px;}.cls-11{stroke-width:5.15px;}.cls-12{stroke-width:5.64px;}.cls-17{fill:#f7931e;}.cls-13{stroke-width:5.24px;}</style></defs><rect class="cls-1" x="61.34" y="268.41" width="644" height="529"/><path class="cls-14" d="M702.34,271.41v523H64.34V271.41h638M708.34,265.41H58.34v535h650V265.41h0Z"/><polygon class="cls-2" points="570.73 442.41 847.69 303.77 1124.65 442.41 570.73 442.41"/><path class="cls-14" d="M847.69,307.12l264.26,132.29h-528.52l264.26-132.29M847.69,300.41l-289.65,145h579.3l-289.65-145h0Z"/><rect class="cls-1" x="609.24" y="443.31" width="469.19" height="354.19"/><path class="cls-14" d="M1075.53,446.22v348.38h-463.38v-348.38h463.38M1081.34,440.41h-475v360h475v-360h0Z"/><path class="cls-3" d="M774.53,267.41H3.72c-.12,0-.38,0-.48-.36-.1-.36.11-.5.22-.56L388.34,29.93l386.22,237.37s.02.1,0,.12h-.03Z"/><path class="cls-14" d="M388.34,33.45l375.78,230.96H12.56L388.34,33.45M388.34,26.68c-.28,0-.57.08-.82.23L1.89,263.93c-3.01,1.85-1.7,6.48,1.83,6.48h770.81c3.08,0,4.23-4.05,1.6-5.66L389.16,26.91c-.25-.15-.53-.23-.82-.23h0Z"/><rect class="cls-17" x="645.34" y="511.41" width="411" height="286"/><path class="cls-14" d="M1053.34,514.41v280h-405v-280h405M1059.34,508.41h-417v292h417v-292h0Z"/><line class="cls-12" x1="679.34" y1="609.41" x2="1027.34" y2="609.41"/><line class="cls-12" x1="679.34" y1="668.41" x2="1027.34" y2="668.41"/><line class="cls-12" x1="679.34" y1="727.41" x2="1027.34" y2="727.41"/><line class="cls-12" x1="624.34" y1="413.41" x2="1072.34" y2="413.41"/><line class="cls-12" x1="90.34" y1="213.41" x2="686.34" y2="213.41"/><line class="cls-12" x1="186.34" y1="153.41" x2="590.34" y2="153.91"/><line class="cls-12" x1="282.34" y1="94.41" x2="493.34" y2="94.41"/><line class="cls-7" x1="692.34" y1="375.91" x2="1004.34" y2="375.91"/><line class="cls-12" x1="773.34" y1="338.41" x2="922.34" y2="338.41"/><rect class="cls-13" x="679.34" y="532.41" width="147.75" height="51"/><rect class="cls-13" x="879.59" y="532.41" width="147.75" height="51"/><rect class="cls-8" x="130.84" y="582.91" width="110" height="215"/><rect class="cls-4" x="148.84" y="610.91" width="73.5" height="167.68"/><circle class="cls-13" cx="185.84" cy="517.91" r="46"/><path class="cls-15" d="M229.34,518.16c0,23.89-19.42,44.85-43.25,43.25-29.75-2-35.75-22-35.75-22,15.55-18.14,22.25-2.12,44-12s35-33.14,35-9.25Z"/><polyline class="cls-16" points="814.34 546.41 824.34 535.41 824.34 580.41 697.34 580.41 757.34 566.41 784.34 562.41"/><polyline class="cls-16" points="1014.4 546.73 1024.34 535.41 1024.34 580.41 897.4 580.73 957.4 566.73 984.4 562.73"/><circle class="cls-9" cx="208.84" cy="696.91" r="5.5"/><rect class="cls-11" x="288.34" y="586.41" width="260" height="160"/><polyline class="cls-16" points="544.84 610.41 545.66 695.34 545.66 743.09 354.87 743.41 422.28 727.41 480.93 668.41"/><line class="cls-10" x1="288.34" y1="666.41" x2="548.34" y2="668.41"/><line class="cls-10" x1="417.9" y1="586.41" x2="417.9" y2="743.41"/><rect class="cls-5" x="282.34" y="317.41" width="97" height="90.28"/><polyline class="cls-16" points="377.85 318.9 378.55 370.33 378.55 405.96 283.83 406.2 328.6 395.76 354.72 368.9"/><line class="cls-6" x1="282.34" y1="362.18" x2="379.34" y2="362.18"/><line class="cls-6" x1="330.84" y1="317.41" x2="330.84" y2="407.7"/><rect class="cls-5" x="418.34" y="317.41" width="97" height="90.28"/><polyline class="cls-16" points="513.85 318.9 514.55 370.33 514.55 405.96 419.83 406.2 464.6 395.76 490.72 368.9"/><line class="cls-6" x1="418.34" y1="362.18" x2="515.34" y2="362.18"/><line class="cls-6" x1="466.84" y1="317.41" x2="466.84" y2="407.7"/><rect class="cls-5" x="282.34" y="427.41" width="97" height="90.28"/><polyline class="cls-16" points="377.85 428.9 378.55 480.33 378.55 515.96 283.83 516.2 328.6 505.76 354.72 478.9"/><line class="cls-6" x1="282.34" y1="472.18" x2="379.34" y2="472.18"/><line class="cls-6" x1="330.84" y1="427.41" x2="330.84" y2="517.7"/><rect class="cls-5" x="418.34" y="427.41" width="97" height="90.28"/><polyline class="cls-16" points="513.85 428.9 514.55 480.33 514.55 515.96 419.83 516.2 464.6 505.76 490.72 478.9"/><line class="cls-6" x1="418.34" y1="472.18" x2="515.34" y2="472.18"/><line class="cls-6" x1="466.84" y1="427.41" x2="466.84" y2="517.7"/><polygon class="cls-14" points="3.95 245.43 383.95 5.44 393.73 21.36 3.73 261.06 3.95 245.43"/><path class="cls-14" d="M382.78,10.47l5.96,9.69L7.45,254.51l.1-7.06L382.78,10.47M385.12.4L.34,243.41l-.34,24.21L398.73,22.55,385.12.4h0Z"/><polygon class="cls-14" points="378 20.95 387.77 5.06 774.59 247.38 773.85 264.25 378 20.95"/><path class="cls-14" d="M388.95,10.12l381.89,239.23-.37,8.52L383.03,19.75l5.92-9.63M386.58,0l-13.61,22.15,404.27,248.47,1.1-25.21L386.58,0h0Z"/><polygon class="cls-14" points="558.34 445.41 848.34 306.41 848.34 292.41 558.34 437.41 558.34 445.41"/><polygon class="cls-14" points="1137.34 445.41 848.34 306.41 848.34 292.41 1137.34 433.41 1137.34 445.41"/></svg>