<?xml version="1.0" encoding="UTF-8"?><svg id="Layer_1" xmlns="http://www.w3.org/2000/svg" xmlns:xlink="http://www.w3.org/1999/xlink" viewBox="0 0 1920 1080"><defs><style>.cls-1{fill:#f9f18c;}.cls-2{fill:#4d530f;}.cls-3{fill:url(#linear-gradient-2);}.cls-4{fill:#cec580;}.cls-5{fill:#eadf4e;}.cls-6{fill:#e2703c;}.cls-7{fill:#b5b336;}.cls-8{fill:#22394a;stroke:#fefba4;stroke-miterlimit:10;}.cls-9{fill:#77633f;}.cls-10{fill:#816d36;}.cls-11{fill:#b36c26;}.cls-12{fill:#f4e240;}.cls-13{fill:#2b1505;}.cls-14{fill:url(#linear-gradient);}.cls-15{fill:#1d2e06;}</style><linearGradient id="linear-gradient" x1="697.98" y1="504.72" x2="1414.4" y2="504.72" gradientUnits="userSpaceOnUse"><stop offset="0" stop-color="#fefba4"/><stop offset=".99" stop-color="#fefde9"/></linearGradient><linearGradient id="linear-gradient-2" x1="529.8" y1="616.16" x2="964.84" y2="616.16" gradientUnits="userSpaceOnUse"><stop offset="0" stop-color="#fefba4"/><stop offset=".99" stop-color="#fefde9"/></linearGradient></defs><polygon class="cls-14" points="1414.4 907.12 697.98 907.12 697.98 477.37 1150.18 123.64 1234.53 102.32 1414.4 477.37 1414.4 907.12"/><polygon class="cls-10" points="1414.4 477.37 1493.17 439.15 1488.9 832.61 1414.4 907.12 1414.4 477.37"/><polygon class="cls-10" points="964.84 546.86 1022.87 518.92 1018.22 907.12 960 992.38 964.84 546.86"/><polygon class="cls-10" points="960 982.72 959.6 992.3 529.8 992.3 529.8 979.58 960 982.72"/><polygon class="cls-10" points="953.43 729.55 963 729.79 963 992.38 950.29 992.38 953.43 729.55"/><polygon class="cls-10" points="1145.87 122.09 1150.64 128.43 918.1 323.5 909.92 313.52 1145.87 122.09"/><polygon class="cls-6" points="1130.98 102.32 1433.93 504.72 1524.32 463.07 1223.98 78.63 1130.98 102.32"/><polygon class="cls-6" points="1130.98 102.32 654.99 506.03 675.41 516.06 1145.87 122.09 1130.98 102.32"/><polygon class="cls-3" points="961.92 989.38 529.8 989.38 529.8 559.64 759.15 242.94 964.84 544.36 961.92 989.38"/><polygon class="cls-6" points="729.98 230.78 1011.1 621.98 1106.22 592.7 831.61 202.22 729.98 230.78"/><polygon class="cls-6" points="767.99 230.78 490.59 612.38 462.39 592.82 729.98 230.78 767.99 230.78"/><polygon class="cls-10" points="748.89 257.1 753.4 263.38 529.8 570.35 529.8 622.59 492.19 621.98 466.7 606.49 462.39 592.82 491.43 610.57 748.89 257.1"/><rect class="cls-11" x="626.6" y="467.28" width="116.21" height="87.13"/><rect class="cls-12" x="634.08" y="470.65" width="108.72" height="83.75"/><polygon class="cls-1" points="634.08 502.4 700.95 470.65 716.23 470.65 634.08 510.84 634.08 502.4"/><polygon class="cls-1" points="634.08 528.86 742.8 473.02 742.8 490.75 634.08 544.61 634.08 528.86"/><polygon class="cls-1" points="742.8 537.01 704.29 554.41 690.44 554.41 742.8 530.93 742.8 537.01"/><rect class="cls-11" x="767.3" y="467.28" width="116.21" height="87.13"/><rect class="cls-12" x="774.78" y="470.65" width="108.72" height="83.75"/><polygon class="cls-1" points="774.78 502.4 841.65 470.65 856.93 470.65 774.78 510.84 774.78 502.4"/><polygon class="cls-1" points="774.78 528.86 883.5 473.02 883.5 490.75 774.78 544.61 774.78 528.86"/><polygon class="cls-1" points="883.5 537.01 844.99 554.41 831.14 554.41 883.5 530.93 883.5 537.01"/><rect class="cls-11" x="626.6" y="561.56" width="116.21" height="87.13"/><rect class="cls-12" x="634.08" y="564.93" width="108.72" height="83.75"/><polygon class="cls-1" points="634.08 596.68 700.95 564.93 716.23 564.93 634.08 605.12 634.08 596.68"/><polygon class="cls-1" points="634.08 623.14 742.8 567.3 742.8 585.03 634.08 638.89 634.08 623.14"/><polygon class="cls-1" points="742.8 631.29 704.29 648.69 690.44 648.69 742.8 625.21 742.8 631.29"/><rect class="cls-11" x="767.3" y="561.56" width="116.21" height="87.13"/><rect class="cls-12" x="774.78" y="564.93" width="108.72" height="83.75"/><polygon class="cls-1" points="774.78 596.68 841.65 564.93 856.93 564.93 774.78 605.12 774.78 596.68"/><polygon class="cls-1" points="774.78 623.14 883.5 567.3 883.5 585.03 774.78 638.89 774.78 623.14"/><polygon class="cls-1" points="883.5 631.29 844.99 648.69 831.14 648.69 883.5 625.21 883.5 631.29"/><rect class="cls-11" x="771.72" y="702.9" width="178.57" height="154.33"/><rect class="cls-12" x="783.21" y="708.88" width="167.07" height="148.34"/><polygon class="cls-1" points="783.21 765.11 885.97 708.88 909.45 708.88 783.21 780.07 783.21 765.11"/><polygon class="cls-1" points="783.21 811.98 950.29 713.07 950.29 744.48 783.21 839.88 783.21 811.98"/><polygon class="cls-1" points="950.29 826.42 891.1 857.23 869.82 857.23 950.29 815.66 950.29 826.42"/><rect class="cls-11" x="1029.78" y="602.21" width="152.88" height="216.15"/><rect class="cls-12" x="1039.63" y="610.59" width="143.04" height="207.77"/><polygon class="cls-1" points="1039.63 689.34 1127.6 610.59 1147.7 610.59 1039.63 710.28 1039.63 689.34"/><polygon class="cls-1" points="1039.63 754.98 1182.66 616.45 1182.66 660.43 1039.63 794.06 1039.63 754.98"/><polygon class="cls-1" points="1182.66 775.21 1131.99 818.36 1113.77 818.36 1182.66 760.13 1182.66 775.21"/><rect class="cls-11" x="1059.25" y="360.88" width="63.88" height="90.32"/><rect class="cls-12" x="1063.37" y="364.38" width="59.77" height="86.82"/><polygon class="cls-1" points="1063.37 397.29 1100.13 364.38 1108.53 364.38 1063.37 406.04 1063.37 397.29"/><polygon class="cls-1" points="1063.37 424.72 1123.14 366.83 1123.14 385.21 1063.37 441.05 1063.37 424.72"/><polygon class="cls-1" points="1123.14 433.17 1101.96 451.2 1094.35 451.2 1123.14 426.87 1123.14 433.17"/><rect class="cls-11" x="1139.45" y="362.63" width="63.88" height="90.32"/><rect class="cls-12" x="1143.56" y="366.13" width="59.77" height="86.82"/><polygon class="cls-1" points="1143.56 399.04 1180.32 366.13 1188.72 366.13 1143.56 407.79 1143.56 399.04"/><polygon class="cls-1" points="1143.56 426.47 1203.33 368.58 1203.33 386.96 1143.56 442.8 1143.56 426.47"/><polygon class="cls-1" points="1203.33 434.92 1182.16 452.95 1174.54 452.95 1203.33 428.62 1203.33 434.92"/><rect class="cls-11" x="1228.37" y="362.63" width="63.88" height="90.32"/><rect class="cls-12" x="1232.48" y="366.13" width="59.77" height="86.82"/><polygon class="cls-1" points="1232.48 399.04 1269.24 366.13 1277.64 366.13 1232.48 407.79 1232.48 399.04"/><polygon class="cls-1" points="1232.48 426.47 1292.25 368.58 1292.25 386.96 1232.48 442.8 1232.48 426.47"/><polygon class="cls-1" points="1292.25 434.92 1271.08 452.95 1263.46 452.95 1292.25 428.62 1292.25 434.92"/><rect class="cls-11" x="1214.88" y="602.21" width="152.88" height="216.15"/><rect class="cls-12" x="1224.73" y="610.59" width="143.04" height="207.77"/><polygon class="cls-1" points="1224.73 689.34 1312.7 610.59 1332.8 610.59 1224.73 710.28 1224.73 689.34"/><polygon class="cls-1" points="1224.73 754.98 1367.76 616.45 1367.76 660.43 1224.73 794.06 1224.73 754.98"/><polygon class="cls-1" points="1367.76 775.21 1317.09 818.36 1298.87 818.36 1367.76 760.13 1367.76 775.21"/><polygon class="cls-11" points="1476.9 728.12 1428.5 761.81 1429.47 573.05 1477.87 539.36 1476.9 728.12"/><polygon class="cls-12" points="1476.9 728.12 1431.61 759.64 1432.55 578.2 1477.84 546.68 1476.9 728.12"/><polygon class="cls-1" points="1432.19 646.97 1460.4 558.81 1466.77 554.38 1432.1 665.26 1432.19 646.97"/><polygon class="cls-1" points="1431.9 704.29 1477.81 551.8 1477.61 590.21 1431.72 738.42 1431.9 704.29"/><polygon class="cls-1" points="1477.1 690.44 1460.86 739.28 1455.09 743.3 1477.17 677.27 1477.1 690.44"/><polygon class="cls-8" points="1091.67 177.91 1187.23 177.91 1150.18 128.82 1091.67 177.91"/><polygon class="cls-8" points="1052.84 211.43 1214.88 214.01 1187.23 177.91 1091.67 177.91 1052.84 211.43"/><polygon class="cls-8" points="1006.72 250.12 1242.54 249.98 1214.88 214.01 1052.84 211.43 1006.72 250.12"/><polygon class="cls-8" points="960.61 288.81 1270.69 287.89 1242.54 249.98 1006.72 250.12 960.61 288.81"/><rect class="cls-9" x="639.77" y="701.07" width="112.03" height="278.51"/><rect class="cls-4" x="644.16" y="705.26" width="107.64" height="274.32"/><rect class="cls-13" x="1094.96" y="995.46" width="6.5" height="23.08"/><path class="cls-15" d="M1098.1,1001.82c-53.49,1.72-48.31-99.07-47.67-101.8s3.12-1.77,3.29-4.88-2.87-4.92-3.29-7.24,8.65-2.26,8.89-4.04-5.35-3.47-4.85-7.27,7.44.98,8.89,0-.64-32.82,0-33.93,3.8,1.51,4.04,0-5.49-9.93-5.66-12.93,7.57-48.85,12.52-59.79-.5-25.01,4.44-27.47,9.19,14.17,11.31,13.74,2.73-32.69,8.08-42.82,7.27,0,7.27,0c17.07,13.7,15.35,74.33,15.35,74.33,22.72,15.72,13.74,86.45,13.74,86.45,0,0,5.45,5.66,5.45,9.9s-5.71,1.65-5.45,3.03c5.88,31.09-3.03,69.48-3.23,75.14-.14,4.05,1.99,4.99,3.21,6.54.8,1.01.55,2.49-.49,3.23-9.16,6.47-6.97,13.31-16.05,23.36-9.19,8-8.18,4.39-19.79,6.46Z"/><path class="cls-2" d="M1107.13,975.15c3.82-8.66,9.35-154.97,6.42-161.18-1.96-4.17-9.19-6.91-12.72-15.24-1.21-2.85.05-63.29.42-89.84-.88.56-1.92,1.81-3.15,4.13-5.35,10.13-5.96,42.38-8.08,42.82s-6.36-16.19-11.31-13.74c-4.95,2.46.5,16.53-4.44,27.47-4.95,10.94-12.69,56.79-12.52,59.79.17,3,5.89,11.41,5.66,12.93-.24,1.51-3.4-1.11-4.04,0-.64,1.11,1.45,32.96,0,33.93-1.45.98-8.38-3.8-8.89,0-.5,3.8,5.08,5.49,4.85,7.27-.24,1.78-9.31,1.72-8.89,4.04s3.47,4.14,3.29,7.24c-.17,3.1-2.65,2.15-3.29,4.88-.51,2.16-3.85,65.78,21.32,91.34,6.25-.06,20.8,17.27,35.39-15.83Z"/><path class="cls-7" d="M1101.43,836.35c-.4-8.08-4.85-29.09-6.46-35.95-.84-3.58-1.69-33.03-2.3-60.37-.98,8.71-1.65,16-2.65,16.21-2.12.44-6.36-16.19-11.31-13.74-4.95,2.46.5,16.53-4.44,27.47-4.95,10.94-12.69,56.79-12.52,59.79.17,3,5.89,11.41,5.66,12.93-.24,1.51-3.4-1.11-4.04,0-.64,1.11,1.45,32.96,0,33.93-1.45.98-8.38-3.8-8.89,0-.5,3.8,5.08,5.49,4.85,7.27-.24,1.78-9.31,1.72-8.89,4.04s3.47,4.14,3.29,7.24c-.17,3.1-2.65,2.15-3.29,4.88-.46,1.96-3.26,54.52,15.03,83.33,14.09.38,23.2-22.25,26.27-25.84,4.85-5.66,4.44-35.95,4.85-44.84.4-8.89,5.25-68.27,4.85-76.35Z"/><path class="cls-5" d="M1079.61,781.81s-12.12,60.6-8.89,67.06,19.39-61.4,8.89-67.06Z"/><path class="cls-5" d="M1075.73,882.8s-2.06,55.34-5.55,58.58-21.27-33.13-18.03-36.76c3.23-3.64,9.05,14.14,11.6,15.35s4.47-38.78,11.99-37.17Z"/><rect class="cls-13" x="1234.52" y="993.46" width="6.5" height="23.08"/><path class="cls-15" d="M1237.66,999.82c-53.49,1.72-48.31-99.07-47.67-101.8s3.12-1.77,3.29-4.88-2.87-4.92-3.29-7.24,8.65-2.26,8.89-4.04-5.35-3.47-4.85-7.27,7.44.98,8.89,0-.64-32.82,0-33.93,3.8,1.51,4.04,0-5.49-9.93-5.66-12.93,7.57-48.85,12.52-59.79-.5-25.01,4.44-27.47,9.19,14.17,11.31,13.74,2.73-32.69,8.08-42.82,7.27,0,7.27,0c17.07,13.7,15.35,74.33,15.35,74.33,22.72,15.72,13.74,86.45,13.74,86.45,0,0,5.45,5.66,5.45,9.9s-5.71,1.65-5.45,3.03c5.88,31.09-3.03,69.48-3.23,75.14-.14,4.05,1.99,4.99,3.21,6.54.8,1.01.55,2.49-.49,3.23-9.16,6.47-6.97,13.31-16.05,23.36-9.19,8-8.18,4.39-19.79,6.46Z"/><path class="cls-2" d="M1246.7,973.15c3.82-8.66,9.35-154.97,6.42-161.18-1.96-4.17-9.19-6.91-12.72-15.24-1.21-2.85.05-63.29.42-89.84-.88.56-1.92,1.81-3.15,4.13-5.35,10.13-5.96,42.38-8.08,42.82s-6.36-16.19-11.31-13.74c-4.95,2.46.5,16.53-4.44,27.47-4.95,10.94-12.69,56.79-12.52,59.79.17,3,5.89,11.41,5.66,12.93-.24,1.51-3.4-1.11-4.04,0-.64,1.11,1.45,32.96,0,33.93-1.45.98-8.38-3.8-8.89,0-.5,3.8,5.08,5.49,4.85,7.27-.24,1.78-9.31,1.72-8.89,4.04s3.47,4.14,3.29,7.24c-.17,3.1-2.65,2.15-3.29,4.88-.51,2.16-3.85,65.78,21.32,91.34,6.25-.06,20.8,17.27,35.39-15.83Z"/><path class="cls-7" d="M1241,834.34c-.4-8.08-4.85-29.09-6.46-35.95-.84-3.58-1.69-33.03-2.3-60.37-.98,8.71-1.65,16-2.65,16.21-2.12.44-6.36-16.19-11.31-13.74-4.95,2.46.5,16.53-4.44,27.47-4.95,10.94-12.69,56.79-12.52,59.79.17,3,5.89,11.41,5.66,12.93-.24,1.51-3.4-1.11-4.04,0-.64,1.11,1.45,32.96,0,33.93-1.45.98-8.38-3.8-8.89,0-.5,3.8,5.08,5.49,4.85,7.27-.24,1.78-9.31,1.72-8.89,4.04s3.47,4.14,3.29,7.24c-.17,3.1-2.65,2.15-3.29,4.88-.46,1.96-3.26,54.52,15.03,83.33,14.09.38,23.2-22.25,26.27-25.84,4.85-5.66,4.44-35.95,4.85-44.84.4-8.89,5.25-68.27,4.85-76.35Z"/><path class="cls-5" d="M1221.75,829.2s-11.52,16.01-8.29,22.47,18.79-16.82,8.29-22.47Z"/><path class="cls-5" d="M1226.87,877.75s-13.63,82.04-17.12,85.27-9.69-59.82-6.46-63.45c3.23-3.64,10.39-1.65,12.93-.44s3.13-22.99,10.65-21.38Z"/><rect class="cls-13" x="1378.34" y="991.45" width="6.5" height="23.08"/><path class="cls-15" d="M1381.48,997.81c-53.49,1.72-48.31-99.07-47.67-101.8s3.12-1.77,3.29-4.88-2.87-4.92-3.29-7.24,8.65-2.26,8.89-4.04-5.35-3.47-4.85-7.27,7.44.98,8.89,0-.64-32.82,0-33.93,3.8,1.51,4.04,0-5.49-9.93-5.66-12.93,7.57-48.85,12.52-59.79-.5-25.01,4.44-27.47,9.19,14.17,11.31,13.74,2.73-32.69,8.08-42.82,7.27,0,7.27,0c17.07,13.7,15.35,74.33,15.35,74.33,22.72,15.72,13.74,86.45,13.74,86.45,0,0,5.45,5.66,5.45,9.9s-5.71,1.65-5.45,3.03c5.88,31.09-3.03,69.48-3.23,75.14-.14,4.05,1.99,4.99,3.21,6.54.8,1.01.55,2.49-.49,3.23-9.16,6.47-6.97,13.31-16.05,23.36-9.19,8-8.18,4.39-19.79,6.46Z"/><path class="cls-2" d="M1390.51,971.14c3.82-8.66,9.35-154.97,6.42-161.18-1.96-4.17-9.19-6.91-12.72-15.24-1.21-2.85.05-63.29.42-89.84-.88.56-1.92,1.81-3.15,4.13-5.35,10.13-5.96,42.38-8.08,42.82s-6.36-16.19-11.31-13.74c-4.95,2.46.5,16.53-4.44,27.47-4.95,10.94-12.69,56.79-12.52,59.79.17,3,5.89,11.41,5.66,12.93-.24,1.51-3.4-1.11-4.04,0-.64,1.11,1.45,32.96,0,33.93-1.45.98-8.38-3.8-8.89,0-.5,3.8,5.08,5.49,4.85,7.27-.24,1.78-9.31,1.72-8.89,4.04s3.47,4.14,3.29,7.24c-.17,3.1-2.65,2.15-3.29,4.88-.51,2.16-3.85,65.78,21.32,91.34,6.25-.06,20.8,17.27,35.39-15.83Z"/><path class="cls-7" d="M1384.81,832.33c-.4-8.08-4.85-29.09-6.46-35.95-.84-3.58-1.69-33.03-2.3-60.37-.98,8.71-1.65,16-2.65,16.21-2.12.44-6.36-16.19-11.31-13.74-4.95,2.46.5,16.53-4.44,27.47-4.95,10.94-12.69,56.79-12.52,59.79.17,3,5.89,11.41,5.66,12.93-.24,1.51-3.4-1.11-4.04,0-.64,1.11,1.45,32.96,0,33.93-1.45.98-8.38-3.8-8.89,0-.5,3.8,5.08,5.49,4.85,7.27-.24,1.78-9.31,1.72-8.89,4.04s3.47,4.14,3.29,7.24c-.17,3.1-2.65,2.15-3.29,4.88-.46,1.96-3.26,54.52,15.03,83.33,14.09.38,23.2-22.25,26.27-25.84,4.85-5.66,4.44-35.95,4.85-44.84.4-8.89,5.25-68.27,4.85-76.35Z"/><path class="cls-5" d="M1368.54,773.19s-18.28,21.56-7.42,42.46c3.33,6.41,17.92-36.81,7.42-42.46Z"/><path class="cls-5" d="M1372.02,887.98s-14.97,42.44-18.46,45.68-12.62-33.33-9.39-36.96c3.23-3.64,8.91-29.98,11.45-28.77s2.87-17.28,16.39,20.06Z"/><path class="cls-15" d="M1514.86,760.49s-43.7-5.94-39.4,14.84-22.93-3.52-32.96,12.57,5.12,29.46,0,39.01-10.49,11.61-5.6,19.06-23.94,55.45,5.6,52.58,27.01,16.7,28.91,14.44,49.88-45.68,49.88-45.68c0,0,24.37-52.59,17.21-57.6s-24.36-4.43-24.36-10.81,12.18-16.41,9.31-27.16-8.6-11.26-8.6-11.26Z"/><path class="cls-2" d="M1538.99,810.19c-7.16-5.01-24.36-4.43-24.36-10.81,0-4.22,5.32-10.03,8.1-16.59-9.1-3.83-17.72-6.7-20.3-5.16-6.12,3.65-19.53,17.41-27.51,19.49-7.98,2.07-15.86,15.69-13.71,30.01,2.15,14.33,1.43,22.93-3.58,29.37-5.02,6.45-8.6,15.04-7.88,22.93.56,6.15-2.85,14.46-5.72,19.53,28.43-2.3,26,16.75,27.88,14.52,1.9-2.26,49.88-45.68,49.88-45.68,0,0,24.37-52.59,17.21-57.6Z"/><path class="cls-7" d="M1497.4,799.86c-8.45,2.25-10.94,7.88-12.99,22.21s-2.41,18.5-6.53,26.09-11.28,18.33-14.86,23.35-7.16,13.61,0,16.48,16.68,20.35,25.18-5.23,3.05-32.17,3.98-40.34,10.24-5.3,19.56-9.6,14.33-11.4,8.6-17.16-12.18-18.66-22.93-15.79Z"/></svg>