<?xml version="1.0" encoding="UTF-8"?><svg id="Layer_1" xmlns="http://www.w3.org/2000/svg" viewBox="0 0 1128.11 767.43"><defs><style>.cls-1{fill:#c8b39a;}.cls-2{fill:#8cc63f;}.cls-3{fill:#7ac943;}.cls-4{stroke:#ccc;}.cls-4,.cls-5,.cls-6,.cls-7,.cls-8,.cls-9,.cls-10,.cls-11,.cls-12,.cls-13{stroke-miterlimit:10;}.cls-4,.cls-6,.cls-7,.cls-9,.cls-10,.cls-12{fill:none;}.cls-4,.cls-9{stroke-width:3.76px;}.cls-5{stroke-width:2.96px;}.cls-5,.cls-6,.cls-7,.cls-8,.cls-9,.cls-10,.cls-11,.cls-12,.cls-13{stroke:#774e27;}.cls-5,.cls-11,.cls-13{fill:#d0e6ff;}.cls-6{stroke-width:4.48px;}.cls-7{stroke-width:6.04px;}.cls-8{fill:#f0f;stroke-width:5.21px;}.cls-14{fill:#774e27;}.cls-15{fill-rule:evenodd;}.cls-15,.cls-16{fill:#c4d5ff;}.cls-10{stroke-width:5.61px;}.cls-11{stroke-width:5.15px;}.cls-12{stroke-width:5.64px;}.cls-17{fill:#f7931e;}.cls-13{stroke-width:5.24px;}</style></defs><rect class="cls-1" x="61.45" y="235.32" width="644" height="529"/><path class="cls-14" d="M702.45,238.32v523H64.45V238.32h638M708.45,232.32H58.45v535h650V232.32h0Z"/><path class="cls-2" d="M572.23,409.32c-.13,0-.26,0-.32-.25-.06-.25.06-.31.17-.37l257.96-129.13c5.48-2.74,11.62-4.2,17.75-4.2s12.27,1.45,17.75,4.2l259.2,129.76h-552.52Z"/><path class="cls-14" d="M847.79,278.37c5.67,0,11.34,1.34,16.41,3.88l247.85,124.08h-528.52l247.85-124.08c5.07-2.54,10.74-3.88,16.41-3.88M847.79,272.37c-6.54,0-13.09,1.5-19.1,4.51l-257.96,129.13c-3.14,1.57-2.02,6.31,1.49,6.31h552.98c3.05,0,4.02-4.11,1.29-5.47l-259.62-129.97c-6.01-3.01-12.55-4.51-19.1-4.51h0Z"/><rect class="cls-1" x="609.35" y="410.23" width="469.19" height="354.19"/><path class="cls-14" d="M1075.64,413.13v348.38h-463.38v-348.38h463.38M1081.45,407.32h-475v360h475v-360h0Z"/><path class="cls-3" d="M3.38,234.32c-.12,0-.28,0-.36-.27-.08-.27.06-.36.16-.42L369.89,8.25c5.58-3.43,12-5.25,18.55-5.25s12.97,1.81,18.55,5.25l367.84,226.08H3.38Z"/><path class="cls-14" d="M388.45,6c6,0,11.87,1.66,16.98,4.8l358.8,220.52H12.67L371.46,10.8c5.11-3.14,10.98-4.8,16.98-4.8M388.45,0c-6.98,0-13.95,1.9-20.12,5.69L1.61,231.07c-2.9,1.78-1.64,6.25,1.77,6.25h771.7c2.96,0,4.05-3.88,1.54-5.43L408.57,5.69c-6.17-3.79-13.15-5.69-20.12-5.69h0Z"/><rect class="cls-17" x="645.45" y="478.32" width="411" height="286"/><path class="cls-14" d="M1053.45,481.32v280h-405v-280h405M1059.45,475.32h-417v292h417v-292h0Z"/><line class="cls-12" x1="679.45" y1="576.32" x2="1027.45" y2="576.32"/><line class="cls-12" x1="679.45" y1="635.32" x2="1027.45" y2="635.32"/><line class="cls-12" x1="679.45" y1="694.32" x2="1027.45" y2="694.32"/><line class="cls-12" x1="624.45" y1="383.32" x2="1072.45" y2="383.32"/><line class="cls-12" x1="90.45" y1="180.32" x2="686.45" y2="180.32"/><line class="cls-12" x1="186.45" y1="120.32" x2="590.45" y2="120.82"/><line class="cls-12" x1="282.45" y1="61.32" x2="493.45" y2="61.32"/><line class="cls-7" x1="692.45" y1="349.32" x2="1004.45" y2="349.32"/><line class="cls-12" x1="773.45" y1="307.32" x2="922.45" y2="307.32"/><rect class="cls-13" x="679.45" y="499.32" width="147.75" height="51"/><rect class="cls-13" x="879.7" y="499.32" width="147.75" height="51"/><rect class="cls-8" x="130.95" y="549.82" width="110" height="215"/><rect class="cls-4" x="148.95" y="577.82" width="73.5" height="167.68"/><circle class="cls-13" cx="185.95" cy="484.82" r="46"/><path class="cls-15" d="M229.45,485.07c0,23.89-19.42,44.85-43.25,43.25-29.75-2-35.75-22-35.75-22,15.55-18.14,22.25-2.12,44-12s35-33.14,35-9.25Z"/><polyline class="cls-16" points="814.45 513.32 824.45 502.32 824.45 547.32 697.45 547.32 757.45 533.32 784.45 529.32"/><polyline class="cls-16" points="1014.5 513.65 1024.45 502.32 1024.45 547.32 897.5 547.65 957.5 533.65 984.5 529.65"/><circle class="cls-9" cx="208.95" cy="663.82" r="5.5"/><rect class="cls-11" x="288.45" y="553.32" width="260" height="160"/><polyline class="cls-16" points="544.94 577.32 545.77 662.25 545.77 710 354.98 710.32 422.38 694.32 481.04 635.32"/><line class="cls-10" x1="288.45" y1="633.32" x2="548.45" y2="635.32"/><line class="cls-10" x1="418.01" y1="553.32" x2="418.01" y2="710.32"/><rect class="cls-5" x="282.45" y="284.32" width="97" height="90.28"/><polyline class="cls-16" points="377.95 285.81 378.66 337.24 378.66 372.87 283.94 373.11 328.71 362.67 354.82 335.81"/><line class="cls-6" x1="282.45" y1="329.09" x2="379.45" y2="329.09"/><line class="cls-6" x1="330.95" y1="284.32" x2="330.95" y2="374.61"/><rect class="cls-5" x="418.45" y="284.32" width="97" height="90.28"/><polyline class="cls-16" points="513.95 285.81 514.66 337.24 514.66 372.87 419.94 373.11 464.71 362.67 490.82 335.81"/><line class="cls-6" x1="418.45" y1="329.09" x2="515.45" y2="329.09"/><line class="cls-6" x1="466.95" y1="284.32" x2="466.95" y2="374.61"/><rect class="cls-5" x="282.45" y="394.32" width="97" height="90.28"/><polyline class="cls-16" points="377.95 395.81 378.66 447.24 378.66 482.87 283.94 483.11 328.71 472.67 354.82 445.81"/><line class="cls-6" x1="282.45" y1="439.09" x2="379.45" y2="439.09"/><line class="cls-6" x1="330.95" y1="394.32" x2="330.95" y2="484.61"/><rect class="cls-5" x="418.45" y="394.32" width="97" height="90.28"/><polyline class="cls-16" points="513.95 395.81 514.66 447.24 514.66 482.87 419.94 483.11 464.71 472.67 490.82 445.81"/><line class="cls-6" x1="418.45" y1="439.09" x2="515.45" y2="439.09"/><line class="cls-6" x1="466.95" y1="394.32" x2="466.95" y2="484.61"/></svg>