<?xml version="1.0" encoding="UTF-8"?><svg id="Layer_1" xmlns="http://www.w3.org/2000/svg" viewBox="0 0 226.67 219.23"><defs><style>.cls-1{fill:#80bae7;}</style></defs><path class="cls-1" d="M226.56,109.63c0,34.46-.09,68.93.1,103.39.03,4.63-.89,6.22-5.92,6.2-48.45-.2-96.89-.16-145.34-.05-3.57,0-5.65-1.07-7.62-4.11C45.79,181.17,23.67,147.35,1.45,113.59c-1.97-2.99-1.91-5.08.04-8.04C23.7,71.8,45.82,37.98,67.81,4.08,69.79,1.04,71.91.01,75.46.02,123.91.13,172.36.16,220.8,0c4.49-.01,5.89,1.04,5.86,5.74-.21,34.63-.11,69.26-.11,103.89ZM108.91,109.47c0,10.82.11,21.63-.07,32.44-.05,3.28.98,4.3,4.25,4.23,9.98-.19,19.97-.16,29.95,0,2.85.04,4.52-.95,6.05-3.34,6.53-10.22,13.21-20.35,19.98-30.42,1.46-2.17,1.24-3.7-.13-5.77-6.61-9.97-13.12-20.01-19.57-30.09-1.59-2.48-3.51-3.53-6.56-3.48-9.81.19-19.63.2-29.45,0-3.46-.07-4.6.94-4.53,4.47.21,10.64.08,21.3.08,31.94Z"/></svg>