<?xml version="1.0" encoding="UTF-8"?><svg id="Layer_1" xmlns="http://www.w3.org/2000/svg" viewBox="0 0 780.39 109.04"><defs><style>.cls-1{fill:#fff;}.cls-2{fill:#666;stroke:#1a1a1a;stroke-miterlimit:10;stroke-width:.43px;}.cls-3{fill:#999;}.cls-4{fill:#ccc;}.cls-5{fill:#e6e6e6;}</style></defs><polygon class="cls-5" points="1.57 97.62 58.89 64.47 763.21 64.47 705.89 97.62 1.57 97.62"/><path class="cls-3" d="M761.63,64.89l-55.86,32.31H3.15l55.86-32.31h702.63M764.78,64.04H58.78L0,98.04h706l58.78-34h0Z"/><rect class="cls-5" x="1.81" y="98.46" width="704.17" height="10.17"/><path class="cls-3" d="M705.56,98.88v9.34H2.22v-9.34h703.34M706.39,98.04H1.39v11h705v-11h0Z"/><polygon class="cls-5" points="706.89 97.37 763.87 64.84 763.88 72.73 706.88 108.17 706.89 97.37"/><path class="cls-3" d="M763.38,65.68v6.78s-56.01,34.83-56.01,34.83v-9.63s56.01-31.98,56.01-31.98M764.36,64l-57.95,33.09-.02,11.96,57.98-36.04v-9h-.01Z"/><rect class="cls-5" x="33.92" y="32.57" width="703.95" height="45.95"/><path class="cls-3" d="M737.34,33.1v44.89H34.44v-44.89h702.89M738.39,32.04H33.39v47h705v-47h0Z"/><polygon class="cls-4" points="737.8 34.28 743.98 30.75 743.98 74.82 737.8 78.64 737.8 34.28"/><path class="cls-3" d="M743.57,31.46v43.13l-5.36,3.32v-43.38l5.36-3.06M744.39,30.04l-7,4v45.33l7-4.33V30.04h0Z"/><polygon class="cls-5" points="3 33.62 61.4 .47 778.78 .47 720.77 33.62 3 33.62"/><path class="cls-3" d="M777.18.9l-56.52,32.29H4.62L61.52.9h715.66M780.39.04H61.29L1.39,34.04h719.49L780.39.04h0Z"/><polygon class="cls-1" points="529.39 76.04 547.64 76.04 561.39 38.04 547.64 38.04 529.39 76.04"/><polygon class="cls-1" points="506.39 76.04 515.64 76.04 529.39 38.04 515.64 38.04 506.39 76.04"/><polygon class="cls-1" points="474.39 76.04 484.89 76.04 501.39 38.04 484.89 38.04 474.39 76.04"/><rect class="cls-5" x="2.21" y="34.46" width="718.65" height="10.16"/><path class="cls-3" d="M720.44,34.88v9.32H2.63v-9.32h717.81M721.28,34.04H1.79v11h719.49v-11h0Z"/><polygon class="cls-5" points="720.88 34.33 779.87 .84 779.88 8.72 720.88 44.18 720.88 34.33"/><path class="cls-3" d="M779.38,1.68v6.77s-58.02,34.87-58.02,34.87v-8.71L779.38,1.68M780.36,0l-59.97,34.04v11l59.98-36.04V0h-.01Z"/><circle class="cls-2" cx="43.89" cy="51.54" r="3"/><circle class="cls-2" cx="44.39" cy="69.04" r="3"/><circle class="cls-2" cx="714.89" cy="51.54" r="3"/><circle class="cls-2" cx="715.39" cy="69.04" r="3"/><path class="cls-1" d="M68.39,3.04h676s-425.99,6.19-590,14c-42,2-86-14-86-14Z"/></svg>