<?xml version="1.0" encoding="UTF-8"?><svg id="Layer_1" xmlns="http://www.w3.org/2000/svg" xmlns:xlink="http://www.w3.org/1999/xlink" viewBox="0 0 234.65 280"><defs><style>.cls-1{fill:url(#linear-gradient-3);}.cls-1,.cls-2,.cls-3{stroke:#000;stroke-miterlimit:10;stroke-width:2.06px;}.cls-2{fill:none;}.cls-3{fill:url(#linear-gradient-2);}.cls-4{fill:url(#linear-gradient);}</style><linearGradient id="linear-gradient" x1="28.82" y1="1.03" x2="28.82" y2="278.97" gradientUnits="userSpaceOnUse"><stop offset=".13" stop-color="#ff931e"/><stop offset=".91" stop-color="#ff691e"/><stop offset=".92" stop-color="#4d4d4d"/><stop offset="1" stop-color="#4d4d4d"/></linearGradient><linearGradient id="linear-gradient-2" x1="1.54" y1="141.23" x2="16.99" y2="141.23" gradientUnits="userSpaceOnUse"><stop offset="0" stop-color="#48ffff"/><stop offset="1" stop-color="#4893ff"/></linearGradient><linearGradient id="linear-gradient-3" x1="448.54" y1="141.23" x2="463.99" y2="141.23" gradientTransform="translate(504.53) rotate(-180) scale(1 -1)" xlink:href="#linear-gradient-2"/></defs><path class="cls-4" d="M8.1,278.97c-3.06,0-7.08-15.83-7.08-21.62V29.29C1.03,13.71,13.71,1.03,29.29,1.03h2.75c13.55,0,24.57,11.02,24.57,24.57v231.75c0,5.79-4.01,21.62-7.08,21.62H8.1Z"/><path d="M32.05,2.06c12.98,0,23.54,10.56,23.54,23.54v231.75c0,1.97-.8,7.02-2.1,11.74-1.81,6.6-3.48,8.6-4.01,8.85H8.17c-.53-.25-2.2-2.25-4.01-8.85-1.3-4.72-2.1-9.77-2.1-11.74V29.29C2.06,14.28,14.28,2.06,29.29,2.06h2.75M32.05,0h-2.75C13.12,0,0,13.12,0,29.29v228.06c0,4.48,3.63,22.65,8.1,22.65h41.44c4.48,0,8.1-18.17,8.1-22.65V25.6C57.65,11.46,46.19,0,32.05,0h0Z"/><line class="cls-2" x1="1.03" y1="256.32" x2="56.62" y2="256.32"/><line class="cls-2" x1="15.44" y1="257.35" x2="15.44" y2="280"/><line class="cls-2" x1="29.85" y1="256.32" x2="29.85" y2="278.97"/><line class="cls-2" x1="44.26" y1="256.32" x2="44.26" y2="278.97"/><polygon class="cls-3" points="1.54 59.14 16.99 73.09 16.99 199.27 1.54 223.32 1.54 59.14"/><polygon class="cls-1" points="55.99 59.14 40.54 73.09 40.54 199.27 55.99 223.32 55.99 59.14"/></svg>