<?xml version="1.0" encoding="UTF-8"?><svg id="Layer_1" xmlns="http://www.w3.org/2000/svg" xmlns:xlink="http://www.w3.org/1999/xlink" viewBox="0 0 234.65 280"><defs><style>.cls-1{fill:url(#linear-gradient-15);}.cls-2{fill:url(#linear-gradient-13);}.cls-3{fill:url(#linear-gradient-2);}.cls-4{fill:url(#linear-gradient-10);}.cls-5{fill:url(#linear-gradient-12);}.cls-6{stroke-linecap:round;stroke-width:4px;}.cls-6,.cls-7,.cls-8,.cls-9,.cls-10,.cls-11{stroke:#000;stroke-miterlimit:10;}.cls-6,.cls-9{fill:none;}.cls-7{fill:url(#linear-gradient-3);}.cls-7,.cls-8,.cls-9,.cls-10,.cls-11{stroke-width:2.06px;}.cls-12{fill:url(#linear-gradient-5);}.cls-13{fill:url(#linear-gradient-8);}.cls-8{fill:url(#linear-gradient-4);}.cls-14{fill:url(#linear-gradient-14);}.cls-15{fill:url(#linear-gradient-17);}.cls-16{fill:url(#linear-gradient-9);}.cls-17{fill:url(#linear-gradient-11);}.cls-10{fill:url(#linear-gradient-7);}.cls-11{fill:url(#linear-gradient-6);}.cls-18{fill:url(#Sky);}.cls-19{fill:url(#linear-gradient-16);}.cls-20{fill:url(#linear-gradient);}</style><linearGradient id="linear-gradient" x1="30.5" y1="142" x2="193.5" y2="142" gradientUnits="userSpaceOnUse"><stop offset="0" stop-color="gray"/><stop offset=".11" stop-color="#696969" stop-opacity=".88"/><stop offset=".52" stop-color="#1a1a1a" stop-opacity=".44"/><stop offset=".57" stop-color="#303030" stop-opacity=".5"/><stop offset=".78" stop-color="#919191" stop-opacity=".77"/><stop offset=".93" stop-color="#cecece" stop-opacity=".93"/><stop offset="1" stop-color="#e6e6e6"/></linearGradient><linearGradient id="Sky" x1="101.5" y1="155" x2="125.5" y2="155" gradientUnits="userSpaceOnUse"><stop offset="0" stop-color="#cce0f4"/><stop offset=".06" stop-color="#c2dcf2"/><stop offset=".17" stop-color="#a9d2ee"/><stop offset=".31" stop-color="#7fc2e7"/><stop offset=".46" stop-color="#46abdd"/><stop offset=".57" stop-color="#1e9cd7"/><stop offset=".87" stop-color="#0075be"/><stop offset=".99" stop-color="#005b97"/></linearGradient><linearGradient id="linear-gradient-2" x1="28.82" y1="1.03" x2="28.82" y2="278.97" gradientUnits="userSpaceOnUse"><stop offset=".13" stop-color="#ff931e"/><stop offset=".91" stop-color="#ff691e"/><stop offset=".92" stop-color="#4d4d4d"/><stop offset="1" stop-color="#4d4d4d"/></linearGradient><linearGradient id="linear-gradient-3" x1="1.54" y1="141.23" x2="16.99" y2="141.23" gradientUnits="userSpaceOnUse"><stop offset="0" stop-color="#48ffff"/><stop offset="1" stop-color="#4893ff"/></linearGradient><linearGradient id="linear-gradient-4" x1="448.54" y1="141.23" x2="463.99" y2="141.23" gradientTransform="translate(504.53) rotate(-180) scale(1 -1)" xlink:href="#linear-gradient-3"/><linearGradient id="linear-gradient-5" x1="205.82" x2="205.82" xlink:href="#linear-gradient-2"/><linearGradient id="linear-gradient-6" x1="178.54" x2="193.99" xlink:href="#linear-gradient-3"/><linearGradient id="linear-gradient-7" x1="271.54" y1="141.23" x2="286.99" y2="141.23" gradientTransform="translate(504.53) rotate(-180) scale(1 -1)" xlink:href="#linear-gradient-3"/><linearGradient id="linear-gradient-8" x1="78.5" y1="102" x2="87.5" y2="102" xlink:href="#linear-gradient"/><linearGradient id="linear-gradient-9" x1="139.5" y1="102" x2="148.5" y2="102" xlink:href="#linear-gradient"/><linearGradient id="linear-gradient-10" x1="79.5" y1="129" x2="88.5" y2="129" xlink:href="#linear-gradient"/><linearGradient id="linear-gradient-11" x1="140.5" y1="129" x2="149.5" y2="129" xlink:href="#linear-gradient"/><linearGradient id="linear-gradient-12" x1="79.5" y1="162" x2="88.5" y2="162" xlink:href="#linear-gradient"/><linearGradient id="linear-gradient-13" x1="140.5" y1="162" x2="149.5" y2="162" xlink:href="#linear-gradient"/><linearGradient id="linear-gradient-14" x1="79.5" y1="194" x2="88.5" y2="194" xlink:href="#linear-gradient"/><linearGradient id="linear-gradient-15" x1="140.5" y1="194" x2="149.5" y2="194" xlink:href="#linear-gradient"/><linearGradient id="linear-gradient-16" x1="78.5" y1="221" x2="87.5" y2="221" xlink:href="#linear-gradient"/><linearGradient id="linear-gradient-17" x1="139.5" y1="221" x2="148.5" y2="221" xlink:href="#linear-gradient"/></defs><path class="cls-20" d="M89.41,253.5c-32.49,0-58.91-26.43-58.91-58.91V54.54c0-13.25,10.78-24.04,24.04-24.04h115.24c13.08,0,23.72,10.64,23.72,23.72v140.38c0,32.48-26.42,58.9-58.9,58.9h-45.18Z"/><path d="M169.78,32c12.25,0,22.22,9.97,22.22,22.22v140.38c0,31.65-25.75,57.4-57.4,57.4h-45.18c-31.66,0-57.41-25.76-57.41-57.41V54.54c0-12.43,10.11-22.54,22.54-22.54h115.24M169.78,29H54.54c-14.1,0-25.54,11.43-25.54,25.54v140.05c0,33.37,27.05,60.41,60.41,60.41h45.18c33.36,0,60.4-27.04,60.4-60.4V54.22c0-13.93-11.29-25.22-25.22-25.22h0Z"/><rect class="cls-18" x="101.5" y="90.5" width="24" height="129" rx="8.41" ry="8.41"/><path d="M117.09,91c4.36,0,7.91,3.55,7.91,7.91v112.17c0,4.36-3.55,7.91-7.91,7.91h-7.17c-4.36,0-7.91-3.55-7.91-7.91v-112.17c0-4.36,3.55-7.91,7.91-7.91h7.17M117.09,90h-7.17c-4.92,0-8.91,3.99-8.91,8.91v112.17c0,4.92,3.99,8.91,8.91,8.91h7.17c4.92,0,8.91-3.99,8.91-8.91v-112.17c0-4.92-3.99-8.91-8.91-8.91h0Z"/><line class="cls-6" x1="76" y1="49.5" x2="107" y2="49.5"/><line class="cls-6" x1="76" y1="60" x2="107" y2="60"/><line class="cls-6" x1="76" y1="71" x2="107" y2="71"/><line class="cls-6" x1="121" y1="49.5" x2="152" y2="49.5"/><line class="cls-6" x1="121" y1="60" x2="152" y2="60"/><line class="cls-6" x1="121" y1="71" x2="152" y2="71"/><path class="cls-3" d="M8.1,278.97c-3.06,0-7.08-15.83-7.08-21.62V29.29C1.03,13.71,13.71,1.03,29.29,1.03h2.75c13.55,0,24.57,11.02,24.57,24.57v231.75c0,5.79-4.01,21.62-7.08,21.62H8.1Z"/><path d="M32.05,2.06c12.98,0,23.54,10.56,23.54,23.54v231.75c0,1.97-.8,7.02-2.1,11.74-1.81,6.6-3.48,8.6-4.01,8.85H8.17c-.53-.25-2.2-2.25-4.01-8.85-1.3-4.72-2.1-9.77-2.1-11.74V29.29C2.06,14.28,14.28,2.06,29.29,2.06h2.75M32.05,0h-2.75C13.12,0,0,13.12,0,29.29v228.06c0,4.48,3.63,22.65,8.1,22.65h41.44c4.48,0,8.1-18.17,8.1-22.65V25.6C57.65,11.46,46.19,0,32.05,0h0Z"/><line class="cls-9" x1="1.03" y1="256.32" x2="56.62" y2="256.32"/><line class="cls-9" x1="15.44" y1="257.35" x2="15.44" y2="280"/><line class="cls-9" x1="29.85" y1="256.32" x2="29.85" y2="278.97"/><line class="cls-9" x1="44.26" y1="256.32" x2="44.26" y2="278.97"/><polygon class="cls-7" points="1.54 59.14 16.99 73.09 16.99 199.27 1.54 223.32 1.54 59.14"/><polygon class="cls-8" points="55.99 59.14 40.54 73.09 40.54 199.27 55.99 223.32 55.99 59.14"/><path class="cls-12" d="M185.1,278.97c-3.06,0-7.08-15.83-7.08-21.62V29.29c0-15.59,12.68-28.27,28.27-28.27h2.75c13.55,0,24.57,11.02,24.57,24.57v231.75c0,5.79-4.01,21.62-7.08,21.62h-41.44Z"/><path d="M209.05,2.06c12.98,0,23.54,10.56,23.54,23.54v231.75c0,1.97-.8,7.02-2.1,11.74-1.81,6.6-3.48,8.6-4.01,8.85h-41.31c-.53-.25-2.2-2.25-4.01-8.85-1.3-4.72-2.1-9.77-2.1-11.74V29.29c0-15.02,12.22-27.24,27.24-27.24h2.75M209.05,0h-2.75c-16.18,0-29.29,13.12-29.29,29.29v228.06c0,4.48,3.63,22.65,8.1,22.65h41.44c4.48,0,8.1-18.17,8.1-22.65V25.6c0-14.14-11.46-25.6-25.6-25.6h0Z"/><line class="cls-9" x1="178.03" y1="256.32" x2="233.62" y2="256.32"/><line class="cls-9" x1="192.44" y1="257.35" x2="192.44" y2="280"/><line class="cls-9" x1="206.85" y1="256.32" x2="206.85" y2="278.97"/><line class="cls-9" x1="221.26" y1="256.32" x2="221.26" y2="278.97"/><polygon class="cls-11" points="178.54 59.14 193.99 73.09 193.99 199.27 178.54 223.32 178.54 59.14"/><polygon class="cls-10" points="232.99 59.14 217.54 73.09 217.54 199.27 232.99 223.32 232.99 59.14"/><circle class="cls-13" cx="83" cy="102" r="4.5"/><path d="M83,99c1.65,0,3,1.35,3,3s-1.35,3-3,3-3-1.35-3-3,1.35-3,3-3M83,96c-3.31,0-6,2.69-6,6s2.69,6,6,6,6-2.69,6-6-2.69-6-6-6h0Z"/><circle class="cls-16" cx="144" cy="102" r="4.5"/><path d="M144,99c1.65,0,3,1.35,3,3s-1.35,3-3,3-3-1.35-3-3,1.35-3,3-3M144,96c-3.31,0-6,2.69-6,6s2.69,6,6,6,6-2.69,6-6-2.69-6-6-6h0Z"/><circle class="cls-4" cx="84" cy="129" r="4.5"/><path d="M84,126c1.65,0,3,1.35,3,3s-1.35,3-3,3-3-1.35-3-3,1.35-3,3-3M84,123c-3.31,0-6,2.69-6,6s2.69,6,6,6,6-2.69,6-6-2.69-6-6-6h0Z"/><circle class="cls-17" cx="145" cy="129" r="4.5"/><path d="M145,126c1.65,0,3,1.35,3,3s-1.35,3-3,3-3-1.35-3-3,1.35-3,3-3M145,123c-3.31,0-6,2.69-6,6s2.69,6,6,6,6-2.69,6-6-2.69-6-6-6h0Z"/><circle class="cls-5" cx="84" cy="162" r="4.5"/><path d="M84,159c1.65,0,3,1.35,3,3s-1.35,3-3,3-3-1.35-3-3,1.35-3,3-3M84,156c-3.31,0-6,2.69-6,6s2.69,6,6,6,6-2.69,6-6-2.69-6-6-6h0Z"/><circle class="cls-2" cx="145" cy="162" r="4.5"/><path d="M145,159c1.65,0,3,1.35,3,3s-1.35,3-3,3-3-1.35-3-3,1.35-3,3-3M145,156c-3.31,0-6,2.69-6,6s2.69,6,6,6,6-2.69,6-6-2.69-6-6-6h0Z"/><circle class="cls-14" cx="84" cy="194" r="4.5"/><path d="M84,191c1.65,0,3,1.35,3,3s-1.35,3-3,3-3-1.35-3-3,1.35-3,3-3M84,188c-3.31,0-6,2.69-6,6s2.69,6,6,6,6-2.69,6-6-2.69-6-6-6h0Z"/><circle class="cls-1" cx="145" cy="194" r="4.5"/><path d="M145,191c1.65,0,3,1.35,3,3s-1.35,3-3,3-3-1.35-3-3,1.35-3,3-3M145,188c-3.31,0-6,2.69-6,6s2.69,6,6,6,6-2.69,6-6-2.69-6-6-6h0Z"/><circle class="cls-19" cx="83" cy="221" r="4.5"/><path d="M83,218c1.65,0,3,1.35,3,3s-1.35,3-3,3-3-1.35-3-3,1.35-3,3-3M83,215c-3.31,0-6,2.69-6,6s2.69,6,6,6,6-2.69,6-6-2.69-6-6-6h0Z"/><circle class="cls-15" cx="144" cy="221" r="4.5"/><path d="M144,218c1.65,0,3,1.35,3,3s-1.35,3-3,3-3-1.35-3-3,1.35-3,3-3M144,215c-3.31,0-6,2.69-6,6s2.69,6,6,6,6-2.69,6-6-2.69-6-6-6h0Z"/></svg>