<?xml version="1.0" encoding="UTF-8"?><svg id="Layer_1" xmlns="http://www.w3.org/2000/svg" xmlns:xlink="http://www.w3.org/1999/xlink" viewBox="0 0 358.82 877.57"><defs><style>.cls-1{fill:url(#linear-gradient-2);}.cls-2{fill:#4d4d4d;}.cls-3{stroke-width:3.53px;}.cls-3,.cls-4,.cls-5,.cls-6,.cls-7,.cls-8,.cls-9,.cls-10,.cls-11{fill:none;}.cls-3,.cls-4,.cls-5,.cls-6,.cls-7,.cls-8,.cls-9,.cls-10,.cls-11,.cls-12{stroke-miterlimit:10;}.cls-3,.cls-4,.cls-7{stroke:blue;}.cls-3,.cls-4,.cls-7,.cls-10,.cls-11{stroke-linecap:round;}.cls-13{fill:#fff;}.cls-4{stroke-width:2.31px;}.cls-14{fill:#e8d8c6;}.cls-15{fill:#c69c6d;}.cls-16{fill:url(#linear-gradient-4);}.cls-17{fill:red;}.cls-18{fill:url(#linear-gradient-3);}.cls-19{fill:url(#linear-gradient-5);}.cls-5{stroke-width:1.06px;}.cls-5,.cls-8,.cls-9{stroke:#4d4d4d;}.cls-6{stroke:#a67c52;stroke-width:1.15px;}.cls-20{fill:url(#linear-gradient-8);}.cls-21{fill:#603813;}.cls-22{opacity:.29;}.cls-22,.cls-23{fill:#1a1a1a;}.cls-7{stroke-width:2.96px;}.cls-8{stroke-width:.61px;}.cls-9{stroke-width:1.09px;}.cls-24{fill:url(#linear-gradient-7);}.cls-25{fill:url(#linear-gradient-9);}.cls-10{stroke-width:1.91px;}.cls-10,.cls-12{stroke:#c7b299;}.cls-11{opacity:.13;stroke:#8c6239;stroke-width:1.77px;}.cls-26{fill:url(#Sky);}.cls-27{fill:url(#linear-gradient-6);opacity:.63;}.cls-12{fill:#8c6239;stroke-width:.41px;}.cls-28{fill:#998675;opacity:.16;}.cls-29{fill:#ed1c24;}.cls-30{fill:#f86832;}.cls-31{fill:url(#linear-gradient);}.cls-32{fill:#e2d0bc;}.cls-33{opacity:.08;}.cls-34{fill:#e6e6e6;}.cls-35{fill:#754c24;}</style><linearGradient id="linear-gradient" x1="90.11" y1="646.26" x2="175.82" y2="646.26" gradientUnits="userSpaceOnUse"><stop offset="0" stop-color="#e8d8c6"/><stop offset="1" stop-color="#c69c6d"/></linearGradient><linearGradient id="linear-gradient-2" x1="-92.89" y1="650.26" x2="-7.18" y2="650.26" gradientTransform="translate(220.01) rotate(-180) scale(1 -1)" xlink:href="#linear-gradient"/><linearGradient id="linear-gradient-3" x1="69.9" y1="407.46" x2="122.01" y2="407.46" gradientUnits="userSpaceOnUse"><stop offset="0" stop-color="#e8d8c6"/><stop offset="1" stop-color="#c69c6d"/></linearGradient><linearGradient id="linear-gradient-4" x1="-142.65" y1="413.46" x2="-90.54" y2="413.46" gradientTransform="translate(191.9) rotate(-180) scale(1 -1)" xlink:href="#linear-gradient-3"/><linearGradient id="Sky" x1="70.87" y1="395.29" x2="330.98" y2="395.29" gradientUnits="userSpaceOnUse"><stop offset="0" stop-color="#cce0f4"/><stop offset=".06" stop-color="#c2dcf2"/><stop offset=".17" stop-color="#a9d2ee"/><stop offset=".31" stop-color="#7fc2e7"/><stop offset=".46" stop-color="#46abdd"/><stop offset=".57" stop-color="#1e9cd7"/><stop offset=".87" stop-color="#0075be"/><stop offset=".99" stop-color="#005b97"/></linearGradient><linearGradient id="linear-gradient-5" x1="141.26" y1="158.7" x2="352.84" y2="158.7" gradientTransform="translate(453.32) rotate(-180) scale(1 -1)" gradientUnits="userSpaceOnUse"><stop offset="0" stop-color="#e8d8c6"/><stop offset="1" stop-color="#f1ece4"/></linearGradient><linearGradient id="linear-gradient-6" x1="278.79" y1="204.87" x2="348.61" y2="204.87" gradientTransform="translate(453.32) rotate(-180) scale(1 -1)" gradientUnits="userSpaceOnUse"><stop offset="0" stop-color="#c69c6d" stop-opacity=".6"/><stop offset="1" stop-color="#c0ad88" stop-opacity=".5"/></linearGradient><linearGradient id="linear-gradient-7" x1="216.97" y1="201.27" x2="216.97" y2="184.71" gradientTransform="translate(462.44 -10.15) rotate(-176.12) scale(1 -1)" gradientUnits="userSpaceOnUse"><stop offset="0" stop-color="#c7b299"/><stop offset="1" stop-color="#ece1d3"/></linearGradient><linearGradient id="linear-gradient-8" x1="159.07" y1="191.59" x2="177.94" y2="173.99" gradientTransform="translate(453.32) rotate(-180) scale(1 -1)" gradientUnits="userSpaceOnUse"><stop offset="0" stop-color="#ed1c24" stop-opacity=".1"/><stop offset="1" stop-color="red" stop-opacity="0"/></linearGradient><linearGradient id="linear-gradient-9" x1="250.27" y1="139.76" x2="241.34" y2="54.79" gradientTransform="translate(453.32) rotate(-180) scale(1 -1)" gradientUnits="userSpaceOnUse"><stop offset="0" stop-color="#9c7d55"/><stop offset="1" stop-color="#754c24"/></linearGradient></defs><path class="cls-2" d="M85.6,790.6s-39.11,32.41-41.31,53.53c-2.2,21.12,36.07,41.09,70.25,21.37,0,0,29.59-18.05,17.09-72.32-2.32-5.37-6.5-8.9-11.39-8.22-21.4,2.99-28.48-4.93-28.48-4.93-4.24,1.3-1.33,6.78-6.15,10.57Z"/><path class="cls-31" d="M130.24,513.25s-41.69,39.31-22.98,114.24c-9.81,16.11-2.65,34.38-2.65,34.38-4.05,5.55-4.68,17.38-9.38,32.61-6.15,19.95-6,51-3.47,74.03,3.81,34.74,28.48,11.5,28.48,11.5,19.99-47.53,20.99-65.53,20.99-65.53,0,0,5.59-29.79-2.01-47.87,0,0,11.39-11.5,11.79-34.25,0,0,43.71-65.17,15.11-113.95-15.87-27.07-35.88-5.17-35.88-5.17Z"/><path class="cls-28" d="M141.12,648.54c0,2.67-3.48,4.25-6,5.9-2.19,1.44-4.13.67-7.3.67s-6.93.79-9.1-.61c-2.57-1.66-6.09-3.26-6.09-5.97,0-2.56,3.36-5.7,5.7-7.34,2.22-1.56,6.18-.87,9.49-.87s5.49-.65,7.72.96c2.27,1.64,5.57,4.74,5.57,7.26Z"/><path class="cls-29" d="M87.5,782.38s-39.11,32.41-41.31,53.53c-2.2,21.12,34.18,37.8,68.35,18.08,0,0,27.69-8.19,15.19-62.46-3.8-11.5-7.59-14.79-7.59-14.79-21.4,2.99-28.48-4.93-28.48-4.93q-1.9,4.93-6.15,10.57Z"/><path class="cls-3" d="M63.27,835.91s26.58-14.79,45.57,4.93"/><path class="cls-7" d="M68.97,822.09s23.26-11.85,39.87,3.95"/><path class="cls-4" d="M78.46,808.09s17.72-9.48,30.38,3.16"/><path class="cls-11" d="M111.66,634.11s19.97-5.3,31.36,2.92"/><path class="cls-2" d="M317.42,794.6s39.11,32.41,41.31,53.53c2.2,21.12-36.07,41.09-70.25,21.37,0,0-29.59-18.05-17.09-72.32,2.32-5.37,6.5-8.9,11.39-8.22,21.4,2.99,28.48-4.93,28.48-4.93,4.24,1.3,1.33,6.78,6.15,10.57Z"/><path class="cls-1" d="M272.77,517.25s41.69,39.31,22.98,114.24c9.81,16.11,2.65,34.38,2.65,34.38,4.05,5.55,4.68,17.38,9.38,32.61,6.15,19.95,6,51,3.47,74.03-3.81,34.74-28.48,11.5-28.48,11.5-19.99-47.53-20.99-65.53-20.99-65.53,0,0-5.59-29.79,2.01-47.87,0,0-11.39-11.5-11.79-34.25,0,0-43.71-65.17-15.11-113.95,15.87-27.07,35.88-5.17,35.88-5.17Z"/><path class="cls-28" d="M261.9,652.54c0,2.67,3.48,4.25,6,5.9,2.19,1.44,4.13.67,7.3.67s6.93.79,9.1-.61c2.57-1.66,6.09-3.26,6.09-5.97,0-2.56-3.36-5.7-5.7-7.34-2.22-1.56-6.18-.87-9.49-.87s-5.49-.65-7.72.96c-2.27,1.64-5.57,4.74-5.57,7.26Z"/><path class="cls-29" d="M315.52,786.38s39.11,32.41,41.31,53.53c2.2,21.12-34.18,37.8-68.35,18.08,0,0-27.69-8.19-15.19-62.46,3.8-11.5,7.59-14.79,7.59-14.79,21.4,2.99,28.48-4.93,28.48-4.93q1.9,4.93,6.15,10.57Z"/><path class="cls-3" d="M339.74,839.91s-26.58-14.79-45.57,4.93"/><path class="cls-7" d="M334.05,826.09s-23.26-11.85-39.87,3.95"/><path class="cls-4" d="M324.55,812.09s-17.72-9.48-30.38,3.16"/><path class="cls-11" d="M289.21,635.76s-19.97-5.3-31.36,2.92"/><path class="cls-23" d="M121.19,472.68s-16.14,47.66-16.14,69.03-17.09,52.59-17.09,52.59c0,0,5.7,0,22.78,3.29,17.09,3.29,28.48,4.93,45.57,4.93h28.48s1.9-16.44,9.49-31.23c7.59-14.79,11.39-26.3,11.39-26.3,0,0,7.59,21.37,11.39,32.87,3.8,11.5,3.8,26.3,3.8,26.3,0,0,26.58-3.29,37.97-4.93,11.39-1.64,56.96-3.29,56.96-3.29l-3.8-14.79s-7.59-19.72-11.39-37.8c0-18.08-15.28-70.67-15.28-70.67,0,0-81.55,55.88-164.14,0Z"/><path class="cls-18" d="M78.34,379.35c-3.33,17.19-4.76,15.16-7.34,33.14-3.57,24.93,2.65,38.95,2.65,49.14,0,6.42-2.25,14.69,0,22.13,1,3.32-.79,7.34,0,9.49,4.44,12,8.94,9.49,18.26,9.49,3.65,0,7.31-3.16,7.31-6.32v-3.16c3.65,3.16,7.31,0,3.65-3.16-1.03-.89-11.77-4.48-14.61-9.49-4.27-7.52-3.83-14.73-3.65-18.97.88-21.42,3.69-21.84,9.39-48.14,5.18-23.93-2.02-20.25,3.32-32.5,2.43-5.57,6.98-4.63,12.68-37.5l12.01-26.6-34.18-4.93c-.25,5.39-8.23,24.57-11.39,41.09-1.8,9.38,3.07,20.27,1.9,26.3Z"/><path class="cls-16" d="M326.11,385.35c3.33,17.19,4.76,15.16,7.34,33.14,3.57,24.93-2.65,38.95-2.65,49.14,0,6.42,2.25,14.69,0,22.13-1,3.32.79,7.34,0,9.49-4.44,12-8.94,9.49-18.26,9.49-3.65,0-7.31-3.16-7.31-6.32v-3.16c-3.65,3.16-7.31,0-3.65-3.16,1.03-.89,11.77-4.48,14.61-9.49,4.27-7.52,3.83-14.73,3.65-18.97-.88-21.42-3.69-21.84-9.39-48.14-5.18-23.93,2.02-20.25-3.32-32.5-2.43-5.57-6.98-4.63-12.68-37.5l-12.01-26.6,34.18-4.93c.25,5.39,8.23,24.57,11.39,41.09,1.8,9.38-3.07,20.27-1.9,26.3Z"/><path class="cls-26" d="M330.98,351.05c-1.46-15.81-.05-26.97-4.23-39.78-5.11-15.67-22.35-25.96-48.93-34.18-20.68-6.39-32.28-6.57-45.57-6.57,0,0-5.26,17.26-27.53,18.81-22.27-1.55-18.04-18.81-18.04-18.81-8.08-1.4-17.63-.43-30.38,1.64-29.59,4.82-66.75,18.07-73.61,39.11-4.12,12.62-10.46,19.5-11.83,34.85l49.37,6.57c1.9-8.22-.1-19.56,1.9-23.01,1.9-3.29.29-6.57,7.59-6.57,7.68,0,1.9,48.89,1.9,92.04l1.9,1.64c0,13.79-12.58,41.33-13.29,52.59-.84,13.2-5.7,16.44-7.59,24.65-3.57,15.46-7.87,15.95,34.18,13.15,24.68-1.64,23.49,4.93,41.77,4.93,24.6,2.84,45.47,7.07,62.66,8.22,24.68,1.64,39.87-1.64,41.77-19.72.59-5.63-4.99-19.03-5.7-32.87-.64-12.55-4.22-23.98-5.7-39.45-1.55-16.21,3.22-34.16,1.9-49.31-2.43-27.8-7.71-52.49-3.8-55.88,0,0,2.78-3.84,5.7,8.22,1.26,3.26,0,11.5,0,26.3l45.57-6.57Z"/><path class="cls-14" d="M194.37,236.23s-6.63,22.79-24.31,34.29c0,0,4.42,27.94,35.36,27.94s35.36-26.3,35.36-26.3c0,0-17.68-11.5-15.47-28.42,2.3-17.59-30.94-7.51-30.94-7.51Z"/><path class="cls-17" d="M173.39,270.52s-1.9-1.64-15.19,1.64c0,0,41.77,87.11,87.34-1.64,0,0-5.7-1.64-13.29,0,0,0-22.78,62.46-58.86,0Z"/><polygon class="cls-17" points="71.77 339.09 70.87 346.12 120.23 352.7 121.56 345.9 71.77 339.09"/><polygon class="cls-17" points="285.42 351.05 285.32 358.71 330.98 351.05 330.98 342.83 285.42 351.05"/><path class="cls-30" d="M248.2,484.93l-9.98-33.44-11-31-14.22-26.17c-1.06-2.89-6.41-2.76-7.51.13l-11.27,27.03-17,37-7.04,26.44c-.5,1.3-1.73,2.16-3.12,2.16l-12.84-1.6-14.7,1.6c-2.36,0-3.95-2.36-3.12-4.55l17.82-34.05,22-45,15-56c.5-1.3,2.61-1,4-1h14l16.24,4.66c1.36,0,2.62.83,3.12,2.12l7.35,10.53,4.29,21.68,11,39,15,33,15.77,25.05c.86,2.19-.76,4.55-3.12,4.55l-22.65-2.6c-1.39,0-7.55,1.73-8.02.44h0Z"/><path class="cls-22" d="M165.8,500.62s87.34-50.95,102.53-70.67c15.19-19.72-20.89,46.02-102.53,70.67Z"/><path class="cls-22" d="M162,464.46s68.88-25.92,80.86-35.95c11.98-10.03-16.47,23.41-80.86,35.95Z"/><path class="cls-22" d="M172.44,436.02s40.35-16.58,46.93-21.55c6.57-4.96-8.26,10.44-46.93,21.55Z"/><path class="cls-33" d="M221.9,254.49c-4.78-.24-10.09-2.06-14.33-2.06-5.5,0-13.61-.6-18.88-1.63-.92,1.85-1.96,3.78-3.13,5.7,6.3,1.87,8.73,4.14,18.22,5.78,4.16.72,13.29,0,17.09,0,1.21,0,2.23-1.18,3.06-2.78-.79-1.56-1.47-3.24-2.02-5.03Z"/><path class="cls-19" d="M100.48,139.61c0,29.43,21.3,73.23,54.84,96.49,8.49,5.89,19.88,13.92,29.79,16.6,6.35,1.72,14.81-1.73,21.16-1.73,13.96,0,27.28-2.35,39.49-9.12,38.87-21.59,66.3-70.55,66.3-102.24,0-41.64-47.36-75.4-105.79-75.4s-105.79,33.76-105.79,75.4Z"/><path class="cls-27" d="M104.71,162.23s10.58,55.89,69.82,85.29c0,0-21.16-15.92-42.32-43.07-15.94-20.45-27.51-42.22-27.51-42.22Z"/><path class="cls-13" d="M248.59,142.03c0,9.55,16.26,12.1,23.27,12.1,7.01,0,19.04-.83,19.04-10.38,0-9.55-14.15-12.1-21.16-12.1-7.01,0-21.16.83-21.16,10.38Z"/><path class="cls-13" d="M176.65,143.76c0,9.55,16.26,12.1,23.27,12.1,7.01,0,19.04-.83,19.04-10.38s-14.15-12.1-21.16-12.1c-7.01,0-21.16.83-21.16,10.38Z"/><path class="cls-32" d="M94.05,166.99c7.89,20.03,8.17,32.96,24.92,30.94,11.56-1.39-3.67-17.85.56-31.69,6.8-22.24-9.09-33.71-20.65-32.31-11.56,1.39-13.42,11.24-4.82,33.06Z"/><path class="cls-10" d="M112.12,151.54s-11.79-17.29-8.01,12.1"/><path class="cls-24" d="M241.98,174.55c-2.11.14-4.59.44-6.74,1.11-1.59.49-3.37.45-4.9-.14-1.89-.73-4.64-1.56-7.59-1.64-2.11-.05-3.53-1.79-2.39-2.72,0,0,1.54-1.83,2.92-4.58.75-1.49,1.15-3.13,1.36-4.33.18-1.02,1.19-1.8,2.45-1.91l8.59-.72c.91-.02,1.76.35,2.25.99.87,1.13,1.24,2.97,2.76,5.06,1.09,1.5,3.3,3.18,4.21,4.57,1.23,1.88-.31,4.17-2.91,4.33Z"/><path class="cls-12" d="M207.95,113.51l1.48,7.28c.1.48-.37.92-.97.9-6.85-.26-30.8-4.51-55.33,1.87-14.25,3.71,27.77-10.53,53.53-10.93.64,0,1.18.37,1.28.88Z"/><path class="cls-12" d="M244.84,113.51l-1.48,7.28c-.1.48.37.92.97.9,6.85-.26,30.8-4.51,55.33,1.87,14.25,3.71-27.77-10.53-53.53-10.93-.64,0-1.18.37-1.28.88Z"/><path class="cls-20" d="M312.06,135.11s-23.27,70.9-52.89,96.84c0,0,52.89-39.77,52.89-96.84Z"/><path class="cls-23" d="M273.98,131.92c0,.25,4.23,6.43,4.23,11.84,0,4.86-4.23,8.93-4.23,10.34-.74.02-1.45.03-2.12.03-1.69,0-3.93-.15-6.35-.51,0,0-4.23-6.4-4.23-11.59,0-5.19,4.23-10.25,4.23-10.25,1.55-.09,3-.12,4.23-.12s2.68.08,4.23.26Z"/><path class="cls-23" d="M202.04,133.65c0,.25,4.23,6.43,4.23,11.84,0,4.86-4.23,8.93-4.23,10.34-.74.02-1.45.03-2.12.03-1.69,0-3.93-.15-6.35-.51,0,0-4.23-6.4-4.23-11.59,0-5.19,4.23-10.25,4.23-10.25,1.55-.09,3-.12,4.23-.12s2.68.08,4.23.26Z"/><ellipse class="cls-34" cx="197.81" cy="145.49" rx="2.12" ry="1.73"/><ellipse class="cls-34" cx="269.74" cy="143.76" rx="2.12" ry="1.73"/><path class="cls-35" d="M224.26,32.22s53.95,9.51,77.23,52.74l29.62,29.4s-64.16-25.49-56.94-21.82c7.22,3.66,49.9,30.96,49.9,30.96l-55.38-20.38,19.1,17.84,10.53,9.83-22.22-11.24-15.87-9.51,10.53,24.35-71-50.8s-31.56-10.73,12.87,32.51c44.43,43.23-43.04-27.05-46.55-20.75-5.32,9.57-24.46,14.43-27.51,25.94-1.41,5.34-11.51,11.91-12.69,17.29-2.84,12.83,1.63,32.73,0,27.67l-14.81-1.73s-10.58-20.75-10.58-34.59c0-9.93,31.74-79.55,31.74-79.55,0,0-8.46-12.1-6.35-12.1,2.12,0,28.56-2.59,28.56-2.59l-9.52-9.51,26.45,6.05,9.52-14.7,15.87,16.43S269.74-3.23,267.63.23c-2.12,3.46-16.93,25.94-43.37,31.99Z"/><polygon class="cls-25" points="261.28 59.97 305.71 97.07 261.28 75.19 271.86 88.52 248.67 78.8 285.61 103.89 240.12 84.96 269.74 112.63 230.67 86.3 257.08 118.4 185.11 67.44 180.88 79.77 191.46 102.25 163.96 84.96 142.8 109.17 125.87 131.65 130.1 102.25 106.83 121.28 119.95 87.5 147.38 64.21 195.69 54.7 261.28 59.97"/><ellipse class="cls-5" cx="273.64" cy="145.05" rx="27.84" ry="27.24"/><ellipse class="cls-5" cx="198.15" cy="145.05" rx="27.84" ry="27.24"/><path class="cls-8" d="M245.62,145.49s-9.23-15.89-18.2,0"/><line class="cls-9" x1="170.3" y1="145.05" x2="108.95" y2="129.92"/><path class="cls-13" d="M252.96,206.14h-72.31s34.2,33.74,72.31,0Z"/><path class="cls-21" d="M252.96,205.8s-25.4,31.15-73.04,0c0,0,38.11,33.74,73.04,0Z"/><path class="cls-21" d="M253.03,205.8s-44.55-2.6-72.45.39"/><path class="cls-15" d="M249.78,213.59s-22.23,12.98-50.81,10.38c0,0,43.52,2.99,50.81-10.38Z"/><path class="cls-6" d="M240.25,203.21s-5.3-2.01-8.49-2.51-4.49,1.51-10.33,1.51c-5.84,0-9.74-1.01-11.68-1.01-1.95,0-6.84-.08-9.26.71"/><polygon class="cls-23" points="180.39 206.14 180.87 206.26 180.14 207.53 180.39 206.14"/></svg>