<?xml version="1.0" encoding="UTF-8"?><svg id="Layer_1" xmlns="http://www.w3.org/2000/svg" xmlns:xlink="http://www.w3.org/1999/xlink" viewBox="0 0 570.4 97.06"><defs><style>.cls-1{stroke-width:.05px;}.cls-1,.cls-2,.cls-3,.cls-4,.cls-5,.cls-6,.cls-7,.cls-8,.cls-9,.cls-10,.cls-11,.cls-12,.cls-13,.cls-14,.cls-15,.cls-16,.cls-17,.cls-18,.cls-19,.cls-20,.cls-21,.cls-22,.cls-23,.cls-24,.cls-25,.cls-26,.cls-27,.cls-28,.cls-29,.cls-30,.cls-31,.cls-32,.cls-33,.cls-34,.cls-35{stroke-miterlimit:10;}.cls-1,.cls-2,.cls-4,.cls-8,.cls-13,.cls-14,.cls-18,.cls-24,.cls-26,.cls-33{stroke:#c7b299;}.cls-1,.cls-8,.cls-13,.cls-24,.cls-26{fill:#8c6239;}.cls-2{stroke-width:.22px;}.cls-2,.cls-3,.cls-4,.cls-5,.cls-6,.cls-7,.cls-9,.cls-10,.cls-11,.cls-12,.cls-14,.cls-15,.cls-16,.cls-17,.cls-18,.cls-19,.cls-20,.cls-21,.cls-22,.cls-23,.cls-25,.cls-27,.cls-28,.cls-29,.cls-30,.cls-31,.cls-32,.cls-33,.cls-34,.cls-35{fill:none;}.cls-2,.cls-4,.cls-14,.cls-18,.cls-19,.cls-25,.cls-28,.cls-31,.cls-33,.cls-34{stroke-linecap:round;}.cls-36{fill:url(#linear-gradient-61);}.cls-37{fill:url(#linear-gradient-15);}.cls-38{fill:url(#linear-gradient-13);}.cls-39{fill:url(#linear-gradient-28);}.cls-40{fill:url(#linear-gradient-65);}.cls-41{fill:url(#linear-gradient-69);}.cls-42{fill:url(#linear-gradient-53);}.cls-3{stroke-width:.12px;}.cls-3,.cls-5,.cls-7,.cls-9,.cls-10,.cls-12,.cls-15,.cls-16,.cls-17,.cls-20,.cls-21,.cls-23,.cls-27,.cls-30,.cls-32{stroke:#4d4d4d;}.cls-43{fill:url(#linear-gradient-42);}.cls-44{fill:url(#linear-gradient-46);}.cls-45{fill:url(#linear-gradient-70);}.cls-46{fill:url(#linear-gradient-23);}.cls-46,.cls-47,.cls-48,.cls-49,.cls-50,.cls-51,.cls-52,.cls-53{opacity:.63;}.cls-54{fill:url(#linear-gradient-60);}.cls-55{fill:url(#linear-gradient-2);}.cls-4{stroke-width:.22px;}.cls-56{fill:url(#Sky-11);}.cls-57{fill:url(#linear-gradient-64);}.cls-5{stroke-width:.12px;}.cls-58{fill:url(#linear-gradient-56);}.cls-59{fill:url(#linear-gradient-43);}.cls-60{fill:url(#linear-gradient-25);}.cls-61{fill:url(#linear-gradient-10);}.cls-62{fill:url(#linear-gradient-12);}.cls-63{fill:url(#linear-gradient-40);}.cls-64{fill:url(#linear-gradient-27);}.cls-65{fill:url(#Sky-18);}.cls-6{stroke-width:.13px;}.cls-6,.cls-11,.cls-22,.cls-29,.cls-35{stroke:#a67c52;}.cls-66{fill:url(#linear-gradient-68);}.cls-47{fill:url(#linear-gradient-50);}.cls-67{fill:url(#Sky-14);}.cls-68{fill:url(#linear-gradient-37);}.cls-69{fill:#4d4d4d;}.cls-70{fill:url(#Sky-17);}.cls-48{fill:url(#linear-gradient-5);}.cls-49{fill:url(#linear-gradient-32);}.cls-7{stroke-width:.07px;}.cls-71{fill:url(#linear-gradient-55);}.cls-8{stroke-width:.05px;}.cls-72{fill:#fff;}.cls-73{fill:url(#linear-gradient-39);}.cls-74{fill:url(#Sky-16);}.cls-75{fill:url(#Sky-21);}.cls-76{fill:url(#linear-gradient-52);}.cls-77{fill:#e8d8c6;}.cls-78{fill:#c69c6d;}.cls-9{stroke-width:.07px;}.cls-79{fill:url(#linear-gradient-47);}.cls-80{fill:url(#linear-gradient-26);}.cls-10{stroke-width:.12px;}.cls-81{fill:url(#Sky-4);}.cls-82{fill:url(#linear-gradient-72);}.cls-83{fill:url(#linear-gradient-4);}.cls-84{fill:url(#Sky-13);}.cls-11{stroke-width:.13px;}.cls-85{fill:url(#linear-gradient-35);}.cls-86{fill:url(#linear-gradient-30);}.cls-87{fill:red;}.cls-12{stroke-width:.12px;}.cls-88{fill:url(#Sky-19);}.cls-89{fill:url(#linear-gradient-71);}.cls-13{stroke-width:.05px;}.cls-90{fill:url(#linear-gradient-44);}.cls-91{fill:url(#Sky-7);}.cls-92{fill:url(#linear-gradient-49);}.cls-93{fill:url(#linear-gradient-3);}.cls-14{stroke-width:.22px;}.cls-94{fill:url(#linear-gradient-34);}.cls-95{fill:url(#Sky-15);}.cls-96{fill:url(#linear-gradient-38);}.cls-97{fill:url(#linear-gradient-22);}.cls-98{fill:url(#linear-gradient-24);}.cls-15{stroke-width:.13px;}.cls-16{stroke-width:.07px;}.cls-17{stroke-width:.07px;}.cls-99{fill:url(#linear-gradient-54);}.cls-18{stroke-width:.22px;}.cls-19{stroke-width:.25px;}.cls-19,.cls-25,.cls-28,.cls-31,.cls-34{stroke:blue;}.cls-100{fill:url(#linear-gradient-33);}.cls-101{fill:url(#linear-gradient-51);}.cls-102{fill:url(#linear-gradient-8);}.cls-20{stroke-width:.12px;}.cls-103{fill:url(#linear-gradient-66);}.cls-50{fill:url(#linear-gradient-58);}.cls-104{fill:url(#linear-gradient-57);}.cls-51{fill:url(#linear-gradient-41);}.cls-21{stroke-width:.07px;}.cls-105{fill:url(#Sky-2);}.cls-22{stroke-width:.13px;}.cls-106{fill:#603813;}.cls-107{fill:url(#linear-gradient-62);}.cls-108{fill:url(#linear-gradient-29);}.cls-109{fill:url(#linear-gradient-20);}.cls-23{stroke-width:.13px;}.cls-110{fill:url(#linear-gradient-17);}.cls-111{fill:url(#linear-gradient-7);}.cls-112{fill:#1a1a1a;}.cls-113{fill:url(#linear-gradient-9);}.cls-114{fill:url(#Sky-5);}.cls-24{stroke-width:.05px;}.cls-115{fill:url(#Sky-9);}.cls-116{fill:url(#linear-gradient-59);}.cls-25{stroke-width:.25px;}.cls-117{fill:url(#Sky-24);}.cls-118{fill:url(#linear-gradient-11);}.cls-119{fill:url(#linear-gradient-19);}.cls-26{stroke-width:.05px;}.cls-120{fill:url(#linear-gradient-6);}.cls-52{fill:url(#linear-gradient-14);}.cls-27{stroke-width:.12px;}.cls-121{fill:url(#Sky-23);}.cls-28{stroke-width:.25px;}.cls-122{fill:url(#linear-gradient-36);}.cls-123{fill:url(#linear-gradient-21);}.cls-124{fill:url(#linear-gradient-45);}.cls-29{stroke-width:.13px;}.cls-125{fill:url(#Sky);}.cls-53{fill:url(#linear-gradient-67);}.cls-126{fill:url(#Sky-20);}.cls-30{stroke-width:.13px;}.cls-127{fill:#ed1c24;}.cls-128{fill:url(#Sky-10);}.cls-129{fill:url(#Sky-8);}.cls-130{fill:url(#linear-gradient-48);}.cls-131{fill:url(#Sky-3);}.cls-31{stroke-width:.25px;}.cls-132{fill:url(#Sky-22);}.cls-133{fill:url(#linear-gradient-16);}.cls-134{fill:url(#linear-gradient);}.cls-135{fill:url(#linear-gradient-31);}.cls-136{fill:url(#Sky-12);}.cls-137{fill:#e2d0bc;}.cls-32{stroke-width:.12px;}.cls-138{fill:url(#Sky-6);}.cls-139{fill:url(#linear-gradient-63);}.cls-33{stroke-width:.22px;}.cls-140{fill:#e6e6e6;}.cls-141{fill:url(#linear-gradient-18);}.cls-142{fill:#754c24;}.cls-34{stroke-width:.25px;}.cls-35{stroke-width:.13px;}</style><linearGradient id="linear-gradient" x1="2224.21" y1="635.93" x2="2242.89" y2="635.93" gradientTransform="translate(2046.7 1199.85) rotate(-134.92) scale(1 -1)" gradientUnits="userSpaceOnUse"><stop offset="0" stop-color="#e8d8c6"/><stop offset="1" stop-color="#c69c6d"/></linearGradient><linearGradient id="linear-gradient-2" x1="2159.25" y1="40.5" x2="2178.62" y2="40.5" gradientTransform="translate(2145.6 621.9) rotate(-164.4) scale(1 -1)" xlink:href="#linear-gradient"/><linearGradient id="linear-gradient-3" x1="-123.52" y1="484.42" x2="-108.99" y2="484.42" gradientTransform="translate(249.38 -398.5) rotate(13.35)" gradientUnits="userSpaceOnUse"><stop offset="0" stop-color="#e8d8c6"/><stop offset="1" stop-color="#c69c6d"/></linearGradient><linearGradient id="Sky" x1="-92.22" y1="1679.88" x2="-83.67" y2="1679.88" gradientTransform="translate(1710.85 -108.37) rotate(82)" gradientUnits="userSpaceOnUse"><stop offset="0" stop-color="#cce0f4"/><stop offset=".06" stop-color="#c2dcf2"/><stop offset=".17" stop-color="#a9d2ee"/><stop offset=".31" stop-color="#7fc2e7"/><stop offset=".46" stop-color="#46abdd"/><stop offset=".57" stop-color="#1e9cd7"/><stop offset=".87" stop-color="#0075be"/><stop offset=".99" stop-color="#005b97"/></linearGradient><linearGradient id="linear-gradient-4" x1="1906.68" y1="19.39" x2="1931.29" y2="19.39" gradientTransform="translate(1956.87) rotate(-180) scale(1 -1)" gradientUnits="userSpaceOnUse"><stop offset="0" stop-color="#e8d8c6"/><stop offset="1" stop-color="#f1ece4"/></linearGradient><linearGradient id="linear-gradient-5" x1="1922.67" y1="24.75" x2="1930.79" y2="24.75" gradientTransform="translate(1956.87) rotate(-180) scale(1 -1)" gradientUnits="userSpaceOnUse"><stop offset="0" stop-color="#c69c6d" stop-opacity=".6"/><stop offset="1" stop-color="#c0ad88" stop-opacity=".5"/></linearGradient><linearGradient id="linear-gradient-6" x1="1926.98" y1="111.11" x2="1926.98" y2="109.19" gradientTransform="translate(1971 40.95) rotate(-176.12) scale(1 -1)" gradientUnits="userSpaceOnUse"><stop offset="0" stop-color="#c7b299"/><stop offset="1" stop-color="#ece1d3"/></linearGradient><linearGradient id="linear-gradient-7" x1="1908.76" y1="23.21" x2="1910.94" y2="21.17" gradientTransform="translate(1956.87) rotate(-180) scale(1 -1)" gradientUnits="userSpaceOnUse"><stop offset="0" stop-color="#ed1c24" stop-opacity=".1"/><stop offset="1" stop-color="red" stop-opacity="0"/></linearGradient><linearGradient id="linear-gradient-8" x1="1919.36" y1="17.2" x2="1918.32" y2="7.35" gradientTransform="translate(1956.87) rotate(-180) scale(1 -1)" gradientUnits="userSpaceOnUse"><stop offset="0" stop-color="#9c7d55"/><stop offset="1" stop-color="#754c24"/></linearGradient><linearGradient id="Sky-2" x1="27.7" y1="45.01" x2="43.69" y2="45.01" gradientTransform="matrix(1,0,0,1,0,0)" xlink:href="#Sky"/><linearGradient id="linear-gradient-9" x1="2078.55" y1="-61.81" x2="2091.53" y2="-61.81" gradientTransform="translate(1156.39 1808.59) rotate(-120.25)" xlink:href="#linear-gradient-3"/><linearGradient id="Sky-3" x1="500.98" y1="-335.79" x2="510.89" y2="-335.79" gradientTransform="translate(-119.76 624.08) rotate(-41.28)" xlink:href="#Sky"/><linearGradient id="linear-gradient-10" x1="-49.57" y1="466.87" x2="-35.04" y2="466.87" gradientTransform="translate(98.97 -419.75) rotate(-5.75)" xlink:href="#linear-gradient-3"/><linearGradient id="Sky-4" x1="-81.63" y1="1604.62" x2="-73.09" y2="1604.62" gradientTransform="translate(1574.95 -623.61) rotate(62.9)" xlink:href="#Sky"/><linearGradient id="linear-gradient-11" x1="2169.28" y1="585.25" x2="2182.07" y2="585.25" xlink:href="#linear-gradient"/><linearGradient id="linear-gradient-12" x1="2088.15" y1="22.67" x2="2109.66" y2="22.67" gradientTransform="translate(1912.2 1166.39) rotate(-148.14) scale(1 -1)" xlink:href="#linear-gradient"/><linearGradient id="linear-gradient-13" x1="1830.68" y1="19.39" x2="1855.29" y2="19.39" xlink:href="#linear-gradient-4"/><linearGradient id="linear-gradient-14" x1="1846.67" y1="24.75" x2="1854.79" y2="24.75" xlink:href="#linear-gradient-5"/><linearGradient id="linear-gradient-15" x1="1851.15" y1="105.97" x2="1851.15" y2="104.05" xlink:href="#linear-gradient-6"/><linearGradient id="linear-gradient-16" x1="1832.76" y1="23.21" x2="1834.94" y2="21.17" xlink:href="#linear-gradient-7"/><linearGradient id="linear-gradient-17" x1="1843.36" y1="17.2" x2="1842.32" y2="7.35" xlink:href="#linear-gradient-8"/><linearGradient id="Sky-5" x1="103.7" y1="45.01" x2="119.69" y2="45.01" gradientTransform="matrix(1,0,0,1,0,0)" xlink:href="#Sky"/><linearGradient id="linear-gradient-18" x1="2040.26" y1="3.84" x2="2053.24" y2="3.84" gradientTransform="translate(441.79 2066.34) rotate(-98.94)" xlink:href="#linear-gradient-3"/><linearGradient id="Sky-6" x1="558.09" y1="-285.66" x2="568.01" y2="-285.66" gradientTransform="translate(-316.72 499.09) rotate(-19.97)" xlink:href="#Sky"/><linearGradient id="linear-gradient-19" x1="237.07" y1="496.06" x2="251.6" y2="496.06" gradientTransform="translate(-107.83 -172.12) rotate(-39.91)" xlink:href="#linear-gradient-3"/><linearGradient id="Sky-7" x1="49.91" y1="1348.28" x2="58.46" y2="1348.28" gradientTransform="translate(998.97 -1169.64) rotate(28.74)" xlink:href="#Sky"/><linearGradient id="linear-gradient-20" x1="1966.64" y1="382.02" x2="1979.43" y2="382.02" xlink:href="#linear-gradient"/><linearGradient id="linear-gradient-21" x1="1844.39" y1="-128.82" x2="1865.91" y2="-128.82" gradientTransform="translate(1912.2 1166.39) rotate(-148.14) scale(1 -1)" xlink:href="#linear-gradient"/><linearGradient id="linear-gradient-22" x1="1543.68" y1="19.39" x2="1568.29" y2="19.39" xlink:href="#linear-gradient-4"/><linearGradient id="linear-gradient-23" x1="1559.67" y1="24.75" x2="1567.79" y2="24.75" xlink:href="#linear-gradient-5"/><linearGradient id="linear-gradient-24" x1="1564.81" y1="86.54" x2="1564.81" y2="84.62" xlink:href="#linear-gradient-6"/><linearGradient id="linear-gradient-25" x1="1545.76" y1="23.21" x2="1547.94" y2="21.17" xlink:href="#linear-gradient-7"/><linearGradient id="linear-gradient-26" x1="1556.36" y1="17.2" x2="1555.32" y2="7.35" xlink:href="#linear-gradient-8"/><linearGradient id="Sky-8" x1="390.7" y1="45.01" x2="406.69" y2="45.01" gradientTransform="matrix(1,0,0,1,0,0)" xlink:href="#Sky"/><linearGradient id="linear-gradient-27" x1="1995.42" y1="286.08" x2="2008.41" y2="286.08" gradientTransform="translate(-801.36 1671.06) rotate(-61.39)" xlink:href="#linear-gradient-3"/><linearGradient id="Sky-9" x1="826.55" y1="-187.67" x2="836.47" y2="-187.67" gradientTransform="translate(-447.37 -33.73) rotate(17.59)" xlink:href="#Sky"/><linearGradient id="linear-gradient-28" x1="20.52" y1="472.97" x2="34.64" y2="472.97" gradientTransform="translate(-231.09 -177.58) rotate(-57.97)" xlink:href="#linear-gradient-3"/><linearGradient id="Sky-10" x1="-50.41" y1="1542.11" x2="-41.87" y2="1542.11" gradientTransform="translate(512.03 -1469.03) rotate(10.68)" xlink:href="#Sky"/><linearGradient id="linear-gradient-29" x1="2116.9" y1="535.97" x2="2131.21" y2="535.97" xlink:href="#linear-gradient"/><linearGradient id="linear-gradient-30" x1="2023.63" y1="-16.83" x2="2052.47" y2="-16.83" gradientTransform="translate(1456.26 1670.35) rotate(-129.06) scale(1 -1)" xlink:href="#linear-gradient"/><linearGradient id="linear-gradient-31" x1="1761.68" y1="18.88" x2="1786.29" y2="18.88" xlink:href="#linear-gradient-4"/><linearGradient id="linear-gradient-32" x1="1777.67" y1="24.07" x2="1785.79" y2="24.07" xlink:href="#linear-gradient-5"/><linearGradient id="linear-gradient-33" x1="1782.35" y1="100.73" x2="1782.35" y2="98.86" xlink:href="#linear-gradient-6"/><linearGradient id="linear-gradient-34" x1="1763.8" y1="22.57" x2="1765.85" y2="20.66" xlink:href="#linear-gradient-7"/><linearGradient id="linear-gradient-35" x1="1774.35" y1="16.79" x2="1773.34" y2="7.19" xlink:href="#linear-gradient-8"/><linearGradient id="Sky-11" x1="172.7" y1="43.7" x2="188.69" y2="43.7" gradientTransform="matrix(1,0,0,1,0,0)" xlink:href="#Sky"/><linearGradient id="linear-gradient-36" x1="2031.02" y1="71.32" x2="2043.58" y2="71.32" gradientTransform="translate(-790.71 1835.65) rotate(-63.22)" xlink:href="#linear-gradient-3"/><linearGradient id="Sky-12" x1="622.66" y1="-263.17" x2="632.52" y2="-263.17" gradientTransform="translate(-491.49 120.4) rotate(15.75)" xlink:href="#Sky"/><linearGradient id="linear-gradient-37" x1="174.18" y1="719.5" x2="188.64" y2="719.5" gradientTransform="translate(51.86 -564.63) rotate(-20.03)" xlink:href="#linear-gradient-3"/><linearGradient id="Sky-13" x1="235.32" y1="1488.39" x2="243.78" y2="1488.39" gradientTransform="translate(1431.88 -1126.42) rotate(48.62)" xlink:href="#Sky"/><linearGradient id="linear-gradient-38" x1="1910.03" y1="328.36" x2="1924.57" y2="328.36" xlink:href="#linear-gradient"/><linearGradient id="linear-gradient-39" x1="1838.93" y1="-244.41" x2="1868.1" y2="-244.41" gradientTransform="translate(1456.26 1670.35) rotate(-129.06) scale(1 -1)" xlink:href="#linear-gradient"/><linearGradient id="linear-gradient-40" x1="1468.68" y1="18.04" x2="1493.29" y2="18.04" xlink:href="#linear-gradient-4"/><linearGradient id="linear-gradient-41" x1="1484.67" y1="23.29" x2="1492.79" y2="23.29" xlink:href="#linear-gradient-5"/><linearGradient id="linear-gradient-42" x1="1490.08" y1="80.08" x2="1490.08" y2="78.19" xlink:href="#linear-gradient-6"/><linearGradient id="linear-gradient-43" x1="1470.78" y1="21.77" x2="1472.88" y2="19.82" xlink:href="#linear-gradient-7"/><linearGradient id="linear-gradient-44" x1="1481.35" y1="15.91" x2="1480.33" y2="6.21" xlink:href="#linear-gradient-8"/><linearGradient id="Sky-14" x1="465.7" y1="43.16" x2="481.69" y2="43.16" gradientTransform="matrix(1,0,0,1,0,0)" xlink:href="#Sky"/><linearGradient id="linear-gradient-45" x1="2163.61" y1="333.28" x2="2176.32" y2="333.28" gradientTransform="translate(-489.37 2014.29) rotate(-72.37)" xlink:href="#linear-gradient-3"/><linearGradient id="Sky-15" x1="905.06" y1="-343.41" x2="914.96" y2="-343.41" gradientTransform="translate(-466.73 273.28) rotate(6.6)" xlink:href="#Sky"/><linearGradient id="linear-gradient-46" x1="1882.22" y1="-34.38" x2="1901.47" y2="-34.38" gradientTransform="translate(2145.6 621.9) rotate(-164.4) scale(1 -1)" xlink:href="#linear-gradient"/><linearGradient id="linear-gradient-47" x1="2021.15" y1="433.16" x2="2039.84" y2="433.16" xlink:href="#linear-gradient"/><linearGradient id="linear-gradient-48" x1="66.61" y1="608.6" x2="81" y2="608.6" gradientTransform="translate(-129.9 433.79) rotate(-123.26)" xlink:href="#linear-gradient-3"/><linearGradient id="Sky-16" x1="92.66" y1="1548.09" x2="101.1" y2="1548.09" gradientTransform="translate(-992.5 -781.11) rotate(-54.61)" xlink:href="#Sky"/><linearGradient id="linear-gradient-49" x1="1617.68" y1="18.03" x2="1642.29" y2="18.03" xlink:href="#linear-gradient-4"/><linearGradient id="linear-gradient-50" x1="1633.67" y1="23.28" x2="1641.79" y2="23.28" xlink:href="#linear-gradient-5"/><linearGradient id="linear-gradient-51" x1="1638.73" y1="90.15" x2="1638.73" y2="88.27" xlink:href="#linear-gradient-6"/><linearGradient id="linear-gradient-52" x1="1619.78" y1="21.77" x2="1621.88" y2="19.81" xlink:href="#linear-gradient-7"/><linearGradient id="linear-gradient-53" x1="1630.35" y1="15.9" x2="1629.33" y2="6.21" xlink:href="#linear-gradient-8"/><linearGradient id="Sky-17" x1="316.7" y1="43.14" x2="332.69" y2="43.14" gradientTransform="matrix(1,0,0,1,0,0)" xlink:href="#Sky"/><linearGradient id="linear-gradient-54" x1="2126.98" y1="150.06" x2="2140.05" y2="150.06" gradientTransform="translate(-1560.06 -986.72) rotate(24.83)" xlink:href="#linear-gradient-3"/><linearGradient id="Sky-18" x1="718.43" y1="-342.89" x2="728.19" y2="-342.89" gradientTransform="translate(164.39 -746.11) rotate(103.8)" xlink:href="#Sky"/><linearGradient id="linear-gradient-55" x1="62.48" y1="537.98" x2="76.37" y2="537.98" gradientTransform="translate(-276.63 67.09) rotate(-84.98)" xlink:href="#linear-gradient-3"/><linearGradient id="Sky-19" x1="25.19" y1="1526.8" x2="33.71" y2="1526.8" gradientTransform="translate(-201.08 -1420.98) rotate(-16.33)" xlink:href="#Sky"/><linearGradient id="linear-gradient-56" x1="2061.06" y1="479.54" x2="2075.91" y2="479.54" gradientTransform="translate(2351.46 -267.18) rotate(-176.22) scale(1 -1)" xlink:href="#linear-gradient"/><linearGradient id="linear-gradient-57" x1="1686.68" y1="17.61" x2="1711.29" y2="17.61" xlink:href="#linear-gradient-4"/><linearGradient id="linear-gradient-58" x1="1702.67" y1="22.73" x2="1710.79" y2="22.73" xlink:href="#linear-gradient-5"/><linearGradient id="linear-gradient-59" x1="1707.61" y1="94.35" x2="1707.61" y2="92.51" xlink:href="#linear-gradient-6"/><linearGradient id="linear-gradient-60" x1="1688.81" y1="21.24" x2="1690.81" y2="19.37" xlink:href="#linear-gradient-7"/><linearGradient id="linear-gradient-61" x1="1699.34" y1="15.55" x2="1698.35" y2="6.05" xlink:href="#linear-gradient-8"/><linearGradient id="Sky-20" x1="247.7" y1="42.12" x2="263.69" y2="42.12" gradientTransform="matrix(1,0,0,1,0,0)" xlink:href="#Sky"/><linearGradient id="linear-gradient-62" x1="1985.59" y1="-72.19" x2="2007.7" y2="-72.19" gradientTransform="translate(617.91 2034.96) rotate(-102.7) scale(1 -1)" xlink:href="#linear-gradient"/><linearGradient id="linear-gradient-63" x1="2061.31" y1="135.52" x2="2074.21" y2="135.52" gradientTransform="translate(-1807.78 277.73) rotate(-10.07)" xlink:href="#linear-gradient-3"/><linearGradient id="Sky-21" x1="692.07" y1="-280.94" x2="701.55" y2="-280.94" gradientTransform="translate(-255.77 -511.51) rotate(68.9)" xlink:href="#Sky"/><linearGradient id="linear-gradient-64" x1="82.64" y1="817.32" x2="97.14" y2="817.32" gradientTransform="translate(360.01 -758.66) rotate(-5.86)" xlink:href="#linear-gradient-3"/><linearGradient id="Sky-22" x1="293.43" y1="1609.31" x2="301.69" y2="1609.31" gradientTransform="translate(1835.58 -965.41) rotate(62.79)" xlink:href="#Sky"/><linearGradient id="linear-gradient-65" x1="1776.68" y1="460.75" x2="1791.53" y2="460.75" gradientTransform="translate(2351.46 -267.18) rotate(-176.22) scale(1 -1)" xlink:href="#linear-gradient"/><linearGradient id="linear-gradient-66" x1="1401.68" y1="17.61" x2="1426.29" y2="17.61" xlink:href="#linear-gradient-4"/><linearGradient id="linear-gradient-67" x1="1417.67" y1="22.73" x2="1425.79" y2="22.73" xlink:href="#linear-gradient-5"/><linearGradient id="linear-gradient-68" x1="1423.26" y1="75.06" x2="1423.26" y2="73.22" xlink:href="#linear-gradient-6"/><linearGradient id="linear-gradient-69" x1="1403.81" y1="21.24" x2="1405.81" y2="19.37" xlink:href="#linear-gradient-7"/><linearGradient id="linear-gradient-70" x1="1414.34" y1="15.55" x2="1413.35" y2="6.05" xlink:href="#linear-gradient-8"/><linearGradient id="Sky-23" x1="532.7" y1="42.12" x2="548.69" y2="42.12" gradientTransform="matrix(1,0,0,1,0,0)" xlink:href="#Sky"/><linearGradient id="linear-gradient-71" x1="1922.95" y1="-350.22" x2="1945.07" y2="-350.22" gradientTransform="translate(617.91 2034.96) rotate(-102.7) scale(1 -1)" xlink:href="#linear-gradient"/><linearGradient id="linear-gradient-72" x1="2345.85" y1="191.71" x2="2358.49" y2="191.71" gradientTransform="translate(944.14 2369.28) rotate(-104.12)" xlink:href="#linear-gradient-3"/><linearGradient id="Sky-24" x1="800.84" y1="-549.33" x2="810.77" y2="-549.33" gradientTransform="translate(47.22 876.91) rotate(-25.15)" xlink:href="#Sky"/></defs><path class="cls-69" d="M295.62,75.83s-1.21,8.68-6.33,8.74-.28-11.66,1.14-12.36c2.34-1.15,6.42.89,5.19,3.62Z"/><path class="cls-127" d="M296.45,75.92s-1.21,8.68-6.33,8.74-.28-11.66,1.14-12.36c2.34-1.15,6.42.89,5.19,3.62Z"/><path class="cls-19" d="M295.74,79.03s-2.11.17-3.19-1.14"/><path class="cls-19" d="M294.91,80.27s-2.11.17-3.19-1.14"/><path class="cls-19" d="M294.18,81.61s-2.11.17-3.19-1.14"/><path class="cls-134" d="M33.99,62.37s-.37,6.72-10.35,11.95c-1.36,2.54-2.54,3.02-2.54,3.02-1.57.48-3.62.36-6.02-.01-3.14-.48-8.39-2.59-10.58-4.3-3.85-3,.05-3.43.05-3.43,7.97-.1,13.37,2.05,13.37,2.05,0,0,1.47.55,3.55,2.29,0,0-4.96-.49-2.5-2.55,0,0,3.01-9.18,11.06-11.32,4.47-1.18,3.96,2.31,3.96,2.31Z"/><path class="cls-55" d="M43.22,62.25s7.88,2.02,11.5,11.23c2.39,1.23-1.09,4.25-1.09,4.25.29.79.59,2.1.57,4.09-.04,2.6-1.66,7.18-3.35,9.24-2.95,3.61-4.16.56-4.16.56-1.51-6.37.13-11.09.13-11.09,0,0,.41-1.28,2.14-3.25,0,0-.12-.6-.51-1.41,0,0-8.55-4.23-9-11.12-.25-3.82,3.77-2.52,3.77-2.52Z"/><path class="cls-112" d="M42.95,57.13l-14.69.05s-1.67,1.13-2.65,2.22-3.01,2.73-4.35,4.56-2.85,2.48-2.85,2.48c0,0,1.98,1.07,4.93,2.01s6.44,3.86,6.44,3.86c0,0,.75-1.64,3.6-4.17s4.11-5.54,5.46-6.91,4.11-4.1,4.11-4.1Z"/><path class="cls-112" d="M27.99,57.13h15.16s1.2,1.18,2.17,2.28,3.01,2.73,4.35,4.56,3.6,4.03,3.6,4.03c0,0-1.84,1.15-4.55,2.47-2.84,1.39-7.2,2.47-7.2,2.47,0,0-1.13-1.95-3.98-4.48-2.85-2.53-4.1-5.84-5.45-7.22s-4.11-4.1-4.11-4.1Z"/><path class="cls-93" d="M20.87,38.82c-1.18,2.27-1.88,1.8-2.98,4.2-1.52,3.33-.59,5.59-1,6.99-.26.88-.92,1.96-.89,3.05.01.49-.41.99-.38,1.31.17,1.78.93,1.56,2.29,1.82.59.11,1.18-.19,1.32-.67l.12-.43c.41.54,1.07.21.66-.33-.12-.15-1.54-.95-1.76-1.72-.32-1.16.03-2.13.23-2.71.99-2.92,1.89-2.76,3.77-6.21,1.72-3.15.25-2.18,1.82-3.52.95-.81,4.36,2.26,7.81.3l1.01.98-2.85-6.34c-.25.73-2.67.36-5.43,1.11-1.88.51-3.33,1.4-3.75,2.2Z"/><polygon class="cls-87" points="29.73 35.44 27.98 35.65 29.1 43.29 31.05 43.07 29.73 35.44"/><path class="cls-125" d="M29.46,35.49s4.19-1.94,7.87-.9,3.62,5.58,1.22,7.07-7.77,1.51-7.77,1.51l-1.32-7.67Z"/><path class="cls-77" d="M35.77,27.67s-.86,3.22-3.14,4.85c0,0,.57,3.95,4.56,3.95s4.56-3.72,4.56-3.72c0,0-2.28-1.63-2-4.02s-3.99-1.06-3.99-1.06Z"/><path class="cls-83" d="M25.59,17.18c0,3.41,2.48,8.49,6.38,11.18.99.68,2.31,1.61,3.46,1.92.74.2,1.72-.2,2.46-.2,1.62,0,3.17-.27,4.59-1.06,4.52-2.5,7.71-8.18,7.71-11.85,0-4.83-5.51-8.74-12.3-8.74-6.79,0-12.3,3.91-12.3,8.74Z"/><path class="cls-48" d="M26.08,19.8s1.23,6.48,8.12,9.89c0,0-2.46-1.85-4.92-4.99-1.85-2.37-3.2-4.89-3.2-4.89Z"/><path class="cls-72" d="M42.81,17.46c0,1.11,1.89,1.4,2.71,1.4s2.21-.1,2.21-1.2c0-1.11-1.65-1.4-2.46-1.4s-2.46.1-2.46,1.2Z"/><path class="cls-72" d="M34.45,17.66c0,1.11,1.89,1.4,2.71,1.4s2.21-.1,2.21-1.2-1.65-1.4-2.46-1.4-2.46.1-2.46,1.2Z"/><path class="cls-137" d="M24.84,20.36c.92,2.32.95,3.82,2.9,3.59,1.34-.16-.43-2.07.07-3.67.79-2.58-1.06-3.91-2.4-3.75s-1.56,1.3-.56,3.83Z"/><path class="cls-33" d="M26.94,18.56s-1.37-2-.93,1.4"/><path class="cls-120" d="M42.04,21.23c-.25.02-.53.05-.78.13-.19.06-.39.05-.57-.02-.22-.08-.54-.18-.88-.19-.25,0-.41-.21-.28-.32,0,0,.18-.21.34-.53.09-.17.13-.36.16-.5.02-.12.14-.21.28-.22l1-.08c.11,0,.21.04.26.11.1.13.14.34.32.59.13.17.38.37.49.53.14.22-.04.48-.34.5Z"/><path class="cls-26" d="M38.09,14.16l.17.84c.01.06-.04.11-.11.1-.8-.03-3.58-.52-6.43.22-1.66.43,3.23-1.22,6.23-1.27.07,0,.14.04.15.1Z"/><path class="cls-26" d="M42.38,14.16l-.17.84c-.01.06.04.11.11.1.8-.03,3.58-.52,6.43.22,1.66.43-3.23-1.22-6.23-1.27-.07,0-.14.04-.15.1Z"/><path class="cls-111" d="M50.19,16.66s-2.71,8.22-6.15,11.22c0,0,6.15-4.61,6.15-11.22Z"/><path class="cls-112" d="M45.76,16.29s.49.75.49,1.37c0,.56-.49,1.03-.49,1.2-.09,0-.17,0-.25,0-.2,0-.46-.02-.74-.06,0,0-.49-.74-.49-1.34,0-.6.49-1.19.49-1.19.18-.01.35-.01.49-.01s.31,0,.49.03Z"/><path class="cls-112" d="M37.4,16.49s.49.75.49,1.37c0,.56-.49,1.03-.49,1.2-.09,0-.17,0-.25,0-.2,0-.46-.02-.74-.06,0,0-.49-.74-.49-1.34,0-.6.49-1.19.49-1.19.18-.01.35-.01.49-.01s.31,0,.49.03Z"/><ellipse class="cls-140" cx="36.91" cy="17.86" rx=".25" ry=".2"/><ellipse class="cls-140" cx="45.27" cy="17.66" rx=".25" ry=".2"/><path class="cls-142" d="M39.98,4.73s6.27,1.1,8.98,6.11l3.44,3.41s-7.46-2.95-6.62-2.53,5.8,3.59,5.8,3.59l-6.44-2.36,2.22,2.07,1.22,1.14-2.58-1.3-1.85-1.1,1.22,2.82-8.26-5.89s-3.67-1.24,1.5,3.77-5.01-3.14-5.41-2.41c-.62,1.11-2.84,1.67-3.2,3.01-.16.62-1.34,1.38-1.48,2-.33,1.49.19,3.79,0,3.21l-1.72-.2s-1.23-2.41-1.23-4.01c0-1.15,3.69-9.22,3.69-9.22,0,0-.98-1.4-.74-1.4s3.32-.3,3.32-.3l-1.11-1.1,3.08.7,1.11-1.7,1.85,1.9s8.49-4.31,8.24-3.91-1.97,3.01-5.04,3.71Z"/><polygon class="cls-102" points="44.29 7.95 49.46 12.25 44.29 9.72 45.52 11.26 42.82 10.13 47.12 13.04 41.83 10.85 45.27 14.06 40.73 11 43.8 14.72 35.43 8.82 34.94 10.25 36.17 12.85 32.97 10.85 30.51 13.65 28.54 16.26 29.03 12.85 26.33 15.06 27.85 11.14 31.04 8.44 36.66 7.34 44.29 7.95"/><ellipse class="cls-10" cx="45.73" cy="17.81" rx="3.24" ry="3.16"/><ellipse class="cls-10" cx="36.95" cy="17.81" rx="3.24" ry="3.16"/><path class="cls-16" d="M42.47,17.86s-1.07-1.84-2.12,0"/><line class="cls-15" x1="33.71" y1="17.81" x2="26.57" y2="16.06"/><path class="cls-72" d="M43.32,24.89h-8.41s3.98,3.91,8.41,0Z"/><path class="cls-106" d="M43.32,24.85s-2.95,3.61-8.49,0c0,0,4.43,3.91,8.49,0Z"/><path class="cls-106" d="M43.33,24.85s-5.18-.3-8.43.05"/><path class="cls-78" d="M42.95,25.76s-2.59,1.5-5.91,1.2c0,0,5.06.35,5.91-1.2Z"/><path class="cls-22" d="M41.84,24.55s-.62-.23-.99-.29-.52.17-1.2.17-1.13-.12-1.36-.12-.8,0-1.08.08"/><polygon class="cls-112" points="34.88 24.89 34.94 24.91 34.85 25.05 34.88 24.89"/><path class="cls-105" d="M32.32,32.27c-4.43,13.8-3.87,14.26-4.62,25.37,0,0,2.83-.03,5.02.29,2.19.32,4.63.18,6.5.32,2.07.16,4.13-.64,4.13-.64,1.21-15.71-1.18-25.66-1.18-25.66,0,0-5.32-.64-9.84.32Z"/><path class="cls-113" d="M48.72,45.8c2.83-.87,2.9-.13,5.79-1.14,4.01-1.4,5.37-3.5,6.9-4.23.96-.46,2.37-.81,3.32-1.58.42-.34,1.16-.44,1.42-.68,1.46-1.32.75-1.62.04-2.61-.3-.42-.99-.56-1.51-.32l-.47.22c.2-.61-.55-.77-.75-.16-.06.17.22,1.56-.32,2.22-.81.99-1.92,1.45-2.57,1.74-3.28,1.43-3.75.79-8.12,2.06-3.98,1.16-2.11,1.36-4.38,1.36-1.38,0-.99-4.13-5.12-4.81l.18-1.27-3.68,6.05c.83-.36,2.16,1.33,4.73,2.44,1.75.76,3.54,1,4.54.7Z"/><polygon class="cls-87" points="38.72 43.45 39.89 44.53 47.12 39.57 45.82 38.37 38.72 43.45"/><path class="cls-131" d="M38.72,43.45s-4.29-1.79-5.24-4.87,3.74-5.53,6.58-4.71c2.85.82,5.81,4.46,5.81,4.46l-7.15,5.11Z"/><path class="cls-69" d="M48.91,88.94s10.26,2.53,9.42,6.64-14.14-1.87-14.72-3.14c-.97-2.08,2.23-4.98,5.31-3.51Z"/><path class="cls-127" d="M49.17,88.28s10.26,2.53,9.42,6.64-14.14-1.87-14.72-3.14c-.97-2.08,2.23-4.98,5.31-3.51Z"/><path class="cls-19" d="M52.8,89.41s-.17,1.72-1.95,2.35"/><path class="cls-19" d="M54.14,90.31s-.17,1.72-1.95,2.35"/><path class="cls-19" d="M55.63,91.13s-.17,1.72-1.95,2.35"/><path class="cls-69" d="M8.62,71.83s-1.21,8.68-6.33,8.74-.28-11.66,1.14-12.36c2.34-1.15,6.42.89,5.19,3.62Z"/><path class="cls-127" d="M9.45,71.92s-1.21,8.68-6.33,8.74-.28-11.66,1.14-12.36c2.34-1.15,6.42.89,5.19,3.62Z"/><path class="cls-19" d="M8.74,75.03s-2.11.17-3.19-1.14"/><path class="cls-19" d="M7.91,76.27s-2.11.17-3.19-1.14"/><path class="cls-19" d="M7.18,77.61s-2.11.17-3.19-1.14"/><path class="cls-87" d="M32.32,32.27c-.79.96-.59,1.44-.59,1.44,6.5,0,11.02-.48,11.02-.48,0-.96-.59-1.28-.59-1.28-4.72-.64-9.84.32-9.84.32Z"/><path class="cls-61" d="M97.89,43.4c-.37,2.53-1.19,2.32-1.44,4.95-.35,3.64,1.27,5.47,1.34,6.93.05.92-.23,2.15.16,3.17.17.45-.06,1.07.07,1.36.74,1.62,1.39,1.17,2.76.97.59-.08,1.05-.57,1.03-1.07l-.02-.44c.56.38,1.08-.15.52-.53-.16-.11-1.77-.39-2.22-1.05-.68-.99-.67-2.03-.67-2.64-.02-3.08.88-3.22,1.53-7.1.59-3.53-.48-2.14.57-3.92.63-1.08,4.86.71,7.47-2.27l1.27.6-4.76-5.06c0,.78-2.41,1.21-4.77,2.82-1.61,1.1-2.69,2.41-2.82,3.3Z"/><polygon class="cls-87" points="105.17 37.31 103.58 38.08 107.14 44.93 108.9 44.08 105.17 37.31"/><path class="cls-81" d="M104.93,37.44s3.33-3.2,7.14-3.43,5.25,4.08,3.46,6.28-6.85,3.96-6.85,3.96l-3.76-6.82Z"/><path class="cls-118" d="M109.99,62.37s.99,7.46-8.99,12.69c-1.36,2.54-2.32,3.08-2.32,3.08-1.17,1.16-3.03,2.01-5.33,2.8-3,1.04-8.62,1.63-11.37,1.14-4.8-.85-1.56-3.06-1.56-3.06,6.99-3.81,12.78-4.45,12.78-4.45,0,0,1.56-.2,4.21.36,0,0-4.62,1.88-3.41-1.08,0,0,3.97-11.67,12.03-13.8,4.47-1.18,3.96,2.31,3.96,2.31Z"/><path class="cls-62" d="M118.55,61.78s7,4.15,7.9,14c1.95,1.84-2.24,3.78-2.24,3.78.06.84.48,2.13.35,4.12-.17,2.6-2.04,7.08-3.84,9.05-3.14,3.45-4.18.34-4.18.34-1.17-6.44.72-11.06.72-11.06,0,0,.47-1.25,2.31-3.13,0,0,.34-1.65.18-2.53,0,0-7.03-6.45-5.53-13.19.83-3.74,4.32-1.37,4.32-1.37Z"/><path class="cls-112" d="M118.95,57.13l-14.69.05s-1.67,1.13-2.65,2.22-3.01,2.73-4.35,4.56-1.26,3.1-1.26,3.1c0,0,.4.45,3.34,1.39s7.66,4.61,7.66,4.61c0,0,.15-1.47,3-4s3.49-6.46,4.84-7.83,4.11-4.1,4.11-4.1Z"/><path class="cls-112" d="M103.99,57.13h15.16s1.2,1.18,2.17,2.28,3.01,2.73,4.35,4.56,2.32,5.1,2.32,5.1c0,0-.57.07-3.27,1.4-2.84,1.39-8.73,3.6-8.73,3.6,0,0,.4-3.08-2.45-5.61-2.85-2.53-4.1-5.84-5.45-7.22s-4.11-4.1-4.11-4.1Z"/><path class="cls-77" d="M111.77,27.67s-.86,3.22-3.14,4.85c0,0,.57,3.95,4.56,3.95s4.56-3.72,4.56-3.72c0,0-2.28-1.63-2-4.02s-3.99-1.06-3.99-1.06Z"/><path class="cls-38" d="M101.59,17.18c0,3.41,2.48,8.49,6.38,11.18.99.68,2.31,1.61,3.46,1.92.74.2,1.72-.2,2.46-.2,1.62,0,3.17-.27,4.59-1.06,4.52-2.5,7.71-8.18,7.71-11.85,0-4.83-5.51-8.74-12.3-8.74-6.79,0-12.3,3.91-12.3,8.74Z"/><path class="cls-52" d="M102.08,19.8s1.23,6.48,8.12,9.89c0,0-2.46-1.85-4.92-4.99-1.85-2.37-3.2-4.89-3.2-4.89Z"/><path class="cls-72" d="M118.81,17.46c0,1.11,1.89,1.4,2.71,1.4s2.21-.1,2.21-1.2c0-1.11-1.65-1.4-2.46-1.4s-2.46.1-2.46,1.2Z"/><path class="cls-72" d="M110.45,17.66c0,1.11,1.89,1.4,2.71,1.4s2.21-.1,2.21-1.2-1.65-1.4-2.46-1.4-2.46.1-2.46,1.2Z"/><path class="cls-137" d="M100.84,20.36c.92,2.32.95,3.82,2.9,3.59,1.34-.16-.43-2.07.07-3.67.79-2.58-1.06-3.91-2.4-3.75s-1.56,1.3-.56,3.83Z"/><path class="cls-33" d="M102.94,18.56s-1.37-2-.93,1.4"/><path class="cls-37" d="M118.04,21.23c-.25.02-.53.05-.78.13-.19.06-.39.05-.57-.02-.22-.08-.54-.18-.88-.19-.25,0-.41-.21-.28-.32,0,0,.18-.21.34-.53.09-.17.13-.36.16-.5.02-.12.14-.21.28-.22l1-.08c.11,0,.21.04.26.11.1.13.14.34.32.59.13.17.38.37.49.53.14.22-.04.48-.34.5Z"/><path class="cls-26" d="M114.09,14.16l.17.84c.01.06-.04.11-.11.1-.8-.03-3.58-.52-6.43.22-1.66.43,3.23-1.22,6.23-1.27.07,0,.14.04.15.1Z"/><path class="cls-26" d="M118.38,14.16l-.17.84c-.01.06.04.11.11.1.8-.03,3.58-.52,6.43.22,1.66.43-3.23-1.22-6.23-1.27-.07,0-.14.04-.15.1Z"/><path class="cls-133" d="M126.19,16.66s-2.71,8.22-6.15,11.22c0,0,6.15-4.61,6.15-11.22Z"/><path class="cls-112" d="M121.76,16.29s.49.75.49,1.37c0,.56-.49,1.03-.49,1.2-.09,0-.17,0-.25,0-.2,0-.46-.02-.74-.06,0,0-.49-.74-.49-1.34,0-.6.49-1.19.49-1.19.18-.01.35-.01.49-.01s.31,0,.49.03Z"/><path class="cls-112" d="M113.4,16.49s.49.75.49,1.37c0,.56-.49,1.03-.49,1.2-.09,0-.17,0-.25,0-.2,0-.46-.02-.74-.06,0,0-.49-.74-.49-1.34,0-.6.49-1.19.49-1.19.18-.01.35-.01.49-.01s.31,0,.49.03Z"/><ellipse class="cls-140" cx="112.91" cy="17.86" rx=".25" ry=".2"/><ellipse class="cls-140" cx="121.27" cy="17.66" rx=".25" ry=".2"/><path class="cls-142" d="M115.98,4.73s6.27,1.1,8.98,6.11l3.44,3.41s-7.46-2.95-6.62-2.53,5.8,3.59,5.8,3.59l-6.44-2.36,2.22,2.07,1.22,1.14-2.58-1.3-1.85-1.1,1.22,2.82-8.26-5.89s-3.67-1.24,1.5,3.77-5.01-3.14-5.41-2.41c-.62,1.11-2.84,1.67-3.2,3.01-.16.62-1.34,1.38-1.48,2-.33,1.49.19,3.79,0,3.21l-1.72-.2s-1.23-2.41-1.23-4.01c0-1.15,3.69-9.22,3.69-9.22,0,0-.98-1.4-.74-1.4s3.32-.3,3.32-.3l-1.11-1.1,3.08.7,1.11-1.7,1.85,1.9s8.49-4.31,8.24-3.91-1.97,3.01-5.04,3.71Z"/><polygon class="cls-110" points="120.29 7.95 125.46 12.25 120.29 9.72 121.52 11.26 118.82 10.13 123.12 13.04 117.83 10.85 121.27 14.06 116.73 11 119.8 14.72 111.43 8.82 110.94 10.25 112.17 12.85 108.97 10.85 106.51 13.65 104.54 16.26 105.03 12.85 102.33 15.06 103.85 11.14 107.04 8.44 112.66 7.34 120.29 7.95"/><ellipse class="cls-10" cx="121.73" cy="17.81" rx="3.24" ry="3.16"/><ellipse class="cls-10" cx="112.95" cy="17.81" rx="3.24" ry="3.16"/><path class="cls-16" d="M118.47,17.86s-1.07-1.84-2.12,0"/><line class="cls-15" x1="109.71" y1="17.81" x2="102.57" y2="16.06"/><path class="cls-72" d="M119.32,24.89h-8.41s3.98,3.91,8.41,0Z"/><path class="cls-106" d="M119.32,24.85s-2.95,3.61-8.49,0c0,0,4.43,3.91,8.49,0Z"/><path class="cls-106" d="M119.33,24.85s-5.18-.3-8.43.05"/><path class="cls-78" d="M118.95,25.76s-2.59,1.5-5.91,1.2c0,0,5.06.35,5.91-1.2Z"/><path class="cls-22" d="M117.84,24.55s-.62-.23-.99-.29-.52.17-1.2.17-1.13-.12-1.36-.12-.8,0-1.08.08"/><polygon class="cls-112" points="110.88 24.89 110.94 24.91 110.85 25.05 110.88 24.89"/><path class="cls-114" d="M108.32,32.27c-4.43,13.8-3.87,14.26-4.62,25.37,0,0,2.83-.03,5.02.29,2.19.32,4.63.18,6.5.32,2.07.16,4.13-.64,4.13-.64,1.21-15.71-1.18-25.66-1.18-25.66,0,0-5.32-.64-9.84.32Z"/><path class="cls-141" d="M121.17,49.17c2.95.22,2.75.93,5.81,1.04,4.24.15,6.28-1.31,7.97-1.43,1.06-.08,2.5.11,3.66-.26.52-.17,1.24.01,1.57-.11,1.84-.7,1.28-1.24.98-2.42-.13-.51-.72-.88-1.29-.84l-.51.04c.41-.5-.23-.92-.64-.42-.11.14-.36,1.54-1.1,1.95-1.11.63-2.32.66-3.02.69-3.57.14-3.78-.63-8.32-1.03-4.13-.37-2.46.5-4.58-.33-1.28-.5.57-4.21-3.02-6.34l.62-1.12-5.62,4.3c.9-.03,1.53,2.03,3.52,3.99,1.35,1.34,2.94,2.22,3.97,2.3Z"/><polygon class="cls-87" points="112.71 43.34 113.4 44.77 121.94 42.78 121.17 41.19 112.71 43.34"/><path class="cls-138" d="M112.71,43.34s-3.34-3.23-3.12-6.44,5.49-3.79,7.84-1.99c2.36,1.8,3.79,6.27,3.79,6.27l-8.52,2.16Z"/><path class="cls-69" d="M118.04,90.64s10.56-.33,10.86,3.86-14.12,2.01-15.03.95c-1.5-1.74.8-5.4,4.16-4.81Z"/><path class="cls-127" d="M118.12,89.94s10.56-.33,10.86,3.86-14.12,2.01-15.03.95c-1.5-1.74.8-5.4,4.16-4.81Z"/><path class="cls-19" d="M121.91,90.05s.3,1.7-1.24,2.79"/><path class="cls-19" d="M123.45,90.55s.3,1.7-1.24,2.79"/><path class="cls-19" d="M125.1,90.93s.3,1.7-1.24,2.79"/><path class="cls-69" d="M80.73,80.19s3.61,7.98-.68,10.77-6.47-9.71-5.64-11.06c1.36-2.22,5.9-2.68,6.32.29Z"/><path class="cls-127" d="M81.48,79.82s3.61,7.98-.68,10.77-6.47-9.71-5.64-11.06c1.36-2.22,5.9-2.68,6.32.29Z"/><path class="cls-19" d="M82.54,82.83s-1.69,1.27-3.31.75"/><path class="cls-19" d="M82.5,84.32s-1.69,1.27-3.31.75"/><path class="cls-19" d="M82.6,85.84s-1.69,1.27-3.31.75"/><path class="cls-87" d="M108.32,32.27c-.79.96-.59,1.44-.59,1.44,6.5,0,11.02-.48,11.02-.48,0-.96-.59-1.28-.59-1.28-4.72-.64-9.84.32-9.84.32Z"/><path class="cls-119" d="M389.96,50.2c1.12,2.3.31,2.59,1.58,4.9,1.76,3.21,4.12,3.82,5,4.98.55.73,1.02,1.91,1.91,2.53.4.28.55.92.82,1.09,1.52.93,1.8.19,2.83-.75.44-.4.55-1.06.25-1.46l-.27-.36c.67,0,.8-.73.13-.73-.19,0-1.68.67-2.43.38-1.12-.43-1.69-1.3-2.04-1.8-1.75-2.54-1.08-3.16-2.72-6.74-1.49-3.26-1.6-1.51-1.74-3.56-.08-1.25,4.42-2.14,4.91-6.08l1.39-.22-6.78-1.51c.44.64-1.31,2.36-2.36,5.01-.71,1.81-.87,3.51-.48,4.32Z"/><polygon class="cls-87" points="392.56 41.08 391.67 42.61 398.47 46.28 399.46 44.59 392.56 41.08"/><path class="cls-91" d="M392.43,41.33s.95-4.52,3.99-6.85,6.64.43,6.39,3.25-3.44,7.13-3.44,7.13l-6.94-3.53Z"/><path class="cls-109" d="M396.99,62.37s.99,7.46-8.99,12.69c-1.36,2.54-2.32,3.08-2.32,3.08-1.17,1.16-3.03,2.01-5.33,2.8-3,1.04-8.62,1.63-11.37,1.14-4.8-.85-1.56-3.06-1.56-3.06,6.99-3.81,12.78-4.45,12.78-4.45,0,0,1.56-.2,4.21.36,0,0-4.62,1.88-3.41-1.08,0,0,3.97-11.67,12.03-13.8,4.47-1.18,3.96,2.31,3.96,2.31Z"/><path class="cls-123" d="M405.55,61.78s7,4.15,7.9,14c1.95,1.84-2.24,3.78-2.24,3.78.06.84.48,2.13.35,4.12-.17,2.6-2.04,7.08-3.84,9.05-3.14,3.45-4.18.34-4.18.34-1.17-6.44.72-11.06.72-11.06,0,0,.47-1.25,2.31-3.13,0,0,.34-1.65.18-2.53,0,0-7.03-6.45-5.53-13.19.83-3.74,4.32-1.37,4.32-1.37Z"/><path class="cls-112" d="M405.95,57.13l-14.69.05s-1.67,1.13-2.65,2.22-3.01,2.73-4.35,4.56-1.26,3.1-1.26,3.1c0,0,.4.45,3.34,1.39s7.66,4.61,7.66,4.61c0,0,.15-1.47,3-4s3.49-6.46,4.84-7.83,4.11-4.1,4.11-4.1Z"/><path class="cls-112" d="M390.99,57.13h15.16s1.2,1.18,2.17,2.28,3.01,2.73,4.35,4.56,2.32,5.1,2.32,5.1c0,0-.57.07-3.27,1.4-2.84,1.39-8.73,3.6-8.73,3.6,0,0,.4-3.08-2.45-5.61-2.85-2.53-4.1-5.84-5.45-7.22s-4.11-4.1-4.11-4.1Z"/><path class="cls-77" d="M398.77,27.67s-.86,3.22-3.14,4.85c0,0,.57,3.95,4.56,3.95s4.56-3.72,4.56-3.72c0,0-2.28-1.63-2-4.02s-3.99-1.06-3.99-1.06Z"/><path class="cls-97" d="M388.59,17.18c0,3.41,2.48,8.49,6.38,11.18.99.68,2.31,1.61,3.46,1.92.74.2,1.72-.2,2.46-.2,1.62,0,3.17-.27,4.59-1.06,4.52-2.5,7.71-8.18,7.71-11.85,0-4.83-5.51-8.74-12.3-8.74-6.79,0-12.3,3.91-12.3,8.74Z"/><path class="cls-46" d="M389.08,19.8s1.23,6.48,8.12,9.89c0,0-2.46-1.85-4.92-4.99-1.85-2.37-3.2-4.89-3.2-4.89Z"/><path class="cls-72" d="M405.81,17.46c0,1.11,1.89,1.4,2.71,1.4s2.21-.1,2.21-1.2c0-1.11-1.65-1.4-2.46-1.4s-2.46.1-2.46,1.2Z"/><path class="cls-72" d="M397.45,17.66c0,1.11,1.89,1.4,2.71,1.4s2.21-.1,2.21-1.2-1.65-1.4-2.46-1.4-2.46.1-2.46,1.2Z"/><path class="cls-137" d="M387.84,20.36c.92,2.32.95,3.82,2.9,3.59,1.34-.16-.43-2.07.07-3.67.79-2.58-1.06-3.91-2.4-3.75s-1.56,1.3-.56,3.83Z"/><path class="cls-33" d="M389.94,18.56s-1.37-2-.93,1.4"/><path class="cls-98" d="M405.04,21.23c-.25.02-.53.05-.78.13-.19.06-.39.05-.57-.02-.22-.08-.54-.18-.88-.19-.25,0-.41-.21-.28-.32,0,0,.18-.21.34-.53.09-.17.13-.36.16-.5.02-.12.14-.21.28-.22l1-.08c.11,0,.21.04.26.11.1.13.14.34.32.59.13.17.38.37.49.53.14.22-.04.48-.34.5Z"/><path class="cls-26" d="M401.09,14.16l.17.84c.01.06-.04.11-.11.1-.8-.03-3.58-.52-6.43.22-1.66.43,3.23-1.22,6.23-1.27.07,0,.14.04.15.1Z"/><path class="cls-26" d="M405.38,14.16l-.17.84c-.01.06.04.11.11.1.8-.03,3.58-.52,6.43.22,1.66.43-3.23-1.22-6.23-1.27-.07,0-.14.04-.15.1Z"/><path class="cls-60" d="M413.19,16.66s-2.71,8.22-6.15,11.22c0,0,6.15-4.61,6.15-11.22Z"/><path class="cls-112" d="M408.76,16.29s.49.75.49,1.37c0,.56-.49,1.03-.49,1.2-.09,0-.17,0-.25,0-.2,0-.46-.02-.74-.06,0,0-.49-.74-.49-1.34,0-.6.49-1.19.49-1.19.18-.01.35-.01.49-.01s.31,0,.49.03Z"/><path class="cls-112" d="M400.4,16.49s.49.75.49,1.37c0,.56-.49,1.03-.49,1.2-.09,0-.17,0-.25,0-.2,0-.46-.02-.74-.06,0,0-.49-.74-.49-1.34,0-.6.49-1.19.49-1.19.18-.01.35-.01.49-.01s.31,0,.49.03Z"/><ellipse class="cls-140" cx="399.91" cy="17.86" rx=".25" ry=".2"/><ellipse class="cls-140" cx="408.27" cy="17.66" rx=".25" ry=".2"/><path class="cls-142" d="M402.98,4.73s6.27,1.1,8.98,6.11l3.44,3.41s-7.46-2.95-6.62-2.53,5.8,3.59,5.8,3.59l-6.44-2.36,2.22,2.07,1.22,1.14-2.58-1.3-1.85-1.1,1.22,2.82-8.26-5.89s-3.67-1.24,1.5,3.77-5.01-3.14-5.41-2.41c-.62,1.11-2.84,1.67-3.2,3.01-.16.62-1.34,1.38-1.48,2-.33,1.49.19,3.79,0,3.21l-1.72-.2s-1.23-2.41-1.23-4.01c0-1.15,3.69-9.22,3.69-9.22,0,0-.98-1.4-.74-1.4s3.32-.3,3.32-.3l-1.11-1.1,3.08.7,1.11-1.7,1.85,1.9s8.49-4.31,8.24-3.91-1.97,3.01-5.04,3.71Z"/><polygon class="cls-80" points="407.29 7.95 412.46 12.25 407.29 9.72 408.52 11.26 405.82 10.13 410.12 13.04 404.83 10.85 408.27 14.06 403.73 11 406.8 14.72 398.43 8.82 397.94 10.25 399.17 12.85 395.97 10.85 393.51 13.65 391.54 16.26 392.03 12.85 389.33 15.06 390.85 11.14 394.04 8.44 399.66 7.34 407.29 7.95"/><ellipse class="cls-10" cx="408.73" cy="17.81" rx="3.24" ry="3.16"/><ellipse class="cls-10" cx="399.95" cy="17.81" rx="3.24" ry="3.16"/><path class="cls-16" d="M405.47,17.86s-1.07-1.84-2.12,0"/><line class="cls-15" x1="396.71" y1="17.81" x2="389.57" y2="16.06"/><path class="cls-72" d="M406.32,24.89h-8.41s3.98,3.91,8.41,0Z"/><path class="cls-106" d="M406.32,24.85s-2.95,3.61-8.49,0c0,0,4.43,3.91,8.49,0Z"/><path class="cls-106" d="M406.33,24.85s-5.18-.3-8.43.05"/><path class="cls-78" d="M405.95,25.76s-2.59,1.5-5.91,1.2c0,0,5.06.35,5.91-1.2Z"/><path class="cls-22" d="M404.84,24.55s-.62-.23-.99-.29-.52.17-1.2.17-1.13-.12-1.36-.12-.8,0-1.08.08"/><polygon class="cls-112" points="397.88 24.89 397.94 24.91 397.85 25.05 397.88 24.89"/><path class="cls-129" d="M395.32,32.27c-4.43,13.8-3.87,14.26-4.62,25.37,0,0,2.83-.03,5.02.29,2.19.32,4.63.18,6.5.32,2.07.16,4.13-.64,4.13-.64,1.21-15.71-1.18-25.66-1.18-25.66,0,0-5.32-.64-9.84.32Z"/><path class="cls-64" d="M400.32,51.03c2.21,1.97,1.61,2.42,3.97,4.37,3.27,2.71,5.78,2.79,7.19,3.72.89.59,1.92,1.61,3.07,2.03.51.18.98.77,1.31.87,1.89.57,1.77-.2,2.25-1.32.21-.48-.03-1.14-.51-1.46l-.43-.28c.63-.15.38-.87-.25-.73-.18.04-1.22,1-2.06.88-1.26-.18-2.24-.89-2.82-1.3-2.92-2.07-2.61-2.8-5.96-5.89-3.05-2.81-2.25-1.11-3.43-3.05-.71-1.18,3.02-2.99,1.47-6.87l1.18-.51-7.08-.02c.73.52-.02,2.54.36,5.31.26,1.89.98,3.55,1.75,4.24Z"/><polygon class="cls-87" points="397.17 41.26 396.84 42.82 404.82 46.44 405.18 44.71 397.17 41.26"/><path class="cls-115" d="M397.17,41.26s-.68-4.6,1.45-7.01,6.66.34,7.43,3.2c.77,2.86-.82,7.28-.82,7.28l-8.07-3.47Z"/><path class="cls-69" d="M405.04,90.64s10.56-.33,10.86,3.86-14.12,2.01-15.03.95c-1.5-1.74.8-5.4,4.16-4.81Z"/><path class="cls-127" d="M405.12,89.94s10.56-.33,10.86,3.86-14.12,2.01-15.03.95c-1.5-1.74.8-5.4,4.16-4.81Z"/><path class="cls-19" d="M408.91,90.05s.3,1.7-1.24,2.79"/><path class="cls-19" d="M410.45,90.55s.3,1.7-1.24,2.79"/><path class="cls-19" d="M412.1,90.93s.3,1.7-1.24,2.79"/><path class="cls-69" d="M367.73,80.19s3.61,7.98-.68,10.77-6.47-9.71-5.64-11.06c1.36-2.22,5.9-2.68,6.32.29Z"/><path class="cls-127" d="M368.48,79.82s3.61,7.98-.68,10.77-6.47-9.71-5.64-11.06c1.36-2.22,5.9-2.68,6.32.29Z"/><path class="cls-19" d="M369.54,82.83s-1.69,1.27-3.31.75"/><path class="cls-19" d="M369.5,84.32s-1.69,1.27-3.31.75"/><path class="cls-19" d="M369.6,85.84s-1.69,1.27-3.31.75"/><path class="cls-87" d="M395.32,32.27c-.79.96-.59,1.44-.59,1.44,6.5,0,11.02-.48,11.02-.48,0-.96-.59-1.28-.59-1.28-4.72-.64-9.84.32-9.84.32Z"/><path class="cls-39" d="M176.58,50.95c1.77,1.78,1.1,2.29,3.02,4.04,2.67,2.43,5.1,2.28,6.3,3.09.75.51,1.56,1.45,2.6,1.76.46.14.8.68,1.11.75,1.74.4,1.77-.37,2.46-1.54.3-.5.19-1.15-.21-1.42l-.36-.25c.64-.21.54-.92-.1-.71-.18.06-1.39,1.12-2.19,1.08-1.2-.06-2.01-.69-2.5-1.05-2.45-1.81-2.01-2.59-4.68-5.39-2.43-2.55-1.99-.91-2.75-2.76-.47-1.12,3.54-3.3,2.78-7.07l1.25-.62-6.92.64c.62.46-.52,2.57-.69,5.33-.12,1.88.26,3.5.88,4.12Z"/><polygon class="cls-87" points="176.22 41.76 175.85 43.43 183.45 44.78 183.87 42.92 176.22 41.76"/><path class="cls-128" d="M176.18,42.02s-.49-4.45,1.67-7.51c2.16-3.06,6.44-1.59,7.08,1.07s-1.06,7.6-1.06,7.6l-7.69-1.17Z"/><path class="cls-108" d="M178.99,60.53s1.99,7.23-7.99,12.3c0,2.91-1,3.88-1,3.88-.07,1.59-.47,3.27-1.61,5.34-1.5,2.72-5.21,6.84-7.56,8.3-4.1,2.56-3.22-1.14-3.22-1.14,2.54-7.32,6.39-14.44,6.39-14.44,0,0,0-.97,0,0,0,0,0,.19,0-.97,0,0,2.98-13.44,11.03-15.51,4.47-1.15,3.96,2.24,3.96,2.24Z"/><path class="cls-86" d="M187.31,60.92s5.26,6.02,2.89,15.33c1.24,2.31-1.54,4.11-1.54,4.11.2.8.82,1.96,1.02,3.88.25,2.51-.85,7.09-2.3,9.26-2.53,3.8-4.07.99-4.07.99-2.22-5.97-1.11-10.69-1.11-10.69,0,0,.26-1.27,1.76-3.36,0,0-.42-4.94-.28-5.8,0,0-4.53-8.14-.92-13.84,2.01-3.16,4.53.12,4.53.12Z"/><path class="cls-112" d="M187.95,55.45l-14.69.05s-1.67,1.1-2.65,2.15-3.01,2.64-4.35,4.41-1.26,3-1.26,3c0,0,.4.44,3.34,1.35s7.66,4.47,7.66,4.47c0,0,.15-1.43,3-3.88s3.49-6.26,4.84-7.59,4.11-3.97,4.11-3.97Z"/><path class="cls-112" d="M172.99,55.45h15.16s1.62,1.86,2.17,3.17c.68,1.6,0,2.67,1.68,5.48,1.14,1.91,2,4.85,2,4.85,0,0-2.29-.31-5,.97-2.84,1.35-8,2.91-8,2.91,0,0,0-1.94-1-5.81-.92-3.58-1.55-6.26-2.9-7.59s-4.11-3.97-4.11-3.97Z"/><path class="cls-77" d="M180.77,26.9s-.86,3.12-3.14,4.7c0,0,.57,3.83,4.56,3.83s4.56-3.6,4.56-3.6c0,0-2.28-1.58-2-3.89s-3.99-1.03-3.99-1.03Z"/><path class="cls-135" d="M170.59,16.74c0,3.31,2.48,8.23,6.38,10.84.99.66,2.31,1.56,3.46,1.87.74.19,1.72-.19,2.46-.19,1.62,0,3.17-.26,4.59-1.02,4.52-2.42,7.71-7.92,7.71-11.48,0-4.68-5.51-8.47-12.3-8.47-6.79,0-12.3,3.79-12.3,8.47Z"/><path class="cls-49" d="M171.08,19.28s1.23,6.28,8.12,9.58c0,0-2.46-1.79-4.92-4.84-1.85-2.3-3.2-4.74-3.2-4.74Z"/><path class="cls-72" d="M187.81,17.01c0,1.07,1.89,1.36,2.71,1.36s2.21-.09,2.21-1.17c0-1.07-1.65-1.36-2.46-1.36s-2.46.09-2.46,1.17Z"/><path class="cls-72" d="M179.45,17.21c0,1.07,1.89,1.36,2.71,1.36s2.21-.09,2.21-1.17-1.65-1.36-2.46-1.36-2.46.09-2.46,1.17Z"/><path class="cls-137" d="M169.84,19.82c.92,2.25.95,3.7,2.9,3.48,1.34-.16-.43-2.01.07-3.56.79-2.5-1.06-3.79-2.4-3.63s-1.56,1.26-.56,3.71Z"/><path class="cls-2" d="M171.94,18.08s-1.37-1.94-.93,1.36"/><path class="cls-100" d="M187.04,20.67c-.25.02-.53.05-.78.12-.19.06-.39.05-.57-.02-.22-.08-.54-.18-.88-.18-.25,0-.41-.2-.28-.31,0,0,.18-.21.34-.51.09-.17.13-.35.16-.49.02-.11.14-.2.28-.21l1-.08c.11,0,.21.04.26.11.1.13.14.33.32.57.13.17.38.36.49.51.14.21-.04.47-.34.49Z"/><path class="cls-24" d="M183.09,13.81l.17.82c.01.05-.04.1-.11.1-.8-.03-3.58-.51-6.43.21-1.66.42,3.23-1.18,6.23-1.23.07,0,.14.04.15.1Z"/><path class="cls-24" d="M187.38,13.81l-.17.82c-.01.05.04.1.11.1.8-.03,3.58-.51,6.43.21,1.66.42-3.23-1.18-6.23-1.23-.07,0-.14.04-.15.1Z"/><path class="cls-94" d="M195.19,16.23s-2.71,7.96-6.15,10.88c0,0,6.15-4.47,6.15-10.88Z"/><path class="cls-112" d="M190.76,15.88s.49.72.49,1.33c0,.55-.49,1-.49,1.16-.09,0-.17,0-.25,0-.2,0-.46-.02-.74-.06,0,0-.49-.72-.49-1.3,0-.58.49-1.15.49-1.15.18-.01.35-.01.49-.01s.31,0,.49.03Z"/><path class="cls-112" d="M182.4,16.07s.49.72.49,1.33c0,.55-.49,1-.49,1.16-.09,0-.17,0-.25,0-.2,0-.46-.02-.74-.06,0,0-.49-.72-.49-1.3,0-.58.49-1.15.49-1.15.18-.01.35-.01.49-.01s.31,0,.49.03Z"/><ellipse class="cls-140" cx="181.91" cy="17.4" rx=".25" ry=".19"/><ellipse class="cls-140" cx="190.27" cy="17.21" rx=".25" ry=".19"/><path class="cls-142" d="M184.98,4.68s6.27,1.07,8.98,5.92l3.44,3.3s-7.46-2.86-6.62-2.45,5.8,3.48,5.8,3.48l-6.44-2.29,2.22,2,1.22,1.1-2.58-1.26-1.85-1.07,1.22,2.73-8.26-5.71s-3.67-1.2,1.5,3.65-5.01-3.04-5.41-2.33c-.62,1.07-2.84,1.62-3.2,2.91-.16.6-1.34,1.34-1.48,1.94-.33,1.44.19,3.68,0,3.11l-1.72-.19s-1.23-2.33-1.23-3.88c0-1.12,3.69-8.94,3.69-8.94,0,0-.98-1.36-.74-1.36s3.32-.29,3.32-.29l-1.11-1.07,3.08.68,1.11-1.65,1.85,1.85s8.49-4.18,8.24-3.79-1.97,2.91-5.04,3.59Z"/><polygon class="cls-85" points="189.29 7.79 194.46 11.96 189.29 9.5 190.52 11 187.82 9.91 192.12 12.73 186.83 10.6 190.27 13.71 185.73 10.75 188.8 14.36 180.43 8.63 179.94 10.02 181.17 12.54 177.97 10.6 175.51 13.32 173.54 15.85 174.03 12.54 171.33 14.68 172.85 10.89 176.04 8.27 181.66 7.2 189.29 7.79"/><ellipse class="cls-12" cx="190.73" cy="17.35" rx="3.24" ry="3.06"/><ellipse class="cls-12" cx="181.95" cy="17.35" rx="3.24" ry="3.06"/><path class="cls-17" d="M187.47,17.4s-1.07-1.78-2.12,0"/><line class="cls-3" x1="178.71" y1="17.35" x2="171.57" y2="15.65"/><path class="cls-72" d="M188.32,24.21h-8.41s3.98,3.79,8.41,0Z"/><path class="cls-106" d="M188.32,24.18s-2.95,3.5-8.49,0c0,0,4.43,3.79,8.49,0Z"/><path class="cls-106" d="M188.33,24.18s-5.18-.29-8.43.04"/><path class="cls-78" d="M187.95,25.05s-2.59,1.46-5.91,1.17c0,0,5.06.34,5.91-1.17Z"/><path class="cls-11" d="M186.84,23.88s-.62-.23-.99-.28-.52.17-1.2.17-1.13-.11-1.36-.11-.8,0-1.08.08"/><polygon class="cls-112" points="179.88 24.21 179.94 24.23 179.85 24.37 179.88 24.21"/><path class="cls-56" d="M177.32,31.36c-4.43,13.37-3.87,13.82-4.62,24.59,0,0,2.83-.03,5.02.28,2.19.31,4.63.17,6.5.31,2.07.16,4.13-.62,4.13-.62,1.21-15.22-1.18-24.87-1.18-24.87,0,0-5.32-.62-9.84.31Z"/><path class="cls-122" d="M182.72,49.58c2.27,1.84,1.69,2.29,4.11,4.11,3.35,2.52,5.86,2.52,7.3,3.38.91.54,1.97,1.5,3.13,1.87.52.16,1,.71,1.34.8,1.91.49,1.77-.25,2.21-1.34.19-.47-.06-1.1-.56-1.39l-.44-.26c.62-.16.35-.86-.27-.7-.18.05-1.19,1-2.04.91-1.27-.13-2.26-.79-2.86-1.17-2.99-1.91-2.7-2.63-6.15-5.52-3.14-2.63-2.29-1-3.52-2.85-.75-1.12,2.92-2.99,1.25-6.7l1.16-.53-7.08.2c.75.48.06,2.46.53,5.13.32,1.82,1.09,3.41,1.88,4.05Z"/><polygon class="cls-87" points="179.26 40.2 178.98 41.73 187.08 44.99 187.38 43.3 179.26 40.2"/><path class="cls-136" d="M179.26,40.2s-.83-4.43,1.23-6.83,6.67.12,7.53,2.87-.58,7.08-.58,7.08l-8.18-3.12Z"/><path class="cls-69" d="M185.04,90.83s10.56-.32,10.86,3.74-14.12,1.95-15.03.92c-1.5-1.69.8-5.23,4.16-4.66Z"/><path class="cls-127" d="M185.12,90.16s10.56-.32,10.86,3.74-14.12,1.95-15.03.92c-1.5-1.69.8-5.23,4.16-4.66Z"/><path class="cls-31" d="M188.91,90.26s.3,1.65-1.24,2.71"/><path class="cls-31" d="M190.45,90.74s.3,1.65-1.24,2.71"/><path class="cls-31" d="M192.1,91.12s.3,1.65-1.24,2.71"/><path class="cls-69" d="M158.89,86.81s8.71.86,8.97,5.82-11.65.69-12.4-.66c-1.24-2.23.65-6.24,3.43-5.15Z"/><path class="cls-127" d="M158.95,86s8.71.86,8.97,5.82-11.65.69-12.4-.66c-1.24-2.23.65-6.24,3.43-5.15Z"/><path class="cls-31" d="M162.08,86.58s.25,2.03-1.02,3.13"/><path class="cls-31" d="M163.35,87.34s.25,2.03-1.02,3.13"/><path class="cls-31" d="M164.72,87.99s.25,2.03-1.02,3.13"/><path class="cls-87" d="M177.32,31.36c-.79.93-.59,1.4-.59,1.4,6.5,0,11.02-.47,11.02-.47,0-.93-.59-1.24-.59-1.24-4.72-.62-9.84.31-9.84.31Z"/><path class="cls-68" d="M461.85,45.24c.27,2.49-.58,2.49-.18,5.05.56,3.55,2.58,4.89,3.01,6.26.27.86.31,2.1.93,2.97.28.39.2,1.03.4,1.27,1.12,1.36,1.63.78,2.92.26.55-.22.88-.8.73-1.26l-.13-.42c.64.22,1.01-.41.37-.63-.18-.06-1.81.06-2.41-.46-.9-.77-1.15-1.76-1.3-2.34-.78-2.93.06-3.27-.27-7.12-.3-3.5-.99-1.92-.42-3.87.35-1.18,4.88-.5,6.68-3.97l1.38.26-5.87-3.66c.19.74-2.04,1.74-3.93,3.84-1.29,1.43-2.01,2.95-1.92,3.82Z"/><polygon class="cls-87" points="467.4 37.69 466.04 38.81 471.18 44.46 472.69 43.23 467.4 37.69"/><path class="cls-84" d="M467.19,37.88s2.43-3.85,6.08-4.99c3.64-1.14,6.09,2.61,4.91,5.13s-5.66,5.43-5.66,5.43l-5.33-5.57Z"/><path class="cls-96" d="M471.99,60.19s1.99,7.32-7.99,12.45c0,2.94-1,3.92-1,3.92-.07,1.61-.47,3.31-1.61,5.41-1.5,2.75-5.21,6.92-7.56,8.4-4.1,2.59-3.22-1.16-3.22-1.16,2.54-7.41,6.39-14.62,6.39-14.62,0,0,0-.98,0,0,0,0,0,.2,0-.98,0,0,2.98-13.61,11.03-15.7,4.47-1.16,3.96,2.27,3.96,2.27Z"/><path class="cls-73" d="M480.31,60.58s5.26,6.09,2.89,15.51c1.24,2.33-1.54,4.16-1.54,4.16.2.81.82,1.98,1.02,3.93.25,2.54-.85,7.18-2.3,9.37-2.53,3.84-4.07,1-4.07,1-2.22-6.04-1.11-10.82-1.11-10.82,0,0,.26-1.29,1.76-3.4,0,0-.42-5-.28-5.86,0,0-4.53-8.24-.92-14,2.01-3.2,4.53.12,4.53.12Z"/><path class="cls-112" d="M480.95,55.05l-14.69.05s-1.67,1.11-2.65,2.18-3.01,2.67-4.35,4.47-1.26,3.04-1.26,3.04c0,0,.4.44,3.34,1.36s7.66,4.52,7.66,4.52c0,0,.15-1.44,3-3.92s3.49-6.33,4.84-7.68,4.11-4.02,4.11-4.02Z"/><path class="cls-112" d="M465.99,55.05h15.16s1.62,1.88,2.17,3.21c.68,1.62,0,2.7,1.68,5.55,1.14,1.93,2,4.9,2,4.9,0,0-2.29-.32-5,.98-2.84,1.36-8,2.94-8,2.94,0,0,0-1.96-1-5.88-.92-3.63-1.55-6.33-2.9-7.68s-4.11-4.02-4.11-4.02Z"/><path class="cls-77" d="M473.77,26.16s-.86,3.16-3.14,4.76c0,0,.57,3.87,4.56,3.87s4.56-3.65,4.56-3.65c0,0-2.28-1.6-2-3.94s-3.99-1.04-3.99-1.04Z"/><path class="cls-63" d="M463.59,15.87c0,3.35,2.48,8.32,6.38,10.97.99.67,2.31,1.58,3.46,1.89.74.2,1.72-.2,2.46-.2,1.62,0,3.17-.27,4.59-1.04,4.52-2.45,7.71-8.02,7.71-11.62,0-4.73-5.51-8.57-12.3-8.57-6.79,0-12.3,3.84-12.3,8.57Z"/><path class="cls-51" d="M464.08,18.44s1.23,6.35,8.12,9.7c0,0-2.46-1.81-4.92-4.9-1.85-2.33-3.2-4.8-3.2-4.8Z"/><path class="cls-72" d="M480.81,16.15c0,1.09,1.89,1.38,2.71,1.38s2.21-.09,2.21-1.18c0-1.09-1.65-1.38-2.46-1.38s-2.46.09-2.46,1.18Z"/><path class="cls-72" d="M472.45,16.34c0,1.09,1.89,1.38,2.71,1.38s2.21-.09,2.21-1.18-1.65-1.38-2.46-1.38-2.46.09-2.46,1.18Z"/><path class="cls-137" d="M462.84,18.98c.92,2.28.95,3.75,2.9,3.52,1.34-.16-.43-2.03.07-3.6.79-2.53-1.06-3.83-2.4-3.67s-1.56,1.28-.56,3.76Z"/><path class="cls-4" d="M464.94,17.23s-1.37-1.97-.93,1.38"/><path class="cls-43" d="M480.04,19.84c-.25.02-.53.05-.78.13-.19.06-.39.05-.57-.02-.22-.08-.54-.18-.88-.19-.25,0-.41-.2-.28-.31,0,0,.18-.21.34-.52.09-.17.13-.36.16-.49.02-.12.14-.21.28-.22l1-.08c.11,0,.21.04.26.11.1.13.14.34.32.57.13.17.38.36.49.52.14.21-.04.47-.34.49Z"/><path class="cls-1" d="M476.09,12.9l.17.83c.01.06-.04.1-.11.1-.8-.03-3.58-.51-6.43.21-1.66.42,3.23-1.2,6.23-1.24.07,0,.14.04.15.1Z"/><path class="cls-1" d="M480.38,12.9l-.17.83c-.01.06.04.1.11.1.8-.03,3.58-.51,6.43.21,1.66.42-3.23-1.2-6.23-1.24-.07,0-.14.04-.15.1Z"/><path class="cls-59" d="M488.19,15.36s-2.71,8.06-6.15,11.01c0,0,6.15-4.52,6.15-11.01Z"/><path class="cls-112" d="M483.76,15s.49.73.49,1.35c0,.55-.49,1.01-.49,1.18-.09,0-.17,0-.25,0-.2,0-.46-.02-.74-.06,0,0-.49-.73-.49-1.32,0-.59.49-1.17.49-1.17.18-.01.35-.01.49-.01s.31,0,.49.03Z"/><path class="cls-112" d="M475.4,15.19s.49.73.49,1.35c0,.55-.49,1.01-.49,1.18-.09,0-.17,0-.25,0-.2,0-.46-.02-.74-.06,0,0-.49-.73-.49-1.32,0-.59.49-1.17.49-1.17.18-.01.35-.01.49-.01s.31,0,.49.03Z"/><ellipse class="cls-140" cx="474.91" cy="16.54" rx=".25" ry=".2"/><ellipse class="cls-140" cx="483.27" cy="16.34" rx=".25" ry=".2"/><path class="cls-142" d="M477.98,3.66s6.27,1.08,8.98,6l3.44,3.34s-7.46-2.9-6.62-2.48,5.8,3.52,5.8,3.52l-6.44-2.32,2.22,2.03,1.22,1.12-2.58-1.28-1.85-1.08,1.22,2.77-8.26-5.77s-3.67-1.22,1.5,3.7-5.01-3.07-5.41-2.36c-.62,1.09-2.84,1.64-3.2,2.95-.16.61-1.34,1.35-1.48,1.97-.33,1.46.19,3.72,0,3.15l-1.72-.2s-1.23-2.36-1.23-3.93c0-1.13,3.69-9.04,3.69-9.04,0,0-.98-1.38-.74-1.38s3.32-.29,3.32-.29l-1.11-1.08,3.08.69,1.11-1.67,1.85,1.87S483.27-.37,483.03.03s-1.97,2.95-5.04,3.64Z"/><polygon class="cls-90" points="482.29 6.82 487.46 11.03 482.29 8.55 483.52 10.06 480.82 8.96 485.12 11.81 479.83 9.66 483.27 12.8 478.73 9.81 481.8 13.46 473.43 7.67 472.94 9.07 474.17 11.62 470.97 9.66 468.51 12.41 466.54 14.97 467.03 11.62 464.33 13.79 465.85 9.95 469.04 7.3 474.66 6.22 482.29 6.82"/><ellipse class="cls-27" cx="483.73" cy="16.49" rx="3.24" ry="3.1"/><ellipse class="cls-27" cx="474.95" cy="16.49" rx="3.24" ry="3.1"/><path class="cls-21" d="M480.47,16.54s-1.07-1.81-2.12,0"/><line class="cls-23" x1="471.71" y1="16.49" x2="464.57" y2="14.77"/><path class="cls-72" d="M481.32,23.44h-8.41s3.98,3.84,8.41,0Z"/><path class="cls-106" d="M481.32,23.4s-2.95,3.54-8.49,0c0,0,4.43,3.84,8.49,0Z"/><path class="cls-106" d="M481.33,23.4s-5.18-.3-8.43.04"/><path class="cls-78" d="M480.95,24.28s-2.59,1.48-5.91,1.18c0,0,5.06.34,5.91-1.18Z"/><path class="cls-6" d="M479.84,23.1s-.62-.23-.99-.29-.52.17-1.2.17-1.13-.11-1.36-.11-.8,0-1.08.08"/><polygon class="cls-112" points="472.88 23.44 472.94 23.45 472.85 23.59 472.88 23.44"/><path class="cls-67" d="M470.32,30.67c-4.43,13.53-3.87,13.99-4.62,24.88,0,0,2.83-.03,5.02.28,2.19.31,4.63.17,6.5.31,2.07.16,4.13-.63,4.13-.63,1.21-15.41-1.18-25.17-1.18-25.17,0,0-5.32-.63-9.84.31Z"/><path class="cls-124" d="M477.46,49.04c2.54,1.48,2.04,2.02,4.73,3.46,3.72,2,6.2,1.6,7.76,2.24.98.4,2.19,1.19,3.4,1.38.54.08,1.1.56,1.46.59,1.96.19,1.7-.52,1.96-1.69.11-.5-.24-1.09-.78-1.31l-.48-.19c.59-.26.2-.91-.38-.65-.17.07-1.01,1.19-1.86,1.23-1.27.06-2.37-.44-3.01-.73-3.26-1.44-3.1-2.21-6.98-4.56-3.53-2.13-2.42-.64-3.95-2.3-.92-1,2.4-3.44.14-6.89l1.06-.71-6.95,1.31c.82.37.46,2.45,1.36,5.05.61,1.77,1.63,3.24,2.53,3.76Z"/><polygon class="cls-87" points="472.5 40.21 472.48 41.78 481.01 43.77 481.03 42.04 472.5 40.21"/><path class="cls-95" d="M472.5,40.21s-1.55-4.3.09-7.02,6.6-.92,7.91,1.69.58,7.16.58,7.16l-8.58-1.84Z"/><path class="cls-69" d="M478.04,90.86s10.56-.33,10.86,3.78-14.12,1.97-15.03.93c-1.5-1.71.8-5.29,4.16-4.72Z"/><path class="cls-127" d="M478.12,90.17s10.56-.33,10.86,3.78-14.12,1.97-15.03.93c-1.5-1.71.8-5.29,4.16-4.72Z"/><path class="cls-28" d="M481.91,90.28s.3,1.67-1.24,2.74"/><path class="cls-28" d="M483.45,90.77s.3,1.67-1.24,2.74"/><path class="cls-28" d="M485.1,91.15s.3,1.67-1.24,2.74"/><path class="cls-69" d="M451.89,86.79s8.71.87,8.97,5.89-11.65.7-12.4-.67c-1.24-2.25.65-6.32,3.43-5.22Z"/><path class="cls-127" d="M451.95,85.97s8.71.87,8.97,5.89-11.65.7-12.4-.67c-1.24-2.25.65-6.32,3.43-5.22Z"/><path class="cls-28" d="M455.08,86.55s.25,2.06-1.02,3.17"/><path class="cls-28" d="M456.35,87.32s.25,2.06-1.02,3.17"/><path class="cls-28" d="M457.72,87.98s.25,2.06-1.02,3.17"/><path class="cls-87" d="M470.32,30.67c-.79.94-.59,1.42-.59,1.42,6.5,0,11.02-.47,11.02-.47,0-.94-.59-1.26-.59-1.26-4.72-.63-9.84.31-9.84.31Z"/><path class="cls-44" d="M330.22,64.95s7.88,1.98,11.5,11.01c2.39,1.2-1.09,4.17-1.09,4.17.29.78.59,2.06.57,4.01-.04,2.55-1.66,7.04-3.35,9.06-2.95,3.54-4.16.55-4.16.55-1.51-6.25.13-10.87.13-10.87,0,0,.41-1.25,2.14-3.19,0,0-.12-.59-.51-1.38,0,0-8.55-4.15-9-10.9-.25-3.75,3.77-2.47,3.77-2.47Z"/><path class="cls-69" d="M336.91,89.15s10.26,2.48,9.42,6.51-14.14-1.84-14.72-3.08c-.97-2.04,2.23-4.88,5.31-3.44Z"/><path class="cls-127" d="M337.17,88.51s10.26,2.48,9.42,6.51-14.14-1.84-14.72-3.08c-.97-2.04,2.23-4.88,5.31-3.44Z"/><path class="cls-34" d="M340.8,89.62s-.17,1.69-1.95,2.31"/><path class="cls-34" d="M342.14,90.49s-.17,1.69-1.95,2.31"/><path class="cls-34" d="M343.63,91.3s-.17,1.69-1.95,2.31"/><path class="cls-79" d="M320.99,63.1s-.37,6.59-10.35,11.72c-1.36,2.49-2.54,2.96-2.54,2.96-1.57.47-3.62.35-6.02-.01-3.14-.48-8.39-2.54-10.58-4.22-3.85-2.94.05-3.36.05-3.36,7.97-.1,13.37,2.01,13.37,2.01,0,0,1.47.54,3.55,2.24,0,0-4.96-.48-2.5-2.5,0,0,3.01-9,11.06-11.09,4.47-1.16,3.96,2.27,3.96,2.27Z"/><path class="cls-130" d="M336.21,45.86c2.41-.83,2.61-.01,5.05-.98,3.39-1.35,4.27-3.58,5.53-4.3.79-.46,2.01-.78,2.74-1.57.32-.35.98-.43,1.17-.67,1.1-1.38.4-1.73-.41-2.84-.35-.48-.99-.66-1.42-.41l-.38.22c.07-.66-.63-.87-.71-.21-.02.19.47,1.71.1,2.41-.56,1.04-1.49,1.5-2.03,1.78-2.72,1.42-3.26.69-7.01,1.88-3.41,1.08-1.68,1.39-3.74,1.28-1.25-.06-1.61-4.55-5.47-5.47l-.06-1.38-2.29,6.43c.69-.35,2.19,1.55,4.71,2.87,1.71.9,3.38,1.25,4.23.96Z"/><polygon class="cls-87" points="327.45 42.29 328.87 43.33 333.31 37.13 331.74 35.97 327.45 42.29"/><path class="cls-74" d="M327.68,42.44s-4.38-1.44-6.34-4.66c-1.96-3.22,1.2-6.41,3.97-5.86s6.68,4.16,6.68,4.16l-4.31,6.36Z"/><path class="cls-112" d="M331.95,55.03l-14.69.05s-1.67,1.11-2.65,2.18-3.01,2.67-4.35,4.47-1.26,3.04-1.26,3.04c0,0,.4.44,3.34,1.36s7.66,4.52,7.66,4.52c0,0,.15-1.44,3-3.92s3.49-6.33,4.84-7.68,4.11-4.02,4.11-4.02Z"/><path class="cls-112" d="M316.99,55.03h15.16s1.62,1.88,2.17,3.21c.68,1.62,0,2.7,1.68,5.54,1.14,1.93,2,4.9,2,4.9,0,0-2.29-.32-5,.98-2.84,1.36-8,2.94-8,2.94,0,0,0-1.96-1-5.88-.92-3.63-1.55-6.33-2.9-7.68s-4.11-4.02-4.11-4.02Z"/><path class="cls-77" d="M324.77,26.15s-.86,3.16-3.14,4.75c0,0,.57,3.87,4.56,3.87s4.56-3.65,4.56-3.65c0,0-2.28-1.59-2-3.94s-3.99-1.04-3.99-1.04Z"/><path class="cls-92" d="M314.59,15.86c0,3.34,2.48,8.32,6.38,10.96.99.67,2.31,1.58,3.46,1.89.74.2,1.72-.2,2.46-.2,1.62,0,3.17-.27,4.59-1.04,4.52-2.45,7.71-8.02,7.71-11.62,0-4.73-5.51-8.57-12.3-8.57-6.79,0-12.3,3.84-12.3,8.57Z"/><path class="cls-47" d="M315.08,18.43s1.23,6.35,8.12,9.69c0,0-2.46-1.81-4.92-4.89-1.85-2.32-3.2-4.8-3.2-4.8Z"/><path class="cls-72" d="M331.81,16.14c0,1.09,1.89,1.38,2.71,1.38s2.21-.09,2.21-1.18c0-1.09-1.65-1.38-2.46-1.38s-2.46.09-2.46,1.18Z"/><path class="cls-72" d="M323.45,16.34c0,1.09,1.89,1.38,2.71,1.38s2.21-.09,2.21-1.18-1.65-1.38-2.46-1.38-2.46.09-2.46,1.18Z"/><path class="cls-137" d="M313.84,18.98c.92,2.28.95,3.74,2.9,3.52,1.34-.16-.43-2.03.07-3.6.79-2.53-1.06-3.83-2.4-3.67s-1.56,1.28-.56,3.76Z"/><path class="cls-18" d="M315.94,17.22s-1.37-1.97-.93,1.38"/><path class="cls-101" d="M331.04,19.84c-.25.02-.53.05-.78.13-.19.06-.39.05-.57-.02-.22-.08-.54-.18-.88-.19-.25,0-.41-.2-.28-.31,0,0,.18-.21.34-.52.09-.17.13-.36.16-.49.02-.12.14-.21.28-.22l1-.08c.11,0,.21.04.26.11.1.13.14.34.32.57.13.17.38.36.49.52.14.21-.04.47-.34.49Z"/><path class="cls-8" d="M327.09,12.9l.17.83c.01.06-.04.1-.11.1-.8-.03-3.58-.51-6.43.21-1.66.42,3.23-1.2,6.23-1.24.07,0,.14.04.15.1Z"/><path class="cls-8" d="M331.38,12.9l-.17.83c-.01.06.04.1.11.1.8-.03,3.58-.51,6.43.21,1.66.42-3.23-1.2-6.23-1.24-.07,0-.14.04-.15.1Z"/><path class="cls-76" d="M339.19,15.35s-2.71,8.06-6.15,11c0,0,6.15-4.52,6.15-11Z"/><path class="cls-112" d="M334.76,14.99s.49.73.49,1.35c0,.55-.49,1.01-.49,1.18-.09,0-.17,0-.25,0-.2,0-.46-.02-.74-.06,0,0-.49-.73-.49-1.32,0-.59.49-1.17.49-1.17.18-.01.35-.01.49-.01s.31,0,.49.03Z"/><path class="cls-112" d="M326.4,15.19s.49.73.49,1.35c0,.55-.49,1.01-.49,1.18-.09,0-.17,0-.25,0-.2,0-.46-.02-.74-.06,0,0-.49-.73-.49-1.32,0-.59.49-1.17.49-1.17.18-.01.35-.01.49-.01s.31,0,.49.03Z"/><ellipse class="cls-140" cx="325.91" cy="16.53" rx=".25" ry=".2"/><ellipse class="cls-140" cx="334.27" cy="16.34" rx=".25" ry=".2"/><path class="cls-142" d="M328.98,3.66s6.27,1.08,8.98,5.99l3.44,3.34s-7.46-2.9-6.62-2.48,5.8,3.52,5.8,3.52l-6.44-2.32,2.22,2.03,1.22,1.12-2.58-1.28-1.85-1.08,1.22,2.77-8.26-5.77s-3.67-1.22,1.5,3.69-5.01-3.07-5.41-2.36c-.62,1.09-2.84,1.64-3.2,2.95-.16.61-1.34,1.35-1.48,1.97-.33,1.46.19,3.72,0,3.14l-1.72-.2s-1.23-2.36-1.23-3.93c0-1.13,3.69-9.04,3.69-9.04,0,0-.98-1.38-.74-1.38s3.32-.29,3.32-.29l-1.11-1.08,3.08.69,1.11-1.67,1.85,1.87S334.27-.37,334.03.03s-1.97,2.95-5.04,3.64Z"/><polygon class="cls-42" points="333.29 6.82 338.46 11.03 333.29 8.54 334.52 10.06 331.82 8.95 336.12 11.81 330.83 9.65 334.27 12.8 329.73 9.81 332.8 13.45 324.43 7.66 323.94 9.07 325.17 11.62 321.97 9.65 319.51 12.41 317.54 14.96 318.03 11.62 315.33 13.78 316.85 9.94 320.04 7.3 325.66 6.22 333.29 6.82"/><ellipse class="cls-32" cx="334.73" cy="16.48" rx="3.24" ry="3.1"/><ellipse class="cls-32" cx="325.95" cy="16.48" rx="3.24" ry="3.1"/><path class="cls-7" d="M331.47,16.53s-1.07-1.81-2.12,0"/><line class="cls-30" x1="322.71" y1="16.48" x2="315.57" y2="14.76"/><path class="cls-72" d="M332.32,23.43h-8.41s3.98,3.83,8.41,0Z"/><path class="cls-106" d="M332.32,23.39s-2.95,3.54-8.49,0c0,0,4.43,3.83,8.49,0Z"/><path class="cls-106" d="M332.33,23.39s-5.18-.29-8.43.04"/><path class="cls-78" d="M331.95,24.27s-2.59,1.47-5.91,1.18c0,0,5.06.34,5.91-1.18Z"/><path class="cls-29" d="M330.84,23.09s-.62-.23-.99-.29-.52.17-1.2.17-1.13-.11-1.36-.11-.8,0-1.08.08"/><polygon class="cls-112" points="323.88 23.43 323.94 23.44 323.85 23.58 323.88 23.43"/><path class="cls-70" d="M321.32,30.66c-4.43,13.53-3.87,13.98-4.62,24.87,0,0,2.83-.03,5.02.28,2.19.31,4.63.17,6.5.31,2.07.16,4.13-.63,4.13-.63,1.21-15.4-1.18-25.15-1.18-25.15,0,0-5.32-.63-9.84.31Z"/><path class="cls-99" d="M312.37,37.28c-1.82,2.29-2.3,1.73-4.1,4.16-2.49,3.37-2.4,5.83-3.24,7.27-.53.91-1.48,1.98-1.82,3.13-.15.51-.7,1-.78,1.34-.44,1.89.32,1.72,1.46,2.12.49.17,1.13-.1,1.42-.59l.25-.44c.19.6.9.31.71-.29-.05-.17-1.08-1.13-1.01-1.96.1-1.25.74-2.25,1.11-2.84,1.87-2.99,2.62-2.74,5.48-6.21,2.6-3.16.95-2.28,2.82-3.55,1.13-.77,3.18,2.76,6.95.99l.58,1.12-.45-6.93c-.47.75-2.54.14-5.28.69-1.87.37-3.48,1.18-4.12,1.99Z"/><polygon class="cls-87" points="321.91 33.56 320.33 33.35 317.24 41.39 319 41.63 321.91 33.56"/><path class="cls-65" d="M321.91,33.56s4.54-.97,7.09.97c2.55,1.94.1,6.54-2.7,7.48s-7.32-.33-7.32-.33l2.93-8.12Z"/><path class="cls-87" d="M321.32,30.66c-.79.94-.59,1.41-.59,1.41,6.5,0,11.02-.47,11.02-.47,0-.94-.59-1.26-.59-1.26-4.72-.63-9.84.31-9.84.31Z"/><path class="cls-71" d="M258.78,49.42c2.42.8,2.05,1.54,4.59,2.24,3.51.98,5.61-.21,7.06-.02.91.12,2.07.6,3.14.42.48-.08,1.04.25,1.35.18,1.73-.41,1.41-1.09,1.47-2.42.03-.57-.36-1.09-.86-1.16l-.44-.06c.47-.46.05-1.04-.42-.58-.13.13-.72,1.59-1.45,1.9-1.1.47-2.12.27-2.72.16-3.03-.53-3-1.4-6.69-2.71-3.36-1.19-2.19.07-3.75-1.23-.94-.79,1.61-4.44-.84-7.43l.82-1.09-5.86,3.57c.76.14.74,2.48,1.88,4.99.78,1.71,1.87,2.96,2.72,3.24Z"/><polygon class="cls-87" points="254.16 41.49 254.62 43.12 262.02 41 261.51 39.19 254.16 41.49"/><path class="cls-88" d="M254.25,41.74s-2.52-3.7-2.03-7.33c.49-3.63,4.99-4.2,6.82-2.13s2.62,7.15,2.62,7.15l-7.4,2.32Z"/><path class="cls-58" d="M255.27,57.56s6.42,4.11,2.37,14.18c1.98,2.16,1.89,3.51,1.89,3.51,1.04,1.22,1.87,2.72,2.43,4.98.73,2.96.74,8.37-.02,10.93-1.34,4.49-3.2,1.19-3.2,1.19-3.08-7.03-5.04-14.75-5.04-14.75,0,0-.66-.72,0,0,0,0,.13.15-.66-.72,0,0-6.92-11.86-2.28-18.48,2.58-3.67,4.5-.84,4.5-.84Z"/><path class="cls-112" d="M262.95,53.72l-14.69.05s.71,2.67-.26,3.71-1,3.83-2,5.74-1,2.87-1,2.87c0,0,.06.06,3,.96s8,4.79,8,4.79c0,0-4.85-4.28-2-6.7s3.49-6.18,4.84-7.49,4.11-3.92,4.11-3.92Z"/><path class="cls-77" d="M255.77,25.52s-.86,3.08-3.14,4.64c0,0,.57,3.78,4.56,3.78s4.56-3.56,4.56-3.56c0,0-2.28-1.56-2-3.85s-3.99-1.02-3.99-1.02Z"/><path class="cls-104" d="M245.59,15.49c0,3.26,2.48,8.12,6.38,10.7.99.65,2.31,1.54,3.46,1.84.74.19,1.72-.19,2.46-.19,1.62,0,3.17-.26,4.59-1.01,4.52-2.39,7.71-7.83,7.71-11.34,0-4.62-5.51-8.36-12.3-8.36-6.79,0-12.3,3.74-12.3,8.36Z"/><path class="cls-50" d="M246.08,18s1.23,6.2,8.12,9.46c0,0-2.46-1.77-4.92-4.78-1.85-2.27-3.2-4.68-3.2-4.68Z"/><path class="cls-72" d="M262.81,15.76c0,1.06,1.89,1.34,2.71,1.34s2.21-.09,2.21-1.15c0-1.06-1.65-1.34-2.46-1.34s-2.46.09-2.46,1.15Z"/><path class="cls-72" d="M254.45,15.95c0,1.06,1.89,1.34,2.71,1.34s2.21-.09,2.21-1.15-1.65-1.34-2.46-1.34-2.46.09-2.46,1.15Z"/><path class="cls-137" d="M244.84,18.53c.92,2.22.95,3.66,2.9,3.43,1.34-.15-.43-1.98.07-3.52.79-2.47-1.06-3.74-2.4-3.58s-1.56,1.25-.56,3.67Z"/><path class="cls-14" d="M246.94,16.81s-1.37-1.92-.93,1.34"/><path class="cls-116" d="M262.04,19.36c-.25.01-.53.05-.78.12-.19.05-.39.05-.57-.02-.22-.08-.54-.17-.88-.18-.25,0-.41-.2-.28-.3,0,0,.18-.2.34-.51.09-.16.13-.35.16-.48.02-.11.14-.2.28-.21l1-.08c.11,0,.21.04.26.11.1.13.14.33.32.56.13.17.38.35.49.51.14.21-.04.46-.34.48Z"/><path class="cls-13" d="M258.09,12.59l.17.81c.01.05-.04.1-.11.1-.8-.03-3.58-.5-6.43.21-1.66.41,3.23-1.17,6.23-1.21.07,0,.14.04.15.1Z"/><path class="cls-13" d="M262.38,12.59l-.17.81c-.01.05.04.1.11.1.8-.03,3.58-.5,6.43.21,1.66.41-3.23-1.17-6.23-1.21-.07,0-.14.04-.15.1Z"/><path class="cls-54" d="M270.19,14.99s-2.71,7.87-6.15,10.74c0,0,6.15-4.41,6.15-10.74Z"/><path class="cls-112" d="M265.76,14.63s.49.71.49,1.31c0,.54-.49.99-.49,1.15-.09,0-.17,0-.25,0-.2,0-.46-.02-.74-.06,0,0-.49-.71-.49-1.29,0-.58.49-1.14.49-1.14.18-.01.35-.01.49-.01s.31,0,.49.03Z"/><path class="cls-112" d="M257.4,14.83s.49.71.49,1.31c0,.54-.49.99-.49,1.15-.09,0-.17,0-.25,0-.2,0-.46-.02-.74-.06,0,0-.49-.71-.49-1.29,0-.58.49-1.14.49-1.14.18-.01.35-.01.49-.01s.31,0,.49.03Z"/><ellipse class="cls-140" cx="256.91" cy="16.14" rx=".25" ry=".19"/><ellipse class="cls-140" cx="265.27" cy="15.95" rx=".25" ry=".19"/><path class="cls-142" d="M259.98,3.57s6.27,1.06,8.98,5.85l3.44,3.26s-7.46-2.83-6.62-2.42,5.8,3.43,5.8,3.43l-6.44-2.26,2.22,1.98,1.22,1.09-2.58-1.25-1.85-1.06,1.22,2.7-8.26-5.64s-3.67-1.19,1.5,3.61-5.01-3-5.41-2.3c-.62,1.06-2.84,1.6-3.2,2.88-.16.59-1.34,1.32-1.48,1.92-.33,1.42.19,3.63,0,3.07l-1.72-.19s-1.23-2.3-1.23-3.84c0-1.1,3.69-8.82,3.69-8.82,0,0-.98-1.34-.74-1.34s3.32-.29,3.32-.29l-1.11-1.06,3.08.67,1.11-1.63,1.85,1.82S265.27-.36,265.03.03s-1.97,2.88-5.04,3.55Z"/><polygon class="cls-36" points="264.29 6.65 269.46 10.77 264.29 8.34 265.52 9.82 262.82 8.74 267.12 11.53 261.83 9.43 265.27 12.49 260.73 9.57 263.8 13.14 255.43 7.48 254.94 8.85 256.17 11.34 252.97 9.43 250.51 12.11 248.54 14.61 249.03 11.34 246.33 13.45 247.85 9.71 251.04 7.12 256.66 6.07 264.29 6.65"/><ellipse class="cls-20" cx="265.73" cy="16.09" rx="3.24" ry="3.02"/><ellipse class="cls-20" cx="256.95" cy="16.09" rx="3.24" ry="3.02"/><path class="cls-9" d="M262.47,16.14s-1.07-1.76-2.12,0"/><line class="cls-5" x1="253.71" y1="16.09" x2="246.57" y2="14.41"/><path class="cls-72" d="M263.32,22.87h-8.41s3.98,3.74,8.41,0Z"/><path class="cls-106" d="M263.32,22.83s-2.95,3.46-8.49,0c0,0,4.43,3.74,8.49,0Z"/><path class="cls-106" d="M263.33,22.83s-5.18-.29-8.43.04"/><path class="cls-78" d="M262.95,23.69s-2.59,1.44-5.91,1.15c0,0,5.06.33,5.91-1.15Z"/><path class="cls-35" d="M261.84,22.54s-.62-.22-.99-.28-.52.17-1.2.17-1.13-.11-1.36-.11-.8,0-1.08.08"/><polygon class="cls-112" points="254.88 22.87 254.94 22.88 254.85 23.02 254.88 22.87"/><path class="cls-126" d="M252.32,29.93c-4.43,13.2-3.87,13.65-4.62,24.28,0,0,2.83-.03,5.02.27,2.19.31,4.63.17,6.5.31,2.07.15,4.13-.61,4.13-.61,1.21-15.03-1.18-24.56-1.18-24.56,0,0-5.32-.61-9.84.31Z"/><path class="cls-69" d="M241.69,81.91s7.98,6.63,5.36,9.77-11.73-7.76-11.68-9.09c.08-2.2,4.25-3.27,6.32-.67Z"/><path class="cls-127" d="M242.22,81.47s7.98,6.63,5.36,9.77-11.73-7.76-11.68-9.09c.08-2.2,4.25-3.27,6.32-.67Z"/><path class="cls-25" d="M244.94,84.02s-.94,1.39-2.8,1.16"/><path class="cls-25" d="M245.73,85.36s-.94,1.39-2.8,1.16"/><path class="cls-25" d="M246.68,86.71s-.94,1.39-2.8,1.16"/><path class="cls-69" d="M258.7,90.67s8.41-2.34,10.57,2.1c2.15,4.43-10.53,4.82-11.75,3.85-2.01-1.59-1.82-5.95,1.18-5.95Z"/><path class="cls-127" d="M258.44,89.91s8.41-2.34,10.57,2.1-10.53,4.82-11.75,3.85c-2.01-1.59-1.82-5.95,1.18-5.95Z"/><path class="cls-25" d="M261.56,89.31s1.02,1.77.27,3.23"/><path class="cls-25" d="M263.04,89.55s1.02,1.77.27,3.23"/><path class="cls-25" d="M264.55,89.66s1.02,1.77.27,3.23"/><path class="cls-87" d="M252.32,29.93c-.79.92-.59,1.38-.59,1.38,6.5,0,11.02-.46,11.02-.46,0-.92-.59-1.23-.59-1.23-4.72-.61-9.84.31-9.84.31Z"/><path class="cls-107" d="M261.26,60.44s1.95,7.56-4.44,14.79c.05,2.57-4.21,1.55-4.21,1.55-.49.66-.99,1.87-2.35,3.25-1.79,1.81-6.08,3.98-8.72,4.34-4.62.63-3.44-2.3-3.44-2.3,3.2-5.47,7.6-7.72,7.6-7.72,0,0,1.16-.63,3.78-.9,0,0,1.73-1.71,2.25-2.4,0,0-.33-9.13,5.52-12.63,3.25-1.95,4,2.03,4,2.03Z"/><path class="cls-112" d="M247.99,53.72h15.16s.56,1.43.85,2.8c1,4.79-1,.96,1,5.74.84,2.02,0,6.7,0,6.7,0,0-3-.96-6,0s-10,.96-10,.96c0,0,2-2.87,2-4.79,0-3.65,2.45-6.18,1.1-7.49s-4.11-3.92-4.11-3.92Z"/><path class="cls-139" d="M246.42,43.68c-.16,2.83-.88,2.65-.93,5.58-.07,4.06,1.43,5.98,1.59,7.6.1,1.02-.06,2.4.34,3.5.18.49.01,1.19.14,1.5.74,1.75,1.26,1.2,2.43.9.5-.13.87-.7.82-1.25l-.05-.49c.51.38.92-.24.41-.62-.14-.11-1.54-.32-1.98-1.02-.65-1.05-.7-2.2-.75-2.88-.21-3.42.55-3.63.87-7.98.29-3.96-.54-2.34.24-4.39.48-1.24,4.22.47,6.28-3.01l1.13.58-4.41-5.3c.05.86-2,1.5-3.92,3.44-1.31,1.32-2.16,2.85-2.22,3.84Z"/><polygon class="cls-87" points="252.08 35.47 250.66 36.16 252.82 44.3 254.4 43.53 252.08 35.47"/><path class="cls-75" d="M252.08,35.47s3.16-3.26,6.38-3.1c3.22.16,3.9,5.18,2.15,7.47s-6.19,3.74-6.19,3.74l-2.33-8.11Z"/><path class="cls-57" d="M527.12,39.86c-.36,2.42-1.19,2.22-1.43,4.74-.34,3.49,1.28,5.23,1.36,6.63.05.88-.22,2.06.16,3.03.17.43-.06,1.02.07,1.3.74,1.55,1.39,1.12,2.76.92.59-.08,1.05-.55,1.03-1.02l-.02-.43c.56.36,1.08-.15.51-.51-.16-.1-1.77-.37-2.22-1-.68-.94-.67-1.94-.68-2.52-.03-2.95.87-3.08,1.52-6.8.59-3.38-.48-2.05.56-3.76.63-1.03,4.86.67,7.47-2.19l1.27.57-4.77-4.84c0,.74-2.41,1.16-4.77,2.71-1.6,1.05-2.69,2.32-2.82,3.16Z"/><polygon class="cls-87" points="534.39 34.02 532.8 34.75 536.37 41.31 538.14 40.49 534.39 34.02"/><path class="cls-132" d="M534.15,34.15s3.32-3.07,7.14-3.29c3.82-.22,5.26,3.9,3.48,6s-6.84,3.81-6.84,3.81l-3.77-6.52Z"/><path class="cls-40" d="M540.27,57.56s6.42,4.11,2.37,14.18c1.98,2.16,1.89,3.51,1.89,3.51,1.04,1.22,1.87,2.72,2.43,4.98.73,2.96.74,8.37-.02,10.93-1.34,4.49-3.2,1.19-3.2,1.19-3.08-7.03-5.04-14.75-5.04-14.75,0,0-.66-.72,0,0,0,0,.13.15-.66-.72,0,0-6.92-11.86-2.28-18.48,2.58-3.67,4.5-.84,4.5-.84Z"/><path class="cls-112" d="M547.95,53.72l-14.69.05s.71,2.67-.26,3.71-1,3.83-2,5.74-1,2.87-1,2.87c0,0,.06.06,3,.96s8,4.79,8,4.79c0,0-4.85-4.28-2-6.7s3.49-6.18,4.84-7.49,4.11-3.92,4.11-3.92Z"/><path class="cls-77" d="M540.77,25.52s-.86,3.08-3.14,4.64c0,0,.57,3.78,4.56,3.78s4.56-3.56,4.56-3.56c0,0-2.28-1.56-2-3.85s-3.99-1.02-3.99-1.02Z"/><path class="cls-103" d="M530.59,15.49c0,3.26,2.48,8.12,6.38,10.7.99.65,2.31,1.54,3.46,1.84.74.19,1.72-.19,2.46-.19,1.62,0,3.17-.26,4.59-1.01,4.52-2.39,7.71-7.83,7.71-11.34,0-4.62-5.51-8.36-12.3-8.36-6.79,0-12.3,3.74-12.3,8.36Z"/><path class="cls-53" d="M531.08,18s1.23,6.2,8.12,9.46c0,0-2.46-1.77-4.92-4.78-1.85-2.27-3.2-4.68-3.2-4.68Z"/><path class="cls-72" d="M547.81,15.76c0,1.06,1.89,1.34,2.71,1.34s2.21-.09,2.21-1.15c0-1.06-1.65-1.34-2.46-1.34s-2.46.09-2.46,1.15Z"/><path class="cls-72" d="M539.45,15.95c0,1.06,1.89,1.34,2.71,1.34s2.21-.09,2.21-1.15-1.65-1.34-2.46-1.34-2.46.09-2.46,1.15Z"/><path class="cls-137" d="M529.84,18.53c.92,2.22.95,3.66,2.9,3.43,1.34-.15-.43-1.98.07-3.52.79-2.47-1.06-3.74-2.4-3.58s-1.56,1.25-.56,3.67Z"/><path class="cls-14" d="M531.94,16.81s-1.37-1.92-.93,1.34"/><path class="cls-66" d="M547.04,19.36c-.25.01-.53.05-.78.12-.19.05-.39.05-.57-.02-.22-.08-.54-.17-.88-.18-.25,0-.41-.2-.28-.3,0,0,.18-.2.34-.51.09-.16.13-.35.16-.48.02-.11.14-.2.28-.21l1-.08c.11,0,.21.04.26.11.1.13.14.33.32.56.13.17.38.35.49.51.14.21-.04.46-.34.48Z"/><path class="cls-13" d="M543.09,12.59l.17.81c.01.05-.04.1-.11.1-.8-.03-3.58-.5-6.43.21-1.66.41,3.23-1.17,6.23-1.21.07,0,.14.04.15.1Z"/><path class="cls-13" d="M547.38,12.59l-.17.81c-.01.05.04.1.11.1.8-.03,3.58-.5,6.43.21,1.66.41-3.23-1.17-6.23-1.21-.07,0-.14.04-.15.1Z"/><path class="cls-41" d="M555.19,14.99s-2.71,7.87-6.15,10.74c0,0,6.15-4.41,6.15-10.74Z"/><path class="cls-112" d="M550.76,14.63s.49.71.49,1.31c0,.54-.49.99-.49,1.15-.09,0-.17,0-.25,0-.2,0-.46-.02-.74-.06,0,0-.49-.71-.49-1.29,0-.58.49-1.14.49-1.14.18-.01.35-.01.49-.01s.31,0,.49.03Z"/><path class="cls-112" d="M542.4,14.83s.49.71.49,1.31c0,.54-.49.99-.49,1.15-.09,0-.17,0-.25,0-.2,0-.46-.02-.74-.06,0,0-.49-.71-.49-1.29,0-.58.49-1.14.49-1.14.18-.01.35-.01.49-.01s.31,0,.49.03Z"/><ellipse class="cls-140" cx="541.91" cy="16.14" rx=".25" ry=".19"/><ellipse class="cls-140" cx="550.27" cy="15.95" rx=".25" ry=".19"/><path class="cls-142" d="M544.98,3.57s6.27,1.06,8.98,5.85l3.44,3.26s-7.46-2.83-6.62-2.42,5.8,3.43,5.8,3.43l-6.44-2.26,2.22,1.98,1.22,1.09-2.58-1.25-1.85-1.06,1.22,2.7-8.26-5.64s-3.67-1.19,1.5,3.61-5.01-3-5.41-2.3c-.62,1.06-2.84,1.6-3.2,2.88-.16.59-1.34,1.32-1.48,1.92-.33,1.42.19,3.63,0,3.07l-1.72-.19s-1.23-2.3-1.23-3.84c0-1.1,3.69-8.82,3.69-8.82,0,0-.98-1.34-.74-1.34s3.32-.29,3.32-.29l-1.11-1.06,3.08.67,1.11-1.63,1.85,1.82s8.49-4.12,8.24-3.74-1.97,2.88-5.04,3.55Z"/><polygon class="cls-45" points="549.29 6.65 554.46 10.77 549.29 8.34 550.52 9.82 547.82 8.74 552.12 11.53 546.83 9.43 550.27 12.49 545.73 9.57 548.8 13.14 540.43 7.48 539.94 8.85 541.17 11.34 537.97 9.43 535.51 12.11 533.54 14.61 534.03 11.34 531.33 13.45 532.85 9.71 536.04 7.12 541.66 6.07 549.29 6.65"/><ellipse class="cls-20" cx="550.73" cy="16.09" rx="3.24" ry="3.02"/><ellipse class="cls-20" cx="541.95" cy="16.09" rx="3.24" ry="3.02"/><path class="cls-9" d="M547.47,16.14s-1.07-1.76-2.12,0"/><line class="cls-5" x1="538.71" y1="16.09" x2="531.57" y2="14.41"/><path class="cls-72" d="M548.32,22.87h-8.41s3.98,3.74,8.41,0Z"/><path class="cls-106" d="M548.32,22.83s-2.95,3.46-8.49,0c0,0,4.43,3.74,8.49,0Z"/><path class="cls-106" d="M548.33,22.83s-5.18-.29-8.43.04"/><path class="cls-78" d="M547.95,23.69s-2.59,1.44-5.91,1.15c0,0,5.06.33,5.91-1.15Z"/><path class="cls-35" d="M546.84,22.54s-.62-.22-.99-.28-.52.17-1.2.17-1.13-.11-1.36-.11-.8,0-1.08.08"/><polygon class="cls-112" points="539.88 22.87 539.94 22.88 539.85 23.02 539.88 22.87"/><path class="cls-121" d="M537.32,29.93c-4.43,13.2-3.87,13.65-4.62,24.28,0,0,2.83-.03,5.02.27,2.19.31,4.63.17,6.5.31,2.07.15,4.13-.61,4.13-.61,1.21-15.03-1.18-24.56-1.18-24.56,0,0-5.32-.61-9.84.31Z"/><path class="cls-69" d="M526.69,81.91s7.98,6.63,5.36,9.77-11.73-7.76-11.68-9.09c.08-2.2,4.25-3.27,6.32-.67Z"/><path class="cls-127" d="M527.22,81.47s7.98,6.63,5.36,9.77-11.73-7.76-11.68-9.09c.08-2.2,4.25-3.27,6.32-.67Z"/><path class="cls-25" d="M529.94,84.02s-.94,1.39-2.8,1.16"/><path class="cls-25" d="M530.73,85.36s-.94,1.39-2.8,1.16"/><path class="cls-25" d="M531.68,86.71s-.94,1.39-2.8,1.16"/><path class="cls-69" d="M543.7,90.67s8.41-2.34,10.57,2.1c2.15,4.43-10.53,4.82-11.75,3.85-2.01-1.59-1.82-5.95,1.18-5.95Z"/><path class="cls-127" d="M543.44,89.91s8.41-2.34,10.57,2.1-10.53,4.82-11.75,3.85c-2.01-1.59-1.82-5.95,1.18-5.95Z"/><path class="cls-25" d="M546.56,89.31s1.02,1.77.27,3.23"/><path class="cls-25" d="M548.04,89.55s1.02,1.77.27,3.23"/><path class="cls-25" d="M549.55,89.66s1.02,1.77.27,3.23"/><path class="cls-87" d="M537.32,29.93c-.79.92-.59,1.38-.59,1.38,6.5,0,11.02-.46,11.02-.46,0-.92-.59-1.23-.59-1.23-4.72-.61-9.84.31-9.84.31Z"/><path class="cls-89" d="M546.26,60.44s1.95,7.56-4.44,14.79c.05,2.57-4.21,1.55-4.21,1.55-.49.66-.99,1.87-2.35,3.25-1.79,1.81-6.08,3.98-8.72,4.34-4.62.63-3.44-2.3-3.44-2.3,3.2-5.47,7.6-7.72,7.6-7.72,0,0,1.16-.63,3.78-.9,0,0,1.73-1.71,2.25-2.4,0,0-.33-9.13,5.52-12.63,3.25-1.95,4,2.03,4,2.03Z"/><path class="cls-112" d="M532.99,53.72h15.16s.56,1.43.85,2.8c1,4.79-1,.96,1,5.74.84,2.02,0,6.7,0,6.7,0,0-3-.96-6,0s-10,.96-10,.96c0,0,2-2.87,2-4.79,0-3.65,2.45-6.18,1.1-7.49s-4.11-3.92-4.11-3.92Z"/><path class="cls-82" d="M550.34,47c2.96-.05,2.82.65,5.88.49,4.24-.22,6.14-1.79,7.8-2.05,1.05-.16,2.5-.11,3.63-.57.5-.2,1.24-.09,1.55-.24,1.77-.83,1.17-1.29.76-2.39-.17-.47-.79-.78-1.36-.69l-.51.08c.36-.51-.32-.86-.68-.35-.1.14-.22,1.5-.92,1.96-1.05.69-2.25.83-2.95.91-3.55.45-3.82-.27-8.38-.27-4.14,0-2.41.69-4.59.08-1.32-.37.19-4.06-3.58-5.78l.52-1.12-5.21,4.59c.89-.11,1.71,1.8,3.87,3.5,1.47,1.16,3.13,1.86,4.16,1.85Z"/><polygon class="cls-87" points="541.39 42.17 542.21 43.48 550.54 40.85 549.62 39.39 541.39 42.17"/><path class="cls-117" d="M541.39,42.17s-3.62-2.79-3.69-5.87c-.06-3.08,5.12-4.09,7.63-2.58s4.34,5.65,4.34,5.65l-8.28,2.8Z"/></svg>