<?xml version="1.0" encoding="UTF-8"?><svg id="Layer_1" xmlns="http://www.w3.org/2000/svg" xmlns:xlink="http://www.w3.org/1999/xlink" viewBox="0 0 120.64 332.33"><defs><style>.cls-1{stroke-width:1.13px;}.cls-1,.cls-2,.cls-3,.cls-4,.cls-5,.cls-6,.cls-7,.cls-8,.cls-9,.cls-10{stroke-miterlimit:10;}.cls-1,.cls-2,.cls-3,.cls-4,.cls-5,.cls-6,.cls-7,.cls-8,.cls-10{fill:none;}.cls-1,.cls-2,.cls-3,.cls-6,.cls-8{stroke-linecap:round;}.cls-1,.cls-2,.cls-6{stroke:blue;}.cls-2{stroke-width:1.34px;}.cls-11{fill:url(#linear-gradient-2);}.cls-12{fill:#4d4d4d;}.cls-13{fill:#fff;}.cls-14{fill:#e8d8c6;}.cls-15{fill:#c69c6d;}.cls-16{fill:url(#linear-gradient-4);}.cls-17{fill:red;}.cls-3{opacity:.13;stroke:#8c6239;stroke-width:.67px;}.cls-18{fill:url(#linear-gradient-3);}.cls-19{fill:url(#linear-gradient-5);}.cls-20{fill:#ec7c23;}.cls-4{stroke:#a67c52;stroke-width:.44px;}.cls-21{fill:url(#linear-gradient-8);}.cls-5{stroke-width:.23px;}.cls-5,.cls-7,.cls-10{stroke:#4d4d4d;}.cls-22{fill:#603813;}.cls-23{opacity:.29;}.cls-23,.cls-24{fill:#1a1a1a;}.cls-6{stroke-width:.88px;}.cls-25{fill:url(#linear-gradient-7);}.cls-26{fill:url(#linear-gradient-9);}.cls-7{stroke-width:.41px;}.cls-8{stroke-width:.73px;}.cls-8,.cls-9{stroke:#c7b299;}.cls-27{fill:url(#Sky);}.cls-28{fill:url(#linear-gradient-6);opacity:.63;}.cls-29{fill:#998675;opacity:.16;}.cls-30{fill:#ed1c24;}.cls-9{fill:#8c6239;stroke-width:.15px;}.cls-31{fill:url(#linear-gradient);}.cls-10{stroke-width:.4px;}.cls-32{fill:#e2d0bc;}.cls-33{opacity:.08;}.cls-34{fill:#e6e6e6;}.cls-35{fill:#754c24;}</style><linearGradient id="linear-gradient" x1="15.96" y1="245.69" x2="50.07" y2="245.69" gradientTransform="translate(120.64) rotate(-180) scale(1 -1)" gradientUnits="userSpaceOnUse"><stop offset="0" stop-color="#e8d8c6"/><stop offset="1" stop-color="#c69c6d"/></linearGradient><linearGradient id="linear-gradient-2" x1="-1059.23" y1="245.69" x2="-1025.12" y2="245.69" gradientTransform="translate(1076.35)" xlink:href="#linear-gradient"/><linearGradient id="linear-gradient-3" x1="8.78" y1="154.25" x2="28.93" y2="154.25" gradientTransform="translate(120.64) rotate(-180) scale(1 -1)" gradientUnits="userSpaceOnUse"><stop offset="0" stop-color="#e8d8c6"/><stop offset="1" stop-color="#c69c6d"/></linearGradient><linearGradient id="linear-gradient-4" x1="-1108.13" y1="159.25" x2="-1088.92" y2="159.25" gradientTransform="translate(1117.07)" xlink:href="#linear-gradient-3"/><linearGradient id="Sky" x1="10.15" y1="150.38" x2="109.1" y2="150.38" gradientTransform="translate(120.64) rotate(-180) scale(1 -1)" gradientUnits="userSpaceOnUse"><stop offset="0" stop-color="#cce0f4"/><stop offset=".06" stop-color="#c2dcf2"/><stop offset=".17" stop-color="#a9d2ee"/><stop offset=".31" stop-color="#7fc2e7"/><stop offset=".46" stop-color="#46abdd"/><stop offset=".57" stop-color="#1e9cd7"/><stop offset=".87" stop-color="#0075be"/><stop offset=".99" stop-color="#005b97"/></linearGradient><linearGradient id="linear-gradient-5" x1="-26.06" y1="60.37" x2="54.43" y2="60.37" gradientTransform="translate(44.8)" gradientUnits="userSpaceOnUse"><stop offset="0" stop-color="#e8d8c6"/><stop offset="1" stop-color="#f1ece4"/></linearGradient><linearGradient id="linear-gradient-6" x1="26.26" y1="77.94" x2="52.82" y2="77.94" gradientTransform="translate(44.8)" gradientUnits="userSpaceOnUse"><stop offset="0" stop-color="#c69c6d" stop-opacity=".6"/><stop offset="1" stop-color="#c0ad88" stop-opacity=".5"/></linearGradient><linearGradient id="linear-gradient-7" x1="-18.84" y1="89.7" x2="-18.84" y2="83.4" gradientTransform="translate(61.79 -23.82) rotate(-3.88)" gradientUnits="userSpaceOnUse"><stop offset="0" stop-color="#c7b299"/><stop offset="1" stop-color="#ece1d3"/></linearGradient><linearGradient id="linear-gradient-8" x1="-19.29" y1="72.89" x2="-12.11" y2="66.19" gradientTransform="translate(44.8)" gradientUnits="userSpaceOnUse"><stop offset="0" stop-color="#ed1c24" stop-opacity=".1"/><stop offset="1" stop-color="red" stop-opacity="0"/></linearGradient><linearGradient id="linear-gradient-9" x1="15.41" y1="53.17" x2="12.01" y2="20.84" gradientTransform="translate(44.8)" gradientUnits="userSpaceOnUse"><stop offset="0" stop-color="#9c7d55"/><stop offset="1" stop-color="#754c24"/></linearGradient></defs><path class="cls-12" d="M104.89,300.77s14.88,12.33,15.72,20.36-13.72,15.63-26.73,8.13c0,0-11.26-6.87-6.5-27.51.88-2.04,2.47-3.39,4.33-3.13,8.14,1.14,10.83-1.88,10.83-1.88,1.61.5.51,2.58,2.34,4.02Z"/><path class="cls-31" d="M87.91,195.26s15.86,14.95,8.74,43.46c3.73,6.13,1.01,13.08,1.01,13.08,1.54,2.11,3.59,5.72,5.38,11.51,2.34,7.59,2.18,21.96-.49,29.06-4.69,12.44-10.83,4.38-10.83,4.38-10.11-17.51-10.03-32.29-10.03-32.29,0,0-.08-3.98,2.81-10.85,0,0-4.33-4.38-4.48-13.03,0,0-16.63-24.79-5.75-43.35,6.04-10.3,13.65-1.97,13.65-1.97Z"/><path class="cls-29" d="M83.77,246.72c0,1.02,1.32,1.62,2.28,2.25.83.55,1.57.25,2.78.25s2.63.3,3.46-.23c.98-.63,2.32-1.24,2.32-2.27,0-.98-1.28-2.17-2.17-2.79-.84-.59-2.35-.33-3.61-.33s-2.09-.25-2.94.37-2.12,1.8-2.12,2.76Z"/><path class="cls-11" d="M33.9,195.26s-15.86,14.95-8.74,43.46c-3.73,6.13-1.01,13.08-1.01,13.08-1.54,2.11-3.59,5.72-5.38,11.51-2.34,7.59-2.18,21.96.49,29.06,4.69,12.44,10.83,4.38,10.83,4.38,10.11-17.51,10.03-32.29,10.03-32.29,0,0,.08-3.98-2.81-10.85,0,0,4.33-4.38,4.48-13.03,0,0,16.63-24.79,5.75-43.35-6.04-10.3-13.65-1.97-13.65-1.97Z"/><path class="cls-29" d="M38.03,246.72c0,1.02-1.32,1.62-2.28,2.25-.83.55-1.57.25-2.78.25s-2.63.3-3.46-.23c-.98-.63-2.32-1.24-2.32-2.27,0-.98,1.28-2.17,2.17-2.79.84-.59,2.35-.33,3.61-.33,1.29,0,2.09-.25,2.94.37s2.12,1.8,2.12,2.76Z"/><path class="cls-24" d="M91.35,179.82s6.14,18.13,6.14,26.26c0,8.13,6.5,20.01,6.5,20.01,0,0-2.17,0-8.67,1.25-6.5,1.25-10.83,1.88-17.34,1.88h-10.83s-.72-6.25-3.61-11.88-4.33-10-4.33-10c0,0-2.89,8.13-4.33,12.51s-1.44,10-1.44,10c0,0-10.11-1.25-14.45-1.88-4.33-.63-21.67-1.25-21.67-1.25l1.44-5.63s2.89-7.5,4.33-14.38c0-6.88,5.81-26.89,5.81-26.89,0,0,31.02,21.26,62.44,0Z"/><path class="cls-30" d="M104.17,297.64s14.88,12.33,15.72,20.36c.84,8.03-13,14.38-26,6.88,0,0-10.53-3.11-5.78-23.76,1.44-4.38,2.89-5.63,2.89-5.63,8.14,1.14,10.83-1.88,10.83-1.88q.72,1.88,2.34,4.02Z"/><path class="cls-2" d="M113.39,318s-10.11-5.63-17.34,1.88"/><path class="cls-1" d="M111.22,312.75s-8.85-4.51-15.17,1.5"/><path class="cls-6" d="M107.61,307.42s-6.74-3.61-11.56,1.2"/><path class="cls-12" d="M.71,316.13c-4.53,8.68,13.72,18.13,26.73,10.63,0,0,10.57-4.99,5.81-25.64-.88-2.04-2.47-3.39-4.33-3.13-8.14,1.14-9.42-.63-9.42-.63,2.13,1.88-8.67-.63-18.78,18.76Z"/><path class="cls-30" d="M17.9,297.01s-14.88,12.33-15.72,20.36c-.84,8.03,13,14.38,26,6.88,0,0,10.53-3.11,5.78-23.76-1.44-4.38-2.89-5.63-2.89-5.63-8.14,1.14-11.59-1.88-11.59-1.88-.72,1.88.03,1.88-1.58,4.02Z"/><path class="cls-2" d="M8.69,317.38s10.11-5.63,17.34,1.88"/><path class="cls-1" d="M10.85,312.12s8.85-4.51,15.17,1.5"/><path class="cls-18" d="M108.33,143.55c1.27,6.54,2.17,6.94,3.15,13.78,1.36,9.48-1.37,13.65-1.37,17.52,0,2.44.85,5.59,0,8.42-.38,1.26.3,2.79,0,3.61-1.69,4.56-3.4,3.61-6.95,3.61-1.39,0-2.78-1.2-2.78-2.41v-1.2c-1.39,1.2-2.78,0-1.39-1.2.39-.34,4.48-1.7,5.56-3.61,1.62-2.86,1.46-5.6,1.39-7.22-.34-8.15-2.46-9.52-3.46-19.52-.93-9.27.65-6.49-1.38-11.15-.92-2.12-3.62-3.85-6.62-13.85l-2.77-10.54,13-1.88c.09,2.05,1.56,8.13,2.77,14.41.68,3.57.4,8.93.85,11.22Z"/><path class="cls-16" d="M11.54,148.56c-1.27,6.54-1.07,6.93-2.06,13.78-1.36,9.48.27,13.65.27,17.53,0,2.44-.85,5.59,0,8.42.38,1.26-.3,2.79,0,3.61,1.69,4.56,3.4,3.61,6.95,3.61,1.39,0,2.78-1.2,2.78-2.41v-1.2c1.39,1.2,2.78,0,1.39-1.2-.39-.34-4.48-1.7-5.56-3.61-1.62-2.86-1.46-5.6-1.39-7.22.34-8.15,1.39-7.52,3.56-17.53,1.97-9.1-.75-8.49,1.28-13.15.92-2.12,4.05-5.94,7.72-13.85l1.67-10.54-13-1.88c-.09,2.05-1.46,9.13-2.67,15.41-.68,3.57-.5,7.93-.94,10.22Z"/><path class="cls-27" d="M11.54,133.55c.56-6.01.02-10.26,1.61-15.13,1.94-5.96,8.5-9.88,18.61-13,7.87-2.43,12.28-2.5,17.34-2.5,0,0,2,6.56,10.47,7.16,8.47-.59,6.86-7.16,6.86-7.16,3.07-.53,6.71-.16,11.56.63,11.26,1.83,25.39,6.87,28,14.88,1.57,4.8,3.98,7.42,4.5,13.26l-18.78,2.5c-.72-3.13.04-7.44-.72-8.75s-.11-2.5-2.89-2.5c-2.92,0-.72,18.6-.72,35.01,0,0-.72.63-.72.63,0,5.25,4.78,15.72,5.06,20.01.32,5.02,2.17,6.25,2.89,9.38,1.36,5.88,2.99,6.07-13,5-9.39-.63-8.93,1.88-15.89,1.88-9.36,1.08-17.3,2.69-23.84,3.13-9.39.63-15.17-.63-15.89-7.5-.22-2.14,1.9-7.24,2.17-12.51.24-4.78,1.61-9.12,2.17-15.01.59-6.17-1.23-13-.72-18.76.92-10.58,2.93-19.97,1.44-21.26,0,0-1.06-1.46-2.17,3.13-.48,1.24,0,4.38,0,10l-17.34-2.5Z"/><path class="cls-14" d="M63.51,89.87s2.52,8.67,9.25,13.05c0,0-1.68,10.63-13.45,10.63-11.77,0-13.45-10-13.45-10,0,0,6.73-4.38,5.89-10.81-.87-6.69,11.77-2.86,11.77-2.86Z"/><path class="cls-17" d="M71.49,102.91s.72-.63,5.78.63c0,0-15.89,33.14-33.23-.63,0,0,2.17-.63,5.06,0,0,0,8.67,23.76,22.39,0Z"/><polygon class="cls-17" points="110.15 129 110.5 131.67 91.72 134.18 91.21 131.59 110.15 129"/><polygon class="cls-17" points="28.88 133.55 28.91 136.46 11.54 133.55 11.54 130.42 28.88 133.55"/><polygon class="cls-20" points="74.05 171.64 77.99 171.69 83.05 172.32 75.25 159.49 66.7 138.24 61.72 147.5 67.88 156.06 74.05 171.64"/><polygon class="cls-20" points="56.18 137.75 57.77 141.05 61.02 146.63 63.55 141.99 65.86 137.75 62.82 132.92 61.02 129.02 58.22 134.06 56.18 137.75"/><polygon class="cls-20" points="47.98 171.55 42.6 171.07 38.27 169.82 49.82 152.31 55.47 138.47 57.71 142.6 60.32 147.41 54.88 155.43 47.98 171.55"/><path class="cls-23" d="M74.38,190.45s-33.23-19.38-39-26.89c-5.78-7.5,7.95,17.51,39,26.89Z"/><path class="cls-23" d="M75.83,176.69s-26.21-9.86-30.76-13.68c-4.56-3.82,6.27,8.91,30.76,13.68Z"/><path class="cls-23" d="M71.86,165.87s-15.35-6.31-17.85-8.2c-2.5-1.89,3.14,3.97,17.85,8.2Z"/><path class="cls-6" d="M15.87,306.17s6.74-3.61,11.56,1.2"/><path class="cls-33" d="M53.04,96.82c1.82-.09,3.84-.78,5.45-.78,2.09,0,5.18-.23,7.18-.62.35.71.75,1.44,1.19,2.17-2.4.71-3.32,1.58-6.93,2.2-1.58.27-5.06,0-6.5,0-.46,0-.85-.45-1.16-1.06.3-.59.56-1.23.77-1.91Z"/><path class="cls-3" d="M94.98,241.23s-7.6-2.01-11.93,1.11"/><path class="cls-3" d="M27.43,241.86s7.6-2.01,11.93,1.11"/><path class="cls-19" d="M99.23,53.11c0,11.19-8.1,27.86-20.86,36.71-3.23,2.24-7.56,5.29-11.33,6.32-2.41.66-5.63-.66-8.05-.66-5.31,0-10.38-.89-15.02-3.47-14.79-8.21-25.22-26.84-25.22-38.9,0-15.84,18.02-28.68,40.24-28.68,22.23,0,40.24,12.84,40.24,28.68Z"/><path class="cls-28" d="M97.62,61.72s-4.02,21.26-26.56,32.45c0,0,8.05-6.06,16.1-16.38,6.06-7.78,10.46-16.06,10.46-16.06Z"/><path class="cls-13" d="M42.89,54.03c0,3.63-6.19,4.61-8.85,4.61s-7.24-.31-7.24-3.95c0-3.63,5.38-4.61,8.05-4.61s8.05.31,8.05,3.95Z"/><path class="cls-13" d="M70.25,54.69c0,3.63-6.19,4.61-8.85,4.61-2.67,0-7.24-.31-7.24-3.95s5.38-4.61,8.05-4.61,8.05.31,8.05,3.95Z"/><path class="cls-32" d="M101.68,63.53c-3,7.62-3.11,12.54-9.48,11.77-4.4-.53,1.4-6.79-.21-12.06-2.59-8.46,3.46-12.82,7.86-12.29,4.4.53,5.1,4.28,1.83,12.58Z"/><path class="cls-8" d="M94.8,57.65s4.48-6.58,3.05,4.61"/><path class="cls-25" d="M45.4,66.4c.8.05,1.75.17,2.57.42.61.19,1.28.17,1.87-.05.72-.28,1.77-.6,2.89-.62.8-.02,1.34-.68.91-1.04,0,0-.58-.69-1.11-1.74-.28-.57-.44-1.19-.52-1.65-.07-.39-.45-.69-.93-.73l-3.27-.28c-.35,0-.67.13-.86.38-.33.43-.47,1.13-1.05,1.92-.41.57-1.26,1.21-1.6,1.74-.47.72.12,1.58,1.11,1.65Z"/><path class="cls-9" d="M58.35,43.18l-.56,2.77c-.04.18.14.35.37.34,2.61-.1,11.72-1.72,21.05.71,5.42,1.41-10.56-4-20.37-4.16-.24,0-.45.14-.49.34Z"/><path class="cls-9" d="M44.31,43.18l.56,2.77c.04.18-.14.35-.37.34-2.61-.1-11.72-1.72-21.05.71-5.42,1.41,10.56-4,20.37-4.16.24,0,.45.14.49.34Z"/><path class="cls-21" d="M18.74,51.4s8.85,26.97,20.12,36.84c0,0-20.12-15.13-20.12-36.84Z"/><path class="cls-24" d="M33.23,50.19c0,.1-1.61,2.45-1.61,4.5s1.61,3.4,1.61,3.93c.28,0,.55.01.8.01.64,0,1.5-.06,2.41-.2,0,0,1.61-2.44,1.61-4.41,0-1.97-1.61-3.9-1.61-3.9-.59-.04-1.14-.05-1.61-.05s-1.02.03-1.61.1Z"/><path class="cls-24" d="M60.59,50.84c0,.1-1.61,2.45-1.61,4.5,0,1.85,1.61,3.4,1.61,3.93.28,0,.55.01.8.01.64,0,1.5-.06,2.41-.2,0,0,1.61-2.44,1.61-4.41,0-1.97-1.61-3.9-1.61-3.9-.59-.04-1.14-.05-1.61-.05s-1.02.03-1.61.1Z"/><ellipse class="cls-34" cx="62.2" cy="55.35" rx=".8" ry=".66"/><ellipse class="cls-34" cx="34.84" cy="54.69" rx=".8" ry=".66"/><path class="cls-35" d="M52.14,12.26s-20.52,3.62-29.38,20.06l-11.27,11.18s24.41-9.7,21.66-8.3c-2.75,1.39-18.99,11.78-18.99,11.78l21.07-7.75-7.26,6.79-4,3.74,8.45-4.28,6.04-3.62-4.01,9.26,27.01-19.33s12.01-4.08-4.9,12.37c-16.9,16.45,16.38-10.29,17.71-7.89,2.02,3.64,9.31,5.49,10.46,9.87.54,2.03,4.38,4.53,4.83,6.58,1.08,4.88-.62,12.45,0,10.53l5.63-.66s4.02-7.89,4.02-13.16c0-3.78-12.07-30.26-12.07-30.26,0,0,3.22-4.61,2.41-4.61s-10.87-.99-10.87-.99l3.62-3.62-10.06,2.3-3.62-5.59-6.04,6.25S34.84-1.23,35.64.09c.8,1.32,6.44,9.87,16.5,12.17Z"/><polygon class="cls-26" points="38.06 22.82 21.15 36.93 38.06 28.61 34.03 33.68 42.85 29.98 28.8 39.52 46.11 32.32 34.84 42.85 49.7 32.83 39.66 45.04 67.03 25.66 68.64 30.35 64.62 38.9 75.08 32.32 83.13 41.53 89.57 50.08 87.96 38.9 96.81 46.14 91.82 33.29 81.39 24.43 63.01 20.81 38.06 22.82"/><ellipse class="cls-10" cx="33.36" cy="55.18" rx="10.59" ry="10.36"/><ellipse class="cls-10" cx="62.07" cy="55.18" rx="10.59" ry="10.36"/><path class="cls-5" d="M44.01,55.35s3.51-6.05,6.92,0"/><line class="cls-7" x1="72.67" y1="55.18" x2="96.01" y2="49.43"/><path class="cls-13" d="M41.22,78.42h27.51s-13.01,12.84-27.51,0Z"/><path class="cls-22" d="M41.22,78.29s9.66,11.85,27.79,0c0,0-14.5,12.84-27.79,0Z"/><path class="cls-22" d="M41.2,78.29s16.95-.99,27.56.15"/><path class="cls-15" d="M42.43,81.25s8.46,4.94,19.33,3.95c0,0-16.56,1.14-19.33-3.95Z"/><path class="cls-4" d="M46.06,77.31s2.01-.77,3.23-.96,1.71.57,3.93.57c2.22,0,3.7-.38,4.45-.38s2.6-.03,3.52.27"/><polygon class="cls-24" points="68.83 78.42 68.65 78.47 68.92 78.95 68.83 78.42"/></svg>