<?xml version="1.0" encoding="UTF-8"?><svg id="Layer_1" xmlns="http://www.w3.org/2000/svg" xmlns:xlink="http://www.w3.org/1999/xlink" viewBox="0 0 216.37 75.11"><defs><style>.cls-1{fill:url(#linear-gradient);}.cls-1,.cls-2{stroke-width:0px;}.cls-2{fill:url(#radial-gradient);}.cls-3{fill:none;stroke:#603813;stroke-miterlimit:10;}</style><linearGradient id="linear-gradient" x1="112.68" y1="75.11" x2="112.68" y2="0" gradientUnits="userSpaceOnUse"><stop offset="0" stop-color="#a67c52"/><stop offset="1" stop-color="#754c24"/></linearGradient><radialGradient id="radial-gradient" cx="35.59" cy="37.69" fx="35.59" fy="37.69" r="25.27" gradientTransform="translate(-5.42 -10.77) scale(.41 1.29)" gradientUnits="userSpaceOnUse"><stop offset="0" stop-color="#a67c52"/><stop offset="1" stop-color="#c69c6d"/></radialGradient></defs><path class="cls-1" d="M208,1.69C145,5.69,83-2.31,20,.69c-4,1-7,1-11,1v72c66-3,132,3,198,1,13-14,9-35,8-52,0-7-2-15-7-21h0Z"/><path class="cls-2" d="M18,37.69c-2,12,0,26-9,36-4-3-7-8-7-13-2-6-2-13-2-19,1-9,1-18,2-27C3,9.69,6,5.69,9,1.69c8,10,9,23,9,36h0Z"/><path class="cls-3" d="M86,41.69c-2,8-5,21-16,17-13-4-12-23-4-33,4-4,10-4,14,0,5,4,5,10,6,16h0Z"/><path class="cls-3" d="M82,40.69c0,3,0,7-2,10s-6,6-10,4c-8-5-8-16-4-24,1-3,5-3,7-4,2,0,5,1,7,4,1,3,2,6,2,10h0Z"/><path class="cls-3" d="M79,40.69c-1,3,0,7-4,9-3,1-6-1-8-5-1-5,0-12,6-12,3,0,6,3,6,8h0Z"/><path class="cls-3" d="M76,41.69c0,1-1,2-1,3-1,1-2,2-4,0-2-3-1-7,2-8,1,0,3,3,3,5h0Z"/><path class="cls-3" d="M21,36.69c12,1,24-5,35,0,0,7,2,14,5,20,1,1,2,3,3,5,3,4,7,7,12,6,3-1,6-3,8-6,3-5,4-11,8-14,4-2,9-3,14-4h4c24-5,46-7,70-9,12-1,24-2,36,0"/><path class="cls-3" d="M19,45.69c11-3,26-9,35,1,6,8,7,20,17,23"/><path class="cls-3" d="M21,22.69c13,2,30,7,40-3,4-3,6-7,10-8,10-2,16,7,19,15,42,6,83-3,125-6"/><path class="cls-3" d="M19,59.69c6-4,12-6,19-5,8,1,13,7,17,14"/><path class="cls-3" d="M18,69.69c7-6,16-9,25-6,1,1,1,2,3,3,1,1,1,2,1,3"/><path class="cls-3" d="M17,7.69c2,0,2,2,4,2h3c14,5,29,3,43-2,10-3,18,6,26,10,40,4,80,0,120-5"/><path class="cls-3" d="M216,51.69c-31,0-62-1-93,2-5,1-11,1-16,3-8,4-19,5-23,14"/><path class="cls-3" d="M214,60.69c-21-3-43-1-64-1-10,1-19,1-29,4-6,2-12,3-17,8"/><path class="cls-3" d="M15,38.69c0,8,1,18-5,25h-3C0,54.69,2,43.69,2,33.69c1-7,1-15,6-21h2c5,8,7,17,5,26h0Z"/><path class="cls-3" d="M13,38.69c-1,6,0,14-4,19-5-4-5-10-4-15,0-8-2-18,4-24,5,5,4,13,4,20h0Z"/><path class="cls-3" d="M11,39.69c-2,3,1,6-2,9-3-5-3-13,0-18,3,3,0,6,2,9h0Z"/></svg>