<?xml version="1.0" encoding="UTF-8"?><svg id="Layer_1" xmlns="http://www.w3.org/2000/svg" xmlns:xlink="http://www.w3.org/1999/xlink" viewBox="0 0 576.52 80.83"><defs><style>.cls-1{fill:url(#linear-gradient);}.cls-1,.cls-2{stroke-width:0px;}.cls-2{fill:url(#radial-gradient);}.cls-3{fill:none;stroke:#603813;stroke-miterlimit:10;}</style><linearGradient id="linear-gradient" x1="299.64" y1="80.83" x2="299.64" y2="0" gradientUnits="userSpaceOnUse"><stop offset="0" stop-color="#a67c52"/><stop offset="1" stop-color="#754c24"/></linearGradient><radialGradient id="radial-gradient" cx="43.62" cy="40.07" fx="43.62" fy="40.07" r="25.44" gradientTransform="translate(-23.26 -11.55) scale(1.08 1.29)" gradientUnits="userSpaceOnUse"><stop offset="0" stop-color="#a67c52"/><stop offset="1" stop-color="#c69c6d"/></radialGradient></defs><path class="cls-1" d="M552.77,5.41c-21,2-43,0-64,3-18-3-35,2-53,0-1,0-3-1-4-1-9,2-17,1-25,1-33-2-66-2-99-4-1,0-3,1-4,1-13-3-26-2-39-3-3,0-5,1-8,1-21-2-41-2-61-2h-11c-2-1-5-2-7-1-4,1-7,1-11,1-16-3-31,1-46,0-1,0-3-1-4-1-7,1-15,3-22,2-2-1-5-1-7-1-22,2-43,2-65,3,1,14,0,29,0,43,1,4,0,7,0,11,0,1,1,2,1,3-1,5-1,10-1,15,20,0,41-3,61-2h10c16-2,31-1,46-1h18c5-1,9-1,14-1,4,1,7,1,11,1,2,0,5-1,7-1,1,0,3,1,4,1,2-1,5-1,7-1,16,2,31,0,46,2,20,2,41,1,61,3,2,0,5-1,7-1,29,4,57,2,86,4,2,0,5-1,7-1,9,2,17-2,26,0,2,1,5,2,7,1,6-2,12-1,18-1,2,1,5,1,7,1,24-2,48-2,72-2,7,0,15,0,22-4,17-8,19-29,15-47-3-11-9-22-22-22h0Z"/><path class="cls-2" d="M47.77,41.41c-2,4-1,9-3,13-3,10-10,23-22,22-4,0-9-3-12-5-6-6-8-13-10-21-2-12,0-22,5-33C10.77,8.41,20.77-.59,30.77,5.41c12,8,15,23,17,36h0Z"/><path class="cls-3" d="M227.77,44.41c0,11-13,16-22,18-16,2-39,2-44-16-4-12,11-18,21-20,12-2,23-1,34,4,5,3,11,7,11,14h0Z"/><path class="cls-3" d="M219.77,43.41c-4,16-25,16-38,12-5-1-12-4-12-10-2-14,18-17,29-16,9,1,19,4,21,14h0Z"/><path class="cls-3" d="M210.77,43.41c-1,6-7,8-12,9-8,1-20,0-20-9-1-4,4-6,7-8,9-3,20-1,25,8h0Z"/><path class="cls-3" d="M202.77,44.41c-1,2-2,4-4,4-4,0-11,2-12-4,0-2,2-3,4-4,4-2,10-1,12,4h0Z"/><path class="cls-3" d="M54.77,39.41c24-1,49-2,73-4,6,0,13,1,19,1,3,5,5,10,9,15,7,8,17,12,27,14,4,1,9,2,13,3,16,1,32-7,43-18,20-4,41-5,61-5,82-2,165-6,247-9,10,0,19,1,29,1"/><path class="cls-3" d="M50.77,48.41c30-4,61-9,90,0,10,6,18,15,29,20,6,3,12,2,18,4"/><path class="cls-3" d="M54.77,25.41c33,1,65,3,99-2,6,0,12-3,18-7,12-7,25-6,38-3,10,3,23,4,28,14,23,4,45,2,68,4,14,1,29,0,43,0,30,2,60,0,90-1,45-1,89-5,134-7"/><path class="cls-3" d="M49.77,62.41c4,0,8-2,12-3,29-5,60-3,85,13"/><path class="cls-3" d="M46.77,72.41c19-6,39-8,58-6,7,0,14-1,19,6"/><path class="cls-3" d="M43.77,10.41c18,2,36,3,54,4,31,1,61-5,92-6,21-1,40,9,61,10,106,8,211,6,316-3"/><path class="cls-3" d="M574.77,53.41c-36,3-72,3-108,2-41,0-82-1-123-1-20,1-40,1-61,4-21,4-42,4-60,15"/><path class="cls-3" d="M571.77,62.41c-71,3-141-1-212,0-18,1-36,3-54,5-10,2-20,4-29,7"/><path class="cls-3" d="M40.77,41.41c0,7-2,13-6,19-5,6-14,9-20,4C.77,52.41.77,28.41,15.77,17.41c5-3,10-3,15,0,8,6,10,15,10,24h0Z"/><path class="cls-3" d="M34.77,41.41c-2,7-3,15-10,19-3,1-6-1-8-3-8-11-8-30,6-36,9,2,11,12,12,20h0Z"/><path class="cls-3" d="M27.77,42.41c1,4-1,9-5,9s-4-6-5-9c0-3,0-8,5-8,4-1,6,4,5,8h0Z"/></svg>