<?xml version="1.0" encoding="UTF-8"?><svg id="Layer_1" xmlns="http://www.w3.org/2000/svg" viewBox="0 0 913.76 263.65"><defs><style>.cls-1{fill:#d87500;stroke:#1a6d20;stroke-miterlimit:10;stroke-width:5px;}</style></defs><path class="cls-1" d="M33.3,70.47c0,16.17,7.85,29.72,24.95,29.72,9.86,0,18.17-6.31,21.87-16.17l28.8,2.46c-5.7,24.49-25.72,37.73-49.59,37.73-31.42,0-56.83-22.33-56.83-56.06C2.5,38.9,24.83,9.95,57.79,9.95c27.41,0,50.51,16.79,53.75,46.97l-28.8-2.62c-2.16-11.4-11.24-20.17-23.41-20.17-18.79,0-26.03,19.56-26.03,36.35Z"/><path class="cls-1" d="M164.66,120.83l2-43.28c.15-3.7-.62-5.54-1.54-7.08-1.69-2.16-4.16-3.39-7.24-3.54-3.39-.15-6.62,1.39-8.32,3.7-1.08,1.39-1.54,3.39-1.69,6.78l-2,42.66-26.64-1.23,5.08-110.27,26.64,1.08-2,43.89.15.15c5.39-4.16,13.55-6.62,21.41-6.31,6.31.31,12.47,2.46,16.94,6.78,4,4.16,6.31,9.86,5.85,19.56l-2.16,48.36-26.49-1.23Z"/><path class="cls-1" d="M244.9,46.29c23.72,0,40.81,15.09,40.81,37.73s-17.09,37.73-40.81,37.73-40.81-15.09-40.81-37.73,17.09-37.73,40.81-37.73ZM257.83,84.02c0-10.93-4.62-18.33-12.94-18.33s-12.94,7.39-12.94,18.33,4.62,18.33,12.94,18.33,12.94-7.39,12.94-18.33Z"/><path class="cls-1" d="M330.36,41.67c23.56-2.46,42.04,10.63,44.51,33.27,2.46,22.49-12.94,39.27-36.65,41.74-23.56,2.62-42.04-10.63-44.51-33.11-2.46-22.64,12.94-39.43,36.65-41.89ZM347.15,77.86c-1.23-10.93-6.47-17.71-14.79-16.94-8.32.92-12.17,8.78-10.93,19.71,1.08,10.78,6.47,17.71,14.78,16.79,8.32-.92,12.17-8.78,10.93-19.56Z"/><path class="cls-1" d="M416.91,119.91c-13.4,0-28.49-5.54-38.04-15.86l12.78-13.55c4.93,5.24,14.48,12.17,21.56,12.17,3.7,0,5.85-1.85,5.85-4.31,0-1.69-1.23-3.23-3.23-4.31-2.16-1.23-4.47-2.16-6.01-2.93l-4.31-2c-3.85-1.69-6.78-3.39-9.09-4.93-6.78-4.47-10.32-9.24-10.32-16.32,0-14.48,12.32-23.56,28.49-23.56,14.79,0,28.18,7.08,34.34,14.78l-12.32,12.78c-4.62-5.08-12.78-10.93-19.41-10.93-3.39,0-5.7,1.54-5.7,4,0,2.31,2.77,4,5.39,5.39,2.62,1.39,5.54,2.62,8.93,4.31l4,2c4.62,2.31,10.63,6.01,13.55,11.24,1.54,2.62,2.46,5.39,2.46,9.09,0,14.01-13.4,22.95-28.95,22.95Z"/><path class="cls-1" d="M512.7,92.65l18.63,6.31c-5.08,13.71-18.79,21.41-33.11,22.64-20.95,1.69-39.89-10.47-41.89-34.65-1.69-21.25,12.78-38.66,35.73-40.5,24.8-2.16,39.73,14.48,41.74,37.58l.15,3.23-50.51,4.16c1.23,7.08,7.24,12.63,14.79,12.01,4.93-.46,10.47-2.93,14.48-10.78ZM493.45,64.47c-5.54.46-10.32,4.93-10.93,12.94l23.56-1.85c-2.16-8.93-7.24-11.55-12.63-11.09Z"/><path class="cls-1" d="M694.11,2.71l-37.58,68.53,2,43.89-28.8,1.39-2-43.74-42.97-64.68,33.42-1.69,23.87,38.19,19.71-40.35,32.34-1.54Z"/><path class="cls-1" d="M719.05,46.29c23.72,0,40.81,15.09,40.81,37.73s-17.09,37.73-40.81,37.73-40.81-15.09-40.81-37.73,17.09-37.73,40.81-37.73ZM731.99,84.02c0-10.93-4.62-18.33-12.94-18.33s-12.94,7.39-12.94,18.33,4.62,18.33,12.94,18.33,12.94-7.39,12.94-18.33Z"/><path class="cls-1" d="M768.95,41.37l26.64-1.69,2.62,42.04c.31,5.85,3.39,10.32,9.09,10.32,6.31,0,9.55-3.7,9.55-9.39v-2l-2.62-42.2,26.64-1.69,2.16,36.19c.31,3.85.46,6.31.46,7.24,0,18.63-13.55,32.34-37.42,32.34-19.25,0-32.5-8.47-34.5-30.34l-2.62-40.81Z"/><path class="cls-1" d="M906.78,69.09c-2.46-.77-5.7-1.69-9.86-1.69-5.39,0-8.93,2.16-10.78,5.24-1.39,2.46-2,5.24-2,8.78,0,.62,0,1.23.15,5.7l.92,30.49-26.64.77-2.31-71.61,24.79-.92.92,8.47h.15c5.39-6.93,12.01-10.93,19.71-10.93,2.93,0,5.85.62,9.09,1.69l-4.16,24.02Z"/><path class="cls-1" d="M160.27,233.81l-39.58-2.77-10.01,24.02-29.26-1.85,47.9-107.65,35.58,2.31,33.27,113.04-31.11-2.16-6.78-24.95ZM129.01,210.86l25.72,1.85-9.86-39.12-15.86,37.27Z"/><path class="cls-1" d="M235.57,180.06c7.08.46,14.01,3.54,19.41,9.09l.31-.15,3.54-44.05,26.49,2.16-8.78,110.12-24.79-2v-6.31l-.31-.15c-6.31,5.08-13.86,7.08-21.25,6.47-17.09-1.39-31.42-15.09-29.42-40.2,2-25.1,18.33-36.35,34.81-34.96ZM253.44,219.33c.92-10.93-3.08-18.63-11.4-19.4-8.32-.62-13.55,6.31-14.32,17.25-.92,10.93,3.08,18.63,11.4,19.4,8.32.62,13.4-6.31,14.32-17.25Z"/><path class="cls-1" d="M366.48,181.29l-25.26,73.31-22.64,1.39-33.42-70.07,28.49-1.54,16.17,36.5h.31l11.71-38.19,24.64-1.39Z"/><path class="cls-1" d="M424.38,231.65l18.63,6.31c-5.08,13.71-18.79,21.41-33.11,22.64-20.95,1.69-39.89-10.47-41.89-34.65-1.69-21.25,12.78-38.66,35.73-40.5,24.8-2.16,39.73,14.48,41.74,37.58l.15,3.23-50.51,4.16c1.23,7.08,7.24,12.63,14.79,12.01,4.93-.46,10.47-2.93,14.48-10.78ZM405.13,203.47c-5.54.46-10.32,4.93-10.93,12.94l23.56-1.85c-2.16-8.93-7.24-11.55-12.63-11.09Z"/><path class="cls-1" d="M503.38,212.55c.46-3.7-.15-5.39-.92-7.08-1.39-2.31-3.85-3.7-6.93-4.16-3.39-.46-6.62.92-8.62,3.08-1.08,1.23-1.85,3.23-2.31,6.62l-5.39,42.2-26.33-3.39,9.09-71.15,24.49,3.23-.15,6.62h.15c5.7-4.77,14.63-6.62,23.25-5.54,6.16.77,12.17,3.39,16.17,7.85,3.7,4.47,5.7,10.47,4.47,20.02l-6.16,48.2-26.33-3.39,5.54-43.12Z"/><path class="cls-1" d="M589.62,208.09l-14.01-1.39-4.93,51.28-26.64-2.46,4.77-51.28-10.16-.92,2-20.17,10.01.92,2.31-23.1,26.64,2.46-2.16,23.1,14.01,1.39-1.85,20.17Z"/><path class="cls-1" d="M603.94,180.67l26.64,1.85-2.77,36.96c-.31,3.39-.46,6.62-.46,8.01,0,5.08,4.31,8.78,9.39,8.78,5.85,0,8.93-4.62,9.24-9.09l3.08-43.28,26.64,2-3.08,40.66c-.92,11.86-6.31,20.17-14.01,24.95-5.7,3.54-12.78,5.39-19.87,5.39-10.78,0-21.71-2.62-29.11-9.24-5.85-5.39-8.93-12.78-8.93-22.79,0-1.08,0-2.16.15-3.39l3.08-40.81Z"/><path class="cls-1" d="M738.38,210.4c-3.85-1.69-7.7-2.62-10.47-2.93-2.31-.15-4.31.15-6.31.92-1.54.62-3.23,1.69-4.31,3.23-2,2.46-2.77,5.7-3.08,10.32l-2.62,34.19-26.64-2.16,5.7-71.61,24.64,2-.15,8.47h.15c7.08-7.24,14.63-9.09,20.48-8.62,3.7.15,6.93,1.54,9.39,2.62l-6.78,23.56Z"/><path class="cls-1" d="M788.89,234.73c4.47,0,9.55-1.85,14.17-8.01l17.25,9.7c-6.78,11.24-19.25,16.48-31.88,16.48-20.48,0-39.89-13.71-39.89-37.42,0-21.25,15.25-38.35,38.04-38.35s39.12,15.09,39.12,39.12c0,2-.15,4-.62,9.24l-50.36-5.39c.15,8.16,5.54,14.63,14.17,14.63ZM788.28,195.61c-5.08,0-10.01,3.39-11.86,10.63l23.56,2.46c-.62-9.09-5.08-13.09-11.7-13.09Z"/></svg>