<?xml version="1.0" encoding="UTF-8"?><svg id="Layer_1" xmlns="http://www.w3.org/2000/svg" viewBox="0 0 399.16 159.16"><defs><style>.cls-1{fill:#006837;}</style></defs><path class="cls-1" d="M63.5,12.96v5.18h2.59v15.55h-2.59v5.18h-2.59v2.59h-2.59v2.59h-5.18v2.59h-18.14v12.96h-2.59v2.59h-12.96v-2.59h-2.59v-2.59h-2.59v-2.59h-2.59v-2.59h10.37v-2.59h2.59v-12.96h18.14v-2.59h5.18v-2.59h2.59v-2.59h2.59v-5.18h2.59V7.78h-2.59v-2.59h2.59v2.59h2.59v2.59h2.59v2.59h2.59ZM37.58,12.96v5.18h-2.59v2.59h-10.37v-10.37h10.37v2.59h2.59Z"/><path class="cls-1" d="M76.46,7.78V0h2.59v2.59h2.59v2.59h2.59v2.59h2.59v10.37h-2.59v2.59h-2.59v2.59h2.59v2.59h2.59v33.69h-2.59v2.59h-12.96v-2.59h-2.59v-2.59h-2.59v-2.59h-2.59v-2.59h10.37v-2.59h2.59V15.55h-2.59v-2.59h-10.37v-2.59h10.37v-2.59h2.59Z"/><path class="cls-1" d="M115.34,49.24v-5.18h2.59v2.59h2.59v2.59h2.59v2.59h2.59v7.78h-2.59v2.59h-20.73v-2.59h-5.18v-2.59h-2.59v-2.59h-2.59v-2.59h-2.59v-2.59h2.59v2.59h20.73v-2.59h2.59ZM115.34,20.73v-7.78h2.59v2.59h2.59v2.59h2.59v2.59h2.59v10.37h-2.59v2.59h-5.18v-2.59h-5.18v2.59h-2.59v5.18h-7.78v-2.59h-2.59v-12.96h2.59v-2.59h5.18v2.59h5.18v-2.59h2.59Z"/><path class="cls-1" d="M149.03,54.43v5.18h-2.59v2.59h-12.96v-2.59h-2.59v-2.59h-2.59v-2.59h-2.59v-2.59h10.37v-2.59h2.59v-12.96h2.59v7.78h2.59v5.18h2.59v2.59h15.55v-2.59h2.59v-5.18h-2.59v-5.18h-2.59v-5.18h-2.59v-2.59h-2.59v-2.59h2.59v-2.59h2.59v-5.18h2.59v-5.18h2.59v-2.59h2.59v2.59h2.59v2.59h2.59v2.59h2.59v5.18h-2.59v5.18h-2.59v5.18h-2.59v2.59h-2.59v2.59h2.59v2.59h2.59v5.18h2.59v5.18h2.59v5.18h-2.59v2.59h-15.55v-2.59h-2.59v-2.59h-2.59v-2.59h-2.59ZM146.44,5.18v5.18h-2.59v5.18h-2.59v7.78h-2.59V0h2.59v2.59h2.59v2.59h2.59Z"/><path class="cls-1" d="M203.47,5.18V0h2.59v2.59h2.59v2.59h2.59v2.59h2.59v5.18h-2.59v5.18h-2.59v-5.18h-2.59v-7.78h-2.59ZM237.16,7.78V0h2.59v2.59h2.59v2.59h2.59v2.59h2.59v10.37h-2.59v5.18h-2.59v5.18h-2.59v5.18h-2.59v5.18h-2.59v2.59h-2.59v2.59h-2.59v15.55h-2.59v2.59h-12.96v-2.59h-2.59v-2.59h-2.59v-2.59h-2.59v-2.59h10.37v-2.59h2.59v-15.55h2.59v-2.59h2.59v-2.59h2.59v-5.18h2.59v-5.18h2.59v-5.18h2.59v-5.18h2.59Z"/><path class="cls-1" d="M291.59,23.33v5.18h2.59v23.33h-2.59v5.18h-2.59v2.59h-5.18v2.59h-25.92v-2.59h-5.18v-2.59h-2.59v-2.59h-2.59v-2.59h-2.59v-2.59h2.59v2.59h25.92v-2.59h5.18v-2.59h2.59v-5.18h2.59v-23.33h-2.59v-2.59h2.59v2.59h2.59v2.59h2.59v2.59h2.59ZM265.67,23.33v12.96h-2.59v2.59h-5.18v-2.59h-2.59v-12.96h2.59v-2.59h5.18v2.59h2.59Z"/><path class="cls-1" d="M335.66,49.24V12.96h2.59v2.59h2.59v2.59h2.59v2.59h2.59v38.88h-2.59v2.59h-12.96v-2.59h-2.59v2.59h-20.73v-2.59h-2.59v-2.59h-2.59v-2.59h-2.59v-2.59h18.14v-2.59h2.59v2.59h12.96v-2.59h2.59ZM307.15,36.29V12.96h2.59v2.59h2.59v2.59h2.59v2.59h2.59v15.55h-5.18v2.59h-2.59v-2.59h-2.59Z"/><path class="cls-1" d="M371.94,23.33v-10.37h2.59v2.59h2.59v2.59h2.59v2.59h2.59v12.96h-2.59v2.59h-7.78v-2.59h-2.59v25.92h-2.59v2.59h-12.96v-2.59h-2.59v-2.59h-2.59v-2.59h-2.59v-2.59h10.37v-2.59h2.59v-25.92h2.59v2.59h7.78v-2.59h2.59Z"/><path class="cls-1" d="M33.69,130.65v-7.78h2.59v2.59h2.59v2.59h2.59v2.59h2.59v10.37h-2.59v2.59h-2.59v2.59H12.96v-2.59h-5.18v-2.59h-2.59v-2.59h-2.59v-2.59H0v-2.59h2.59v2.59h25.92v-2.59h2.59v-2.59h2.59ZM33.69,94.37v-7.78h2.59v2.59h2.59v2.59h2.59v2.59h2.59v10.37h-2.59v2.59h-5.18v-2.59h-15.55v2.59h-2.59v12.96h-7.78v-2.59h-2.59v-20.73h2.59v-2.59h15.55v2.59h5.18v-2.59h2.59Z"/><path class="cls-1" d="M67.39,107.33v36.29h-2.59v2.59h-12.96v-2.59h-2.59v-2.59h-2.59v-2.59h-2.59v-2.59h10.37v-2.59h2.59v-25.92h5.18v-2.59h2.59v2.59h2.59ZM64.8,91.78h-5.18v2.59h-2.59v-10.37h2.59v2.59h2.59v2.59h2.59v2.59ZM93.31,107.33v5.18h2.59v31.1h-2.59v2.59h-12.96v-2.59h-2.59v-2.59h-2.59v-2.59h-2.59v-2.59h10.37v-2.59h2.59v-31.1h-2.59v-2.59h2.59v2.59h2.59v2.59h2.59v2.59h2.59Z"/><path class="cls-1" d="M142.55,107.33v5.18h2.59v31.1h-2.59v2.59h-12.96v-2.59h-2.59v2.59h-18.14v-2.59h-5.18v-2.59h-2.59v-2.59h-2.59v-2.59h-2.59v-2.59h2.59v2.59h18.14v-2.59h2.59v2.59h12.96v-2.59h2.59v-31.1h-2.59v-2.59h2.59v2.59h2.59v2.59h2.59v2.59h2.59ZM98.49,109.92v-2.59h2.59v-2.59h12.96v2.59h2.59v2.59h-12.96v2.59h-2.59v-2.59h-2.59ZM116.64,122.88h-2.59v2.59h-5.18v-2.59h-2.59v-2.59h2.59v-2.59h7.78v5.18Z"/><path class="cls-1" d="M168.47,91.78v41.47h2.59v2.59h2.59v7.78h-2.59v2.59h-15.55v-2.59h-2.59v-2.59h-2.59v-2.59h-2.59v-2.59h12.96v-2.59h2.59v-7.78h-2.59v-2.59h-2.59v-38.88h2.59v2.59h2.59v2.59h2.59v2.59h2.59Z"/><path class="cls-1" d="M194.39,91.78v41.47h2.59v2.59h2.59v7.78h-2.59v2.59h-15.55v-2.59h-2.59v-2.59h-2.59v-2.59h-2.59v-2.59h12.96v-2.59h2.59v-7.78h-2.59v-2.59h-2.59v-38.88h2.59v2.59h2.59v2.59h2.59v2.59h2.59Z"/><path class="cls-1" d="M241.05,125.47v5.18h2.59v2.59h2.59v10.37h-5.18v2.59h-28.51v-2.59h-5.18v-2.59h-2.59v-2.59h-2.59v-2.59h-2.59v-2.59h2.59v2.59h28.51v-2.59h5.18v-10.37h-2.59v-2.59h-5.18v2.59h-15.55v-2.59h-2.59v-2.59h20.73v-2.59h2.59v-2.59h2.59v-10.37h2.59v2.59h2.59v2.59h2.59v2.59h2.59v12.96h-2.59v2.59h-2.59ZM220.31,104.73v2.59h-2.59v2.59h-7.78v-5.18h2.59v-2.59h5.18v2.59h2.59Z"/><path class="cls-1" d="M269.56,107.33v36.29h-2.59v2.59h-12.96v-2.59h-2.59v-2.59h-2.59v-2.59h-2.59v-2.59h10.37v-2.59h2.59v-25.92h5.18v-2.59h2.59v2.59h2.59ZM295.48,107.33v5.18h2.59v31.1h-2.59v2.59h-12.96v-2.59h-2.59v-2.59h-2.59v-2.59h-2.59v-2.59h10.37v-2.59h2.59v-31.1h-2.59v-2.59h2.59v2.59h2.59v2.59h2.59v2.59h2.59Z"/><path class="cls-1" d="M339.54,135.84v-38.88h2.59v2.59h2.59v2.59h2.59v2.59h2.59v41.47h-2.59v5.18h-2.59v2.59h-2.59v2.59h-5.18v2.59h-25.92v-2.59h-5.18v-2.59h-2.59v-2.59h-2.59v-2.59h-2.59v-2.59h2.59v2.59h25.92v-2.59h5.18v-2.59h2.59v-2.59h2.59v-5.18h2.59ZM300.66,128.06h2.59v2.59h12.96v-2.59h5.18v5.18h-5.18v2.59h-10.37v-2.59h-2.59v-2.59h-2.59v-2.59ZM321.4,115.1h-2.59v2.59h-5.18v-2.59h-2.59v-7.78h2.59v-2.59h7.78v10.37Z"/><path class="cls-1" d="M393.97,125.47v5.18h2.59v2.59h2.59v10.37h-5.18v2.59h-28.51v-2.59h-5.18v-2.59h-2.59v-2.59h-2.59v-2.59h-2.59v-2.59h2.59v2.59h28.51v-2.59h5.18v-10.37h-2.59v-2.59h-5.18v2.59h-15.55v-2.59h-2.59v-2.59h20.73v-2.59h2.59v-2.59h2.59v-10.37h2.59v2.59h2.59v2.59h2.59v2.59h2.59v12.96h-2.59v2.59h-2.59ZM373.24,104.73v2.59h-2.59v2.59h-7.78v-5.18h2.59v-2.59h5.18v2.59h2.59Z"/></svg>