<?xml version="1.0" encoding="UTF-8"?>
<svg id="Layer_1" xmlns="http://www.w3.org/2000/svg" viewBox="0 0 456.41 309.92">
  <defs>
    <style>
      .cls-1 {
        fill: #0071bc;
      }

      .cls-2 {
        fill: #fea853;
      }

      .cls-3 {
        font-family: MyriadPro-Regular, 'Myriad Pro';
        font-size: 60px;
      }

      .cls-4 {
        fill: #f7931e;
      }

      .cls-5 {
        fill: none;
        stroke: #0071bc;
        stroke-linecap: round;
        stroke-miterlimit: 10;
        stroke-width: 3.43px;
      }
    </style>
  </defs>
  <g>
    <path class="cls-2" d="M76.76,308.2c-6.83,0-13.14-3.71-16.45-9.67L4.11,197.31c-2.46-4.44-3.05-9.57-1.66-14.45,1.4-4.88,4.61-8.92,9.04-11.39L217.12,57.3c7.21-4,15.39-6.12,23.64-6.12,4.09,0,8.17.52,12.13,1.54l52.42,13.48c9.75,2.51,17.8,8.73,22.68,17.54,4.88,8.8,5.88,18.93,2.84,28.53l-16.39,51.6c-3.74,11.78-11.75,21.57-22.56,27.57l-206.01,114.39c-2.79,1.55-5.94,2.37-9.1,2.37h0ZM290.3,80.76c-4,0-7.98,1.03-11.49,2.99-5.54,3.08-9.55,8.12-11.29,14.21-1.74,6.09-1.01,12.5,2.07,18.03,4.18,7.53,12.13,12.21,20.75,12.21,4,0,7.98-1.03,11.49-2.99,5.54-3.07,9.55-8.12,11.29-14.21,1.74-6.09,1.01-12.5-2.07-18.03-4.18-7.53-12.13-12.21-20.75-12.21Z"/>
    <path class="cls-1" d="M240.75,52.9c3.94,0,7.88.5,11.7,1.48l52.42,13.48c9.28,2.39,16.96,8.32,21.6,16.71,4.65,8.39,5.61,18.04,2.7,27.17l-16.38,51.6c-3.61,11.36-11.33,20.81-21.76,26.59l-206.01,114.39c-2.53,1.41-5.39,2.15-8.27,2.15-6.21,0-11.94-3.37-14.95-8.79L5.61,196.47c-2.24-4.04-2.78-8.7-1.51-13.14,1.27-4.44,4.19-8.12,8.23-10.36L217.95,58.8c6.96-3.86,14.84-5.91,22.8-5.91M290.34,129.92c4.29,0,8.55-1.11,12.33-3.2,12.26-6.81,16.7-22.32,9.89-34.58-4.48-8.08-13.01-13.09-22.26-13.09-4.29,0-8.55,1.11-12.33,3.2-12.26,6.81-16.7,22.32-9.89,34.58,4.48,8.07,13.01,13.09,22.26,13.09M240.75,49.46c-8.5,0-16.92,2.15-24.47,6.34L10.66,169.97c-10,5.55-13.61,18.17-8.05,28.17l56.2,101.22c3.75,6.75,10.74,10.56,17.95,10.56,3.37,0,6.78-.83,9.94-2.58l206.01-114.39c11.15-6.19,19.5-16.41,23.36-28.56l16.38-51.6c6.6-20.77-5.62-42.82-26.72-48.25l-52.42-13.48c-4.13-1.06-8.35-1.59-12.55-1.59h0ZM290.34,126.49c-7.73,0-15.23-4.08-19.25-11.32-5.9-10.62-2.07-24.02,8.55-29.91,3.38-1.88,7.05-2.77,10.66-2.77,7.73,0,15.23,4.08,19.25,11.32,5.9,10.62,2.07,24.02-8.55,29.91-3.38,1.88-7.05,2.77-10.66,2.77h0Z"/>
  </g>
  <path class="cls-4" d="M308.24,68.79l-52.54-14.29c-12.5-3.21-24.93-3.31-36.21,2.95L13.87,171.63c-10,5.55-14.71,16.18-6.17,27.45l162.5-90.23c33.78-18.76,70.78-31.02,109.07-36.16l28.97-3.89"/>
  <path class="cls-5" d="M267.68,96.72s96,43,135,38,62.98-47.92,47-71c-9-13-29-5-60-25-33.27-21.47-40-11-48-37"/>
  <text class="cls-3" transform="translate(91.91 247.95) rotate(-28.86)"><tspan x="0" y="0">$2,000</tspan></text>
</svg>