<?xml version="1.0" encoding="UTF-8"?><svg id="Layer_1" xmlns="http://www.w3.org/2000/svg" viewBox="0 0 306 33"><defs><style>.cls-1{fill:none;stroke:#f15a24;stroke-miterlimit:10;}.cls-2{fill:#7ac943;}.cls-3{fill:#4d4d4d;}.cls-4{fill:#603813;}</style></defs><path class="cls-2" d="M4.97,32c-2.19,0-3.97-1.78-3.97-3.97V4.97c0-2.19,1.78-3.97,3.97-3.97h296.05c2.19,0,3.97,1.78,3.97,3.97v23.05c0,2.19-1.78,3.97-3.97,3.97H4.97ZM11.43,6c-2.74,0-4.97,2.23-4.97,4.97v11.05c0,2.74,2.23,4.97,4.97,4.97h283.15c2.74,0,4.97-2.23,4.97-4.97v-11.05c0-2.74-2.23-4.97-4.97-4.97H11.43Z"/><path class="cls-4" d="M301.03,1.5c1.92,0,3.47,1.56,3.47,3.47v23.05c0,1.92-1.56,3.47-3.47,3.47H4.97c-1.92,0-3.47-1.56-3.47-3.47V4.97c0-1.92,1.56-3.47,3.47-3.47h296.05M11.43,27.5h283.15c3.02,0,5.47-2.46,5.47-5.47v-11.05c0-3.02-2.46-5.47-5.47-5.47H11.43c-3.02,0-5.47,2.46-5.47,5.47v11.05c0,3.02,2.46,5.47,5.47,5.47M301.03.5H4.97C2.5.5.5,2.5.5,4.97v23.05c0,2.47,2,4.47,4.47,4.47h296.05c2.47,0,4.47-2,4.47-4.47V4.97c0-2.47-2-4.47-4.47-4.47h0ZM11.43,26.5c-2.47,0-4.47-2-4.47-4.47v-11.05c0-2.47,2-4.47,4.47-4.47h283.15c2.47,0,4.47,2,4.47,4.47v11.05c0,2.47-2,4.47-4.47,4.47H11.43Z"/><polygon class="cls-3" points="6.7 1.7 5.08 1.7 4.27 3.1 5.08 4.5 6.7 4.5 7.51 3.1 6.7 1.7"/><polygon class="cls-3" points="23.99 1.7 22.38 1.7 21.57 3.1 22.38 4.5 23.99 4.5 24.8 3.1 23.99 1.7"/><polygon class="cls-3" points="41.29 1.7 39.67 1.7 38.86 3.1 39.67 4.5 41.29 4.5 42.1 3.1 41.29 1.7"/><polygon class="cls-3" points="58.58 1.7 56.96 1.7 56.16 3.1 56.96 4.5 58.58 4.5 59.39 3.1 58.58 1.7"/><polygon class="cls-3" points="75.88 1.7 74.26 1.7 73.45 3.1 74.26 4.5 75.88 4.5 76.68 3.1 75.88 1.7"/><polygon class="cls-3" points="93.17 1.7 91.55 1.7 90.74 3.1 91.55 4.5 93.17 4.5 93.98 3.1 93.17 1.7"/><polygon class="cls-3" points="110.46 1.7 108.85 1.7 108.04 3.1 108.85 4.5 110.46 4.5 111.27 3.1 110.46 1.7"/><polygon class="cls-3" points="127.76 1.7 126.14 1.7 125.33 3.1 126.14 4.5 127.76 4.5 128.57 3.1 127.76 1.7"/><polygon class="cls-3" points="145.05 1.7 143.44 1.7 142.63 3.1 143.44 4.5 145.05 4.5 145.86 3.1 145.05 1.7"/><polygon class="cls-3" points="162.35 1.7 160.73 1.7 159.92 3.1 160.73 4.5 162.35 4.5 163.16 3.1 162.35 1.7"/><polygon class="cls-3" points="179.64 1.7 178.02 1.7 177.21 3.1 178.02 4.5 179.64 4.5 180.45 3.1 179.64 1.7"/><polygon class="cls-3" points="196.93 1.7 195.32 1.7 194.51 3.1 195.32 4.5 196.93 4.5 197.74 3.1 196.93 1.7"/><polygon class="cls-3" points="214.23 1.7 212.61 1.7 211.8 3.1 212.61 4.5 214.23 4.5 215.04 3.1 214.23 1.7"/><polygon class="cls-3" points="231.52 1.7 229.91 1.7 229.1 3.1 229.91 4.5 231.52 4.5 232.33 3.1 231.52 1.7"/><polygon class="cls-3" points="248.82 1.7 247.2 1.7 246.39 3.1 247.2 4.5 248.82 4.5 249.63 3.1 248.82 1.7"/><polygon class="cls-3" points="266.11 1.7 264.49 1.7 263.69 3.1 264.49 4.5 266.11 4.5 266.92 3.1 266.11 1.7"/><polygon class="cls-3" points="283.41 1.7 281.79 1.7 280.98 3.1 281.79 4.5 283.41 4.5 284.21 3.1 283.41 1.7"/><polygon class="cls-3" points="300.7 1.7 299.08 1.7 298.27 3.1 299.08 4.5 300.7 4.5 301.51 3.1 300.7 1.7"/><polygon class="cls-3" points="6.7 27.7 5.08 27.7 4.27 29.1 5.08 30.5 6.7 30.5 7.51 29.1 6.7 27.7"/><polygon class="cls-3" points="23.99 27.7 22.38 27.7 21.57 29.1 22.38 30.5 23.99 30.5 24.8 29.1 23.99 27.7"/><polygon class="cls-3" points="4.99 14.7 3.38 14.7 2.57 16.1 3.38 17.5 4.99 17.5 5.8 16.1 4.99 14.7"/><polygon class="cls-3" points="41.29 27.7 39.67 27.7 38.86 29.1 39.67 30.5 41.29 30.5 42.1 29.1 41.29 27.7"/><polygon class="cls-3" points="58.58 27.7 56.96 27.7 56.16 29.1 56.96 30.5 58.58 30.5 59.39 29.1 58.58 27.7"/><polygon class="cls-3" points="75.88 27.7 74.26 27.7 73.45 29.1 74.26 30.5 75.88 30.5 76.68 29.1 75.88 27.7"/><polygon class="cls-3" points="93.17 27.7 91.55 27.7 90.74 29.1 91.55 30.5 93.17 30.5 93.98 29.1 93.17 27.7"/><polygon class="cls-3" points="110.46 27.7 108.85 27.7 108.04 29.1 108.85 30.5 110.46 30.5 111.27 29.1 110.46 27.7"/><polygon class="cls-3" points="127.76 27.7 126.14 27.7 125.33 29.1 126.14 30.5 127.76 30.5 128.57 29.1 127.76 27.7"/><polygon class="cls-3" points="145.05 27.7 143.44 27.7 142.63 29.1 143.44 30.5 145.05 30.5 145.86 29.1 145.05 27.7"/><polygon class="cls-3" points="162.35 27.7 160.73 27.7 159.92 29.1 160.73 30.5 162.35 30.5 163.16 29.1 162.35 27.7"/><polygon class="cls-3" points="179.64 27.7 178.02 27.7 177.21 29.1 178.02 30.5 179.64 30.5 180.45 29.1 179.64 27.7"/><polygon class="cls-3" points="196.93 27.7 195.32 27.7 194.51 29.1 195.32 30.5 196.93 30.5 197.74 29.1 196.93 27.7"/><polygon class="cls-3" points="214.23 27.7 212.61 27.7 211.8 29.1 212.61 30.5 214.23 30.5 215.04 29.1 214.23 27.7"/><polygon class="cls-3" points="231.52 27.7 229.91 27.7 229.1 29.1 229.91 30.5 231.52 30.5 232.33 29.1 231.52 27.7"/><polygon class="cls-3" points="248.82 27.7 247.2 27.7 246.39 29.1 247.2 30.5 248.82 30.5 249.63 29.1 248.82 27.7"/><polygon class="cls-3" points="266.11 27.7 264.49 27.7 263.69 29.1 264.49 30.5 266.11 30.5 266.92 29.1 266.11 27.7"/><polygon class="cls-3" points="283.41 27.7 281.79 27.7 280.98 29.1 281.79 30.5 283.41 30.5 284.21 29.1 283.41 27.7"/><polygon class="cls-3" points="300.7 27.7 299.08 27.7 298.27 29.1 299.08 30.5 300.7 30.5 301.51 29.1 300.7 27.7"/><polygon class="cls-3" points="302.7 14.7 301.08 14.7 300.27 16.1 301.08 17.5 302.7 17.5 303.51 16.1 302.7 14.7"/><line class="cls-1" x1="15.77" y1="26.5" x2="36.27" y2="6"/><line class="cls-1" x1="56.27" y1="26.5" x2="35.77" y2="6"/><line class="cls-1" x1="56.77" y1="26.5" x2="77.27" y2="6"/><line class="cls-1" x1="97.27" y1="26.5" x2="76.77" y2="6"/><line class="cls-1" x1="97.77" y1="26.5" x2="118.27" y2="6"/><line class="cls-1" x1="138.27" y1="26.5" x2="117.77" y2="6"/><line class="cls-1" x1="137.77" y1="26.5" x2="158.27" y2="6"/><line class="cls-1" x1="178.27" y1="26.5" x2="157.77" y2="6"/><line class="cls-1" x1="178.77" y1="26.5" x2="199.27" y2="6"/><line class="cls-1" x1="219.27" y1="26.5" x2="198.77" y2="6"/><line class="cls-1" x1="218.77" y1="26.5" x2="239.27" y2="6"/><line class="cls-1" x1="259.27" y1="26.5" x2="238.77" y2="6"/><line class="cls-1" x1="259.77" y1="26.5" x2="280.27" y2="6"/><line class="cls-1" x1="299.02" y1="25.25" x2="279.77" y2="6"/></svg>