<?xml version="1.0" encoding="UTF-8"?><svg id="Layer_1" xmlns="http://www.w3.org/2000/svg" xmlns:xlink="http://www.w3.org/1999/xlink" viewBox="960 0 1920 1080"><defs><style>.cls-1{fill:#23387d;}.cls-2{fill:url(#linear-gradient-2);}.cls-3{fill:#2e60ab;}.cls-4{fill:#dbebfa;}.cls-5{fill:#c0daf3;}.cls-6{fill:#fff;}.cls-7{fill:#2051a6;}.cls-8{fill:none;}.cls-9{clip-path:url(#clippath-1);}.cls-10{fill:#3c7cc4;}.cls-11{fill:#8bbce5;}.cls-12{fill:#5da2db;}.cls-13{fill:#5da3d9;}.cls-14{fill:#377abf;}.cls-15{fill:#d0e7f9;}.cls-16{fill:url(#linear-gradient);}.cls-17{clip-path:url(#clippath);}</style><clipPath id="clippath"><rect class="cls-8" x="1920" width="960" height="1080"/></clipPath><linearGradient id="linear-gradient" x1="2872" y1="1080" x2="2872" y2="0" gradientUnits="userSpaceOnUse"><stop offset=".51" stop-color="#e8fdff"/><stop offset="1" stop-color="#377fc0"/></linearGradient><clipPath id="clippath-1"><polygon class="cls-8" points="960 1080 1926 1080 1928 0 960 0 960 1080"/></clipPath><linearGradient id="linear-gradient-2" x1="960" x2="960" xlink:href="#linear-gradient"/></defs><g class="cls-17"><polygon class="cls-16" points="1915 0 3839 1 3840 1080 1904 1080 1915 0"/><path class="cls-6" d="M1920,452.05s18.01,4.46,28.89,0,32.29-26.83,44.53-34.29c12.24-7.46,100.95-70.83,107.07-67.1s73.42,55.91,85.66,55.91,88.71-44.73,122.36-93.19c48.95-29.82,76.48-89.46,85.66-85.74s33.65,48.46,39.77,52.19c6.12,3.73,12.24,0,18.35,3.73s21.41,29.82,27.53,33.55,15.3,0,21.41,3.73,24.47,26.09,24.47,26.09c58.12,0,94.83-74.55,97.89-78.28,3.06-3.73,18.35-3.73,30.59-7.46,12.24-3.73,21.81-13.2,24.47-14.91,6.03-3.87,24.47-3.73,39.77-11.18,15.3-7.46,21.41-37.28,21.41-37.28,0,0,9.67-7.29,58.12-55.91,61.18-52.19,85.66-93.19,85.66-93.19,0,0,70.36,89.46,85.66,96.92,15.3,7.46,27.53,14.91,39.77,22.37,12.24,7.46,39.77,44.73,72.59,83.81,13.07,5.65,19.18,1.93,28.36,9.38,8.05,6.54,30.59,33.55,45.89,52.19,12.24,7.46,33.65-26.09,42.83-26.09s24.47,33.55,30.59,33.55,12.24-3.73,12.24-3.73c0,0,82.6,70.83,85.66,70.83s122.36-115.56,134.6-119.28c12.24-3.73,64.24,52.19,67.3,55.91s-3.06,13.9,0,18.13,9.18-3.22,15.3.51c6.12,3.73,58.12,63.37,64.24,63.37s88.71-82.01,97.89-89.46c12.24,3.73,18.35,18.64,24.47,18.64s30.59-14.91,42.83-18.64c12.24-3.73,30.59-7.46,36.71-7.46s28.47,13.34,28.47,13.34v423h-1919v-293.95Z"/><path class="cls-3" d="M2883.62,48.73s67.3,123.01,70.36,126.74-55.06-29.82-55.06-29.82c0,0,27.53,52.19,27.53,182.65s27.65-60.8,27.65-60.8c0,0,76.36,127.9,76.36,139.08s48.95,41,52,48.46c3.06,7.46-36.71-89.46-36.71-89.46l36.88,32.57-33.82-73.57,159.9,130.88-37.53-71.23,128.48,111.83-9.18-33.55s100.95,70.83,113.19,70.83-162.13-156.56-162.13-156.56c0,0-35.65-26.57-84.59-65.36-15.88-12.59-29.04-35.53-46.95-50.2-13.72-11.24-32.2-20.31-45.89-33.55-16.9-16.36-29-37.09-45.89-52.19-19.48-17.42-47.25-27.68-64.24-44.73-44.87-45.04-64.24-78.28-70.36-82.01Z"/><path class="cls-15" d="M2883.62,49.82l-24.47,51.09-18.35,11.18-12.24,14.91v17.96l6.12,19.32-58.12,26.09,9.18,18.64-9.18,14.05-39.77,12.04-21.41,52.19h-12.68l-17.91,41-64.24,11.18-33.65,14.91s-30.59,59.64-33.65,63.37-61.18,3.73-64.24,11.18-55.06,48.46-61.18,52.19-73.42,3.73-82.6,7.46c-9.18,3.73-30.59,7.46-36.71,7.46h-49.82s-2.41,34.99-35.83,78.28c-34.87,45.16-100.89,98.74-104.01,100.65-6.12,3.73,143.78-41,171.31-37.28,27.53,3.73,55.06-3.73,67.3,0,12.24,3.73,19.8-26.09,28.26-29.82s81.87,41,91.05,44.73,220.26-108.1,263.08-141.65c42.83-33.55,204.96,108.1,223.32,111.83,18.35,3.73,168.25-119.28,174.37-126.74,6.12-7.46,24.47-41,24.47-41,0,0-88.71,74.55-91.77,74.55s-24.47-52.19-24.47-52.19l-24.47,14.91-3.06-74.55-76.48,52.19,21.41-37.28-21.41-3.73,42.83-67.1-24.47,11.18-3.06-22.37,9.18-33.55-24.47,22.37-6.12-63.37-82.6,100.65-5.83-25.5-73.71,62.78,12.24-22.37-198.84,100.65,94.83-52.19,41.29-27.13,62.73-66.06-119.31,52.19,104.01-96.92,56.57-39.21,10.73-9.25,37.27-50.75s-46.94,7.54-50,15,40.26-61.17,49.44-57.44c9.18,3.73,9.18-41.15,9.18-41.15l6.12-18.49v-22.37l-6.12-28.73Z"/><path class="cls-12" d="M2880.56,45v30.56l-6.12,12.78,3.06,36.92,3.06,15.62-67.3,83.05,61.18-20.56-97.89,57.84h48.95c6.12,0-15.3,11.18-15.3,11.18l-30.59,18.64c-6.12,3.73-45.89,41-52,44.73s-88.71,89.46-88.71,89.46c0,0,138.93-28.28,134.6-33.55-9.18-11.18-110.13,48.46-113.19,55.91-3.06,7.46-75.3,45.42-75.3,45.42l84.48-30.5,104.01-22.37-6.12,26.09s70.36-67.1,73.42-67.1,0,26.09,0,26.09c0,0,85.66-74.55,85.66-96.92s-3.06-91.72-3.06-103.64-21.41-75.29-21.41-75.29l52,26.09s-30.59-59.64-33.65-63.37c-3.06-3.73-39.77-67.1-39.77-67.1Z"/><path class="cls-12" d="M2954.1,267.5l-11.34,68.87,23.46-19.26-9.18,33.55,3.06,22.37,24.47-11.18-42.83,67.1,18.34,3.19-18.34,37.81,76.48-52.19,3.06,74.55,24.47-14.91,24.47,52.19,91.77-74.55,12.24,55.91,12.24,63.37,21.41-22.37s6.12,33.55,6.12,41,67.3,44.73,67.3,44.73l33.65-82.01,85.66,63.37,30.59-18.64-18.35-63.37-24.47-119.28,85.66,82.01,12.24,41,27.53,33.55,12.24-22.37-33.65-104.37-73.42-48.46-39.77-7.46-15.3,85.74,6.59,18.64,33.17,37.28-113.19-70.83,9.18,33.55-128.48-111.83,37.53,71.23-159.9-130.88,33.82,73.57-36.88-32.57,33.65,85.74-45.89-41s-3.06,0-4.26-8.05c-5.75-38.44-75.16-134.76-75.16-134.76Z"/><path class="cls-14" d="M3198.71,287.3c-9.18-3.73,3.06,41,3.06,41l-6.12,13.43,45.89,35.03,128.96,119.28-6.59-18.64,15.3-85.74,33.65,7.46,41.16,23.13v-51.8l29.2,43.58-12.24-55.91,55.06,108.9,18.35,43.94-18.35-83.7-32.63-76-39.08-77.73s-124.07,99.5-130.19,110.69c-2.43,4.45-14.56-19.54-30.59-33.55-24.29-21.22-52-33.55-52-33.55l-12.24,3.73s-21.41-33.55-30.59-33.55Z"/><path class="cls-3" d="M2394.16,227.65s9.18,3.73,39.77,52.19c6.12,3.73,15.3,0,18.35,3.73,21.41,18.64,21.41,29.82,27.53,33.55s15.3,0,21.41,3.73,15.3,14.91,15.3,14.91c0,0,6.3,10.24,15.47,10.24s19-4,19-4l-31.41,27.3s-21.41,26.09-24.47,29.82-39.77,14.91-39.77,14.91c0,0,18.35-14.91,27.53-26.09,9.18-11.18-12.24-44.73-18.35-52.19-6.12-7.46-42.83-26.09-42.83-33.55s-27.53-74.55-27.53-74.55Z"/><path class="cls-12" d="M2394.16,227.65s27.53,66.22,27.53,74.55c0,3.73,37.46,23.74,42.83,33.55,6.12,11.18,24.87,22.95,20.08,48.75s-13.96,14.62-26.2,29.53-58.12,30.11-64.24,33.69c-6.12,3.58-30.59-.15-36.71,7.31s51.36-45.68,63.92-61.98-33.33,9.79-39.44,13.52,15.3-14.91,33.65-37.28c18.35-22.37,20.19-36.56,13.16-27.6s-25.39-99.14-34.57-114.05Z"/><path class="cls-3" d="M2100.49,350.67s79.54,59.64,85.66,55.91-67.3,41-79.54,44.73c-12.24,3.73,12.24-48.46-6.12-100.65Z"/><path class="cls-12" d="M2100.49,350.67s15.3,33.55,2.53,95.65c-9.41,45.77-48.41,60.91-54.53,64.64-6.12,3.73,27.86-28.4,38.41-55.2,10.54-26.81-41.46,32.84-47.58,32.84s24.47-37.28,36.71-52.19,12.24-59.64,9.18-55.91-14.62,37.57-36.37,50.47c-21.75,12.9,36.37-76.56,51.67-80.29Z"/><path class="cls-15" d="M2394.16,227.65c-12.24-3.73-55.06,67.1-85.66,85.74-13.95,8.5-55.06,85.74-70.36,96.92s61.18-33.55,61.18-33.55l-48.95,59.64,73.42-44.73,33.2-23.11-9.16,28.8,49.08-7.19s37.02-39.5,37.02-46.96c0-11.18-5.2-1.51-5.2-1.51,0,0-22.33-110.32-34.57-114.05Z"/><polygon class="cls-15" points="3746.05 351 3608.63 406.58 3608.63 485.94 3598.13 602 3644.1 553 3653.1 626 3704.07 562.52 3727.06 611 3750.05 550 3769.54 526.52 3784.03 588 3795.02 464 3804.76 374.04 3746.05 351"/><path class="cls-12" d="M3454.32,273.53l71.72,153.73,18.35,83.7-10.23-104.95,50.72,104.95-7.74-83.95,44.29,113-12.8-133.42-68.47-67.58s-14.92,16.43-8-11c-36.91-46.57-66.97-63-66.97-63l-10.88,8.53Z"/><polygon class="cls-3" points="3707.07 314 3608.63 406.58 3657.57 392.24 3667.69 430.96 3715.67 374.04 3706.53 430.96 3752.22 350.67 3764.47 320.84 3730.99 335.76 3707.07 314"/><path class="cls-12" d="M3839,323s-9.97-11.68-28.47-13.34-46.06,11.18-46.06,11.18l-12.25,29.82,12.25,50.42-35.41,67.92,31.98-7-31.67,48.95,50.66-31.95,15.59,54.32,18.28-77.57,25.1,62.25v-195Z"/><path class="cls-7" d="M1905,674l133.51-85.32,34.8,32.31s29.13,15.55,45.36,15.67,117.46-15.67,117.46-15.67c0,0,122.08-61.92,157.63-80.4,35.54-18.48,36.19.82,54.57,15.06,18.39,14.24,160.58,69.8,177.44,62.68,16.86-7.11,158.23-56.64,181.99-62.68s7.53,21.01,32.64,33.03c25.11,12.02,106.07,3.76,135.05,24.8,28.98,21.04,94.25-67.44,115.59-73.54,21.34-6.1,77.23,105.1,104.26,113.37,27.03,8.27,102-43.73,142.47-56.8,40.47-13.08,94.74-37.42,137.07-56.8,42.33-19.39,144.62,115.38,161.44,114.49s108.24-26.44,142.75-44.47c13.99-7.31,59.97,116.67,59.97,123.23s-282.39-.23-294.61-.11-1624.39,0-1624.39,0l-15-58.83Z"/><path class="cls-10" d="M2421.01,533.32s7.93,1.98,27.32,22.33,163.54,64.03,170.42,63.19,67.45-22.32,79.15-26.58-27.29,72.74-27.29,72.74l-30.28,38.66-34.37,29.21s21.67-48.87,24.67-72.87-64.97-12-64.97-12c0,0-104.95-41-111.94-52-7-11-34.44-56.36-32.71-62.68Z"/><path class="cls-10" d="M2038.51,588.68s29.18,29.3,34.8,32.31,40.34,16.71,40.34,16.71l51.84-6.29-46.82,80.26,5.23-45.66-50.59-15.83-27.05-12.47s-12.18-41.34-7.75-49.01Z"/><path class="cls-10" d="M3091.04,539.93s9.75,86.4-10.64,93.07c-51.97,17-78.76,75.32-88.35,78.66s60.37-74.66,74.36-101.66c13.99-27-64.08,40.17-64.08,40.17,0,0,15.65-47.64,22.88-53.9,7.22-6.27,58.49-57.4,65.84-56.33Z"/><path class="cls-10" d="M3480.88,537.99s-22.69,56.01-34.68,103.01c-11.99,47-67.96,54-67.96,54,0,0,48.97-42,57.97-74,9-32-50.78,30.46-66.37,39.23s-20.39-45.39,0-51.81-11.59-10.42-19.59-6.42-29.24,1.08-29.24,1.08c0,0,131.58-56.1,159.87-65.09Z"/><path class="cls-13" d="M2421.01,533.32s17.72,34.68,36.71,60.68c8.21,11.25,55.92,17.51,64.97,29s-10.99,84-10.99,84c0,0-6-58-11.99-64s-44.52,68.66-44.52,68.66c0,0-24.06-104.34-34.25-120s-51.17,67.34-51.17,67.34c0,0-7-68,4-78s45.52-30.36,47.25-47.68Z"/><path class="cls-13" d="M2072.92,733l-34.98-15,6-32,47.54-30.14-45.22-18.16s-8.18-49.34-7.75-49.01-133.51,85.32-133.51,85.32l15,58.83,152.92.17Z"/><path class="cls-13" d="M3091.04,539.93s14.34-11.93,100.73,111.81c10.56,18.26,10.56,66.26,10.56,66.26l-21.99-33-27.24-50.6v77.36l-12.74-66.76-32.19-19,1.21,59-25-54.67s2.9-25.31,5.01-50.33c.32-3.74-16.24,14.51-15.99,11,.9-12.61,18.48-47.59,17.64-51.07Z"/><path class="cls-13" d="M3480.88,537.99s10.15.25,14.22,1.63c31.06,8.38,129.7,99.77,138.85,114.07s-79.81,44.31-93.8,47.31,18.13-15.62,33.55-25.81c15.42-10.19,20.42-26.19,20.42-26.19,0,0-52.23,21.62-68.1,28.31-15.86,6.69-62.84.69-62.84.69,0,0,59.97-26,67.96-32s-52.97,0-63.97,2,43.98-26,43.98-26l-64.11,15.69s28.52-102.71,33.82-99.7Z"/><path class="cls-5" d="M1920,676s539.4-34.32,638.51-15.16c99.11,19.16,269.73,28.81,335.84,40.48,66.11,11.68,235.59,9.68,315.26-6.32,79.67-16,283.31-4.38,314.42-17.69s282.98,3.69,315.97-39.31v442h-1920v-404Z"/><path class="cls-11" d="M1926,892l-6,188h198.66c225.12-228,954.74-202,954.74-202-186.9-46-698.07-54.67-746.33-61.83s-343.07,75.83-401.07,75.83Z"/><path class="cls-11" d="M3093.37,707.15s71.9-4.36,101.92-9.26,391.84,207.41,643.71,191.11l1,191s-189.18-142.81-392.94-220.41-359.47-138.28-455.02-147.94c-95.55-9.66,67.33-3.36,101.33-4.51Z"/><path class="cls-4" d="M3621.43,1080h-372.89s143.71-41.02,165.68-61c21.99-20-551.71-239-551.71-239,0,0,309.8,79.74,387.8,105s160.92-39,287.53,70.59c69.34,60.02,83.6,124.41,83.6,124.41Z"/><polygon class="cls-1" points="2495.76 661.85 2495.76 657.12 2507.33 650.28 2507.33 645.36 2495.76 645.36 2513.11 627.13 2501.54 621.34 2501.54 615.55 2513.11 604.94 2513.11 597.59 2504.44 597.59 2521.79 583.72 2521.79 577.75 2508.77 577.75 2513.11 572.15 2513.11 566.36 2524.68 551.89 2524.68 547.62 2510.22 551.29 2514.08 547.62 2510.22 543.95 2524.68 533.66 2524.68 525.57 2516.01 531.64 2524.68 519.69 2516.28 519.69 2524.68 513.82 2524.68 505.73 2527.57 499.81 2524.68 494.02 2527.57 488.83 2530.47 479.55 2536.25 473.77 2527.57 467.98 2533.36 462.19 2536.25 453.55 2539.14 413 2544.93 444.83 2547.82 456.4 2553.6 462.19 2547.82 467.98 2550.71 476.66 2553.6 481.48 2553.6 486.62 2559.39 491.13 2550.71 494.02 2553.6 499.81 2559.39 502.06 2562.28 508.49 2568.06 511.38 2556.49 514.28 2568.06 526.31 2553.6 528.74 2570.96 540.32 2570.96 543.95 2570.96 551.29 2559.39 546.11 2559.39 554.79 2570.96 563.05 2576.74 566.36 2585.42 554.79 2588.31 531.64 2591.2 557.68 2596.98 563.47 2596.98 571.87 2599.88 580.83 2602.77 589.51 2596.98 592.4 2602.77 600.53 2596.98 606.87 2608.55 612.66 2602.77 618.45 2608.55 626.25 2614.34 632.91 2605.66 638.7 2614.34 644.63 2614.34 649.77 2608.55 656.06 2622.78 661.85 2611.44 664.74 2611.44 670.53 2622.78 679.9 2617.23 685 2495.76 661.85"/><path class="cls-1" d="M3267.3,689l3-1,10.44-5.53-5.22-2.22-5.22-3.18,10.44-5.3-5.22-5.3,5.22-4.77,4.18-4.28,4.18-2.09-6.26-4.18h-5.14l7.22-2.09,2.09-6.27-7.31-1.79,7.31-4.47-2.09-4.18,4.18-4.08h-3.98l6.06-2.19,4.18-6.27h-12.53l4.18-6.27,4.18-2.09-6.26-4.18,8.35-6.27-6.26-6.27,8.35-5.74v-4.77h-4.94l4.94-3.71v-3.71h-6.53l10.7-7.13v-4.54h-5.4l5.4-3.18v-1.66l-4.18-3.15h4.18l2.09-4.18,4.18-25.07,4.18,22.98,4.18,4.18,4.18,4.18-6.26,2.09,4.18,4.18-2.09,4.18,4.18,4.34,2.09,4.01v6.13l4.18,4.31,8.35-2.09,4.18-4.18-6.26-2.09,8.35-4.18-4.18-2.09,6.26-4.18-4.18-4.18,4.18-5.01,2.09-3.35,6.26-35.51,6.26,31.33,4.18,4.18s4.18,4.18,2.09,4.18-4.18,4.18-4.18,4.18v4.18l4.76,4.54,11.94-.36,4.18-4.18-10.44-2.09,12.53-10.44-10.44-2.09,10.44-7.89-8.35-2.55,14.61-12.53-12.53-2.09,8.35-4.18-6.33-4.18,8.42-2.09-8.35-2.09,12.53-10.44,2.09-6.27-4.18-4.18,5.4-4.18,5.04-43.86,6.26,37.6v11.7l4.18,5.01,10.44,2.09,8.35,2.09,6.26,2.09h12.53l4.18-4.18v-4.11l-10.44,2.02,6.26-8.36-4.14-2.09-.03-4.18,8.35-6.1-4.18-2.25v-6.27l4.18-1.82,2.09-4.44-6.26,2.09,8.35-10.44-2.09-4.18-1.86-6.27,6.03-4.18,4.18-10.44,2.09-20.89,2.09,18.8,2.09,2.09,2.09,10.44,6.26,10.44h-8.35l14.61,16.71-10.44-2.09,10.44,16.71-4.18,2.09,8.35,8.36-8.35-2.09,6.26,8.36-8.35-2.09-4.18,2.09,20.88,18.8-12.53-4.18-2.09,2.09,12.53,10.44,4.18,2.09h12.53l6.26-4.18,4.18-6.27v-2.72l-12.53,4.81,8.35-10.44h-8.35l10.44-6.27h-8.35l18.79-18.8,2.09-4.18-14.61,6.27-2.09-4.18,12.53-10.44-4.18-4.18,2.09-6.27,4.18-4.18,6.26-8.36v-5.01l-16.7,5.01,10.44-12.53s0-6.27-2.09-4.18l-4.18,4.18,2.09-10.44,12.53-14.62-3.35-2.09-7.09-2.09,14.61-12.53-2.09-4.18h-8.35l6.26-10.44,4.18-4.71v-7.56l2.09-4.44,2.09-6.27v-9.78l4.18-9.02,2.09,12.53,2.09,6.27v9.12l6.26,11.77,2.09,4.18h-4.18l6.26,4.18-8.35,4.18,14.61,14.62-12.53,2.09v4.18l12.53,12.1v6.56l12.53,10.58-14.61-6.27-2.09,2.09,8.35,10.44,2.09,2.09-14.61-6.27v4.18l25.05,31.33h-6.26v4.18l10.44,2.09,4.18-8.36,8.35-16.71-10.44,6.27,2.09-4.18,4.18-12.53h2.09l2.09-8.36-6.26,2.09,6.26-9.48s2.09-5.14,2.09-7.23v-8.69l2.09-5.93,2.09,12.53,2.09,6.27v8.36l2.09,4.18,2.09,2.09v4.18l2.09,2.09h-4.18l6.26,8.36v4.84l-6.26-4.84-2.09-2.09v4.18l4.18,4.18v4.18l4.18,8.36,4.18,2.09,2.09-2.09-2-4.95,8,8-5-2,5,6-4-1-1,4,3,2-2,4,3,5-3,1,1,5,3,8,3,7-2,1,3,7-5.52-.34,3.52,8.34-3.73-2.07,2.73,7.07-3,1,4,3,3,10-5-3,6,13-6-3,1,4,6,7,8,9-9-1v4l15.99,5h-10l13.99,11-10.99-4-1,2,11.99,13-9.99-6,4,6,1,3,12.99,14-9.99-4-1,5,1,4,22.99,4h-9.99l13.99,6-8-1,11.99,11-8-1,1,4h18.99l-5,1,3,6-212.89,16-213.89,5Z"/></g><g class="cls-9"><rect class="cls-2" width="1920" height="1080"/><path class="cls-6" d="M0,452.05s18.01,4.46,28.89,0c10.88-4.46,32.29-26.83,44.53-34.29,12.24-7.46,100.95-70.83,107.07-67.1s73.42,55.91,85.66,55.91,88.71-44.73,122.36-93.19c48.95-29.82,76.48-89.46,85.66-85.74,9.18,3.73,33.65,48.46,39.77,52.19s12.24,0,18.35,3.73c6.12,3.73,21.41,29.82,27.53,33.55s15.3,0,21.41,3.73,24.47,26.09,24.47,26.09c58.12,0,94.83-74.55,97.89-78.28,3.06-3.73,18.35-3.73,30.59-7.46,12.24-3.73,30.59-18.64,24.47-14.91-6.12,3.73,24.47-3.73,39.77-11.18s21.41-37.28,21.41-37.28c0,0,9.67-7.29,58.12-55.91,61.18-52.19,85.66-93.19,85.66-93.19,0,0,70.36,89.46,85.66,96.92,15.3,7.46,27.53,14.91,39.77,22.37s39.77,44.73,72.59,83.81c13.07,5.65,19.18,1.93,28.36,9.38,8.05,6.54,30.59,33.55,45.89,52.19,12.24,7.46,33.65-26.09,42.83-26.09s24.47,33.55,30.59,33.55,12.24-3.73,12.24-3.73c0,0,82.6,70.83,85.66,70.83s122.36-115.56,134.6-119.28c12.24-3.73,64.24,52.19,67.3,55.91s-3.06,13.9,0,18.13,9.18-3.22,15.3.51,58.12,63.37,64.24,63.37,88.71-82.01,97.89-89.46c12.24,3.73,18.35,18.64,24.47,18.64s30.59-14.91,42.83-18.64,30.59-7.46,36.71-7.46,28.47,13.34,28.47,13.34v342s-12,8-12,8l12,73H0v-293.95Z"/><path class="cls-3" d="M960,44s70.92,127.74,73.98,131.47c3.06,3.73-55.06-29.82-55.06-29.82,0,0,27.53,52.19,27.53,182.65s27.65-60.8,27.65-60.8c0,0,76.36,127.9,76.36,139.08s48.95,41,52,48.46c3.06,7.46-36.71-89.46-36.71-89.46l36.88,32.57-33.82-73.57,159.9,130.88-37.53-71.23,128.48,111.83-9.18-33.55s100.95,70.83,113.19,70.83-162.13-156.56-162.13-156.56c0,0-35.65-26.57-84.59-65.36-15.88-12.59-29.04-35.53-46.95-50.2-13.72-11.24-32.2-20.31-45.89-33.55-16.9-16.36-29.22-38.55-46.11-53.65-19.48-17.42-47.03-26.21-64.02-43.26-14.2-14.25-26-27.76-35.98-39.74-21.55-25.87-33.82-44.45-38-47Z"/><path class="cls-15" d="M963.62,49.82l-24.47,51.09-18.35,11.18-12.24,14.91v17.96l6.12,19.32-58.12,26.09,9.18,18.64-9.18,14.05-39.77,12.04-21.41,52.19h-12.68l-17.91,41-64.24,11.18-33.65,14.91s-30.59,59.64-33.65,63.37-61.18,3.73-64.24,11.18-55.06,48.46-61.18,52.19c-6.12,3.73-73.42,3.73-82.6,7.46-9.18,3.73-30.59,7.46-36.71,7.46h-49.82s-2.41,34.99-35.83,78.28c-34.87,45.16-100.89,98.74-104.01,100.65-6.12,3.73,143.78-41,171.31-37.28,27.53,3.73,55.06-3.73,67.3,0,12.24,3.73,19.8-26.09,28.26-29.82s81.87,41,91.05,44.73c9.18,3.73,220.26-108.1,263.08-141.65,42.83-33.55,204.96,108.1,223.32,111.83,18.35,3.73,168.25-119.28,174.37-126.74,6.12-7.46,24.47-41,24.47-41,0,0-88.71,74.55-91.77,74.55s-24.47-52.19-24.47-52.19l-24.47,14.91-3.06-74.55-76.48,52.19,21.41-37.28-21.41-3.73,42.83-67.1-24.47,11.18-3.06-22.37,9.18-33.55-24.47,22.37-6.12-63.37-82.6,100.65-5.83-25.5-73.71,62.78,12.24-22.37-198.84,100.65,94.83-52.19,104.01-93.19-119.31,52.19,104.01-96.92,55.06-41,12.24-7.46,33.65-52.19s-42.83,11.18-45.89,18.64,39.77-63.37,48.95-59.64c9.18,3.73,9.18-41.15,9.18-41.15l6.12-18.49v-22.37l-6.12-28.73Z"/><path class="cls-12" d="M960.56,45v30.56l-6.12,12.78,3.06,36.92,3.06,15.62-67.3,83.05,61.18-20.56-97.89,57.84h48.95c6.12,0-15.3,11.18-15.3,11.18,0,0-24.47,14.91-30.59,18.64s-45.89,41-52,44.73-88.71,89.46-88.71,89.46c0,0,138.93-28.28,134.6-33.55-9.18-11.18-110.13,48.46-113.19,55.91-3.06,7.46-61.18,48.46-61.18,48.46l70.36-33.55,104.01-22.37-6.12,26.09s70.36-67.1,73.42-67.1,0,26.09,0,26.09c0,0,85.66-74.55,85.66-96.92s-3.06-91.72-3.06-103.64-21.41-75.29-21.41-75.29l53.03,27.63s-31.61-61.17-34.67-64.9c-3.06-3.73-39.77-67.1-39.77-67.1Z"/><path class="cls-12" d="M1034.1,267.5l-12.1,71.5,24.22-21.88-9.18,33.55,3.06,22.37,24.47-11.18-42.83,67.1,18.34,3.19-18.34,37.81,76.48-52.19,3.06,74.55,24.47-14.91,24.47,52.19,91.77-74.55,12.24,55.91,12.24,63.37,21.41-22.37s6.12,33.55,6.12,41,67.3,44.73,67.3,44.73l33.65-82.01,85.66,63.37,30.59-18.64-18.35-63.37-24.47-119.28,85.66,82.01,12.24,41,27.53,33.55,12.24-22.37-33.65-104.37-73.42-48.46-39.77-7.46-15.3,85.74,6.59,18.64,33.17,37.28-113.19-70.83,9.18,33.55-128.48-111.83,37.53,71.23-159.9-130.88,33.82,73.57-36.88-32.57,33.65,85.74-45.89-41s-3.06,0-4.26-8.05c-5.75-38.44-75.16-134.76-75.16-134.76Z"/><path class="cls-14" d="M1278.71,287.3c-7.71-.3,3.06,41,3.06,41l-6.12,13.43,45.89,35.03,128.96,119.28-6.59-18.64,15.3-85.74,33.65,7.46,41.16,23.13v-51.8s28.4,44.62,29.2,43.58-12.24-55.91-12.24-55.91l55.06,108.9,18.35,43.94-18.35-83.7-32.63-76-39.08-77.73s-124.07,99.5-130.19,110.69c-2.43,4.45-14.56-19.54-30.59-33.55-24.29-21.22-52-33.55-52-33.55l-12.24,3.73s-21.41-33.55-30.59-33.55Z"/><path class="cls-3" d="M474.16,227.65s9.18,3.73,39.77,52.19c6.12,3.73,15.3,0,18.35,3.73,21.41,18.64,21.41,29.82,27.53,33.55s15.3,0,21.41,3.73,15.3,14.91,15.3,14.91c0,0,6.12,11.18,15.3,11.18s18.35-3.73,18.35-3.73l-30.59,26.09s-21.41,26.09-24.47,29.82c-3.06,3.73-39.77,14.91-39.77,14.91,0,0,18.35-14.91,27.53-26.09,9.18-11.18-12.24-44.73-18.35-52.19-6.12-7.46-42.83-26.09-42.83-33.55s-27.53-74.55-27.53-74.55Z"/><path class="cls-12" d="M474.16,227.65s27.53,66.22,27.53,74.55c0,3.73,37.46,23.74,42.83,33.55,6.12,11.18,24.87,22.95,20.08,48.75s-13.96,14.62-26.2,29.53c-12.24,14.91-58.12,30.11-64.24,33.69s-30.59-.15-36.71,7.31c-6.12,7.46,51.36-45.68,63.92-61.98,12.56-16.3-33.33,9.79-39.44,13.52s15.3-14.91,33.65-37.28c18.35-22.37,20.19-36.56,13.16-27.6s-25.39-99.14-34.57-114.05Z"/><path class="cls-3" d="M180.49,350.67s79.54,59.64,85.66,55.91-67.3,41-79.54,44.73,12.24-48.46-6.12-100.65Z"/><path class="cls-12" d="M180.49,350.67s15.3,33.55,2.53,95.65c-9.41,45.77-48.41,60.91-54.53,64.64-6.12,3.73,27.86-28.4,38.41-55.2,10.54-26.81-41.46,32.84-47.58,32.84s24.47-37.28,36.71-52.19c12.24-14.91,12.24-59.64,9.18-55.91s-14.62,37.57-36.37,50.47c-21.75,12.9,36.37-76.56,51.67-80.29Z"/><path class="cls-15" d="M474.16,227.65c-12.24-3.73-55.06,67.1-85.66,85.74-13.95,8.5-55.06,85.74-70.36,96.92-15.3,11.18,61.18-33.55,61.18-33.55l-48.95,59.64,73.42-44.73,33.2-23.11-9.16,28.8,49.08-7.19s37.02-39.5,37.02-46.96c0-11.18-5.2-1.51-5.2-1.51,0,0-22.33-110.32-34.57-114.05Z"/><polygon class="cls-15" points="1826.05 351 1688.63 406.58 1688.63 485.94 1678.13 602 1724.1 553 1733.1 626 1784.07 562.52 1807.06 611 1830.05 550 1849.54 526.52 1864.03 588 1875.02 464 1884.76 374.04 1826.05 351"/><path class="cls-12" d="M1534.32,273.53l71.72,153.73,18.35,83.7-10.23-104.95,50.72,104.95-7.74-83.95,44.29,113-12.8-133.42-67.63-67.58-6-4s-3-3-2.84-7c-36.91-46.57-66.97-63-66.97-63l-10.88,8.53Z"/><polygon class="cls-3" points="1787.07 314 1688.63 406.58 1737.57 392.24 1747.69 430.96 1795.67 374.04 1786.53 430.96 1832.22 350.67 1844.47 320.84 1810.99 335.76 1787.07 314"/><path class="cls-12" d="M1919,323s-9.97-11.68-28.47-13.34-46.06,11.18-46.06,11.18l-12.25,29.82,12.25,50.42-35.41,67.92,31.98-7-31.67,48.95,50.66-31.95,15.59,54.32,18.28-77.57,25.1,62.25v-195Z"/><path class="cls-7" d="M0,653.3l118.51-64.62,34.8,32.31s29.13,15.55,45.36,15.67c16.23.11,117.46-15.67,117.46-15.67,0,0,122.08-61.92,157.63-80.4,35.54-18.48,36.19.82,54.57,15.06,18.39,14.24,160.58,69.8,177.44,62.68,16.86-7.11,158.23-56.64,181.99-62.68s7.53,21.01,32.64,33.03,106.07,3.76,135.05,24.8c28.98,21.04,94.25-67.44,115.59-73.54,21.34-6.1,77.23,105.1,104.26,113.37s102-43.73,142.47-56.8c40.47-13.08,94.74-37.42,137.07-56.8,42.33-19.39,144.62,115.38,161.44,114.49,16.82-.89,108.24-26.44,142.75-44.47,13.99-7.31,59.97,116.67,59.97,123.23s-282.39-.23-294.61-.11c-12.23.11-1624.39,0-1624.39,0v-79.53Z"/><path class="cls-10" d="M501.01,533.32s7.93,1.98,27.32,22.33,163.54,64.03,170.42,63.19,67.45-22.32,79.15-26.58c11.69-4.26-27.29,72.74-27.29,72.74l-30.28,38.66-34.37,29.21s21.67-48.87,24.67-72.87-64.97-12-64.97-12c0,0-104.95-41-111.94-52-7-11-34.44-56.36-32.71-62.68Z"/><path class="cls-10" d="M118.51,588.68s29.18,29.3,34.8,32.31,40.34,16.71,40.34,16.71l51.84-6.29-46.82,80.26,5.23-45.66-50.59-15.83-27.05-12.47s-12.18-41.34-7.75-49.01Z"/><path class="cls-10" d="M1171.04,539.93s9.75,86.4-10.64,93.07c-51.97,17-78.76,75.32-88.35,78.66s60.37-74.66,74.36-101.66-64.08,40.17-64.08,40.17c0,0,15.65-47.64,22.88-53.9,7.22-6.27,58.49-57.4,65.84-56.33Z"/><path class="cls-10" d="M1560.88,537.99s-22.69,56.01-34.68,103.01c-11.99,47-67.96,54-67.96,54,0,0,48.97-42,57.97-74,9-32-50.78,30.46-66.37,39.23s-20.39-45.39,0-51.81c20.39-6.42-11.59-10.42-19.59-6.42s-29.24,1.08-29.24,1.08c0,0,131.58-56.1,159.87-65.09Z"/><path class="cls-13" d="M501.01,533.32s17.72,34.68,36.71,60.68c8.21,11.25,55.92,17.51,64.97,29s-10.99,84-10.99,84c0,0-6-58-11.99-64s-44.52,68.66-44.52,68.66c0,0-24.06-104.34-34.25-120s-51.17,67.34-51.17,67.34c0,0-7-68,4-78s45.52-30.36,47.25-47.68Z"/><path class="cls-13" d="M152.92,733l-34.98-15,6-32,47.54-30.14-45.22-18.16s-8.18-49.34-7.75-49.01S0,653,0,653v79.83l152.92.17Z"/><path class="cls-13" d="M1171.04,539.93s14.34-11.93,100.73,111.81c10.56,18.26,10.56,66.26,10.56,66.26l-21.99-33-27.24-50.6v77.36l-12.74-66.76-32.19-19,1.21,59-25-54.67s2.9-25.31,5.01-50.33c.32-3.74-16.24,14.51-15.99,11,.9-12.61,18.48-47.59,17.64-51.07Z"/><path class="cls-13" d="M1560.88,537.99s10.15.25,14.22,1.63c31.06,8.38,129.7,99.77,138.85,114.07,9.15,14.31-79.81,44.31-93.8,47.31s18.13-15.62,33.55-25.81c15.42-10.19,20.42-26.19,20.42-26.19,0,0-52.23,21.62-68.1,28.31-15.86,6.69-62.84.69-62.84.69,0,0,59.97-26,67.96-32s-52.97,0-63.97,2,43.98-26,43.98-26l-64.11,15.69s28.52-102.71,33.82-99.7Z"/><path class="cls-5" d="M0,676s539.4-34.32,638.51-15.16c99.11,19.16,269.73,28.81,335.84,40.48s235.59,9.68,315.26-6.32c79.67-16,283.31-4.38,314.42-17.69s214.97-18.31,331.97-2.31l-16,405H0v-404Z"/><path class="cls-11" d="M0,718v362h198.66c225.12-228,954.74-202,954.74-202-186.9-46-698.07-54.67-746.33-61.83-48.26-7.17-353.1-61.17-407.07-98.17Z"/><path class="cls-11" d="M1173.37,707.15s71.9-4.36,101.92-9.26,419.84,209.41,671.71,193.11l-27,189s-189.18-142.81-392.94-220.41-359.47-138.28-455.02-147.94,67.33-3.36,101.33-4.51Z"/><path class="cls-4" d="M1701.43,1080h-372.89s143.71-41.02,165.68-61c21.99-20-551.71-239-551.71-239,0,0,309.8,79.74,387.8,105s160.92-39,287.53,70.59c69.34,60.02,83.6,124.41,83.6,124.41Z"/><polygon class="cls-1" points="575.76 661.85 575.76 657.12 587.33 650.28 587.33 645.36 575.76 645.36 593.11 627.13 581.54 621.34 581.54 615.55 593.11 604.94 593.11 597.59 584.44 597.59 601.79 583.72 601.79 577.75 588.77 577.75 593.11 572.15 593.11 566.36 604.68 551.89 604.68 547.62 590.22 551.29 594.08 547.62 590.22 543.95 604.68 533.66 604.68 525.57 596.01 531.64 604.68 519.69 596.28 519.69 604.68 513.82 604.68 505.73 607.57 499.81 604.68 494.02 607.57 488.83 610.47 479.55 616.25 473.77 607.57 467.98 613.36 462.19 616.25 453.55 619.14 413 624.93 444.83 627.82 456.4 633.6 462.19 627.82 467.98 630.71 476.66 633.6 481.48 633.6 486.62 639.39 491.13 630.71 494.02 633.6 499.81 639.39 502.06 642.28 508.49 648.06 511.38 636.49 514.28 648.06 526.31 633.6 528.74 650.96 540.32 650.96 543.95 650.96 551.29 639.39 546.11 639.39 554.79 650.96 563.05 656.74 566.36 665.42 554.79 668.31 531.64 671.2 557.68 676.98 563.47 676.98 571.87 679.88 580.83 682.77 589.51 676.98 592.4 682.77 600.53 676.98 606.87 688.55 612.66 682.77 618.45 688.55 626.25 694.34 632.91 685.66 638.7 694.34 644.63 694.34 649.77 688.55 656.06 702.78 661.85 691.44 664.74 691.44 670.53 702.78 679.9 697.23 685 575.76 661.85"/><path class="cls-1" d="M1347.3,689l3-1,10.44-5.53-5.22-2.22-5.22-3.18,10.44-5.3-5.22-5.3,5.22-4.77,4.18-4.28,4.18-2.09-6.26-4.18h-5.14l7.22-2.09,2.09-6.27-7.31-1.79,7.31-4.47-2.09-4.18,4.18-4.08h-3.98l6.06-2.19,4.18-6.27h-12.53l4.18-6.27,4.18-2.09-6.26-4.18,8.35-6.27-6.26-6.27,8.35-5.74v-4.77h-4.94l4.94-3.71v-3.71h-6.53l10.7-7.13v-4.54h-5.4l5.4-3.18v-1.66l-4.18-3.15h4.18l2.09-4.18,4.18-25.07,4.18,22.98,4.18,4.18,4.18,4.18-6.26,2.09,4.18,4.18-2.09,4.18,4.18,4.34,2.09,4.01v6.13l4.18,4.31,8.35-2.09,4.18-4.18-6.26-2.09,8.35-4.18-4.18-2.09,6.26-4.18-4.18-4.18,4.18-5.01,2.09-3.35,6.26-35.51,6.26,31.33,4.18,4.18s4.18,4.18,2.09,4.18-4.18,4.18-4.18,4.18v4.18l4.76,4.54,11.94-.36,4.18-4.18-10.44-2.09,12.53-10.44-10.44-2.09,10.44-7.89-8.35-2.55,14.61-12.53-12.53-2.09,8.35-4.18-6.33-4.18,8.42-2.09-8.35-2.09,12.53-10.44,2.09-6.27-4.18-4.18,5.4-4.18,5.04-43.86,6.26,37.6v11.7l4.18,5.01,10.44,2.09,8.35,2.09,6.26,2.09h12.53l4.18-4.18v-4.11l-10.44,2.02,6.26-8.36-4.14-2.09-.03-4.18,8.35-6.1-4.18-2.25v-6.27l4.18-1.82,2.09-4.44-6.26,2.09,8.35-10.44-2.09-4.18-1.86-6.27,6.03-4.18,4.18-10.44,2.09-20.89,2.09,18.8,2.09,2.09,2.09,10.44,6.26,10.44h-8.35l14.61,16.71-10.44-2.09,10.44,16.71-4.18,2.09,8.35,8.36-8.35-2.09,6.26,8.36-8.35-2.09-4.18,2.09,20.88,18.8-12.53-4.18-2.09,2.09,12.53,10.44,4.18,2.09h12.53l6.26-4.18,4.18-6.27v-2.72l-12.53,4.81,8.35-10.44h-8.35l10.44-6.27h-8.35l18.79-18.8,2.09-4.18-14.61,6.27-2.09-4.18,12.53-10.44-4.18-4.18,2.09-6.27,4.18-4.18,6.26-8.36v-5.01l-16.7,5.01,10.44-12.53s0-6.27-2.09-4.18l-4.18,4.18,2.09-10.44,12.53-14.62-3.35-2.09-7.09-2.09,14.61-12.53-2.09-4.18h-8.35l6.26-10.44,4.18-4.71v-7.56l2.09-4.44,2.09-6.27v-9.78l4.18-9.02,2.09,12.53,2.09,6.27v9.12l6.26,11.77,2.09,4.18h-4.18l6.26,4.18-8.35,4.18,14.61,14.62-12.53,2.09v4.18l12.53,12.1v6.56l12.53,10.58-14.61-6.27-2.09,2.09,8.35,10.44,2.09,2.09-14.61-6.27v4.18l25.05,31.33h-6.26v4.18l10.44,2.09,4.18-8.36,8.35-16.71-10.44,6.27,2.09-4.18,4.18-12.53h2.09l2.09-8.36-6.26,2.09,6.26-9.48s2.09-5.14,2.09-7.23v-8.69l2.09-5.93,2.09,12.53,2.09,6.27v8.36l2.09,4.18,2.09,2.09v4.18l2.09,2.09h-4.18l6.26,8.36v4.84l-6.26-4.84-2.09-2.09v4.18l4.18,4.18v4.18l4.18,8.36,4.18,2.09,2.09-2.09-2-4.95,8,8-5-2,5,6-4-1-1,4,3,2-2,4,3,5-3,1,1,5,3,8,3,7-2,1,3,7-5.52-.34,3.52,8.34-3.73-2.07,2.73,7.07-3,1,4,3,3,10-5-3,6,13-6-3,1,4,6,7,8,9-9-1v4l15.99,5h-10l13.99,11-10.99-4-1,2,11.99,13-9.99-6,4,6,1,3,12.99,14-9.99-4-1,5,1,4,22.99,4h-9.99l13.99,6-8-1,11.99,11-8-1,1,4h18.99l-5,1,5.92,3-215.81,19-213.89,5Z"/></g><path class="cls-12" d="M1914.57,318.99s93.67,88.27,102.05,83.14c3.15-1.93-5.88,31.28-13.62,40.87,0,0-9.13-10-10-10-.53,0-7,20-7,20,0,0-7.02-25.26-9.1-23.38-2.34,2.1-7.9,27.38-7.9,27.38l-8-11s-12.97,14.99-18,16-23,35-24,35-4.43-178.01-4.43-178.01Z"/><polygon class="cls-13" points="1922.44 662.93 1902 671 1925 676 1935 675 1922.44 662.93"/><polygon class="cls-6" points="1922 663 1918 665 1919 518 1919 518 1919 497 1921 494 1922 663"/></svg>