<?xml version="1.0" encoding="UTF-8"?><svg id="Layer_1" xmlns="http://www.w3.org/2000/svg" viewBox="0 0 72 72"><defs><style>.cls-1{fill:#947439;}.cls-2{fill:#c69c6d;}.cls-3{fill:#a67c52;}.cls-4{fill:#8c6239;}.cls-5{fill:#754c24;}</style></defs><rect class="cls-1" x=".5" y=".5" width="71" height="71"/><path d="M71,1v70H1V1h70M72,0H0v72h72V0h0Z"/><polygon class="cls-2" points="21 51 21 20.68 .32 0 0 0 0 72 21 51"/><polygon class="cls-5" points="50.89 51 20.97 51 0 71.68 0 72 72 72 72 71.82 50.89 51"/><polygon class="cls-4" points="51 21.11 51 51.03 71.68 72 72 72 72 0 71.82 0 51 21.11"/><polygon class="cls-3" points="21.11 21 51.03 21 72 .32 72 0 0 0 0 .18 21.11 21"/></svg>