<?xml version="1.0" encoding="UTF-8"?><svg id="Layer_1" xmlns="http://www.w3.org/2000/svg" viewBox="0 0 1011.61 402.21"><defs><style>.cls-1{fill:#d87500;stroke:#1a6d20;stroke-miterlimit:10;stroke-width:10px;}</style></defs><path class="cls-1" d="M85.44,5c47.96,0,82.62,34.01,82.62,79.79s-34.44,80.88-80.22,80.88S5,132.1,5,86.1,40.1,5,85.44,5ZM124.25,82.39c0-22.67-12.64-43.82-37.06-43.82s-38.37,24.63-38.37,49.92,14.39,43.6,36.84,43.6c26.6,0,38.59-25.94,38.59-49.7Z"/><path class="cls-1" d="M232.81,65.6c33.35-3.49,59.51,15.04,63,47.09,3.49,31.83-18.31,55.59-51.88,59.08-33.35,3.71-59.51-15.04-63-46.87-3.49-32.05,18.31-55.81,51.88-59.3ZM256.57,116.83c-1.74-15.48-9.16-25.07-20.93-23.98-11.77,1.31-17.22,12.43-15.48,27.9,1.53,15.26,9.16,25.07,20.93,23.76s17.22-12.43,15.48-27.69Z"/><path class="cls-1" d="M359.25,65.6c33.35-3.49,59.51,15.04,63,47.09,3.49,31.83-18.31,55.59-51.88,59.08-33.35,3.71-59.51-15.04-63-46.87-3.49-32.05,18.31-55.81,51.88-59.3ZM383.01,116.83c-1.74-15.48-9.16-25.07-20.93-23.98-11.77,1.31-17.22,12.43-15.48,27.9,1.53,15.26,9.16,25.07,20.93,23.76s17.22-12.43,15.48-27.69Z"/><path class="cls-1" d="M491.13,72.14c33.57,0,57.77,21.36,57.77,53.41s-24.2,53.41-57.77,53.41-57.77-21.36-57.77-53.41,24.2-53.41,57.77-53.41ZM509.45,125.56c0-15.48-6.54-25.94-18.31-25.94s-18.31,10.46-18.31,25.94,6.54,25.94,18.31,25.94,18.31-10.46,18.31-25.94Z"/><path class="cls-1" d="M626.29,177.66l2.83-61.26c.22-5.23-.87-7.85-2.18-10.03-2.4-3.05-5.89-4.8-10.25-5.01-4.8-.22-9.37,1.96-11.77,5.23-1.53,1.96-2.18,4.8-2.4,9.59l-2.83,60.39-37.71-1.74,7.19-156.09,37.71,1.53-2.83,62.13.22.22c7.63-5.89,19.18-9.37,30.3-8.94,8.94.44,17.66,3.49,23.98,9.59,5.67,5.89,8.94,13.95,8.28,27.69l-3.05,68.45-37.5-1.74Z"/><path class="cls-1" d="M748.59,177.66l2.83-61.26c.22-5.23-.87-7.85-2.18-10.03-2.4-3.05-5.89-4.8-10.25-5.01-4.8-.22-9.37,1.96-11.77,5.23-1.53,1.96-2.18,4.8-2.4,9.59l-2.83,60.39-37.71-1.74,7.19-156.09,37.71,1.53-2.83,62.13.22.22c7.63-5.89,19.18-9.37,30.3-8.94,8.94.44,17.66,3.49,23.98,9.59,5.67,5.89,8.94,13.95,8.28,27.69l-3.05,68.45-37.5-1.74Z"/><path class="cls-1" d="M831.86,128.39c12.86,0,23.33,10.46,23.33,23.33s-10.46,23.33-23.33,23.33-23.33-10.46-23.33-23.33,10.46-23.33,23.33-23.33ZM849.3,119.23l-32.26-1.53-1.74-103.11,45.56,1.96-11.55,102.68Z"/><path class="cls-1" d="M927.78,112.26l-32.05,3.71-18.09-101.59,45.34-5.23,4.8,103.12ZM915.79,124.03c12.86,0,23.11,10.25,23.11,23.11s-10.25,23.11-23.11,23.11-23.11-10.25-23.11-23.11,10.25-23.11,23.11-23.11Z"/><path class="cls-1" d="M977.04,128.39c12.86,0,23.33,10.46,23.33,23.33s-10.46,23.33-23.33,23.33-23.33-10.46-23.33-23.33,10.46-23.33,23.33-23.33ZM994.48,119.23l-32.26-1.53-1.74-103.11,45.56,1.96-11.55,102.68Z"/><path class="cls-1" d="M301.8,357.44c-27.47,0-53.85-14.17-73.03-35.75l24.85-23.98c10.9,11.77,27.69,26.38,45.56,26.38,6.76,0,13.95-2.62,13.95-10.68,0-4.36-2.83-9.16-9.81-13.08-4.58-2.83-9.16-5.23-14.39-8.07l-9.59-5.45c-18.31-10.46-31.61-21.15-31.61-42.51,0-28.12,21.8-49.27,54.28-49.27,23.11,0,46.22,10.03,62.79,29.43l-24.85,24.85c-9.59-10.03-23.76-22.02-39.02-22.02-6.32,0-13.95,3.71-13.95,11.12,0,3.71,2.62,8.72,9.37,12.64,5.45,3.27,10.9,6.1,17,9.59l10.68,5.89c17.66,9.81,32.05,21.8,32.05,41.64,0,28.56-22.89,49.27-54.28,49.27Z"/><path class="cls-1" d="M421.48,245.6c33.35-3.49,59.51,15.04,63,47.09,3.49,31.83-18.31,55.59-51.88,59.08-33.35,3.71-59.51-15.04-63-46.87-3.49-32.05,18.31-55.81,51.88-59.3ZM445.24,296.84c-1.74-15.48-9.16-25.07-20.93-23.98-11.77,1.31-17.22,12.43-15.48,27.9,1.53,15.26,9.16,25.07,20.93,23.76,11.77-1.31,17.22-12.43,15.48-27.69Z"/><path class="cls-1" d="M570.37,284.41c-3.49-1.09-8.07-2.4-13.95-2.4-7.63,0-12.64,3.05-15.26,7.41-1.96,3.49-2.83,7.41-2.83,12.43,0,.87,0,1.74.22,8.07l1.31,43.16-37.71,1.09-3.27-101.37,35.1-1.31,1.31,11.99h.22c7.63-9.81,17-15.48,27.9-15.48,4.14,0,8.28.87,12.86,2.4l-5.89,34.01Z"/><path class="cls-1" d="M660.62,287.68c-5.45-2.4-10.9-3.71-14.82-4.14-3.27-.22-6.1.22-8.94,1.31-2.18.87-4.58,2.4-6.1,4.58-2.83,3.49-3.92,8.07-4.36,14.61l-3.71,48.4-37.71-3.05,8.07-101.37,34.88,2.83-.22,11.99h.22c10.03-10.25,20.71-12.86,28.99-12.21,5.23.22,9.81,2.18,13.3,3.71l-9.59,33.35Z"/><path class="cls-1" d="M710.98,249.53l17.22,53.63h.22l22.67-52.54,34.88.87-66.05,145.63-36.84-1.09,23.54-49.49-35.97-98.32,40.33,1.31Z"/></svg>