<?xml version="1.0" encoding="UTF-8"?><svg id="Layer_1" xmlns="http://www.w3.org/2000/svg" viewBox="0 0 184.8 183.03"><defs><style>.cls-1{fill:blue;}</style></defs><path class="cls-1" d="M109.58,107.43c7.41,2.8,9.71,8.74,11.25,15.33.68,2.91,1.47,5.8,2.45,8.62.52,1.52,1.24,3.37,3.24,3.37,2.34,0,2.52-2.23,3.33-3.81.88-1.7-.74-5.61,2.37-4.91,2.88.65.87,4.06.43,6.03-1.35,6.13-4.91,8.99-10.27,8.9-5.46-.1-8.35-2.84-9.59-9.48-.79-4.25-1.13-8.58-1.92-12.82-1.37-7.33-8.59-11.75-15.81-9.97-1.81.45-2.41,1.48-2.4,3.19.03,6.99.06,13.97.02,20.96-.02,2.73,1.29,3.96,3.93,3.99,1.5.01,2.99.04,4.49.06,1.17.01,1.88.47,1.81,1.77-.06,1.1-.82,1.37-1.69,1.38-8.81.02-17.63.02-26.44,0-.87,0-1.66-.22-1.73-1.31-.07-1.24.59-1.69,1.76-1.86,2.79-.41,6.61,1.44,7.97-2.21.93-2.5.38-5.58.41-8.4.04-3.99-.08-7.99.04-11.98.06-2.07-.59-2.87-2.75-3.1-13.97-1.49-22.34-9.96-25.96-22.81-3.9-13.83-1.8-26.9,9.11-37.24,7.89-7.48,17.49-9.5,27.79-6.1,11.62,3.84,18.33,12.41,20.51,24.23.8,4.36,1.74,7.27,6.47,9.07,5.98,2.28,8.5,7.68,8.16,14.12-.35,6.56-3.98,10.76-9.99,12.96-2.27.83-4.66,1.34-6.99,2ZM87.93,75.66c3.9-1.5,10.7,3.11,13.19-1.98,1.98-4.04-.28-10.05-2.2-14.92-3.01-7.64-8.85-11.92-16.17-11.85-7.31.07-13.52,4.39-16.01,12.03-4.02,12.35-3.91,24.91-.02,37.26,1.98,6.26,6.57,10.25,13.21,11.56,2.27.45,3.36-.16,3.3-2.74-.13-5.81-.05-11.63-.04-17.45q0-7.78-7.81-8.74c-1.2-.14-2.48-.05-2.37-1.75.11-1.74,1.55-1.41,2.63-1.43,3.82-.04,7.64-.02,12.27-.02ZM92.7,103.5c6.9-5.63,8.27-13.01,8.82-20.7.12-1.69.92-4.02-2.17-3.85-2.63.14-6.37-.9-6.56,3.3-.32,7.07-.09,14.16-.09,21.24ZM113.1,82.55c-1.68,8.06-4.8,15.08-10.65,20.72-.41.39-1.42.53-.95,1.34.39.68,1.1,1.42,2.04,1.04,4.35-1.73,9.83-1.88,11.71-7.31,1.91-5.5,1.88-10.93-2.15-15.8Z"/><path class="cls-1" d="M137.9,164.96c3.17-6.55,1.69-10.99-5.09-14.12,7.03.84,11.25-1.33,11.92-9.05,1.77,6.62,4.84,10.47,12.45,8.32-5.41,3.74-8.73,7.79-4.27,14.64-5.26-4.63-9.92-5.51-15.01.21Z"/><path class="cls-1" d="M40.33,141.72c1.25,7.02,4.42,10.59,12.16,8.94-6.89,3.18-7.88,7.82-5.28,14.23-5-5.39-9.53-5.03-14.54-.08,2.55-6.13,2.98-11.19-4.86-14.21,7.33.95,11.51-1.43,12.51-8.88Z"/><path class="cls-1" d="M178.64,119.53c-6.93,3.37-7.85,7.99-4.69,14.38-5.05-4.77-9.68-5.96-14.89-.12,2.68-6.23,2.4-11.15-4.69-14.42,7.47,1.3,11.13-1.57,12.16-8.67,1.55,6.37,4.08,10.81,12.11,8.83Z"/><path class="cls-1" d="M86.33,168.42c-6.29,3.59-7.9,8-3.99,14.43-5.37-4.86-10.01-5.67-15.08.17,2.39-6.3,2.35-11.33-5.09-14.22,7.07.83,11.16-1.55,12.03-9.03,1.52,6.75,4.79,10.11,12.13,8.64Z"/><path class="cls-1" d="M30.78,119.41c-6.83,3.4-7.43,8.1-4.44,14.33-5.22-5.33-9.87-5.14-14.94.25,2.98-6.42,2.26-11.2-4.9-14.26,7.3.97,11.15-1.75,12.06-9.02,1.33,6.82,4.76,10.04,12.22,8.7Z"/><path class="cls-1" d="M84.01,23.17c3.22-6.4,2.17-10.99-4.56-14.28,7.58,1.45,10.79-2.15,12.08-8.89,1.05,7.12,4.66,10.13,12.05,8.93-6.94,3.24-7.81,7.88-4.57,14.28-5.14-5.3-9.81-5.55-15.01-.04Z"/><path class="cls-1" d="M118.74,19.22c7.31,1.16,10.81-1.9,11.95-8.9,1.37,6.52,4.12,10.65,11.97,8.87-5.66,3.63-9.08,7.58-4.42,14.51-5.31-4.92-9.94-6.07-15.19-.23,2.59-6.13,2.77-11.04-4.32-14.25Z"/><path class="cls-1" d="M13.9,42.52c7.74,2.03,11.23-.85,12.34-7.98,1.35,7.14,4.96,10.08,12.22,8.5-5.85,3.55-8.4,7.67-4.25,14.32-5.28-4.73-10.06-5.09-14.89.83q1.08-8.77-5.43-15.68Z"/><path class="cls-1" d="M165.47,57.64c-4.54-5.09-9.1-5.44-14.1-.03,2.73-6.19,2.56-11.01-4.56-14.18,6.88.67,11.22-1.29,11.99-8.89,1.46,6.65,4.47,10.45,12.18,8.06-1.92,3.65-5.54,4.05-6.5,6.56-.94,2.45,1.9,4.83.99,8.49Z"/><path class="cls-1" d="M120.84,182.08q-7.24-4.12-15.8.3c3.5-6.26,2.92-10.98-4.15-14.11,7.06.81,11.14-1.45,11.92-8.95,1.54,6.7,4.68,10.33,12.21,8.49-5.68,3.71-8.75,7.79-4.17,14.27Z"/><path class="cls-1" d="M47.97,33.64q.92-7.99-5.48-14.81c7.29,1.68,11.04-1.1,11.91-8.32,1.73,6.33,4.34,10.65,12.3,8.29-6.27,3.76-8,8.11-4.2,14.55-5.24-4.62-9.92-5.61-14.53.3Z"/><path class="cls-1" d="M24.45,80.94c-6.84,3.3-7.56,7.95-4.35,14.27-5.27-4.77-9.97-5.58-14.97.61,2.76-6.61,2.28-11.38-5.13-14.33,7.45.84,11.3-1.73,11.93-9.28,1.39,7.17,5.18,10.18,12.52,8.73Z"/><path class="cls-1" d="M173.17,72.38c1.02,6.99,4.29,10.09,11.64,8.74-4.45,3.77-9.64,6.98-4.26,14.17-5.51-4.78-10.26-5.22-15.41-.04,3.54-6.45,2.22-10.91-4.25-14.35,7.11,1.26,11.16-1.09,12.28-8.52Z"/></svg>