<?xml version="1.0" encoding="UTF-8"?><svg id="Layer_1" xmlns="http://www.w3.org/2000/svg" xmlns:xlink="http://www.w3.org/1999/xlink" viewBox="0 0 75 73.5"><defs><style>.cls-1{fill:url(#linear-gradient-2);}.cls-2,.cls-3,.cls-4{fill:#4d4d4d;}.cls-3{stroke-width:3px;}.cls-3,.cls-4{stroke:#000;stroke-miterlimit:10;}.cls-5{fill:url(#linear-gradient-4);}.cls-6{fill:url(#linear-gradient-3);}.cls-7{fill:url(#linear-gradient-5);}.cls-4{stroke-width:2px;}.cls-8{fill:url(#linear-gradient);}</style><linearGradient id="linear-gradient" x1="21.5" y1="30.42" x2="44.5" y2="30.42" gradientUnits="userSpaceOnUse"><stop offset="0" stop-color="#998675"/><stop offset=".6" stop-color="#000"/><stop offset="1" stop-color="#998675"/></linearGradient><linearGradient id="linear-gradient-2" x1="51.19" y1="32.45" x2="65.39" y2="32.45" xlink:href="#linear-gradient"/><linearGradient id="linear-gradient-3" x1="60.5" y1="23.83" x2="73.5" y2="23.83" xlink:href="#linear-gradient"/><linearGradient id="linear-gradient-4" x1="40.04" y1="36" x2="55.5" y2="36" xlink:href="#linear-gradient"/><linearGradient id="linear-gradient-5" x1="2.51" y1="25.86" x2="28.5" y2="25.86" xlink:href="#linear-gradient"/></defs><rect class="cls-2" x="11.64" y="55.77" width="46.65" height="8.11"/><polygon class="cls-8" points="33 13.18 21.5 47.66 44.5 47.66 33 13.18"/><polygon class="cls-1" points="58.29 17.24 51.19 47.66 65.39 47.66 58.29 17.24"/><polygon class="cls-6" points="67 0 60.5 47.66 73.5 47.66 67 0"/><polygon class="cls-5" points="47.77 24.34 40.04 47.66 55.5 47.66 47.77 24.34"/><polygon class="cls-7" points="15.51 4.06 2.51 47.66 28.5 47.66 15.51 4.06"/><rect class="cls-3" x="1.5" y="63.89" width="72" height="8.11"/><rect class="cls-4" x="1.5" y="47.66" width="72" height="8.11"/></svg>