<?xml version="1.0" encoding="UTF-8"?><svg xmlns="http://www.w3.org/2000/svg" viewBox="0 0 438 169"><defs><style>.cls-1{fill:#0071bc;}.cls-2{fill:#f2f2f2;}.cls-3{fill:#e6e6e6;}</style></defs><g id="shadow"><ellipse class="cls-3" cx="217" cy="138.5" rx="190" ry="30.5"/></g><g id="back-legs"><rect class="cls-1" x="315.87" y="99.87" width="15.27" height="26.27"/><path d="M330.27,100.73v24.53h-13.53v-24.53h13.53M332,99h-17v28h17v-28h0Z"/><rect class="cls-1" x="112.94" y="94.94" width="18.12" height="26.12"/><path d="M130.12,95.88v24.24h-16.24v-24.24h16.24M132,94h-20v28h20v-28h0Z"/></g><g id="frame"><rect class="cls-1" x="357.24" y="97.24" width="16.53" height="48.52"/><path d="M372.52,98.48v46.05h-14.05v-46.05h14.05M375,96h-19v51h19v-51h0Z"/><rect class="cls-1" x="61.3" y="89.3" width="18.4" height="48.4"/><path d="M78.4,90.6v45.8h-15.8v-45.8h15.8M81,88h-21v51h21v-51h0Z"/><path class="cls-1" d="M219,113.5c-56.38,0-109.93-4.44-150.77-12.49C27.71,93.02,3.77,82.33.81,70.92l-.1-.38h-.21v-26.26h.08l.07-.42c1.99-11.57,25.52-22.44,66.24-30.61C107.9,5.03,161.92.5,219,.5s111.1,4.53,152.11,12.76c40.72,8.17,64.25,19.04,66.24,30.61l.07.42h.08v26.26h-.21l-.1.38c-2.96,11.41-26.9,22.1-67.42,30.09-40.84,8.06-94.38,12.49-150.77,12.49Z"/><path d="M219,1c57.04,0,111.03,4.53,152.01,12.75,39.92,8.01,63.92,19.02,65.85,30.2l.14.83h0v25.26h-.1l-.19.75c-2.86,11.05-27.3,21.89-67.03,29.72-40.81,8.05-94.32,12.48-150.67,12.48s-109.86-4.43-150.67-12.48C28.59,92.68,4.16,81.84,1.3,70.79l-.19-.75h-.1v-25.26h0l.14-.83c1.93-11.19,25.93-22.19,65.85-30.2C107.97,5.53,161.96,1,219,1M219,0C100.72,0,4.35,19.46.16,43.78h-.16v27.26h.33c6.2,23.94,101.73,42.96,218.67,42.96s212.47-19.02,218.67-42.96h.33v-27.26h-.16C433.65,19.46,337.28,0,219,0h0Z"/></g><g id="top"><ellipse class="cls-2" cx="217.5" cy="51.5" rx="196.5" ry="36.5"/></g></svg>