<?xml version="1.0" encoding="UTF-8"?><svg id="Layer_1" xmlns="http://www.w3.org/2000/svg" viewBox="0 0 1083.82 179.82"><defs><style>.cls-1{fill:#d87500;stroke:#1a6d20;stroke-miterlimit:10;stroke-width:10px;}</style></defs><path class="cls-1" d="M163.32,17.87l-62.57,91.12-3.49,62.13-40.77-2.18,3.49-61.91L8.53,9.8l47.31,2.4,28.12,57.33L117.54,15.47l45.78,2.4Z"/><path class="cls-1" d="M194.27,56.24c33.35-3.49,59.51,15.04,63,47.09,3.49,31.83-18.31,55.59-51.88,59.08-33.35,3.71-59.52-15.04-63-46.87-3.49-32.05,18.31-55.81,51.88-59.3ZM218.03,107.47c-1.74-15.48-9.16-25.07-20.93-23.98-11.77,1.31-17.22,12.43-15.48,27.9,1.53,15.26,9.16,25.07,20.93,23.76,11.77-1.31,17.22-12.43,15.48-27.69Z"/><path class="cls-1" d="M276.45,56.24l37.71,2.62-3.92,52.32c-.44,4.8-.65,9.37-.65,11.34,0,7.19,6.1,12.43,13.3,12.43,8.28,0,12.64-6.54,13.08-12.86l4.36-61.26,37.71,2.83-4.36,57.55c-1.31,16.79-8.94,28.56-19.84,35.32-8.07,5.01-18.09,7.63-28.12,7.63-15.26,0-30.74-3.71-41.2-13.08-8.28-7.63-12.64-18.09-12.64-32.26,0-1.53,0-3.05.22-4.8l4.36-57.77Z"/><path class="cls-1" d="M568.79,161.97c-10.46,5.23-22.89,8.28-37.5,8.28-2.4,0-5.01,0-7.63-.22l-61.26-4.36,11.34-156.09,59.51,4.36c19.84,1.53,35.1,7.19,46.43,14.82,22.02,14.82,30.74,39.46,30.74,62.78,0,2.18,0,4.36-.22,6.54-1.96,26.38-16.35,51.45-41.42,63.88ZM567.48,88.72c0-15.91-4.58-26.81-11.77-33.57-6.76-6.76-15.48-9.81-24.85-10.46l-18.97-1.53-6.98,94.61,19.18,1.53c1.09,0,2.18.22,3.27.22,8.28,0,16.13-2.4,22.89-7.41,8.94-6.98,15.7-19.18,17-37.28.22-2.18.22-4.14.22-6.1Z"/><path class="cls-1" d="M641.82,12.2c11.55.22,20.71,9.59,20.71,21.15s-9.37,20.49-20.93,20.49-20.71-8.94-20.71-20.71,9.37-20.93,20.93-20.93ZM630.7,168.29l-5.67-101.59,37.71-1.96,5.67,101.37-37.71,2.18Z"/><path class="cls-1" d="M730.1,55.36c10.03.65,19.84,5.01,27.47,12.86l.44-.22,5.01-62.35,37.5,3.05-12.43,155.87-35.1-2.83v-8.94l-.44-.22c-8.94,7.19-19.62,10.03-30.08,9.16-24.2-1.96-44.47-21.36-41.64-56.9,2.83-35.53,25.94-51.45,49.27-49.49ZM755.39,110.95c1.31-15.48-4.36-26.38-16.13-27.47-11.77-.87-19.18,8.94-20.27,24.42-1.31,15.48,4.36,26.38,16.13,27.47,11.77.87,18.97-8.94,20.27-24.42Z"/><path class="cls-1" d="M880.3,172.87l6.98-156.31,40.33,1.96-6.98,156.09-40.33-1.74Z"/><path class="cls-1" d="M1009.58,95.04l-19.84-1.96-6.98,72.6-37.71-3.49,6.76-72.59-14.39-1.31,2.83-28.56,14.17,1.31,3.27-32.7,37.71,3.49-3.05,32.7,19.84,1.96-2.62,28.56Z"/><path class="cls-1" d="M1049.25,119.02c12.86,0,23.33,10.46,23.33,23.33s-10.46,23.33-23.33,23.33-23.33-10.46-23.33-23.33,10.46-23.33,23.33-23.33ZM1066.69,109.86l-32.26-1.53-1.74-103.11,45.56,1.96-11.55,102.68Z"/></svg>